<svg viewBox="0 0 146 307" fill="none" xmlns="http://www.w3.org/2000/svg"><g clip-path="url(#clip0)"><path fill-rule="evenodd" clip-rule="evenodd" d="M58.1715 31.9721H87.3413C100.828 31.9721 112.321 41.748 114.465 55.0446L140.995 219.527C143.573 235.509 132.689 250.551 116.685 253.125C115.142 253.373 113.581 253.498 112.018 253.498H33.495C17.2852 253.498 4.14453 240.375 4.14453 224.188C4.14453 222.627 4.26942 221.069 4.51799 219.527L31.0477 55.0446C33.1923 41.748 44.6848 31.9721 58.1715 31.9721Z" fill="#A56644"/><path fill-rule="evenodd" clip-rule="evenodd" d="M82.0145 43.6732C86.4581 43.6732 90.0603 47.2704 90.0603 51.7078V56.595C90.0603 61.0323 86.4581 64.6295 82.0145 64.6295C77.571 64.6295 73.9688 61.0323 73.9688 56.595V51.7078C73.9688 47.2704 77.571 43.6732 82.0145 43.6732Z" fill="white"/><path fill-rule="evenodd" clip-rule="evenodd" d="M80.6707 48.328C82.6656 48.328 84.2828 49.943 84.2828 51.9351V56.4657C84.2828 58.4578 82.6656 60.0727 80.6707 60.0727C78.6758 60.0727 77.0586 58.4578 77.0586 56.4657V51.9351C77.0586 49.943 78.6758 48.328 80.6707 48.328Z" fill="#3D3D3D"/><path fill-rule="evenodd" clip-rule="evenodd" d="M76.6744 52.3638C75.0722 52.3638 73.7734 51.0668 73.7734 49.4669C73.7734 47.867 75.0722 46.57 76.6744 46.57C78.2765 46.57 79.5753 47.867 79.5753 49.4669C79.5753 51.0668 78.2765 52.3638 76.6744 52.3638Z" fill="white"/><path fill-rule="evenodd" clip-rule="evenodd" d="M62.538 43.6732C66.9815 43.6732 70.5837 47.2704 70.5837 51.7078V56.595C70.5837 61.0323 66.9815 64.6295 62.538 64.6295C58.0944 64.6295 54.4922 61.0323 54.4922 56.595V51.7078C54.4922 47.2704 58.0944 43.6732 62.538 43.6732Z" fill="white"/><path fill-rule="evenodd" clip-rule="evenodd" d="M64.8074 48.328C66.8024 48.328 68.4196 49.943 68.4196 51.9351V56.4657C68.4196 58.4578 66.8024 60.0727 64.8074 60.0727C62.8125 60.0727 61.1953 58.4578 61.1953 56.4657V51.9351C61.1953 49.943 62.8125 48.328 64.8074 48.328Z" fill="#3D3D3D"/><path fill-rule="evenodd" clip-rule="evenodd" d="M61.3189 52.0231C59.7168 52.0231 58.418 50.7261 58.418 49.1262C58.418 47.5263 59.7168 46.2294 61.3189 46.2294C62.921 46.2294 64.2198 47.5263 64.2198 49.1262C64.2198 50.7261 62.921 52.0231 61.3189 52.0231Z" fill="white"/><path fill-rule="evenodd" clip-rule="evenodd" d="M71.9648 37.244H95.4491V50.8212H71.9648V37.244Z" fill="#A56644"/><path fill-rule="evenodd" clip-rule="evenodd" d="M85.049 60.7014C97.3364 60.7014 107.297 70.6483 107.297 82.9186C107.297 95.1888 97.3364 105.136 85.049 105.136C72.7617 105.136 62.8008 95.1888 62.8008 82.9186C62.8008 70.6483 72.7617 60.7014 85.049 60.7014Z" fill="#A56644"/><path fill-rule="evenodd" clip-rule="evenodd" d="M72.923 65.485C79.7085 65.485 85.2092 70.9781 85.2092 77.7542V105.7C85.2092 112.477 79.7085 117.97 72.923 117.97C66.1375 117.97 60.6367 112.477 60.6367 105.7V77.7542C60.6367 70.9781 66.1375 65.485 72.923 65.485Z" fill="#E5A259"/><path fill-rule="evenodd" clip-rule="evenodd" d="M71.2151 65.485H73.9454C76.0187 65.485 77.6995 67.1635 77.6995 69.2339C77.6995 71.3044 76.0187 72.9828 73.9454 72.9828H71.2151C69.1417 72.9828 67.4609 71.3044 67.4609 69.2339C67.4609 67.1635 69.1417 65.485 71.2151 65.485Z" fill="#3D3D3D"/><path fill-rule="evenodd" clip-rule="evenodd" d="M74.7148 264.318C74.7148 261.061 77.3594 258.42 80.6216 258.42H99.3531C102.615 258.42 105.26 261.061 105.26 264.318C105.26 267.576 102.615 270.217 99.3531 270.217H80.6216C77.3594 270.217 74.7148 267.576 74.7148 264.318Z" fill="#A56644"/><path fill-rule="evenodd" clip-rule="evenodd" d="M41.3789 264.318C41.3789 261.061 44.0235 258.42 47.2857 258.42H66.0171C69.2794 258.42 71.9239 261.061 71.9239 264.318C71.9239 267.576 69.2794 270.217 66.0171 270.217H47.2857C44.0235 270.217 41.3789 267.576 41.3789 264.318Z" fill="#A56644"/><path d="M68.2175 157.463C62.5503 163.123 61.1837 171.7 64.641 178.782C65.2859 180.103 67.0418 180.397 68.0825 179.358L90.1426 157.329C91.1833 156.289 90.8892 154.536 89.5662 153.892C82.4736 150.439 73.8846 151.804 68.2175 157.463Z" fill="#BB7149"/><path d="M54.177 153.892C52.854 154.536 52.56 156.289 53.6007 157.329L75.6607 179.358C76.7014 180.397 78.4574 180.103 79.1023 178.782C82.5595 171.7 81.193 163.123 75.5258 157.463C69.8586 151.804 61.2697 150.439 54.177 153.892Z" fill="#BB7149"/><path d="M78.312 163.161C73.8088 164.366 70.5702 168.182 70.1803 172.636C70.0508 174.116 71.4331 175.274 72.8697 174.89L88.8978 170.601C90.3344 170.217 90.9516 168.523 90.0986 167.307C87.531 163.644 82.8153 161.956 78.312 163.161Z" fill="#BB7149"/><path d="M54.0373 167.307C53.1843 168.523 53.8015 170.217 55.2381 170.601L71.2662 174.89C72.7028 175.274 74.0851 174.116 73.9556 172.636C73.5657 168.182 70.3272 164.366 65.8239 163.161C61.3206 161.956 56.6049 163.644 54.0373 167.307Z" fill="#BB7149"/><path fill-rule="evenodd" clip-rule="evenodd" d="M16.497 128.762H127.402C129.019 128.762 130.397 129.932 130.656 131.525L134.248 153.569C134.54 155.364 133.32 157.055 131.523 157.347C131.348 157.375 131.171 157.39 130.994 157.39H13.1171C11.2963 157.39 9.82031 155.916 9.82031 154.098C9.82031 153.931 9.83301 153.764 9.85829 153.599L13.2382 131.556C13.4846 129.949 14.8689 128.762 16.497 128.762Z" fill="#2FE3FF"/><path fill-rule="evenodd" clip-rule="evenodd" d="M41.3363 124.672H57.4393C60.1704 124.672 62.3845 126.883 62.3845 129.61C62.3845 129.861 62.3653 130.112 62.3271 130.36L53.7799 185.919C53.4092 188.328 51.3332 190.107 48.892 190.107H32.789C30.0578 190.107 27.8438 187.896 27.8438 185.169C27.8438 184.918 27.8629 184.667 27.9011 184.419L36.4484 128.861C36.8191 126.451 38.895 124.672 41.3363 124.672Z" fill="#2FE3FF"/><path fill-rule="evenodd" clip-rule="evenodd" d="M38.5831 17.8444C41.6856 16.8377 45.018 18.5332 46.0261 21.6315L46.7902 23.9798C47.7982 27.078 46.1003 30.4057 42.9978 31.4124C39.8952 32.4191 36.5629 30.7235 35.5548 27.6253L34.7907 25.277C33.7826 22.1787 35.4805 18.851 38.5831 17.8444Z" fill="#A56644"/><path fill-rule="evenodd" clip-rule="evenodd" d="M123.67 32.2787C125.252 35.1279 124.221 38.718 121.368 40.2973L119.205 41.4944C116.352 43.0737 112.757 42.0443 111.175 39.1951C109.594 36.3459 110.625 32.7558 113.478 31.1764L115.64 29.9793C118.494 28.4 122.089 29.4294 123.67 32.2787Z" fill="#A56644"/><rect opacity="0.3" x="26.6562" y="270.037" width="92.9362" height="8.18295" rx="4.09148" fill="#AFAFAF"/></g><defs><clipPath id="clip0"><rect width="145.7" height="306.162" fill="white" transform="translate(0.273438)"/></clipPath></defs></svg>