<?xml version="1.0" standalone="no"?>
<!DOCTYPE svg PUBLIC "-//W3C//DTD SVG 20010904//EN"
 "http://www.w3.org/TR/2001/REC-SVG-20010904/DTD/svg10.dtd">
<svg version="1.0" xmlns="http://www.w3.org/2000/svg"
 width="735.000000pt" height="935.000000pt" viewBox="0 0 735.000000 935.000000"
 preserveAspectRatio="xMidYMid meet">

<g transform="translate(0.000000,935.000000) scale(0.100000,-0.100000)"
fill="#000000" stroke="none">
<path d="M2250 7263 c-116 -12 -194 -47 -257 -118 -42 -46 -91 -135 -108 -195
-3 -14 -13 -40 -22 -58 -26 -60 -22 -461 6 -496 5 -6 11 -29 15 -51 9 -53 46
-156 62 -174 11 -12 3 -25 -47 -79 -32 -36 -59 -71 -59 -79 0 -8 -9 -26 -20
-40 -11 -14 -20 -33 -20 -42 0 -9 -6 -25 -14 -36 -19 -27 -27 -97 -27 -230 0
-93 4 -123 24 -181 24 -69 59 -140 90 -184 18 -26 13 -44 -10 -36 -33 13 -143
-60 -143 -95 0 -9 -6 -22 -14 -28 -8 -7 -17 -27 -20 -45 -10 -54 -27 -61 -82
-37 -58 26 -75 26 -108 0 -31 -24 -32 -40 -8 -81 17 -30 17 -30 -13 -56 -17
-15 -38 -38 -47 -52 -18 -30 -13 -90 8 -90 17 0 18 -12 3 -27 -8 -8 -6 -20 7
-44 22 -43 42 -58 77 -59 20 0 38 -11 59 -35 17 -19 56 -46 87 -60 31 -15 64
-31 75 -36 29 -16 119 -20 128 -6 13 20 9 64 -8 78 -8 7 -22 25 -29 39 l-14
27 82 23 c77 22 129 40 220 78 21 9 45 25 53 36 10 15 14 17 14 5 0 -18 48
-56 83 -64 39 -10 40 -31 4 -48 -41 -19 -115 -28 -123 -15 -7 11 -44 -25 -44
-42 0 -7 -6 -10 -12 -7 -7 2 -22 -3 -32 -12 -18 -15 -19 -15 -12 12 6 26 5 27
-34 27 -29 0 -40 -4 -40 -15 0 -8 -7 -15 -15 -15 -11 0 -15 -11 -15 -36 0 -19
-7 -42 -15 -50 -8 -9 -15 -26 -16 -40 -1 -13 -1 -35 -2 -48 -1 -34 32 -92 60
-105 13 -6 23 -18 23 -27 0 -12 6 -14 29 -9 21 4 30 2 34 -9 10 -24 27 -19 27
8 0 40 -10 58 -26 45 -14 -11 -34 -5 -34 12 0 5 7 9 15 9 19 0 19 14 1 29 -8
7 -17 24 -21 38 -7 31 6 43 52 43 17 0 34 6 36 13 4 9 8 9 14 1 4 -7 19 -14
33 -15 27 -4 40 -40 22 -62 -6 -7 -13 -30 -18 -51 -4 -22 -13 -51 -20 -65 -8
-14 -14 -40 -14 -58 0 -17 -4 -34 -9 -37 -5 -4 -3 -20 6 -37 17 -33 18 -22
-28 -249 -27 -135 -47 -274 -48 -327 -1 -23 -6 -45 -12 -48 -6 -4 -9 -26 -8
-49 1 -22 -1 -61 -4 -86 -21 -156 -12 -549 13 -574 5 -5 10 -23 10 -38 0 -54
94 -307 120 -323 6 -3 10 -13 10 -22 0 -9 20 -41 45 -72 24 -31 54 -69 66 -84
12 -16 36 -38 54 -50 17 -12 56 -40 85 -61 52 -40 92 -64 140 -86 14 -7 32
-16 40 -21 8 -5 26 -14 40 -19 14 -6 36 -16 50 -24 14 -7 50 -19 80 -26 30 -7
60 -17 66 -22 7 -5 52 -13 100 -19 49 -6 97 -15 106 -20 23 -12 275 -12 282 0
8 12 104 23 227 25 61 1 112 6 120 13 8 6 30 14 49 18 19 4 53 15 75 25 22 10
69 30 105 44 110 45 172 85 289 186 47 42 99 87 115 100 56 48 86 84 111 134
66 132 80 151 116 154 19 2 38 8 43 13 6 5 19 9 31 9 12 0 25 4 31 8 5 5 25
15 44 22 19 7 57 30 85 49 27 20 53 36 58 36 14 0 192 182 208 212 8 16 29 47
46 71 18 24 33 49 33 57 0 7 7 18 15 25 8 7 13 16 10 20 -3 5 8 38 25 74 18
42 34 99 41 154 6 48 15 92 19 97 4 6 10 53 14 106 8 121 17 191 26 204 4 6
11 26 15 45 4 19 25 58 46 87 21 29 39 56 39 61 0 17 128 139 167 160 110 59
223 111 263 122 25 6 52 15 60 20 16 8 49 15 110 25 19 3 54 13 78 21 23 7 48
14 53 14 6 0 49 23 94 50 109 66 163 131 221 264 22 53 15 184 -14 241 -31 61
-170 188 -223 204 -24 7 -50 18 -56 23 -13 10 -192 27 -248 23 -73 -5 -161
-18 -170 -25 -5 -4 -26 -11 -45 -15 -19 -4 -55 -18 -80 -31 -25 -13 -52 -24
-61 -24 -9 0 -23 -8 -32 -17 -9 -10 -33 -27 -54 -38 -21 -10 -60 -37 -88 -59
-88 -70 -295 -290 -295 -315 0 -6 -4 -11 -9 -11 -5 0 -11 -8 -15 -17 -3 -10
-28 -54 -56 -98 -27 -44 -55 -96 -61 -115 -7 -19 -15 -37 -20 -40 -6 -4 -25
-48 -63 -145 -6 -16 -16 -37 -21 -45 -5 -8 -16 -35 -23 -60 -14 -52 -17 -59
-25 -80 -3 -8 -11 -35 -17 -60 -7 -25 -15 -49 -20 -55 -4 -5 -13 -44 -20 -85
-7 -41 -17 -79 -21 -85 -4 -5 -12 -57 -19 -115 -6 -58 -15 -112 -19 -120 -5
-9 -12 -40 -16 -69 -7 -52 -7 -52 -21 -26 -8 15 -14 39 -14 54 -1 14 -8 55
-16 91 -8 36 -22 99 -30 140 -8 41 -18 82 -21 90 -3 8 -5 20 -4 27 1 6 -3 14
-9 18 -5 3 -10 19 -10 35 0 16 -4 32 -10 35 -5 3 -10 16 -10 27 0 23 -17 81
-31 110 -5 10 -9 27 -9 37 0 11 -4 22 -9 25 -5 3 -12 18 -16 33 -3 15 -15 45
-25 68 -10 22 -21 55 -25 73 -6 28 -4 32 14 32 27 0 212 185 231 229 11 27 17
31 51 31 38 0 66 11 102 39 14 12 16 23 11 62 -6 42 -4 49 16 61 29 17 52 75
45 110 -5 23 -3 28 12 28 10 0 47 23 81 51 63 50 63 51 60 97 -3 46 -4 47 -42
53 -21 3 -54 3 -72 -1 -24 -6 -37 -4 -45 6 -6 8 -22 14 -35 14 -23 0 -27 7
-39 66 -3 18 -24 51 -45 75 -27 30 -40 53 -40 74 -1 37 -36 118 -49 111 -5 -3
-11 1 -15 9 -3 9 -18 15 -36 15 -30 0 -31 1 -24 38 4 20 10 42 14 47 16 22 31
172 28 278 -3 105 -2 112 17 115 25 5 55 31 55 48 0 7 10 16 21 19 28 9 125
111 148 155 40 76 60 111 69 123 5 7 13 30 17 52 3 22 13 54 20 70 15 36 35
136 35 180 0 17 3 35 7 39 10 10 13 159 4 171 -5 5 -11 44 -14 85 -3 41 -11
89 -17 105 -7 17 -19 44 -26 62 -8 17 -14 35 -14 41 0 5 -7 12 -15 16 -8 3
-15 11 -15 19 0 22 -83 94 -135 116 -27 12 -75 25 -106 30 -60 8 -207 -3 -249
-19 -14 -5 -41 -11 -61 -14 -20 -3 -48 -10 -63 -15 -14 -6 -26 -8 -26 -5 0 3
-10 -2 -22 -10 -12 -9 -29 -16 -36 -16 -8 0 -28 -6 -45 -14 -18 -7 -48 -19
-67 -26 -19 -7 -66 -27 -105 -45 -38 -18 -81 -36 -95 -40 -27 -8 -126 -51
-150 -66 -8 -5 -27 -14 -42 -20 -16 -6 -28 -15 -28 -20 0 -5 -6 -9 -13 -9 -7
0 -28 -11 -46 -24 -29 -22 -40 -24 -104 -19 -40 2 -84 8 -98 13 -14 4 -32 4
-40 0 -7 -5 -21 -4 -30 1 -12 6 -20 5 -24 -1 -5 -8 -11 -8 -19 -1 -7 6 -17 7
-22 2 -5 -5 -62 -11 -126 -14 l-118 -5 6 25 c6 22 -4 36 -74 103 -45 43 -101
87 -124 99 -24 11 -56 30 -73 41 -16 11 -37 20 -45 20 -9 0 -21 5 -27 11 -32
32 -290 94 -368 87 -11 0 -36 -3 -55 -5z m1480 -1030 c0 -10 9 -29 20 -43 18
-24 24 -25 107 -23 48 2 117 -2 153 -9 70 -12 150 -43 150 -58 0 -6 6 -10 14
-10 20 0 94 -64 123 -107 51 -75 76 -145 81 -223 5 -85 -12 -246 -28 -265 -6
-7 -10 -17 -9 -21 1 -5 -3 -22 -9 -37 -7 -16 -12 -32 -12 -37 0 -5 -3 -10 -7
-12 -5 -1 -33 -30 -63 -63 -63 -69 -133 -125 -155 -125 -9 0 -18 -6 -21 -14
-3 -7 -31 -19 -62 -26 -31 -6 -66 -16 -78 -22 -27 -13 -165 -5 -234 14 -58 15
-166 78 -188 109 -7 11 -20 19 -28 19 -8 0 -14 7 -14 15 0 7 -6 18 -14 22 -15
8 -80 143 -69 143 3 0 1 6 -4 13 -11 12 -28 85 -24 100 1 5 -8 6 -19 2 -31
-10 -37 21 -9 44 17 14 27 38 36 87 7 38 15 78 17 89 2 11 5 22 6 25 1 3 3 10
5 15 7 31 18 55 25 55 4 0 8 6 7 13 -1 35 4 49 17 44 7 -3 23 7 35 24 12 16
17 29 11 29 -5 0 -10 4 -10 10 0 5 6 7 13 5 6 -3 44 24 82 60 39 36 84 70 101
75 36 12 51 45 26 59 -13 8 -14 12 -3 25 18 21 31 20 31 -1z m-1327 -66 c52
-4 87 -14 142 -41 40 -20 77 -36 81 -37 8 -1 29 -24 114 -127 8 -10 26 -41 40
-68 13 -27 27 -51 30 -54 3 -3 6 -25 8 -49 1 -25 7 -50 11 -55 14 -17 5 -186
-12 -246 -9 -30 -14 -56 -12 -59 3 -2 -5 -13 -17 -23 -17 -15 -19 -21 -9 -27
9 -6 7 -10 -8 -14 -12 -3 -24 -13 -28 -24 -10 -27 -43 -73 -51 -70 -4 1 -28
-15 -53 -35 -25 -21 -50 -38 -55 -38 -5 0 -25 -9 -45 -19 -20 -11 -56 -22 -80
-26 -66 -10 -71 -11 -111 -29 -47 -20 -60 -20 -56 0 4 25 -19 28 -27 5 -8 -27
-21 -27 -28 0 -3 12 -10 18 -17 14 -6 -4 -19 2 -29 14 -12 13 -25 18 -39 14
-15 -4 -24 0 -29 13 -12 32 -56 63 -80 57 -19 -4 -23 -1 -23 17 0 31 -18 60
-33 54 -13 -4 -43 41 -39 59 1 4 -4 7 -12 7 -15 0 -29 27 -21 40 3 4 -2 13
-10 20 -8 7 -15 29 -15 49 0 20 -6 46 -14 57 -8 11 -16 43 -18 70 -3 47 -4 49
-30 46 -16 -2 -28 2 -28 9 0 6 6 9 14 6 23 -9 42 27 49 89 4 32 14 78 22 101
8 23 12 48 10 55 -3 8 10 29 30 48 19 19 35 40 35 47 0 7 11 23 25 35 14 12
25 25 25 29 0 4 14 23 30 41 17 18 30 40 30 50 0 22 23 23 60 2 37 -23 180
-11 180 14 0 14 1 14 13 0 8 -11 35 -17 80 -21z m-408 -907 c3 -5 1 -10 -4
-10 -6 0 -11 5 -11 10 0 6 2 10 4 10 3 0 8 -4 11 -10z m59 -39 c3 -4 -6 -13
-20 -19 -23 -11 -24 -10 -14 8 11 21 25 26 34 11z m2468 -49 c-5 -1 -27 6 -50
16 -29 13 -38 22 -31 29 8 8 23 3 51 -15 22 -15 35 -28 30 -30z m-2572 -28 c0
-8 5 -14 11 -14 5 0 7 4 4 10 -4 6 1 7 11 3 16 -6 16 -8 2 -17 -15 -9 -15 -12
-1 -33 20 -30 13 -36 -21 -23 -42 16 -96 13 -96 -5 0 -8 -4 -15 -10 -15 -13 0
-13 3 3 33 25 49 71 95 85 84 6 -5 12 -16 12 -23z m53 -38 c4 -10 1 -13 -8 -9
-8 3 -12 9 -9 14 7 12 11 11 17 -5z m2377 4 c0 -5 -5 -10 -11 -10 -5 0 -7 5
-4 10 3 6 8 10 11 10 2 0 4 -4 4 -10z m-2342 -118 c11 -15 14 -15 23 -2 9 13
10 13 7 0 -3 -21 19 -59 60 -102 l35 -37 -24 -9 c-43 -16 -182 -33 -284 -35
-82 -2 -100 1 -100 13 0 8 14 17 32 21 18 3 39 11 45 16 7 5 42 10 78 11 36 1
77 5 93 8 27 6 53 37 43 53 -7 11 -48 27 -106 42 l-45 11 29 12 c46 18 99 18
114 -2z m2202 -22 c-6 -11 -13 -20 -16 -20 -2 0 0 9 6 20 6 11 13 20 16 20 2
0 0 -9 -6 -20z m-27 -2 c-4 -7 -8 -16 -8 -20 0 -3 -4 -10 -9 -15 -5 -5 -6 -3
-2 5 14 24 -12 12 -29 -14 -14 -21 -14 -28 -3 -42 12 -16 11 -16 -7 -2 -11 8
-22 15 -24 17 -5 3 73 82 82 83 5 0 5 -6 0 -12z m81 3 c4 -5 28 -12 55 -16 26
-4 60 -12 74 -20 21 -11 74 -24 122 -30 6 -1 19 -5 30 -9 11 -4 32 -12 48 -18
32 -12 35 -24 7 -33 -11 -3 -29 -19 -40 -36 -12 -16 -26 -29 -32 -29 -6 0 -26
-14 -45 -30 -29 -26 -37 -29 -56 -19 -34 17 -138 100 -174 138 -61 65 -89 3
-31 -70 17 -21 28 -42 25 -46 -11 -11 -58 30 -78 67 -21 38 -25 100 -8 100 6
0 27 14 46 30 35 31 48 36 57 21z m431 -1 c3 -6 -1 -13 -10 -16 -19 -8 -30 0
-20 15 8 14 22 14 30 1z m-2925 -61 c0 -5 -9 -4 -19 3 -11 7 -17 16 -14 20 5
10 33 -10 33 -23z m2328 7 c-7 -8 -15 -12 -17 -11 -5 6 10 25 20 25 5 0 4 -6
-3 -14z m-73 -26 c-4 -6 7 -8 27 -5 23 3 26 3 10 -3 -13 -4 -23 -10 -23 -14 1
-5 1 -13 1 -19 0 -6 7 -9 15 -5 8 3 15 0 15 -5 0 -6 -9 -9 -20 -6 -10 3 -21 0
-24 -7 -2 -6 -5 1 -5 16 -1 14 -4 33 -7 42 -3 9 -1 16 6 16 6 0 8 -4 5 -10z
m-18 -25 c9 -25 -2 -27 -27 -5 l-23 20 22 0 c12 0 24 -7 28 -15z m-2405 -45
c0 -5 1 -15 2 -20 1 -6 -10 -16 -23 -23 -13 -7 -34 -30 -45 -52 -24 -47 -34
-27 -16 33 16 50 76 96 82 62z m2212 1 c3 -5 -3 -11 -15 -14 -16 -4 -18 -3 -8
9 13 16 16 17 23 5z m-58 -23 c5 -8 2 -9 -9 -5 -25 10 -20 -2 6 -14 18 -8 18
-9 2 -5 -11 2 -29 7 -40 12 -18 7 -18 6 -5 -7 9 -9 22 -18 30 -22 10 -3 7 -6
-7 -6 -13 -1 -23 3 -23 8 0 5 -9 13 -20 16 -30 10 -24 23 13 28 17 2 35 5 39
5 4 1 10 -3 14 -10z m-1686 -8 c0 -5 -2 -10 -4 -10 -3 0 -8 5 -11 10 -3 6 -1
10 4 10 6 0 11 -4 11 -10z m136 -17 c-10 -10 -19 5 -10 18 6 11 8 11 12 0 2
-7 1 -15 -2 -18z m1657 -9 c10 -13 16 -32 14 -42 -3 -12 -5 -11 -6 6 0 12 -6
22 -12 22 -5 0 -7 -4 -4 -10 3 -5 1 -10 -5 -10 -7 0 -9 7 -6 16 4 9 1 23 -5
30 -6 8 -8 14 -3 14 5 0 17 -12 27 -26z m-103 -29 c-14 -17 -30 -20 -30 -6 0
5 8 12 18 14 9 3 19 5 21 6 2 0 -2 -6 -9 -14z m200 -10 c0 -2 -16 -5 -35 -7
-21 -2 -35 0 -35 7 0 7 14 9 35 7 19 -2 35 -5 35 -7z m-1650 -25 c0 -5 -2 -10
-4 -10 -3 0 -8 5 -11 10 -3 6 -1 10 4 10 6 0 11 -4 11 -10z m1610 0 c0 -5 -12
-10 -27 -9 l-28 1 25 8 c14 4 26 8 28 9 1 1 2 -3 2 -9z m85 0 c3 -5 1 -10 -4
-10 -6 0 -11 5 -11 10 0 6 2 10 4 10 3 0 8 -4 11 -10z m579 -15 c-16 -24 -15
-49 1 -89 7 -15 5 -17 -13 -11 -12 3 -22 2 -22 -3 0 -13 -53 -23 -63 -12 -18
17 69 140 99 140 12 0 12 -4 -2 -25z m-505 -11 c13 -12 -8 -10 -29 2 l-25 15
25 -7 c14 -3 27 -8 29 -10z m-108 -17 c-10 -9 -11 -8 -5 6 3 10 9 15 12 12 3
-3 0 -11 -7 -18z m-755 -12 c-3 -8 -9 -22 -12 -30 -4 -9 0 -15 9 -15 9 0 19
-5 22 -10 4 -7 -3 -8 -22 -4 l-28 7 27 -26 c16 -14 23 -29 18 -32 -6 -3 -10 0
-11 7 0 10 -2 10 -6 1 -2 -7 -9 -13 -15 -13 -6 0 -6 6 2 15 14 17 1 20 -18 5
-8 -7 -9 -7 -3 1 5 6 7 27 4 47 -4 25 -3 33 5 28 11 -6 16 6 13 27 0 4 4 7 10
7 6 0 8 -7 5 -15z m419 -5 c22 -11 32 -20 23 -20 -9 0 -18 -3 -21 -7 -2 -5 -2
-2 -1 5 2 6 -1 12 -6 12 -6 0 -10 -9 -10 -20 0 -13 -5 -18 -15 -14 -13 5 -13
8 1 21 13 14 13 17 -3 29 -26 19 -13 17 32 -6z m-1220 -8 c-3 -3 -11 0 -18 7
-9 10 -8 11 6 5 10 -3 15 -9 12 -12z m1502 -4 c-3 -8 -6 -5 -6 6 -1 11 2 17 5
13 3 -3 4 -12 1 -19z m233 7 c0 -12 -19 -12 -23 0 -4 9 -1 12 9 8 7 -3 14 -7
14 -8z m-1692 -14 c43 -21 80 -29 92 -17 8 8 10 7 5 -6 -7 -19 -45 -32 -42
-14 1 7 -13 10 -41 8 -24 -1 -51 2 -60 8 -13 9 -9 10 18 5 33 -6 34 -5 16 10
-22 16 -16 20 12 6z m1914 -8 c22 -26 30 -106 14 -138 -8 -15 -16 -23 -19 -18
-3 5 -2 15 4 23 5 8 9 34 9 57 0 32 -5 46 -20 55 -20 13 -28 38 -12 38 5 0 16
-8 24 -17z m-627 -26 c13 2 15 1 5 -4 -8 -3 -18 -11 -23 -17 -4 -7 -9 -3 -13
12 -4 12 -10 22 -15 22 -5 0 -9 6 -9 13 1 7 8 3 18 -8 9 -11 26 -19 37 -18z
m-997 12 c17 -6 33 -17 36 -25 5 -12 10 -13 27 -4 23 13 35 8 24 -10 -4 -6
-13 -9 -21 -6 -7 3 -16 0 -20 -6 -5 -7 -10 -3 -16 11 -5 16 -14 22 -26 19 -16
-4 -42 12 -42 27 0 7 2 7 38 -6z m922 -9 c0 -11 -4 -20 -8 -20 -4 0 -8 9 -8
20 0 11 4 20 8 20 4 0 8 -9 8 -20z m408 -15 c-3 -3 -9 2 -12 12 -6 14 -5 15 5
6 7 -7 10 -15 7 -18z m-1801 -1 c-3 -3 -12 -4 -19 -1 -8 3 -5 6 6 6 11 1 17
-2 13 -5z m20 -16 c-3 -8 -6 -5 -6 6 -1 11 2 17 5 13 3 -3 4 -12 1 -19z m406
5 c-11 -10 -30 -33 -41 -52 l-21 -34 22 -18 c12 -9 25 -13 28 -8 3 5 14 0 24
-11 10 -11 13 -20 7 -20 -6 0 -13 4 -17 10 -3 5 -12 7 -20 4 -8 -4 -18 1 -21
10 -8 20 -18 20 -38 0 -15 -14 -17 -14 -22 0 -4 11 9 33 35 64 23 26 47 53 52
60 5 6 15 12 21 12 6 0 2 -8 -9 -17z m941 1 c3 -8 2 -12 -4 -9 -6 3 -10 10
-10 16 0 14 7 11 14 -7z m150 -4 c7 0 20 -6 28 -12 16 -12 16 -14 0 -28 -14
-13 -15 -12 -9 3 5 13 0 20 -20 28 -15 5 -34 7 -42 4 -10 -3 -9 1 4 10 12 10
21 12 23 5 2 -5 9 -10 16 -10z m666 0 c0 -5 -2 -10 -4 -10 -3 0 -8 5 -11 10
-3 6 -1 10 4 10 6 0 11 -4 11 -10z m-2075 -10 c3 -6 -1 -7 -9 -4 -18 7 -21 14
-7 14 6 0 13 -4 16 -10z m1249 -9 c10 -11 16 -26 13 -33 -4 -8 -6 -7 -6 5 -1
9 -8 17 -17 17 -8 0 -13 4 -10 9 4 5 0 12 -6 14 -8 3 -8 6 -2 6 6 1 19 -8 28
-18z m84 7 c7 -7 12 -21 11 -32 0 -21 0 -21 -9 -1 -8 18 -9 18 -9 -5 -1 -15 5
-32 12 -39 10 -10 8 -11 -6 -5 -15 5 -18 15 -15 45 2 22 -1 41 -7 43 -7 3 -6
5 1 5 5 1 15 -4 22 -11z m-890 -15 c-10 -2 -18 -14 -19 -26 0 -12 -3 -16 -6
-9 -8 20 5 42 24 41 17 -1 17 -2 1 -6z m407 -23 c3 -5 -1 -10 -10 -10 -9 0
-13 5 -10 10 3 6 8 10 10 10 2 0 7 -4 10 -10z m1019 -3 c-4 -11 -44 -19 -44
-10 0 3 33 18 47 22 1 1 0 -5 -3 -12z m-408 -13 c-1 -9 -10 -20 -18 -25 -14
-8 -15 -6 -5 16 13 28 26 33 23 9z m-986 -26 c0 -5 -11 -19 -25 -32 -14 -13
-25 -28 -25 -35 0 -6 -7 -11 -15 -11 -8 0 -15 5 -15 10 0 6 -8 10 -17 11 -12
0 -13 2 -5 6 7 3 19 -1 27 -7 12 -10 15 -10 15 1 0 8 9 20 20 27 11 7 20 18
20 24 0 9 -3 9 -12 0 -20 -20 -30 -14 -10 6 17 18 42 19 42 0z m373 1 c9 -13
17 -16 22 -10 3 6 11 11 16 11 6 0 3 -7 -6 -16 -14 -15 -18 -14 -40 10 -13 14
-20 26 -15 26 5 0 15 -9 23 -21z m972 11 c4 -6 12 -7 18 -3 7 4 5 -2 -3 -13
-22 -29 -24 -30 -17 -11 6 15 3 17 -16 13 -12 -3 -16 -3 -9 0 6 3 10 10 6 15
-3 5 -1 9 5 9 5 0 13 -5 16 -10z m-1419 -25 c0 -14 -1 -25 -1 -25 0 0 -9 10
-19 22 -15 18 -16 20 -2 15 9 -4 16 -2 16 3 0 6 2 10 4 10 2 0 3 -11 2 -25z
m-40 1 c8 -8 14 -17 14 -20 0 -11 -29 6 -34 20 -7 18 1 18 20 0z m460 -1 c-4
-24 -16 -30 -16 -7 0 12 4 22 9 22 5 0 8 -7 7 -15z m178 0 c-4 -8 -10 -12 -15
-9 -14 8 -10 24 6 24 9 0 12 -6 9 -15z m390 -2 c4 -9 2 -21 -4 -27 -7 -7 -10
-7 -10 1 0 6 -3 18 -6 27 -3 9 -2 16 4 16 5 0 13 -8 16 -17z m424 -31 c2 -7
-6 -12 -20 -11 -12 0 -17 3 -10 6 6 2 10 9 7 13 -3 5 -12 7 -20 3 -11 -4 -13
-1 -9 11 6 15 9 15 27 3 12 -8 23 -19 25 -25z m-480 -11 c-1 -22 -5 -38 -10
-35 -4 3 -6 19 -4 37 6 39 5 37 11 37 3 0 5 -18 3 -39z m102 35 c0 -3 -4 -8
-10 -11 -5 -3 -10 -1 -10 4 0 6 5 11 10 11 6 0 10 -2 10 -4z m-290 -26 c0 -11
-4 -20 -9 -20 -5 0 -7 9 -4 20 3 11 7 20 9 20 2 0 4 -9 4 -20z m-334 -28 c-4
-3 -11 0 -16 8 -15 24 -11 33 6 15 9 -9 13 -19 10 -23z m74 30 c0 -4 -15 -8
-32 -9 -30 -1 -31 -1 -8 7 34 11 40 11 40 2z m1140 -2 c0 -5 -2 -10 -4 -10 -3
0 -8 5 -11 10 -3 6 -1 10 4 10 6 0 11 -4 11 -10z m-2207 -17 c-7 -2 -19 -2
-25 0 -7 3 -2 5 12 5 14 0 19 -2 13 -5z m1344 -7 c-3 -7 0 -20 6 -27 10 -11 9
-11 -5 0 -15 11 -15 41 -1 41 3 0 3 -6 0 -14z m190 -8 c-3 -8 -6 -5 -6 6 -1
11 2 17 5 13 3 -3 4 -12 1 -19z m-1569 -24 c-3 -14 -5 -12 -10 9 -3 19 -2 25
4 19 6 -6 8 -18 6 -28z m1112 26 c-14 -9 -13 -11 9 -14 23 -3 21 -16 -2 -16
-16 0 -27 6 -27 13 0 17 10 27 24 27 6 0 4 -5 -4 -10z m-98 -24 c21 4 22 4 3
-5 -19 -9 -18 -10 5 -11 l25 -2 -25 -8 c-21 -7 -22 -8 -5 -10 11 -1 14 -4 8
-7 -9 -3 -10 -10 -3 -24 7 -13 7 -19 0 -19 -5 0 -10 6 -10 14 0 8 -5 18 -12
22 -8 5 -9 1 -4 -12 5 -14 4 -16 -4 -8 -9 9 -9 17 -1 32 8 16 7 21 -4 26 -8 3
-15 13 -15 23 1 16 1 17 10 1 6 -10 19 -15 32 -12z m-132 -21 c0 -9 -8 -19
-17 -22 -26 -10 -54 -36 -63 -58 -8 -19 -9 -19 -9 1 -1 12 6 25 15 28 8 3 12
10 9 16 -3 5 -1 10 4 10 6 0 11 8 11 18 0 12 8 18 25 20 17 1 25 -3 25 -13z
m208 -3 c2 -7 -6 -12 -20 -11 -19 1 -20 2 -4 6 15 4 16 7 5 15 -12 8 -12 9 0
6 8 -3 17 -10 19 -16z m82 14 c0 -3 -4 -8 -10 -11 -5 -3 -10 -1 -10 4 0 6 5
11 10 11 6 0 10 -2 10 -4z m-40 -27 c0 -6 -4 -7 -10 -4 -5 3 -10 11 -10 16 0
6 5 7 10 4 6 -3 10 -11 10 -16z m210 -9 c0 -5 -7 -7 -15 -4 -8 4 -12 10 -9 15
6 11 24 2 24 -11z m-1162 -15 c1 -14 -2 -25 -6 -25 -4 0 -8 11 -8 25 -2 33 11
33 14 0z m32 6 c0 -5 9 -11 20 -14 11 -3 20 -11 20 -18 0 -10 -3 -10 -12 -1
-7 7 -20 12 -30 12 -10 0 -18 7 -18 15 0 8 5 15 10 15 6 0 10 -4 10 -9z m751
-22 c-5 -13 -10 -19 -10 -12 -1 15 10 45 15 40 3 -2 0 -15 -5 -28z m110 22
c-7 -5 -17 -15 -22 -22 -6 -10 -9 -8 -9 9 0 16 6 22 23 22 16 0 18 -3 8 -9z
m802 -25 c-4 -6 1 -6 13 -2 14 5 16 4 7 -5 -15 -15 -33 -3 -33 24 0 17 2 19 9
7 6 -8 7 -18 4 -24z m-696 18 c-3 -3 -12 -4 -19 -1 -8 3 -5 6 6 6 11 1 17 -2
13 -5z m486 -65 c-1 -23 -4 -43 -6 -46 -8 -8 -37 28 -36 45 1 15 2 15 6 0 7
-26 23 -22 23 5 0 19 7 37 14 37 1 0 1 -19 -1 -41z m-1223 11 c0 -5 -5 -10
-11 -10 -5 0 -7 5 -4 10 3 6 8 10 11 10 2 0 4 -4 4 -10z m-40 -20 c-13 -8 -13
-10 -1 -10 8 0 12 -3 8 -6 -3 -3 -11 -3 -17 1 -8 5 -8 11 1 21 6 8 14 12 18 9
3 -3 -1 -10 -9 -15z m100 5 c0 -8 -4 -15 -10 -15 -5 0 -7 7 -4 15 4 8 8 15 10
15 2 0 4 -7 4 -15z m360 -29 c0 -26 -6 -18 -14 19 -5 22 -4 26 4 15 5 -8 10
-24 10 -34z m-80 24 c0 -5 -4 -10 -10 -10 -5 0 -10 5 -10 10 0 6 5 10 10 10 6
0 10 -4 10 -10z m-334 -38 c-15 -15 -15 -15 -4 10 7 15 15 23 17 17 2 -6 -4
-18 -13 -27z m934 18 c0 -5 -4 -10 -10 -10 -5 0 -10 5 -10 10 0 6 5 10 10 10
6 0 10 -4 10 -10z m-873 -6 c-3 -3 -12 -4 -19 -1 -8 3 -5 6 6 6 11 1 17 -2 13
-5z m249 -3 c-3 -5 8 -14 24 -21 29 -12 41 -30 20 -30 -5 0 -10 5 -10 10 0 6
-8 10 -17 10 -10 0 -25 5 -33 10 -13 9 -13 11 0 20 19 12 23 12 16 1z m644
-15 c0 -2 -7 -9 -15 -16 -12 -10 -15 -10 -15 4 0 9 7 16 15 16 8 0 15 -2 15
-4z m-563 -66 c3 -10 2 -11 -4 -4 -4 6 -15 14 -23 17 -11 5 -9 6 4 4 11 -1 21
-9 23 -17z m337 -5 c3 -8 1 -15 -4 -15 -6 0 -10 5 -10 10 0 6 -7 10 -16 10
-10 0 -14 -6 -11 -14 4 -10 1 -13 -9 -9 -9 3 -14 -1 -14 -11 0 -14 -2 -15 -14
-4 -12 11 -11 14 5 20 10 4 19 12 19 18 0 16 47 12 54 -5z m-127 -127 c-3 -8
-6 -5 -6 6 -1 11 2 17 5 13 3 -3 4 -12 1 -19z m80 -13 c5 -4 2 -5 -4 -1 -7 4
-13 2 -13 -3 0 -6 -12 -11 -26 -11 -21 0 -24 3 -15 13 12 15 46 16 58 2z"/>
<path d="M3843 6113 c-13 -2 -23 -8 -23 -12 0 -4 -17 -13 -37 -20 -21 -8 -40
-17 -43 -20 -9 -11 -65 -48 -100 -66 -41 -20 -100 -74 -100 -90 0 -6 -11 -22
-24 -34 -34 -32 -74 -120 -82 -181 -4 -28 -10 -52 -14 -55 -8 -5 -5 -98 3
-112 2 -4 7 -28 11 -53 7 -48 39 -110 56 -110 5 0 10 -6 10 -14 0 -23 79 -85
150 -119 60 -28 73 -31 170 -31 103 0 154 13 220 54 8 5 29 17 46 25 64 32
141 123 191 223 l48 95 2 116 c1 108 -1 120 -26 171 -64 131 -107 170 -254
229 -27 10 -157 13 -204 4z"/>
<path d="M2326 6141 c-3 -4 -33 -11 -66 -14 -42 -4 -73 -13 -100 -31 -22 -14
-42 -26 -46 -26 -10 0 -63 -61 -95 -109 -33 -51 -83 -197 -74 -219 3 -8 1 -20
-4 -26 -8 -9 -8 -51 -1 -51 1 0 3 -18 4 -40 5 -62 25 -126 51 -167 14 -21 25
-41 25 -46 0 -32 219 -190 228 -164 5 17 22 15 22 -2 0 -19 80 -31 92 -14 6
11 10 10 17 -1 14 -21 77 -6 84 20 6 23 27 17 27 -7 0 -19 12 -18 41 4 13 11
36 22 51 25 35 9 130 115 147 164 7 21 20 53 28 72 21 47 14 274 -9 311 -9 14
-19 36 -23 50 -16 53 -127 180 -180 206 -16 8 -43 22 -59 31 -17 9 -49 18 -73
21 -24 2 -46 9 -49 13 -7 11 -31 12 -38 0z m208 -872 c-11 -18 -21 1 -16 28 5
27 5 27 14 4 4 -13 5 -27 2 -32z"/>
<path d="M3050 4340 c0 -5 5 -10 10 -10 6 0 10 5 10 10 0 6 -4 10 -10 10 -5 0
-10 -4 -10 -10z"/>
<path d="M1391 5828 c-24 -5 -65 -23 -91 -39 -26 -16 -52 -29 -57 -29 -6 0
-16 -7 -23 -15 -10 -12 -9 -20 3 -39 18 -27 11 -42 -10 -24 -11 9 -18 8 -31
-5 -10 -11 -12 -17 -4 -17 7 0 12 -7 12 -15 0 -20 26 -19 34 1 4 9 13 14 21
10 8 -3 15 -1 15 4 0 6 15 10 33 10 19 0 49 7 67 16 18 10 53 19 78 21 33 2
53 11 76 33 17 17 39 29 50 28 29 -4 29 14 1 45 -22 23 -33 27 -78 26 -29 -1
-72 -6 -96 -11z m72 -52 c6 -15 -1 -26 -15 -26 -4 0 -8 9 -8 20 0 23 15 27 23
6z"/>
<path d="M4807 5710 c-14 -11 -32 -20 -40 -20 -18 0 -34 -19 -37 -45 -4 -35 0
-45 15 -39 9 4 15 0 15 -9 0 -23 21 -26 170 -24 l135 2 2 28 c1 19 -3 27 -14
27 -9 0 -13 6 -10 14 8 21 -48 52 -108 60 -27 3 -51 11 -53 16 -6 17 -48 11
-75 -10z"/>
<path d="M1390 5613 c-18 -6 -80 -74 -80 -87 0 -5 -11 -23 -24 -40 -23 -31
-42 -103 -37 -141 5 -32 32 -56 55 -49 21 6 96 82 96 97 0 10 34 42 53 50 9 3
28 24 42 46 l27 40 -27 45 c-23 40 -31 46 -58 45 -18 0 -39 -3 -47 -6z"/>
<path d="M4837 5514 c-1 -1 -20 -5 -42 -8 -44 -7 -55 -19 -55 -58 0 -19 5 -28
16 -28 10 0 14 -6 11 -14 -6 -15 22 -47 106 -124 40 -36 50 -41 67 -32 16 9
20 8 20 -5 0 -10 10 -15 30 -15 17 0 30 3 31 8 0 4 2 16 5 27 4 20 -23 84 -41
97 -5 4 -6 8 -2 8 15 0 -45 70 -60 70 -10 0 -13 6 -9 17 8 19 -28 56 -56 58
-10 1 -19 1 -21 -1z"/>
<path d="M1317 4853 c-3 -5 -1 -18 4 -31 6 -16 15 -22 31 -20 25 4 37 28 14
28 -9 0 -19 7 -22 15 -7 16 -20 20 -27 8z"/>
<path d="M1220 4820 c0 -5 5 -10 10 -10 6 0 10 5 10 10 0 6 -4 10 -10 10 -5 0
-10 -4 -10 -10z"/>
<path d="M4801 4716 c-18 -21 -10 -70 12 -74 14 -3 17 4 17 42 0 47 -9 57 -29
32z"/>
</g>
</svg>
