<?xml version="1.0" encoding="UTF-8"?>
<svg version="1.1" xmlns="http://www.w3.org/2000/svg" width="251" height="251">
<path d="M0 0 C7.93613787 -0.02312764 15.87226176 -0.04091723 23.80842495 -0.05181217 C27.49314498 -0.05704008 31.17784203 -0.06413605 34.86254883 -0.07543945 C38.41570831 -0.08627162 41.96884563 -0.09227753 45.52202034 -0.09487724 C46.88045666 -0.0967309 48.23889171 -0.10035038 49.59731865 -0.10573006 C51.49382223 -0.11294475 53.39034793 -0.11340809 55.28686523 -0.11352539 C56.36830307 -0.115746 57.44974091 -0.11796661 58.56394958 -0.12025452 C61 0 61 0 62 1 C62.08651611 2.41570123 62.10704904 3.835595 62.09765625 5.25390625 C62.09515869 6.0229126 62.09266113 6.79191895 62.09008789 7.58422852 C62.08098389 8.56705811 62.07187988 9.5498877 62.0625 10.5625 C62.041875 13.676875 62.02125 16.79125 62 20 C73.88 19.67 85.76 19.34 98 19 C98 13.06 98 7.12 98 1 C99 0 99 0 101.43605042 -0.12025452 C103.05820717 -0.1169236 103.05820717 -0.1169236 104.71313477 -0.11352539 C105.9343251 -0.11344986 107.15551544 -0.11337433 108.41371155 -0.11329651 C109.75627686 -0.10818911 111.09884175 -0.10297311 112.44140625 -0.09765625 C113.80761158 -0.09579199 115.17381757 -0.09436813 116.5400238 -0.09336853 C120.14201695 -0.08954394 123.74397 -0.07971417 127.34594727 -0.06866455 C131.01903745 -0.05844916 134.69213409 -0.05387064 138.36523438 -0.04882812 C145.57684334 -0.03809184 152.78841095 -0.02049553 160 0 C160 6.6 160 13.2 160 20 C166.20792914 19.96041973 166.20792914 19.96041973 172.41577148 19.90991211 C173.18477783 19.90741455 173.95378418 19.90491699 174.74609375 19.90234375 C175.53685303 19.89710693 176.3276123 19.89187012 177.14233398 19.88647461 C179 20 179 20 180 21 C180.08631874 22.34267413 180.10706473 23.68974322 180.09765625 25.03515625 C180.09443359 25.84404297 180.09121094 26.65292969 180.08789062 27.48632812 C180.07951172 28.33646484 180.07113281 29.18660156 180.0625 30.0625 C180.05798828 30.91650391 180.05347656 31.77050781 180.04882812 32.65039062 C180.03700373 34.76695663 180.01906769 36.88348685 180 39 C181.27617187 38.97679687 182.55234375 38.95359375 183.8671875 38.9296875 C185.5364525 38.91093171 187.2057238 38.89273131 188.875 38.875 C189.71675781 38.85824219 190.55851563 38.84148438 191.42578125 38.82421875 C192.23144531 38.81777344 193.03710938 38.81132813 193.8671875 38.8046875 C194.61081543 38.79421387 195.35444336 38.78374023 196.12060547 38.77294922 C198 39 198 39 200 41 C200.19300583 43.48888537 200.26237638 45.8659839 200.24291992 48.35546875 C200.24481827 49.11332672 200.24671661 49.87118469 200.24867249 50.65200806 C200.25238541 53.16394303 200.24166877 55.6755906 200.23046875 58.1875 C200.22927711 59.92862921 200.22882375 61.66975907 200.2290802 63.41088867 C200.22751444 67.06270361 200.21921778 70.71442063 200.20581055 74.36621094 C200.18882058 79.05401752 200.18499616 83.74171641 200.18575573 88.42955017 C200.18548417 92.02568597 200.18000522 95.62179809 200.17275429 99.21792603 C200.16956558 100.946745 200.16759974 102.67556667 200.16686058 104.40438843 C200.16469915 106.81781613 200.15595919 109.23112826 200.14526367 111.64453125 C200.14571686 112.36355621 200.14617004 113.08258118 200.14663696 113.82339478 C200.11447781 118.77104438 200.11447781 118.77104438 199 121 C192.73 121 186.46 121 180 121 C180.03958027 127.20792914 180.03958027 127.20792914 180.09008789 133.41577148 C180.09383423 134.56928101 180.09383423 134.56928101 180.09765625 135.74609375 C180.10289307 136.53685303 180.10812988 137.3276123 180.11352539 138.14233398 C180 140 180 140 179 141 C177.58429877 141.08651611 176.164405 141.10704904 174.74609375 141.09765625 C173.89208984 141.09443359 173.03808594 141.09121094 172.15820312 141.08789062 C171.26037109 141.07951172 170.36253906 141.07113281 169.4375 141.0625 C168.53580078 141.05798828 167.63410156 141.05347656 166.70507812 141.04882812 C164.46998686 141.03700225 162.23502563 141.0205222 160 141 C160.00523682 141.57032959 160.01047363 142.14065918 160.01586914 142.72827148 C160.03658221 145.29800323 160.0496419 147.86771747 160.0625 150.4375 C160.07087891 151.33533203 160.07925781 152.23316406 160.08789062 153.15820312 C160.09111328 154.01220703 160.09433594 154.86621094 160.09765625 155.74609375 C160.10289307 156.53685303 160.10812988 157.3276123 160.11352539 158.14233398 C160 160 160 160 159 161 C157.65732587 161.08631874 156.31025678 161.10706473 154.96484375 161.09765625 C154.15595703 161.09443359 153.34707031 161.09121094 152.51367188 161.08789062 C151.66353516 161.07951172 150.81339844 161.07113281 149.9375 161.0625 C149.08349609 161.05798828 148.22949219 161.05347656 147.34960938 161.04882812 C145.23304337 161.03700373 143.11651315 161.01906769 141 161 C141.02320313 162.27617187 141.04640625 163.55234375 141.0703125 164.8671875 C141.08906829 166.5364525 141.10726869 168.2057238 141.125 169.875 C141.14175781 170.71675781 141.15851563 171.55851563 141.17578125 172.42578125 C141.18222656 173.23144531 141.18867188 174.03710938 141.1953125 174.8671875 C141.20578613 175.61081543 141.21625977 176.35444336 141.22705078 177.12060547 C141 179 141 179 139 181 C137.12060547 181.22705078 137.12060547 181.22705078 134.8671875 181.1953125 C133.65869141 181.18564453 133.65869141 181.18564453 132.42578125 181.17578125 C131.58402344 181.15902344 130.74226562 181.14226562 129.875 181.125 C129.02550781 181.11597656 128.17601562 181.10695312 127.30078125 181.09765625 C125.20040116 181.07405647 123.10016556 181.03818483 121 181 C121.01160156 182.28777344 121.02320313 183.57554687 121.03515625 184.90234375 C121.0445327 186.58072772 121.05363305 188.25911326 121.0625 189.9375 C121.07087891 190.78763672 121.07925781 191.63777344 121.08789062 192.51367188 C121.09111328 193.32255859 121.09433594 194.13144531 121.09765625 194.96484375 C121.10289307 195.7137085 121.10812988 196.46257324 121.11352539 197.23413086 C121 199 121 199 120 200 C118.58429877 200.08651611 117.164405 200.10704904 115.74609375 200.09765625 C114.89208984 200.09443359 114.03808594 200.09121094 113.15820312 200.08789062 C112.26037109 200.07951172 111.36253906 200.07113281 110.4375 200.0625 C109.53580078 200.05798828 108.63410156 200.05347656 107.70507812 200.04882812 C105.46998686 200.03700225 103.23502563 200.0205222 101 200 C101.00523682 200.57032959 101.01047363 201.14065918 101.01586914 201.72827148 C101.03658221 204.29800323 101.0496419 206.86771747 101.0625 209.4375 C101.07087891 210.33533203 101.07925781 211.23316406 101.08789062 212.15820312 C101.09111328 213.01220703 101.09433594 213.86621094 101.09765625 214.74609375 C101.10289307 215.53685303 101.10812988 216.3276123 101.11352539 217.14233398 C101 219 101 219 100 220 C93.57624492 221.27755353 87.15305528 221.14809454 80.625 221.125 C79.53960937 221.12886719 78.45421875 221.13273438 77.3359375 221.13671875 C71.13993283 221.12923565 65.14277861 220.81472643 59 220 C57.31578947 203.36842105 57.31578947 203.36842105 59 200 C58.42967041 200.00523682 57.85934082 200.01047363 57.27172852 200.01586914 C54.70199677 200.03658221 52.13228253 200.0496419 49.5625 200.0625 C48.66466797 200.07087891 47.76683594 200.07925781 46.84179688 200.08789062 C45.98779297 200.09111328 45.13378906 200.09433594 44.25390625 200.09765625 C43.46314697 200.10289307 42.6723877 200.10812988 41.85766602 200.11352539 C40 200 40 200 39 199 C38.91368126 197.65732587 38.89293527 196.31025678 38.90234375 194.96484375 C38.90556641 194.15595703 38.90878906 193.34707031 38.91210938 192.51367188 C38.92467773 191.2384668 38.92467773 191.2384668 38.9375 189.9375 C38.94201172 189.08349609 38.94652344 188.22949219 38.95117188 187.34960938 C38.96299627 185.23304337 38.98093231 183.11651315 39 181 C37.72382812 181.02320313 36.44765625 181.04640625 35.1328125 181.0703125 C33.4635475 181.08906829 31.7942762 181.10726869 30.125 181.125 C29.28324219 181.14175781 28.44148438 181.15851563 27.57421875 181.17578125 C26.76855469 181.18222656 25.96289062 181.18867188 25.1328125 181.1953125 C24.38918457 181.20578613 23.64555664 181.21625977 22.87939453 181.22705078 C21 181 21 181 19 179 C18.77294922 177.12060547 18.77294922 177.12060547 18.8046875 174.8671875 C18.81113281 174.06152344 18.81757812 173.25585938 18.82421875 172.42578125 C18.84097656 171.58402344 18.85773438 170.74226562 18.875 169.875 C18.88402344 169.02550781 18.89304688 168.17601562 18.90234375 167.30078125 C18.92594353 165.20040116 18.96181517 163.10016556 19 161 C17.71222656 161.01160156 16.42445312 161.02320313 15.09765625 161.03515625 C13.41927228 161.0445327 11.74088674 161.05363305 10.0625 161.0625 C9.21236328 161.07087891 8.36222656 161.07925781 7.48632812 161.08789062 C6.67744141 161.09111328 5.86855469 161.09433594 5.03515625 161.09765625 C4.2862915 161.10289307 3.53742676 161.10812988 2.76586914 161.11352539 C1 161 1 161 0 160 C-0.08651611 158.58429877 -0.10704904 157.164405 -0.09765625 155.74609375 C-0.09443359 154.89208984 -0.09121094 154.03808594 -0.08789062 153.15820312 C-0.07532227 151.81145508 -0.07532227 151.81145508 -0.0625 150.4375 C-0.05798828 149.53580078 -0.05347656 148.63410156 -0.04882812 147.70507812 C-0.03700225 145.46998686 -0.0205222 143.23502563 0 141 C-0.57032959 141.00523682 -1.14065918 141.01047363 -1.72827148 141.01586914 C-4.29800323 141.03658221 -6.86771747 141.0496419 -9.4375 141.0625 C-10.33533203 141.07087891 -11.23316406 141.07925781 -12.15820312 141.08789062 C-13.01220703 141.09111328 -13.86621094 141.09433594 -14.74609375 141.09765625 C-15.53685303 141.10289307 -16.3276123 141.10812988 -17.14233398 141.11352539 C-19 141 -19 141 -20 140 C-20.08651611 138.58429877 -20.10704904 137.164405 -20.09765625 135.74609375 C-20.09443359 134.89208984 -20.09121094 134.03808594 -20.08789062 133.15820312 C-20.07951172 132.26037109 -20.07113281 131.36253906 -20.0625 130.4375 C-20.05798828 129.53580078 -20.05347656 128.63410156 -20.04882812 127.70507812 C-20.03700225 125.46998686 -20.0205222 123.23502563 -20 121 C-20.85549438 121.00785522 -20.85549438 121.00785522 -21.72827148 121.01586914 C-24.29800323 121.03658221 -26.86771747 121.0496419 -29.4375 121.0625 C-30.33533203 121.07087891 -31.23316406 121.07925781 -32.15820312 121.08789062 C-33.43920898 121.09272461 -33.43920898 121.09272461 -34.74609375 121.09765625 C-35.53685303 121.10289307 -36.3276123 121.10812988 -37.14233398 121.11352539 C-39 121 -39 121 -40 120 C-40.10563176 117.54633673 -40.14678328 115.12067831 -40.14526367 112.66625977 C-40.14862228 111.89879425 -40.1519809 111.13132874 -40.15544128 110.34060669 C-40.16497942 107.79085697 -40.16689582 105.24117272 -40.16796875 102.69140625 C-40.17117934 100.92642692 -40.17454326 99.16144787 -40.17805481 97.39646912 C-40.18405325 93.69163394 -40.18589398 89.98682212 -40.18530273 86.28198242 C-40.18520107 81.52573125 -40.19885445 76.76962923 -40.21607494 72.01341343 C-40.22717271 68.36666674 -40.22922263 64.71995636 -40.22869301 61.0731945 C-40.22987645 59.31924869 -40.23431844 57.56530204 -40.24202538 55.81137276 C-40.25178063 53.36185269 -40.24896508 50.91265966 -40.24291992 48.46313477 C-40.24853943 47.73318802 -40.25415894 47.00324127 -40.25994873 46.25117493 C-40.22831567 41.22831567 -40.22831567 41.22831567 -38 39 C-36.12060547 38.77294922 -36.12060547 38.77294922 -33.8671875 38.8046875 C-33.06152344 38.81113281 -32.25585938 38.81757812 -31.42578125 38.82421875 C-30.58402344 38.84097656 -29.74226563 38.85773437 -28.875 38.875 C-27.60076172 38.88853516 -27.60076172 38.88853516 -26.30078125 38.90234375 C-24.20040116 38.92594353 -22.10016556 38.96181517 -20 39 C-20.16242187 38.11699219 -20.32484375 37.23398437 -20.4921875 36.32421875 C-20.93595701 33.41923525 -21.13408826 30.74346445 -21.125 27.8125 C-21.12757812 26.97332031 -21.13015625 26.13414063 -21.1328125 25.26953125 C-21 23 -21 23 -20 20 C-13.73 19.67 -7.46 19.34 -1 19 C-1.03938171 14.24359342 -1.03938171 14.24359342 -1.09008789 9.48730469 C-1.10404254 6.13998888 -0.89671376 3.21451716 0 0 Z " fill="#434343" transform="translate(46,22)"/>
<path d="M0 0 C6.27 0 12.54 0 19 0 C19 6.27 19 12.54 19 19 C29.395 18.505 29.395 18.505 40 18 C40.495 18.99 40.495 18.99 41 20 C40.34 20 39.68 20 39 20 C39 45.74 39 71.48 39 98 C32.4 98 25.8 98 19 98 C19 104.27 19 110.54 19 117 C12.73 117 6.46 117 0 117 C0 78.39 0 39.78 0 0 Z " fill="#202020" transform="translate(205,44)"/>
<path d="M0 0 C0 6.27 0 12.54 0 19 C-6.27 19 -12.54 19 -19 19 C-19 25.6 -19 32.2 -19 39 C-25.27 39.33 -31.54 39.66 -38 40 C-38.33 46.27 -38.66 52.54 -39 59 C-45.6 59 -52.2 59 -59 59 C-59 65.6 -59 72.2 -59 79 C-71.54 79 -84.08 79 -97 79 C-97 72.4 -97 65.8 -97 59 C-90.4 59 -83.8 59 -77 59 C-77 52.73 -77 46.46 -77 40 C-70.73 40 -64.46 40 -58 40 C-58.03938171 35.24359342 -58.03938171 35.24359342 -58.09008789 30.48730469 C-58.10436323 27.06306554 -57.83818662 24.35274649 -57 21 C-51.06 20.67 -45.12 20.34 -39 20 C-38.71079094 14.1214612 -38.71079094 14.1214612 -38.43188477 8.24243164 C-38.39377686 7.51403076 -38.35566895 6.78562988 -38.31640625 6.03515625 C-38.27974854 5.2862915 -38.24309082 4.53742676 -38.20532227 3.76586914 C-38 2 -38 2 -37 1 C-34.36857041 0.75273109 -31.76299208 0.57101716 -29.125 0.4375 C-27.93704834 0.37381226 -27.93704834 0.37381226 -26.72509766 0.30883789 C-17.81283662 -0.12533127 -8.92139769 -0.06657759 0 0 Z " fill="#1F1F1F" transform="translate(204,162)"/>
<path d="M0 0 C6.27 0 12.54 0 19 0 C19 25.41 19 50.82 19 77 C12.73 77 6.46 77 0 77 C0 51.59 0 26.18 0 0 Z " fill="#010101" transform="translate(8,64)"/>
<path d="M0 0 C5.94 0 11.88 0 18 0 C18 25.41 18 50.82 18 77 C12.06 77 6.12 77 0 77 C0 51.59 0 26.18 0 0 Z " fill="#000000" transform="translate(225,64)"/>
<path d="M0 0 C13.2 0 26.4 0 40 0 C40 6.6 40 13.2 40 20 C33.4 20 26.8 20 20 20 C20 26.6 20 33.2 20 40 C13.4 40 6.8 40 0 40 C0 26.8 0 13.6 0 0 Z " fill="#E7E7E7" transform="translate(47,63)"/>
<path d="M0 0 C0.66 0 1.32 0 2 0 C2.02313763 10.0050069 2.04092237 20.01000746 2.05181217 30.01503563 C2.05703788 34.66042397 2.06412989 39.30579405 2.07543945 43.95117188 C2.08627939 48.43152675 2.0922792 52.91186402 2.09487724 57.39223099 C2.09672949 59.10430809 2.10034629 60.81638419 2.10573006 62.52845383 C2.11295514 64.92052059 2.11399032 67.31251398 2.11352539 69.70458984 C2.11712067 70.41740616 2.12071594 71.13022247 2.12442017 71.86463928 C2.11405216 76.77189568 2.11405216 76.77189568 1 79 C-5.27 79 -11.54 79 -18 79 C-17.96041973 85.20792914 -17.96041973 85.20792914 -17.90991211 91.41577148 C-17.90616577 92.56928101 -17.90616577 92.56928101 -17.90234375 93.74609375 C-17.89710693 94.53685303 -17.89187012 95.3276123 -17.88647461 96.14233398 C-18 98 -18 98 -19 99 C-20.41570123 99.08651611 -21.835595 99.10704904 -23.25390625 99.09765625 C-24.10791016 99.09443359 -24.96191406 99.09121094 -25.84179688 99.08789062 C-26.73962891 99.07951172 -27.63746094 99.07113281 -28.5625 99.0625 C-29.46419922 99.05798828 -30.36589844 99.05347656 -31.29492188 99.04882812 C-33.53001314 99.03700225 -35.76497437 99.0205222 -38 99 C-37.99476318 99.57032959 -37.98952637 100.14065918 -37.98413086 100.72827148 C-37.96341779 103.29800323 -37.9503581 105.86771747 -37.9375 108.4375 C-37.92912109 109.33533203 -37.92074219 110.23316406 -37.91210938 111.15820312 C-37.90888672 112.01220703 -37.90566406 112.86621094 -37.90234375 113.74609375 C-37.89710693 114.53685303 -37.89187012 115.3276123 -37.88647461 116.14233398 C-38 118 -38 118 -39 119 C-40.34267413 119.08631874 -41.68974322 119.10706473 -43.03515625 119.09765625 C-43.84404297 119.09443359 -44.65292969 119.09121094 -45.48632812 119.08789062 C-46.33646484 119.07951172 -47.18660156 119.07113281 -48.0625 119.0625 C-48.91650391 119.05798828 -49.77050781 119.05347656 -50.65039062 119.04882812 C-52.76695663 119.03700373 -54.88348685 119.01906769 -57 119 C-56.97679687 120.27617187 -56.95359375 121.55234375 -56.9296875 122.8671875 C-56.91093171 124.5364525 -56.89273131 126.2057238 -56.875 127.875 C-56.85824219 128.71675781 -56.84148437 129.55851563 -56.82421875 130.42578125 C-56.81777344 131.23144531 -56.81132812 132.03710938 -56.8046875 132.8671875 C-56.79421387 133.61081543 -56.78374023 134.35444336 -56.77294922 135.12060547 C-57 137 -57 137 -59 139 C-60.87939453 139.22705078 -60.87939453 139.22705078 -63.1328125 139.1953125 C-64.34130859 139.18564453 -64.34130859 139.18564453 -65.57421875 139.17578125 C-66.41597656 139.15902344 -67.25773438 139.14226562 -68.125 139.125 C-68.97449219 139.11597656 -69.82398438 139.10695312 -70.69921875 139.09765625 C-72.79959884 139.07405647 -74.89983444 139.03818483 -77 139 C-76.98839844 140.28777344 -76.97679687 141.57554687 -76.96484375 142.90234375 C-76.9554673 144.58072772 -76.94636695 146.25911326 -76.9375 147.9375 C-76.92493164 149.21270508 -76.92493164 149.21270508 -76.91210938 150.51367188 C-76.90888672 151.32255859 -76.90566406 152.13144531 -76.90234375 152.96484375 C-76.89710693 153.7137085 -76.89187012 154.46257324 -76.88647461 155.23413086 C-77 157 -77 157 -78 158 C-79.41570123 158.08651611 -80.835595 158.10704904 -82.25390625 158.09765625 C-83.10791016 158.09443359 -83.96191406 158.09121094 -84.84179688 158.08789062 C-85.73962891 158.07951172 -86.63746094 158.07113281 -87.5625 158.0625 C-88.46419922 158.05798828 -89.36589844 158.05347656 -90.29492188 158.04882812 C-92.53001314 158.03700225 -94.76497437 158.0205222 -97 158 C-96.99476318 158.57032959 -96.98952637 159.14065918 -96.98413086 159.72827148 C-96.96341779 162.29800323 -96.9503581 164.86771747 -96.9375 167.4375 C-96.92912109 168.33533203 -96.92074219 169.23316406 -96.91210938 170.15820312 C-96.90888672 171.01220703 -96.90566406 171.86621094 -96.90234375 172.74609375 C-96.89710693 173.53685303 -96.89187012 174.3276123 -96.88647461 175.14233398 C-97 177 -97 177 -98 178 C-104.42375508 179.27755353 -110.84694472 179.14809454 -117.375 179.125 C-118.46039063 179.12886719 -119.54578125 179.13273438 -120.6640625 179.13671875 C-126.86006717 179.12923565 -132.85722139 178.81472643 -139 178 C-140.68421053 161.36842105 -140.68421053 161.36842105 -139 158 C-139.57032959 158.00523682 -140.14065918 158.01047363 -140.72827148 158.01586914 C-143.29800323 158.03658221 -145.86771747 158.0496419 -148.4375 158.0625 C-149.33533203 158.07087891 -150.23316406 158.07925781 -151.15820312 158.08789062 C-152.01220703 158.09111328 -152.86621094 158.09433594 -153.74609375 158.09765625 C-154.53685303 158.10289307 -155.3276123 158.10812988 -156.14233398 158.11352539 C-158 158 -158 158 -159 157 C-159.08631874 155.65732587 -159.10706473 154.31025678 -159.09765625 152.96484375 C-159.09443359 152.15595703 -159.09121094 151.34707031 -159.08789062 150.51367188 C-159.07532227 149.2384668 -159.07532227 149.2384668 -159.0625 147.9375 C-159.05798828 147.08349609 -159.05347656 146.22949219 -159.04882812 145.34960938 C-159.03700373 143.23304337 -159.01906769 141.11651315 -159 139 C-160.27617187 139.02320313 -161.55234375 139.04640625 -162.8671875 139.0703125 C-164.5364525 139.08906829 -166.2057238 139.10726869 -167.875 139.125 C-169.13763672 139.15013672 -169.13763672 139.15013672 -170.42578125 139.17578125 C-171.23144531 139.18222656 -172.03710938 139.18867188 -172.8671875 139.1953125 C-173.61081543 139.20578613 -174.35444336 139.21625977 -175.12060547 139.22705078 C-177 139 -177 139 -179 137 C-179.22705078 135.12060547 -179.22705078 135.12060547 -179.1953125 132.8671875 C-179.18886719 132.06152344 -179.18242187 131.25585938 -179.17578125 130.42578125 C-179.15064453 129.16314453 -179.15064453 129.16314453 -179.125 127.875 C-179.11597656 127.02550781 -179.10695313 126.17601562 -179.09765625 125.30078125 C-179.07405647 123.20040116 -179.03818483 121.10016556 -179 119 C-184.61 119 -190.22 119 -196 119 C-196 118.67 -196 118.34 -196 118 C-189.73 118 -183.46 118 -177 118 C-177 124.27 -177 130.54 -177 137 C-170.79207086 136.96041973 -170.79207086 136.96041973 -164.58422852 136.90991211 C-163.43071899 136.90616577 -163.43071899 136.90616577 -162.25390625 136.90234375 C-161.46314697 136.89710693 -160.6723877 136.89187012 -159.85766602 136.88647461 C-158 137 -158 137 -157 138 C-156.91348389 139.41570123 -156.89295096 140.835595 -156.90234375 142.25390625 C-156.90484131 143.0229126 -156.90733887 143.79191895 -156.90991211 144.58422852 C-156.91901611 145.56705811 -156.92812012 146.5498877 -156.9375 147.5625 C-156.958125 150.676875 -156.97875 153.79125 -157 157 C-150.4 157 -143.8 157 -137 157 C-137 163.6 -137 170.2 -137 177 C-124.46 177 -111.92 177 -99 177 C-99 170.4 -99 163.8 -99 157 C-92.4 157 -85.8 157 -79 157 C-79.03958027 150.79207086 -79.03958027 150.79207086 -79.09008789 144.58422852 C-79.09258545 143.81522217 -79.09508301 143.04621582 -79.09765625 142.25390625 C-79.10289307 141.46314697 -79.10812988 140.6723877 -79.11352539 139.85766602 C-79 138 -79 138 -78 137 C-76.58429877 136.91348389 -75.164405 136.89295096 -73.74609375 136.90234375 C-72.9770874 136.90484131 -72.20808105 136.90733887 -71.41577148 136.90991211 C-70.43294189 136.91901611 -69.4501123 136.92812012 -68.4375 136.9375 C-63.7659375 136.9684375 -63.7659375 136.9684375 -59 137 C-59 130.4 -59 123.8 -59 117 C-52.73 117 -46.46 117 -40 117 C-40 110.73 -40 104.46 -40 98 C-46.27 98 -52.54 98 -59 98 C-59 91.4 -59 84.8 -59 78 C-52.4 78 -45.8 78 -39 78 C-39 84.27 -39 90.54 -39 97 C-32.73 97 -26.46 97 -20 97 C-20 90.73 -20 84.46 -20 78 C-13.4 78 -6.8 78 0 78 C0 52.26 0 26.52 0 0 Z " fill="#434343" transform="translate(244,64)"/>
<path d="M0 0 C18.81 0 37.62 0 57 0 C57 6.27 57 12.54 57 19 C38.19 19 19.38 19 0 19 C0 12.73 0 6.46 0 0 Z " fill="#000000" transform="translate(48,24)"/>
<path d="M0 0 C18.81 0 37.62 0 57 0 C57 6.27 57 12.54 57 19 C44.11336015 19.05222549 31.25600694 18.85981815 18.375 18.5 C16.57813092 18.45160277 14.78125591 18.40342472 12.984375 18.35546875 C8.65616159 18.23989031 4.32810503 18.11986839 0 18 C0 12.06 0 6.12 0 0 Z " fill="#000000" transform="translate(147,24)"/>
<path d="M0 0 C13.2 0 26.4 0 40 0 C40 6.27 40 12.54 40 19 C34.4640601 19.02290734 28.92828345 19.04283491 23.39233398 19.05493164 C21.5075627 19.05997244 19.62279535 19.06680498 17.73803711 19.07543945 C15.03498364 19.08751617 12.33198169 19.09323068 9.62890625 19.09765625 C8.78099014 19.10281754 7.93307404 19.10797882 7.0594635 19.11329651 C5.03928932 19.11349195 3.01922066 19.06206211 1 19 C0.67 18.67 0.34 18.34 0 18 C0 12.06 0 6.12 0 0 Z " fill="#030303" transform="translate(106,44)"/>
<path d="M0 0 C12.54 0 25.08 0 38 0 C38 6.27 38 12.54 38 19 C25.46 19 12.92 19 0 19 C0 12.73 0 6.46 0 0 Z " fill="#030303" transform="translate(107,222)"/>
<path d="M0 0 C7.93613787 -0.02312764 15.87226176 -0.04091723 23.80842495 -0.05181217 C27.49314498 -0.05704008 31.17784203 -0.06413605 34.86254883 -0.07543945 C38.41570831 -0.08627162 41.96884563 -0.09227753 45.52202034 -0.09487724 C46.88045666 -0.0967309 48.23889171 -0.10035038 49.59731865 -0.10573006 C51.49382223 -0.11294475 53.39034793 -0.11340809 55.28686523 -0.11352539 C56.36830307 -0.115746 57.44974091 -0.11796661 58.56394958 -0.12025452 C61 0 61 0 62 1 C62.08651611 2.41570123 62.10704904 3.835595 62.09765625 5.25390625 C62.09515869 6.0229126 62.09266113 6.79191895 62.09008789 7.58422852 C62.08098389 8.56705811 62.07187988 9.5498877 62.0625 10.5625 C62.041875 13.676875 62.02125 16.79125 62 20 C73.88 19.67 85.76 19.34 98 19 C98 13.06 98 7.12 98 1 C99 0 99 0 101.43605042 -0.12025452 C103.05820717 -0.1169236 103.05820717 -0.1169236 104.71313477 -0.11352539 C105.9343251 -0.11344986 107.15551544 -0.11337433 108.41371155 -0.11329651 C109.75627686 -0.10818911 111.09884175 -0.10297311 112.44140625 -0.09765625 C113.80761158 -0.09579199 115.17381757 -0.09436813 116.5400238 -0.09336853 C120.14201695 -0.08954394 123.74397 -0.07971417 127.34594727 -0.06866455 C131.01903745 -0.05844916 134.69213409 -0.05387064 138.36523438 -0.04882812 C145.57684123 -0.03809184 152.788415 -0.02101614 160 0 C160 0.66 160 1.32 160 2 C140.2 2 120.4 2 100 2 C100 8.6 100 15.2 100 22 C86.8 22 73.6 22 60 22 C60 15.4 60 8.8 60 2 C40.86 2 21.72 2 2 2 C2 14.54 2 27.08 2 40 C14.54 40 27.08 40 40 40 C40 40.33 40 40.66 40 41 C27.13 41 14.26 41 1 41 C1 34.73 1 28.46 1 22 C-5.27 22 -11.54 22 -18 22 C-18 28.27 -18 34.54 -18 41 C-24.27 41 -30.54 41 -37 41 C-37 40.67 -37 40.34 -37 40 C-31.39 40 -25.78 40 -20 40 C-20.33 37.69 -20.66 35.38 -21 33 C-21.0839666 31.25151902 -21.13050468 29.50048731 -21.125 27.75 C-21.12757812 26.91984375 -21.13015625 26.0896875 -21.1328125 25.234375 C-21 23 -21 23 -20 20 C-13.73 19.67 -7.46 19.34 -1 19 C-1.03938171 14.24359342 -1.03938171 14.24359342 -1.09008789 9.48730469 C-1.10404254 6.13998888 -0.89671376 3.21451716 0 0 Z " fill="#515151" transform="translate(46,22)"/>
<path d="M0 0 C0.33 0 0.66 0 1 0 C1 5.94 1 11.88 1 18 C4.90972656 17.98259766 4.90972656 17.98259766 8.8984375 17.96484375 C11.49023314 17.95699195 14.08202734 17.95095026 16.67382812 17.94506836 C18.44238908 17.94011306 20.21094611 17.93334691 21.97949219 17.92456055 C34.0343559 17.8662748 45.96786076 18.2258958 58 19 C58 12.73 58 6.46 58 0 C58.66 0 59.32 0 60 0 C60 5.94 60 11.88 60 18 C61.35996094 17.98839844 62.71992188 17.97679688 64.12109375 17.96484375 C65.8932278 17.95546738 67.66536333 17.94636702 69.4375 17.9375 C70.78424805 17.92493164 70.78424805 17.92493164 72.15820312 17.91210938 C73.01220703 17.90888672 73.86621094 17.90566406 74.74609375 17.90234375 C75.53685303 17.89710693 76.3276123 17.89187012 77.14233398 17.88647461 C79 18 79 18 80 19 C80.08631874 20.34267413 80.10706473 21.68974322 80.09765625 23.03515625 C80.09515869 23.76355713 80.09266113 24.49195801 80.09008789 25.24243164 C80.08098389 26.1730542 80.07187988 27.10367676 80.0625 28.0625 C80.041875 31.011875 80.02125 33.96125 80 37 C85.94 37 91.88 37 98 37 C98 37.66 98 38.32 98 39 C91.4 39 84.8 39 78 39 C78 32.73 78 26.46 78 20 C71.73 20 65.46 20 59 20 C59 26.27 59 32.54 59 39 C52.4 39 45.8 39 39 39 C39 32.4 39 25.8 39 19 C26.13 19 13.26 19 0 19 C0 12.73 0 6.46 0 0 Z " fill="#232323" transform="translate(146,24)"/>
<path d="M0 0 C6.27 0 12.54 0 19 0 C19 6.27 19 12.54 19 19 C25.20792914 18.96041973 25.20792914 18.96041973 31.41577148 18.90991211 C32.18477783 18.90741455 32.95378418 18.90491699 33.74609375 18.90234375 C34.53685303 18.89710693 35.3276123 18.89187012 36.14233398 18.88647461 C38 19 38 19 39 20 C39.08651611 21.41570123 39.10704904 22.835595 39.09765625 24.25390625 C39.09515869 25.0229126 39.09266113 25.79191895 39.09008789 26.58422852 C39.08098389 27.56705811 39.07187988 28.5498877 39.0625 29.5625 C39.041875 32.676875 39.02125 35.79125 39 39 C45.6 39 52.2 39 59 39 C59 45.6 59 52.2 59 59 C71.54 59 84.08 59 97 59 C97 52.4 97 45.8 97 39 C103.6 39 110.2 39 117 39 C116.96041973 32.79207086 116.96041973 32.79207086 116.90991211 26.58422852 C116.90741455 25.81522217 116.90491699 25.04621582 116.90234375 24.25390625 C116.89710693 23.46314697 116.89187012 22.6723877 116.88647461 21.85766602 C117 20 117 20 118 19 C119.41570123 18.91348389 120.835595 18.89295096 122.25390625 18.90234375 C123.0229126 18.90484131 123.79191895 18.90733887 124.58422852 18.90991211 C125.56705811 18.91901611 126.5498877 18.92812012 127.5625 18.9375 C132.2340625 18.9684375 132.2340625 18.9684375 137 19 C137 12.73 137 6.46 137 0 C143.6 0 150.2 0 157 0 C157 0.33 157 0.66 157 1 C151.06 1 145.12 1 139 1 C139.07905744 6.83392689 139.07905744 6.83392689 139.18017578 12.66748047 C139.1851709 13.39338379 139.19016602 14.11928711 139.1953125 14.8671875 C139.20578613 15.61081543 139.21625977 16.35444336 139.22705078 17.12060547 C139 19 139 19 137 21 C135.12060547 21.22705078 135.12060547 21.22705078 132.8671875 21.1953125 C132.06152344 21.18886719 131.25585938 21.18242187 130.42578125 21.17578125 C129.58402344 21.15902344 128.74226562 21.14226562 127.875 21.125 C126.60076172 21.11146484 126.60076172 21.11146484 125.30078125 21.09765625 C123.20040116 21.07405647 121.10016556 21.03818483 119 21 C119.01160156 22.28777344 119.02320313 23.57554687 119.03515625 24.90234375 C119.0445327 26.58072772 119.05363305 28.25911326 119.0625 29.9375 C119.07087891 30.78763672 119.07925781 31.63777344 119.08789062 32.51367188 C119.09111328 33.32255859 119.09433594 34.13144531 119.09765625 34.96484375 C119.10289307 35.7137085 119.10812988 36.46257324 119.11352539 37.23413086 C119 39 119 39 118 40 C116.58429877 40.08651611 115.164405 40.10704904 113.74609375 40.09765625 C112.89208984 40.09443359 112.03808594 40.09121094 111.15820312 40.08789062 C109.81145508 40.07532227 109.81145508 40.07532227 108.4375 40.0625 C107.53580078 40.05798828 106.63410156 40.05347656 105.70507812 40.04882812 C103.46998686 40.03700225 101.23502563 40.0205222 99 40 C99.00523682 40.57032959 99.01047363 41.14065918 99.01586914 41.72827148 C99.03658221 44.29800323 99.0496419 46.86771747 99.0625 49.4375 C99.07087891 50.33533203 99.07925781 51.23316406 99.08789062 52.15820312 C99.09111328 53.01220703 99.09433594 53.86621094 99.09765625 54.74609375 C99.10289307 55.53685303 99.10812988 56.3276123 99.11352539 57.14233398 C99 59 99 59 98 60 C91.57624492 61.27755353 85.15305528 61.14809454 78.625 61.125 C77.53960937 61.12886719 76.45421875 61.13273437 75.3359375 61.13671875 C69.13993283 61.12923565 63.14277861 60.81472643 57 60 C55.31578947 43.36842105 55.31578947 43.36842105 57 40 C56.14450562 40.00785522 56.14450562 40.00785522 55.27172852 40.01586914 C52.70199677 40.03658221 50.13228253 40.0496419 47.5625 40.0625 C46.66466797 40.07087891 45.76683594 40.07925781 44.84179688 40.08789062 C43.56079102 40.09272461 43.56079102 40.09272461 42.25390625 40.09765625 C41.46314697 40.10289307 40.6723877 40.10812988 39.85766602 40.11352539 C38 40 38 40 37 39 C36.91368126 37.65732587 36.89293527 36.31025678 36.90234375 34.96484375 C36.90556641 34.15595703 36.90878906 33.34707031 36.91210938 32.51367188 C36.92467773 31.2384668 36.92467773 31.2384668 36.9375 29.9375 C36.94201172 29.08349609 36.94652344 28.22949219 36.95117188 27.34960938 C36.96299627 25.23304337 36.98093231 23.11651315 37 21 C35.72382812 21.02320313 34.44765625 21.04640625 33.1328125 21.0703125 C31.4635475 21.08906829 29.7942762 21.10726869 28.125 21.125 C26.86236328 21.15013672 26.86236328 21.15013672 25.57421875 21.17578125 C24.36572266 21.18544922 24.36572266 21.18544922 23.1328125 21.1953125 C22.38918457 21.20578613 21.64555664 21.21625977 20.87939453 21.22705078 C19 21 19 21 17 19 C16.77294922 17.12060547 16.77294922 17.12060547 16.8046875 14.8671875 C16.81113281 14.06152344 16.81757812 13.25585938 16.82421875 12.42578125 C16.84097656 11.58402344 16.85773438 10.74226562 16.875 9.875 C16.88402344 9.02550781 16.89304687 8.17601562 16.90234375 7.30078125 C16.92594353 5.20040116 16.96181517 3.10016556 17 1 C11.39 1 5.78 1 0 1 C0 0.67 0 0.34 0 0 Z " fill="#888888" transform="translate(48,182)"/>
<path d="M0 0 C6.6 0 13.2 0 20 0 C20 6.6 20 13.2 20 20 C13.4 20 6.8 20 0 20 C0 13.4 0 6.8 0 0 Z " fill="#E2E2E2" transform="translate(47,122)"/>
<path d="M0 0 C6.27 0 12.54 0 19 0 C19 6.27 19 12.54 19 19 C12.73 19 6.46 19 0 19 C0 12.73 0 6.46 0 0 Z " fill="#030303" transform="translate(87,202)"/>
<path d="M0 0 C6.27 0 12.54 0 19 0 C19 6.27 19 12.54 19 19 C12.73 19 6.46 19 0 19 C0 12.73 0 6.46 0 0 Z " fill="#020202" transform="translate(185,162)"/>
<path d="M0 0 C6.27 0 12.54 0 19 0 C19 6.27 19 12.54 19 19 C12.73 19 6.46 19 0 19 C0 12.73 0 6.46 0 0 Z " fill="#030303" transform="translate(48,162)"/>
<path d="M0 0 C6.27 0 12.54 0 19 0 C19 6.27 19 12.54 19 19 C12.73 19 6.46 19 0 19 C0 12.73 0 6.46 0 0 Z " fill="#020202" transform="translate(205,142)"/>
<path d="M0 0 C6.27 0 12.54 0 19 0 C19 6.27 19 12.54 19 19 C12.73 19 6.46 19 0 19 C0 12.73 0 6.46 0 0 Z " fill="#030303" transform="translate(28,142)"/>
<path d="M0 0 C6.27 0 12.54 0 19 0 C19 6.27 19 12.54 19 19 C12.73 19 6.46 19 0 19 C0 12.73 0 6.46 0 0 Z " fill="#010101" transform="translate(205,44)"/>
<path d="M0 0 C6.27 0 12.54 0 19 0 C19 6.27 19 12.54 19 19 C12.73 19 6.46 19 0 19 C0 12.73 0 6.46 0 0 Z " fill="#030303" transform="translate(28,44)"/>
<path d="M0 0 C5.94 0 11.88 0 18 0 C18 6.27 18 12.54 18 19 C12.06 19 6.12 19 0 19 C0 12.73 0 6.46 0 0 Z " fill="#020202" transform="translate(68,182)"/>
<path d="M0 0 C5.94 0 11.88 0 18 0 C18.020625 2.949375 18.04125 5.89875 18.0625 8.9375 C18.071604 9.86812256 18.08070801 10.79874512 18.09008789 11.75756836 C18.09258545 12.48596924 18.09508301 13.21437012 18.09765625 13.96484375 C18.10551147 15.08814087 18.10551147 15.08814087 18.11352539 16.23413086 C18 18 18 18 17 19 C14.13530675 19.07330331 11.30106326 19.09217831 8.4375 19.0625 C4.2609375 19.0315625 4.2609375 19.0315625 0 19 C0 12.73 0 6.46 0 0 Z " fill="#212121" transform="translate(127,202)"/>
<path d="M0 0 C5.94 0 11.88 0 18 0 C18 5.94 18 11.88 18 18 C12.06 18 6.12 18 0 18 C0 12.06 0 6.12 0 0 Z " fill="#000000" transform="translate(146,202)"/>
<path d="M0 0 C5.94 0 11.88 0 18 0 C18 5.94 18 11.88 18 18 C12.06 18 6.12 18 0 18 C0 12.06 0 6.12 0 0 Z " fill="#000000" transform="translate(166,182)"/>
<path d="M0 0 C1.62215675 0.00333092 1.62215675 0.00333092 3.27708435 0.00672913 C4.49827469 0.00680466 5.71946503 0.00688019 6.97766113 0.00695801 C8.32022644 0.0120654 9.66279134 0.01728141 11.00535583 0.02259827 C12.37156116 0.02446252 13.73776716 0.02588639 15.10397339 0.02688599 C18.70596654 0.03071058 22.30791959 0.04054035 25.90989685 0.05158997 C29.58298703 0.06180536 33.25608368 0.06638388 36.92918396 0.07142639 C44.14079081 0.08216268 51.35236459 0.09923838 58.56394958 0.12025452 C58.56394958 0.78025452 58.56394958 1.44025452 58.56394958 2.12025452 C38.76394958 2.12025452 18.96394958 2.12025452 -1.43605042 2.12025452 C-1.43605042 8.72025452 -1.43605042 15.32025452 -1.43605042 22.12025452 C-14.63605042 22.12025452 -27.83605042 22.12025452 -41.43605042 22.12025452 C-41.43605042 15.19025452 -41.43605042 8.26025452 -41.43605042 1.12025452 C-40.77605042 1.12025452 -40.11605042 1.12025452 -39.43605042 1.12025452 C-39.43605042 7.39025452 -39.43605042 13.66025452 -39.43605042 20.12025452 C-27.55605042 19.79025452 -15.67605042 19.46025452 -3.43605042 19.12025452 C-3.43605042 13.18025452 -3.43605042 7.24025452 -3.43605042 1.12025452 C-2.43605042 0.12025452 -2.43605042 0.12025452 0 0 Z " fill="#727272" transform="translate(147.43605041503906,21.879745483398438)"/>
<path d="M0 0 C6.6 0 13.2 0 20 0 C20 0.33 20 0.66 20 1 C14.06 1 8.12 1 2 1 C2.07905744 6.83392689 2.07905744 6.83392689 2.18017578 12.66748047 C2.1851709 13.39338379 2.19016602 14.11928711 2.1953125 14.8671875 C2.21102295 15.98262939 2.21102295 15.98262939 2.22705078 17.12060547 C2 19 2 19 0 21 C-1.87939453 21.22705078 -1.87939453 21.22705078 -4.1328125 21.1953125 C-4.93847656 21.18886719 -5.74414062 21.18242187 -6.57421875 21.17578125 C-7.41597656 21.15902344 -8.25773437 21.14226562 -9.125 21.125 C-10.39923828 21.11146484 -10.39923828 21.11146484 -11.69921875 21.09765625 C-13.79959884 21.07405647 -15.89983444 21.03818483 -18 21 C-17.98839844 22.28777344 -17.97679687 23.57554687 -17.96484375 24.90234375 C-17.9554673 26.58072772 -17.94636695 28.25911326 -17.9375 29.9375 C-17.92912109 30.78763672 -17.92074219 31.63777344 -17.91210938 32.51367188 C-17.90727539 33.72700195 -17.90727539 33.72700195 -17.90234375 34.96484375 C-17.89448853 36.08814087 -17.89448853 36.08814087 -17.88647461 37.23413086 C-18 39 -18 39 -19 40 C-20.41570123 40.08651611 -21.835595 40.10704904 -23.25390625 40.09765625 C-24.10791016 40.09443359 -24.96191406 40.09121094 -25.84179688 40.08789062 C-26.73962891 40.07951172 -27.63746094 40.07113281 -28.5625 40.0625 C-29.46419922 40.05798828 -30.36589844 40.05347656 -31.29492188 40.04882812 C-33.53001314 40.03700225 -35.76497437 40.0205222 -38 40 C-37.99476318 40.57032959 -37.98952637 41.14065918 -37.98413086 41.72827148 C-37.96341779 44.29800323 -37.9503581 46.86771747 -37.9375 49.4375 C-37.92912109 50.33533203 -37.92074219 51.23316406 -37.91210938 52.15820312 C-37.90888672 53.01220703 -37.90566406 53.86621094 -37.90234375 54.74609375 C-37.89710693 55.53685303 -37.89187012 56.3276123 -37.88647461 57.14233398 C-38 59 -38 59 -39 60 C-40.99958364 60.04080783 -43.00045254 60.04254356 -45 60 C-45 59.67 -45 59.34 -45 59 C-43.35 59 -41.7 59 -40 59 C-40 52.4 -40 45.8 -40 39 C-33.4 39 -26.8 39 -20 39 C-20.03958027 32.79207086 -20.03958027 32.79207086 -20.09008789 26.58422852 C-20.09258545 25.81522217 -20.09508301 25.04621582 -20.09765625 24.25390625 C-20.10551147 23.06776733 -20.10551147 23.06776733 -20.11352539 21.85766602 C-20 20 -20 20 -19 19 C-17.58429877 18.91348389 -16.164405 18.89295096 -14.74609375 18.90234375 C-13.9770874 18.90484131 -13.20808105 18.90733887 -12.41577148 18.90991211 C-11.43294189 18.91901611 -10.4501123 18.92812012 -9.4375 18.9375 C-6.323125 18.958125 -3.20875 18.97875 0 19 C0 12.73 0 6.46 0 0 Z " fill="#858585" transform="translate(185,182)"/>
<path d="M0 0 C0.33 0 0.66 0 1 0 C1 5.94 1 11.88 1 18 C6.94 18 12.88 18 19 18 C19 18.33 19 18.66 19 19 C13.06 19 7.12 19 1 19 C1 25.27 1 31.54 1 38 C13.54 38 26.08 38 39 38 C39 38.33 39 38.66 39 39 C33.06 39 27.12 39 21 39 C21 45.27 21 51.54 21 58 C20.67 58 20.34 58 20 58 C20 51.73 20 45.46 20 39 C18.56785156 39.08378906 17.13570312 39.16757813 15.66015625 39.25390625 C13.79428596 39.35704481 11.92839968 39.45989452 10.0625 39.5625 C8.64420898 39.64661133 8.64420898 39.64661133 7.19726562 39.73242188 C5.84858398 39.80493164 5.84858398 39.80493164 4.47265625 39.87890625 C3.64000244 39.9260376 2.80734863 39.97316895 1.94946289 40.02172852 C0 40 0 40 -1 39 C-1.08651611 37.58429877 -1.10704904 36.164405 -1.09765625 34.74609375 C-1.09443359 33.89208984 -1.09121094 33.03808594 -1.08789062 32.15820312 C-1.07951172 31.26037109 -1.07113281 30.36253906 -1.0625 29.4375 C-1.05798828 28.53580078 -1.05347656 27.63410156 -1.04882812 26.70507812 C-1.03700244 24.47002411 -1.01906638 22.23500398 -1 20 C-6.94 19.67 -12.88 19.34 -19 19 C-19 18.67 -19 18.34 -19 18 C-12.73 18 -6.46 18 0 18 C0 12.06 0 6.12 0 0 Z " fill="#353535" transform="translate(47,143)"/>
<path d="M0 0 C6.6 0 13.2 0 20 0 C20 6.6 20 13.2 20 20 C30.89 20 41.78 20 53 20 C52.67 20.66 52.34 21.32 52 22 C48.02084915 22.02934144 44.04172663 22.04691265 40.0625 22.0625 C38.94552734 22.07087891 37.82855469 22.07925781 36.67773438 22.08789062 C30.36007333 22.10641749 24.26236773 21.84339417 18 21 C16.31578947 4.36842105 16.31578947 4.36842105 18 1 C12.06 1 6.12 1 0 1 C0 0.67 0 0.34 0 0 Z " fill="#979797" transform="translate(87,221)"/>
<path d="M0 0 C3.31248187 -0.02888146 6.62493167 -0.04675799 9.9375 -0.0625 C10.88302734 -0.07087891 11.82855469 -0.07925781 12.80273438 -0.08789062 C14.15141602 -0.09272461 14.15141602 -0.09272461 15.52734375 -0.09765625 C16.77632446 -0.10551147 16.77632446 -0.10551147 18.05053711 -0.11352539 C20 0 20 0 21 1 C21.08631874 2.34267413 21.10706473 3.68974322 21.09765625 5.03515625 C21.09515869 5.76355713 21.09266113 6.49195801 21.09008789 7.24243164 C21.08098389 8.1730542 21.07187988 9.10367676 21.0625 10.0625 C21.041875 13.011875 21.02125 15.96125 21 19 C26.94 19 32.88 19 39 19 C39 19.66 39 20.32 39 21 C32.4 21 25.8 21 19 21 C19 14.73 19 8.46 19 2 C12.73 2 6.46 2 0 2 C0 1.34 0 0.68 0 0 Z " fill="#7D7D7D" transform="translate(205,42)"/>
<path d="M0 0 C0 0.66 0 1.32 0 2 C-6.27 2 -12.54 2 -19 2 C-19 8.27 -19 14.54 -19 21 C-25.27 21 -31.54 21 -38 21 C-38 20.67 -38 20.34 -38 20 C-32.39 20 -26.78 20 -21 20 C-21.33 17.69 -21.66 15.38 -22 13 C-22.0839666 11.25151902 -22.13050468 9.50048731 -22.125 7.75 C-22.12757812 6.91984375 -22.13015625 6.0896875 -22.1328125 5.234375 C-22 3 -22 3 -21 0 C-18.43788925 -0.19569589 -15.87567609 -0.38180612 -13.3125 -0.5625 C-12.59126953 -0.61857422 -11.87003906 -0.67464844 -11.12695312 -0.73242188 C-7.22685936 -0.99955159 -3.78888972 -1.00887596 0 0 Z " fill="#909090" transform="translate(47,42)"/>
</svg>
