<?xml version="1.0" encoding="UTF-8"?>
<svg version="1.1" xmlns="http://www.w3.org/2000/svg" width="500" height="500">
<path d="M0 0 C3.11487643 0.23073159 4.04389205 1.04765423 6.1875 3.375 C7.12904815 4.58018163 8.06581254 5.78910385 9 7 C10.45346525 8.79561809 11.91225924 10.5869298 13.375 12.375 C14.14457031 13.32117188 14.91414063 14.26734375 15.70703125 15.2421875 C18.30523783 18.36711739 21.01101603 21.3746022 23.78515625 24.34375 C25 26 25 26 25 29 C25.63494385 28.9292627 26.2698877 28.85852539 26.92407227 28.78564453 C36.92774418 27.8034878 46.89758266 27.84719791 56.9375 27.875 C57.85521179 27.87588623 58.77292358 27.87677246 59.71844482 27.87768555 C75.82989995 27.89590602 91.90484879 28.25963092 108 29 C106.68 28.67 105.36 28.34 104 28 C105.51968265 24.13171688 107.79802729 22.56157817 111 20 C112.16628616 18.70564036 113.31062616 17.39131362 114.4375 16.0625 C116.57547433 13.55189398 118.67659467 11.31255564 121.25 9.25 C124.02410002 7.18623626 124.02410002 7.18623626 125.625 4.6875 C126.07875 4.130625 126.5325 3.57375 127 3 C128.32 3 129.64 3 131 3 C133.25128618 8.75993965 135.18218066 14.49953351 136.6875 20.5 C138.59098694 27.89489568 140.98696009 35.08225843 143.4375 42.3125 C146.12507247 50.27244112 148.77865609 58.22599445 151.0625 66.3125 C151.26609131 67.01608643 151.46968262 67.71967285 151.67944336 68.44458008 C152.76234457 72.39412763 153.18717765 75.91228159 153 80 C153 83.28419493 155.38745085 85.54538758 157.25 88.125 C167.14712283 102.23599693 170.95337605 116.75281473 168.71875 134.1953125 C168.26994703 136.18903338 167.65679862 138.06399149 167 140 C166.68160156 141.10730469 166.36320313 142.21460938 166.03515625 143.35546875 C163.32994797 152.4874739 159.50793622 160.15870171 154 168 C153.33226562 168.95777344 152.66453125 169.91554688 151.9765625 170.90234375 C139.83122883 186.9982971 120.45946194 196.30941239 101 200 C116.94533164 199.62839269 132.54822461 194.01137009 144.1796875 182.921875 C145.87714651 181.00563238 147.4347924 179.02460619 149 177 C150.16485191 175.7691134 151.33157145 174.53999197 152.5 173.3125 C160.88741596 163.73765212 165.69048465 150.85116722 170 139 C170.66 139 171.32 139 172 139 C172.1230249 139.81633911 172.1230249 139.81633911 172.24853516 140.64916992 C173.67564376 148.87055643 176.51219537 156.51210878 179.375 164.3125 C180.34531541 166.9737612 181.31132138 169.63654498 182.2734375 172.30078125 C182.50697937 172.94733673 182.74052124 173.59389221 182.98114014 174.26004028 C185.65382572 181.72603989 188.15003441 189.28414973 190 197 C190.89460938 197.06058594 191.78921875 197.12117187 192.7109375 197.18359375 C213.20792079 198.6039604 213.20792079 198.6039604 216 200 C216 200.66 216 201.32 216 202 C207.26747434 204.56120688 198.64496147 205.7393342 189.61206055 206.453125 C187.46372943 206.62292685 185.31690612 206.80619918 183.16992188 206.9921875 C166.5002314 208.40584335 149.83979443 209.13281255 133.11328125 209.28125 C131.45458043 209.29908115 129.79588397 209.31732146 128.13719177 209.3359375 C124.65401956 209.37448033 121.17083524 209.41091438 117.68762207 209.44555664 C108.6054324 209.53639874 99.52342609 209.64373081 90.44140625 209.75 C89.54729412 209.76035782 88.65318199 209.77071564 87.73197556 209.78138733 C72.73655154 209.95571831 57.7431256 210.17964081 42.75 210.5 C41.80545959 210.51996033 40.86091919 210.53992065 39.88775635 210.56048584 C30.84870041 210.75501642 21.81249517 210.98940549 12.77734375 211.3203125 C12.07157196 211.34603333 11.36580017 211.37175415 10.63864136 211.39825439 C7.46588477 211.51576912 4.29388816 211.64246511 1.12207031 211.78320312 C0.0750293 211.82638672 -0.97201172 211.86957031 -2.05078125 211.9140625 C-3.39136597 211.9752124 -3.39136597 211.9752124 -4.7590332 212.03759766 C-7 212 -7 212 -10 211 C-12.61723022 210.84557001 -15.21248227 210.74228378 -17.83203125 210.68359375 C-18.61217087 210.66281265 -19.39231049 210.64203156 -20.1960907 210.62062073 C-22.73479732 210.55470255 -25.27360984 210.49588446 -27.8125 210.4375 C-29.55469035 210.39399412 -31.29687785 210.35037408 -33.0390625 210.30664062 C-43.05247284 210.06440054 -53.0554473 209.94417469 -63.07202148 210.01928711 C-70.08665864 210.05373807 -77.01377407 209.66762569 -84 209 C-84 205 -84 205 -82.48046875 203.28515625 C-79.13688557 201.55281158 -75.99681305 201.51582589 -72.3125 201.4375 C-66.30959989 201.19850069 -60.82960131 200.56150035 -55 199 C-54.78085938 197.99324219 -54.56171875 196.98648438 -54.3359375 195.94921875 C-52.17799641 186.29080463 -49.49308501 176.91525656 -46.44140625 167.50390625 C-45.18114074 163.60980897 -44.03559059 159.69334557 -42.9375 155.75 C-40.88166348 148.41144432 -38.4637123 141.20938764 -36 134 C-35.01 134 -34.02 134 -33 134 C-32.67 134.99 -32.34 135.98 -32 137 C-32.02320313 135.69546875 -32.04640625 134.3909375 -32.0703125 133.046875 C-32.2571967 118.37716776 -31.26842258 106.49385624 -25 93 C-25.66 93 -26.32 93 -27 93 C-26.43236936 85.01016866 -24.39323121 77.72489395 -22.125 70.0625 C-21.77308594 68.85142578 -21.42117187 67.64035156 -21.05859375 66.39257812 C-20.04868436 62.92547283 -19.02558053 59.46249619 -18 56 C-17.72897461 55.06784668 -17.45794922 54.13569336 -17.17871094 53.17529297 C-16.08423576 49.44308981 -14.94782435 45.77548711 -13.53125 42.15234375 C-11.44737889 36.74594636 -10.01991749 31.14769898 -8.5 25.5625 C-3.19491835 6.1375613 -3.19491835 6.1375613 0 0 Z M15 27 C15.33 27.66 15.66 28.32 16 29 C16.99 28.34 17.98 27.68 19 27 C17.68 27 16.36 27 15 27 Z M20 27 C19.67 27.66 19.34 28.32 19 29 C20.65 29 22.3 29 24 29 C22.68 28.34 21.36 27.68 20 27 Z M110 28 C111.32 28.99 112.64 29.98 114 31 C114 30.01 114 29.02 114 28 C112.68 28 111.36 28 110 28 Z M14 29 C15 32 15 32 15 32 Z M115 31 C115 33.64 115 36.28 115 39 C115.33 39 115.66 39 116 39 C116 36.36 116 33.72 116 31 C115.67 31 115.34 31 115 31 Z M13 33 C12.97421875 34.15757812 12.9484375 35.31515625 12.921875 36.5078125 C12.86556651 38.04691128 12.8082198 39.58597233 12.75 41.125 C12.72873047 42.26582031 12.72873047 42.26582031 12.70703125 43.4296875 C12.4369997 49.69441935 10.61779631 53.41412803 6.078125 57.8984375 C5.17320312 58.62933594 5.17320312 58.62933594 4.25 59.375 C3.32960938 60.12910156 3.32960938 60.12910156 2.390625 60.8984375 C1.93171875 61.26195312 1.4728125 61.62546875 1 62 C4.6408385 62 5.94130256 60.89347937 9 59 C10.65369357 58.30177383 12.31727014 57.62501395 14 57 C13.34 56.67 12.68 56.34 12 56 C12.33 55.01 12.66 54.02 13 53 C13.66 52.67 14.32 52.34 15 52 C15.12086218 45.56744599 14.82351864 39.38226945 14 33 C13.67 33 13.34 33 13 33 Z M114 43 C114 44.98 114 46.96 114 49 C114.33 49 114.66 49 115 49 C115 47.02 115 45.04 115 43 C114.67 43 114.34 43 114 43 Z M115 49 C116 51 116 51 116 51 Z M116 51 C116.34939366 53.43530507 116.34939366 53.43530507 118 56 C120.85200294 57.73600179 123.7889302 59.07741651 127 60 C127.66 59.67 128.32 59.34 129 59 C127.54462432 58.16151196 126.08559627 57.32936066 124.625 56.5 C123.81289063 56.0359375 123.00078125 55.571875 122.1640625 55.09375 C120.10663126 53.84964141 120.10663126 53.84964141 118 54 C117.67 53.01 117.34 52.02 117 51 C116.67 51 116.34 51 116 51 Z M-14 75 C-13 77 -13 77 -13 77 Z M-15 77 C-16.32 78.65 -17.64 80.3 -19 82 C-18.67 82.66 -18.34 83.32 -18 84 C-16.68 82.35 -15.36 80.7 -14 79 C-14.33 78.34 -14.66 77.68 -15 77 Z M150 78 C151 80 151 80 151 80 Z M-20 84 C-20.66 85.32 -21.32 86.64 -22 88 C-21.01 87.34 -20.02 86.68 -19 86 C-19.33 85.34 -19.66 84.68 -20 84 Z M-23 88 C-22 90 -22 90 -22 90 Z M-25 91 C-24 93 -24 93 -24 93 Z M-30 147 C-29 150 -29 150 -29 150 Z M-29 151 C-28.41734728 155.42323682 -26.73233789 158.5155864 -24.4375 162.3125 C-23.79683594 163.38113281 -23.15617187 164.44976562 -22.49609375 165.55078125 C-22.00238281 166.35902344 -21.50867188 167.16726563 -21 168 C-20.67 167.34 -20.34 166.68 -20 166 C-21.24125182 163.38838269 -22.5310524 160.89498214 -23.9375 158.375 C-24.32357422 157.66859375 -24.70964844 156.9621875 -25.10742188 156.234375 C-26.06448696 154.48566349 -27.03134031 152.74231568 -28 151 C-28.33 151 -28.66 151 -29 151 Z M-20 168 C-18.57731065 172.48632152 -16.33752711 175.03803663 -13 178.3125 C-12.113125 179.19550781 -11.22625 180.07851563 -10.3125 180.98828125 C-8.25935595 183.21877882 -8.25935595 183.21877882 -6 183 C-6 183.66 -6 184.32 -6 185 C6.14570453 191.3422362 6.14570453 191.3422362 19 196 C16.50020307 192.81844027 14.08261378 191.53413331 10.375 190.1875 C-1.02646728 185.89105265 -11.71321454 176.83923782 -20 168 Z M20 178 C19.34 179.32 18.68 180.64 18 182 C20.475 182.495 20.475 182.495 23 183 C23.33 181.68 23.66 180.36 24 179 C22.68 178.67 21.36 178.34 20 178 Z M19 196 C22.81148603 199.67460946 27.36500127 200.20612068 32.375 201.1875 C33.63183594 201.45336914 33.63183594 201.45336914 34.9140625 201.72460938 C39.34414359 202.62664633 43.45380135 203.21472274 48 203 C48 202.67 48 202.34 48 202 C47.21238281 201.81824219 46.42476562 201.63648438 45.61328125 201.44921875 C44.52402344 201.19785156 43.43476563 200.94648438 42.3125 200.6875 C41.13558594 200.41679687 39.95867187 200.14609375 38.74609375 199.8671875 C36.27834891 199.29592644 33.8121444 198.7179637 31.34765625 198.1328125 C30.20167969 197.86210937 29.05570313 197.59140625 27.875 197.3125 C26.82054687 197.06113281 25.76609375 196.80976563 24.6796875 196.55078125 C21.96618926 195.8993347 21.96618926 195.8993347 19 196 Z M72.53369141 202.93286133 C67.27203303 203.92717651 62.35764773 204.12705884 57 204 C63.50457889 207.40298959 70.28314054 207.74639523 77.3125 205.6875 C78.20195312 205.40648437 79.09140625 205.12546875 80.0078125 204.8359375 C85.5573281 203.28555064 91.29182904 202.70831318 97 202 C97 201.67 97 201.34 97 201 C88.5478839 200.59680718 80.81264765 201.31592044 72.53369141 202.93286133 Z M48 203 C48 203.33 48 203.66 48 204 C49.98 204 51.96 204 54 204 C54 203.67 54 203.34 54 203 C52.02 203 50.04 203 48 203 Z " fill="#020202" transform="translate(184,139)"/>
<path d="M0 0 C7.48712602 3.80658596 12.42879076 10.53740413 16 18 C20.26492911 31.69541506 20.87420442 47.18034438 14.6875 60.3125 C10.60607312 67.90585234 4.58130916 72.20934542 -3 76 C-16.56849054 77.64107679 -26.87257169 74.33622597 -37.60546875 65.96875 C-44.59989308 59.35488535 -49.53766693 51.61301404 -50.21875 41.87109375 C-50.56929631 28.5649402 -48.18669614 16.22769257 -38.875 6.375 C-26.37938517 -5.40599634 -15.86045704 -6.55016278 0 0 Z " fill="#F9F9F9" transform="translate(320,225)"/>
<path d="M0 0 C1.03125 0.4125 2.0625 0.825 3.125 1.25 C10.70455884 5.86364451 15.8906083 12.71179036 19 21 C19.82684353 25.68363344 19.95798225 30.25199451 20 35 C20.10828125 36.59328125 20.10828125 36.59328125 20.21875 38.21875 C20.75984003 49.14876854 18.58801103 60.51341088 11.22167969 68.93188477 C5.9889697 74.29060769 1.44421583 76.78831614 -6 77 C-6.84691406 77.06445312 -7.69382813 77.12890625 -8.56640625 77.1953125 C-14.38676479 77.46189381 -18.73585261 76.37272891 -24 74 C-25.155 73.5875 -26.31 73.175 -27.5 72.75 C-35.16978368 68.91510816 -39.80611476 63.87918826 -43 56 C-43.78117188 54.453125 -43.78117188 54.453125 -44.578125 52.875 C-46.51920141 48.32058672 -46.49410539 43.89124018 -46.4375 39 C-46.42920166 38.07590332 -46.42090332 37.15180664 -46.41235352 36.19970703 C-46.08844225 22.89974915 -43.06068479 9.75522726 -33.14453125 0.21484375 C-24.23410746 -5.9724718 -9.37938234 -4.43201583 0 0 Z " fill="#F7F7F7" transform="translate(212,225)"/>
<path d="M0 0 C0.66 0 1.32 0 2 0 C2.0820166 0.54422607 2.1640332 1.08845215 2.24853516 1.64916992 C3.67564376 9.87055643 6.51219537 17.51210878 9.375 25.3125 C10.34531541 27.9737612 11.31132138 30.63654498 12.2734375 33.30078125 C12.50697937 33.94733673 12.74052124 34.59389221 12.98114014 35.26004028 C15.65382572 42.72603989 18.15003441 50.28414973 20 58 C20.89460938 58.06058594 21.78921875 58.12117188 22.7109375 58.18359375 C43.20792079 59.6039604 43.20792079 59.6039604 46 61 C46 61.66 46 62.32 46 63 C37.26747434 65.56120688 28.64496147 66.7393342 19.61206055 67.453125 C17.46372943 67.62292685 15.31690612 67.80619918 13.16992188 67.9921875 C-3.78354349 69.43042512 -20.68619392 70.15417686 -37.69921875 70.09765625 C-39.39842181 70.09578349 -41.09762542 70.09436366 -42.79682922 70.09336853 C-47.197536 70.08961074 -51.59820801 70.07984098 -55.99890137 70.06866455 C-60.51814301 70.05830261 -65.03739045 70.05383976 -69.55664062 70.04882812 C-78.37110943 70.03821022 -87.18555035 70.02121854 -96 70 C-96 69.01 -96 68.02 -96 67 C-88.38676567 64.09268074 -81.00451135 63.0758724 -72.9375 62.125 C-52.46792079 59.46038911 -34.19485554 55.06763132 -21 38 C-19.83514809 36.7691134 -18.66842855 35.53999197 -17.5 34.3125 C-9.11258404 24.73765212 -4.30951535 11.85116722 0 0 Z " fill="#000000" transform="translate(354,278)"/>
<path d="M0 0 C3.0625 1.5 3.0625 1.5 5 3 C3.125 7.75 3.125 7.75 2 10 C1.75 13.5 1.75 13.5 2 17 C3.87644507 19.31686366 3.87644507 19.31686366 6.9375 19.1875 C10.04093079 19.12950232 10.04093079 19.12950232 13 18 C13.77035574 27.34698304 12.37329531 35.62055021 8 44 C2.47937125 49.33394082 -2.66625609 49.42108114 -10.0859375 49.33984375 C-14.66018141 48.80638635 -16.0211462 47.50015322 -19 44 C-24.5378682 35.64839295 -25.07563975 28.09309672 -23.375 18.25 C-22.0906126 13.28310326 -19.41343254 9.75162977 -16 6 C-15.46117187 5.39542969 -14.92234375 4.79085937 -14.3671875 4.16796875 C-9.97387798 -0.19468977 -6.0889573 -1.195029 0 0 Z " fill="#060606" transform="translate(213,247)"/>
<path d="M0 0 C0 1.98 0 3.96 0 6 C0.721875 6.226875 1.44375 6.45375 2.1875 6.6875 C7.65409727 9.23857872 11.04362329 13.85371462 14 19 C14 20.32 14 21.64 14 23 C14.66 23 15.32 23 16 23 C16.2475 22.360625 16.495 21.72125 16.75 21.0625 C18 19 18 19 20.0625 18.1875 C20.701875 18.125625 21.34125 18.06375 22 18 C23 19 23 19 23.09765625 22.16015625 C23.08605469 23.44792969 23.07445312 24.73570312 23.0625 26.0625 C23.05347656 27.35285156 23.04445313 28.64320313 23.03515625 29.97265625 C23.02355469 30.97167969 23.01195312 31.97070312 23 33 C20.61328125 33.1171875 20.61328125 33.1171875 18 33 C16.02389614 30.95575462 15 29.8823175 15 27 C14.34 27 13.68 27 13 27 C12.91621094 27.74765625 12.83242188 28.4953125 12.74609375 29.265625 C11.84320915 32.57462615 10.68985015 33.60250946 8.0625 35.75 C7.35222656 36.34296875 6.64195312 36.9359375 5.91015625 37.546875 C4 39 4 39 2 40 C1.34227572 43.02934491 1.34227572 43.02934491 1 46 C-3.054162 46.49441 -5.28578586 46.07847444 -8.5 43.6875 C-9.08523437 43.22601563 -9.67046875 42.76453125 -10.2734375 42.2890625 C-12.13313055 40.80709773 -12.13313055 40.80709773 -15.125 39.5625 C-17.94704465 38.02878008 -18.67112347 37.25284623 -20.4375 34.75 C-21.283125 33.8425 -22.12875 32.935 -23 32 C-26.7500288 31.97475672 -26.7500288 31.97475672 -30 33 C-29 31 -28 29 -27 27 C-28.32 27 -29.64 27 -31 27 C-30.34 25.68 -29.68 24.36 -29 23 C-28.01 23 -27.02 23 -26 23 C-26 23.66 -26 24.32 -26 25 C-25.34 25 -24.68 25 -24 25 C-24 23.68 -24 22.36 -24 21 C-23.42734543 15.67768108 -20.96083706 13.14553793 -17.203125 9.53125 C-14.76646119 7.83768225 -12.92026216 7.36758545 -10 7 C-10 6.01 -10 5.02 -10 4 C-6.35022743 1.09677182 -4.74147821 0 0 0 Z " fill="#F3F3F3" transform="translate(256,281)"/>
<path d="M0 0 C0 0.66 0 1.32 0 2 C-0.66 2 -1.32 2 -2 2 C-4.83022097 5.99560608 -3.76210446 9.42737323 -3 14 C0.3 13.67 3.6 13.34 7 13 C7 13.66 7 14.32 7 15 C7.66 15 8.32 15 9 15 C11.675467 23.02640099 9.45115355 29.45836341 6.58203125 37.08203125 C4.49329858 40.93458263 1.89275319 43.05362341 -2 45 C-6.78900852 45.5254128 -10.83545225 45.48339718 -15.3125 43.625 C-19.07584183 39.94917775 -20.95888871 35.79956966 -23 31 C-23.36738281 30.22011719 -23.73476563 29.44023437 -24.11328125 28.63671875 C-26.21386678 22.39048425 -26.06308153 14.45026907 -24.125 8.16015625 C-19.00456415 -1.96281067 -10.39144782 -4.05519915 0 0 Z " fill="#050505" transform="translate(303,249)"/>
<path d="M0 0 C1.40104115 0.0018683 2.80208296 0.00329025 4.203125 0.00428772 C7.86584318 0.00808049 11.52852083 0.01788259 15.19122314 0.0289917 C18.93867444 0.03927599 22.68613237 0.04380029 26.43359375 0.04882812 C33.76824751 0.05950821 41.10286805 0.07654506 48.4375 0.09765625 C48.4375 0.75765625 48.4375 1.41765625 48.4375 2.09765625 C48.97375 2.32453125 49.51 2.55140625 50.0625 2.78515625 C53.27909531 4.56274839 55.80751807 6.52744663 58.4375 9.09765625 C58.8125 11.91015625 58.8125 11.91015625 58.4375 14.09765625 C59.4275 14.09765625 60.4175 14.09765625 61.4375 14.09765625 C62.4375 16.09765625 62.4375 16.09765625 62.4375 22.09765625 C55.0125 21.10765625 55.0125 21.10765625 47.4375 20.09765625 C47.4375 19.43765625 47.4375 18.77765625 47.4375 18.09765625 C45.7875 18.09765625 44.1375 18.09765625 42.4375 18.09765625 C42.4375 17.76765625 42.4375 17.43765625 42.4375 17.09765625 C45.4075 17.09765625 48.3775 17.09765625 51.4375 17.09765625 C51.4375 16.43765625 51.4375 15.77765625 51.4375 15.09765625 C50.42042969 15.04158203 50.42042969 15.04158203 49.3828125 14.984375 C47.98675781 14.88576172 47.98675781 14.88576172 46.5625 14.78515625 C45.65757812 14.72714844 44.75265625 14.66914063 43.8203125 14.609375 C40.93120072 14.17233846 38.65493683 13.51328506 35.91796875 12.5703125 C29.50895725 10.57619778 23.28371677 10.73254067 16.625 10.84765625 C15.44357422 10.8528125 14.26214844 10.85796875 13.04492188 10.86328125 C-2.37344872 10.98409534 -2.37344872 10.98409534 -17.5 13.66015625 C-21.65987818 14.75928968 -25.25410833 15.24533585 -29.5625 15.09765625 C-29.2325 14.43765625 -28.9025 13.77765625 -28.5625 13.09765625 C-27.2425 13.09765625 -25.9225 13.09765625 -24.5625 13.09765625 C-24.8925 9.79765625 -25.2225 6.49765625 -25.5625 3.09765625 C-18.48547955 -1.62035738 -8.2011219 -0.03231042 0 0 Z " fill="#F5F5F5" transform="translate(237.5625,173.90234375)"/>
<path d="M0 0 C0 3.3 0 6.6 0 10 C-1.32 10.33 -2.64 10.66 -4 11 C3.27552211 10.53223603 3.27552211 10.53223603 10.375 9 C28.95152881 3.87544033 52.78565916 5.10224855 71 11 C72.66132197 11.35902394 74.32650566 11.70283745 76 12 C76 12.66 76 13.32 76 14 C74.68 14.33 73.36 14.66 72 15 C72 15.66 72 16.32 72 17 C53.78485553 17.07479016 35.58615515 16.86882726 17.375 16.5 C14.89193156 16.45159267 12.40885864 16.40341468 9.92578125 16.35546875 C3.9504669 16.23960633 -2.02478711 16.12097659 -8 16 C-8 16.66 -8 17.32 -8 18 C-9.98 18 -11.96 18 -14 18 C-14 16.68 -14 15.36 -14 14 C-13.34 13.67 -12.68 13.34 -12 13 C-10.64944456 10.1300697 -9.85934512 7.40724015 -9.125 4.3125 C-8 1 -8 1 -6.125 -0.5 C-4 -1 -4 -1 0 0 Z " fill="#DADADA" transform="translate(213,177)"/>
<path d="M0 0 C1.66132197 0.35902394 3.32650566 0.70283745 5 1 C5 1.66 5 2.32 5 3 C-21.73 3 -48.46 3 -76 3 C-73.23827643 0.23827643 -70.20861023 0.09257227 -66.5 -0.5625 C-61.61246226 -1.3310885 -61.61246226 -1.3310885 -57 -3 C-38.0604582 -5.2653568 -18.26061701 -5.91273555 0 0 Z " fill="#111111" transform="translate(284,188)"/>
<path d="M0 0 C4.99913315 1.85682089 8.98567812 3.47851719 12 8 C12.67743304 11.74370893 12.74506637 15.39345064 11.125 18.88671875 C8.93049297 21.86807205 6.97745138 23.00765042 3.5 24.1875 C0 24 0 24 -2.875 21.625 C-3.926875 20.325625 -3.926875 20.325625 -5 19 C-5.33 18.67 -5.66 18.34 -6 18 C-6.62556686 12.28568734 -6.1690201 7.92958683 -3 3 C-1.3125 1.125 -1.3125 1.125 0 0 Z " fill="#EDEDED" transform="translate(241,289)"/>
<path d="M0 0 C7.22330097 -0.60194175 7.22330097 -0.60194175 10.5 1.9375 C12.53701677 6.09640924 12.91042031 9.45588458 12 14 C10.65529972 16.86195059 9.52313825 17.8526483 7 20 C3.5 21.1875 3.5 21.1875 0 21 C-2.875 18.625 -2.875 18.625 -5 16 C-5.33 15.67 -5.66 15.34 -6 15 C-6.07179964 13.48071962 -6.08392007 11.95832518 -6.0625 10.4375 C-6.05347656 9.61121094 -6.04445312 8.78492188 -6.03515625 7.93359375 C-6.02355469 7.29550781 -6.01195312 6.65742188 -6 6 C-5.34 5.67 -4.68 5.34 -4 5 C-3.67 8.3 -3.34 11.6 -3 15 C1.9127666 16.2418328 1.9127666 16.2418328 6.4375 14.5 C8.54401977 11.12956837 8.50556724 8.90009015 8 5 C4.81237635 2.87491756 2.73487777 2.4979837 -1 2 C-0.67 1.34 -0.34 0.68 0 0 Z " fill="#121212" transform="translate(241,292)"/>
<path d="M0 0 C0.99 0.33 1.98 0.66 3 1 C3 5.62 3 10.24 3 15 C1.35 15 -0.3 15 -2 15 C-3.97610386 12.95575462 -5 11.8823175 -5 9 C-5.66 8.67 -6.32 8.34 -7 8 C-6.67 7.01 -6.34 6.02 -6 5 C-5.34 5 -4.68 5 -4 5 C-3.71125 4.360625 -3.4225 3.72125 -3.125 3.0625 C-2 1 -2 1 0 0 Z " fill="#E6E6E6" transform="translate(276,299)"/>
<path d="M0 0 C0 3.3 0 6.6 0 10 C-1.32 10.33 -2.64 10.66 -4 11 C-3.67 11.66 -3.34 12.32 -3 13 C-3.99 13.33 -4.98 13.66 -6 14 C-9.02422469 7.11433587 -9.02422469 7.11433587 -8.9375 3.125 C-8 1 -8 1 -6.1875 -0.375 C-4 -1 -4 -1 0 0 Z " fill="#E3E3E3" transform="translate(213,177)"/>
<path d="M0 0 C0.33 1.98 0.66 3.96 1 6 C-3.27118644 9.05084746 -3.27118644 9.05084746 -6.6875 8.8125 C-9 8 -9 8 -11 6 C-10.8125 4 -10.8125 4 -10 2 C-6.3558226 -0.4294516 -4.28758728 -0.16179575 0 0 Z " fill="#EBEBEB" transform="translate(301,311)"/>
<path d="M0 0 C7.22330097 -0.60194175 7.22330097 -0.60194175 10.5 1.9375 C12.5147987 6.05104734 12.3526999 9.50307622 12 14 C11.38640625 14.14308594 10.7728125 14.28617187 10.140625 14.43359375 C7.89792233 15.0270096 6.03970153 15.90730275 4 17 C4.66 16.319375 5.32 15.63875 6 14.9375 C8.46762853 11.3131706 8.56823055 9.302317 8 5 C4.81237635 2.87491756 2.73487777 2.4979837 -1 2 C-0.67 1.34 -0.34 0.68 0 0 Z " fill="#313131" transform="translate(241,292)"/>
<path d="M0 0 C1.33037532 1.99556299 2.62268277 4.01704853 3.875 6.0625 C6.47957254 9.66293851 8.22085122 10.71425792 12.578125 11.4140625 C13.45984375 11.48367188 14.3415625 11.55328125 15.25 11.625 C16.14203125 11.69976562 17.0340625 11.77453125 17.953125 11.8515625 C18.96632813 11.92503906 18.96632813 11.92503906 20 12 C20 12.33 20 12.66 20 13 C18.329375 13.2165625 18.329375 13.2165625 16.625 13.4375 C13.17857953 13.78372035 13.17857953 13.78372035 11 15 C1.40546697 9.03416856 1.40546697 9.03416856 -2 4 C-1.34 2.68 -0.68 1.36 0 0 Z " fill="#D5D5D5" transform="translate(281,282)"/>
<path d="M0 0 C0.66 0 1.32 0 2 0 C3.4783226 2.95664519 3.06032783 5.74229737 3 9 C1.68 9.33 0.36 9.66 -1 10 C-1.9765625 3.9453125 -1.9765625 3.9453125 -2 2 C-1.34 1.34 -0.68 0.68 0 0 Z " fill="#BBBBBB" transform="translate(206,177)"/>
<path d="M0 0 C0.33 0 0.66 0 1 0 C1.33 3.3 1.66 6.6 2 10 C3.32 10.33 4.64 10.66 6 11 C5.34 12.32 4.68 13.64 4 15 C1.23435847 12.85662781 -0.79753398 11.26864349 -1.3671875 7.69921875 C-1.37444566 5.42378587 -1.32574839 3.25231741 -1 1 C-0.67 0.67 -0.34 0.34 0 0 Z " fill="#1A1A1A" transform="translate(236,297)"/>
<path d="M0 0 C0 0.33 0 0.66 0 1 C2.64 1.33 5.28 1.66 8 2 C8 2.33 8 2.66 8 3 C1.4 3 -5.2 3 -12 3 C-8.48214012 -0.51785988 -4.80656342 -0.10924008 0 0 Z " fill="#363636" transform="translate(220,188)"/>
<path d="M0 0 C7.4659249 -0.36717663 7.4659249 -0.36717663 10 1.375 C11 3 11 3 11 5 C5 3.5 5 3.5 -1 2 C-0.67 1.34 -0.34 0.68 0 0 Z " fill="#1F1F1F" transform="translate(241,292)"/>
<path d="M0 0 C2 1 2 1 3 3 C5.58605332 3.4683265 5.58605332 3.4683265 8.5625 3.625 C10.08037109 3.73714844 10.08037109 3.73714844 11.62890625 3.8515625 C12.80259766 3.92503906 12.80259766 3.92503906 14 4 C13.67 4.66 13.34 5.32 13 6 C6.07 5.505 6.07 5.505 -1 5 C-1 1 -1 1 0 0 Z " fill="#666666" transform="translate(101,343)"/>
<path d="M0 0 C2.475 0.99 2.475 0.99 5 2 C5 2.33 5 2.66 5 3 C3.35 3.33 1.7 3.66 0 4 C1.65 4.33 3.3 4.66 5 5 C5 5.33 5 5.66 5 6 C3.329375 6.2165625 3.329375 6.2165625 1.625 6.4375 C-1.82142047 6.78372035 -1.82142047 6.78372035 -4 8 C-3.50168276 4.31245243 -2.89932357 2.39509338 0 0 Z " fill="#A5A5A5" transform="translate(241,289)"/>
<path d="M0 0 C1.98 0.495 1.98 0.495 4 1 C3.67 2.32 3.34 3.64 3 5 C1.68 5 0.36 5 -1 5 C-0.67 3.35 -0.34 1.7 0 0 Z " fill="#D6D6D6" transform="translate(242,269)"/>
<path d="M0 0 C-0.33 1.65 -0.66 3.3 -1 5 C-2.65 4.67 -4.3 4.34 -6 4 C-6 3.01 -6 2.02 -6 1 C-3.92446352 0.4465236 -2.15634036 0 0 0 Z " fill="#3A3A3A" transform="translate(245,300)"/>
<path d="M0 0 C0.66 0 1.32 0 2 0 C2 2.64 2 5.28 2 8 C1.01 8 0.02 8 -1 8 C-1.125 2.25 -1.125 2.25 0 0 Z " fill="#343434" transform="translate(211,179)"/>
<path d="M0 0 C0.99 0 1.98 0 3 0 C3 0.66 3 1.32 3 2 C3.66 2.33 4.32 2.66 5 3 C4.34 3 3.68 3 3 3 C2.67 3.99 2.34 4.98 2 6 C2 5.34 2 4.68 2 4 C0.68 4 -0.64 4 -2 4 C-1.34 2.68 -0.68 1.36 0 0 Z " fill="#D1D1D1" transform="translate(227,304)"/>
<path d="M0 0 C0.66 0.33 1.32 0.66 2 1 C1.01 2.485 1.01 2.485 0 4 C-0.39387788 6.32387947 -0.73486085 8.65793749 -1 11 C-3.15502531 7.76746204 -3.46856135 6.74849077 -3 3 C-1.5 1.1875 -1.5 1.1875 0 0 Z " fill="#DCDCDC" transform="translate(236,294)"/>
<path d="M0 0 C0.66 0 1.32 0 2 0 C2 1.98 2 3.96 2 6 C1.01 6.33 0.02 6.66 -1 7 C-1.04254356 5.00045254 -1.04080783 2.99958364 -1 1 C-0.67 0.67 -0.34 0.34 0 0 Z " fill="#292929" transform="translate(207,180)"/>
<path d="M0 0 C2.97 0.495 2.97 0.495 6 1 C6 1.66 6 2.32 6 3 C4.02 3.33 2.04 3.66 0 4 C0 2.68 0 1.36 0 0 Z " fill="#565656" transform="translate(394,338)"/>
<path d="" fill="#FFFFFF" transform="translate(0,0)"/>
<path d="" fill="#FFFFFF" transform="translate(0,0)"/>
<path d="" fill="#FFFFFF" transform="translate(0,0)"/>
<path d="" fill="#FFFFFF" transform="translate(0,0)"/>
<path d="" fill="#FFFFFF" transform="translate(0,0)"/>
<path d="" fill="#FFFFFF" transform="translate(0,0)"/>
<path d="" fill="#FFFFFF" transform="translate(0,0)"/>
<path d="" fill="#FFFFFF" transform="translate(0,0)"/>
<path d="" fill="#FFFFFF" transform="translate(0,0)"/>
<path d="" fill="#FFFFFF" transform="translate(0,0)"/>
<path d="" fill="#FFFFFF" transform="translate(0,0)"/>
<path d="" fill="#FFFFFF" transform="translate(0,0)"/>
<path d="" fill="#FFFFFF" transform="translate(0,0)"/>
<path d="" fill="#FFFFFF" transform="translate(0,0)"/>
<path d="" fill="#FFFFFF" transform="translate(0,0)"/>
<path d="" fill="#FFFFFF" transform="translate(0,0)"/>
<path d="" fill="#FFFFFF" transform="translate(0,0)"/>
<path d="" fill="#FFFFFF" transform="translate(0,0)"/>
<path d="" fill="#FFFFFF" transform="translate(0,0)"/>
<path d="" fill="#FFFFFF" transform="translate(0,0)"/>
<path d="" fill="#FFFFFF" transform="translate(0,0)"/>
<path d="" fill="#FFFFFF" transform="translate(0,0)"/>
<path d="" fill="#000000" transform="translate(0,0)"/>
<path d="" fill="#000000" transform="translate(0,0)"/>
<path d="" fill="#000000" transform="translate(0,0)"/>
<path d="" fill="#FFFFFF" transform="translate(0,0)"/>
<path d="" fill="#FFFFFF" transform="translate(0,0)"/>
<path d="" fill="#FFFFFF" transform="translate(0,0)"/>
<path d="" fill="#FFFFFF" transform="translate(0,0)"/>
<path d="" fill="#FFFFFF" transform="translate(0,0)"/>
<path d="" fill="#FFFFFF" transform="translate(0,0)"/>
<path d="" fill="#FFFFFF" transform="translate(0,0)"/>
<path d="" fill="#FFFFFF" transform="translate(0,0)"/>
<path d="" fill="#FFFFFF" transform="translate(0,0)"/>
<path d="" fill="#FFFFFF" transform="translate(0,0)"/>
<path d="" fill="#FFFFFF" transform="translate(0,0)"/>
<path d="" fill="#FFFFFF" transform="translate(0,0)"/>
<path d="" fill="#FFFFFF" transform="translate(0,0)"/>
<path d="" fill="#FFFFFF" transform="translate(0,0)"/>
<path d="" fill="#FFFFFF" transform="translate(0,0)"/>
<path d="" fill="#FFFFFF" transform="translate(0,0)"/>
<path d="" fill="#FFFFFF" transform="translate(0,0)"/>
<path d="" fill="#FFFFFF" transform="translate(0,0)"/>
<path d="" fill="#FFFFFF" transform="translate(0,0)"/>
<path d="" fill="#FFFFFF" transform="translate(0,0)"/>
<path d="" fill="#FFFFFF" transform="translate(0,0)"/>
<path d="" fill="#FFFFFF" transform="translate(0,0)"/>
<path d="" fill="#FFFFFF" transform="translate(0,0)"/>
<path d="" fill="#FFFFFF" transform="translate(0,0)"/>
<path d="" fill="#FFFFFF" transform="translate(0,0)"/>
<path d="" fill="#FFFFFF" transform="translate(0,0)"/>
<path d="" fill="#FFFFFF" transform="translate(0,0)"/>
<path d="" fill="#FFFFFF" transform="translate(0,0)"/>
<path d="" fill="#FFFFFF" transform="translate(0,0)"/>
<path d="" fill="#FFFFFF" transform="translate(0,0)"/>
<path d="" fill="#FFFFFF" transform="translate(0,0)"/>
<path d="" fill="#FFFFFF" transform="translate(0,0)"/>
<path d="" fill="#FFFFFF" transform="translate(0,0)"/>
<path d="" fill="#FFFFFF" transform="translate(0,0)"/>
<path d="" fill="#FFFFFF" transform="translate(0,0)"/>
<path d="" fill="#FFFFFF" transform="translate(0,0)"/>
<path d="" fill="#FFFFFF" transform="translate(0,0)"/>
<path d="" fill="#FFFFFF" transform="translate(0,0)"/>
<path d="" fill="#FFFFFF" transform="translate(0,0)"/>
<path d="" fill="#FFFFFF" transform="translate(0,0)"/>
</svg>
