<?xml version="1.0" encoding="UTF-8"?>
<svg version="1.1" xmlns="http://www.w3.org/2000/svg" width="500" height="500">
<path d="M0 0 C3.25586459 1.99338648 4.81310158 3.82742795 7.0625 6.875 C7.805 7.596875 8.5475 8.31875 9.3125 9.0625 C20.0625 20.05681818 20.0625 20.05681818 20.0625 23.875 C20.7225 23.875 21.3825 23.875 22.0625 23.875 C22.0625 24.535 22.0625 25.195 22.0625 25.875 C25.93357262 26.50426886 29.80855612 27.07577583 33.69580078 27.59619141 C35.66229475 27.87147164 37.62238035 28.1913345 39.58203125 28.51171875 C46.21244424 29.64752791 46.21244424 29.64752791 52.14599609 27.31713867 C53.67773282 25.24369018 54.87008682 23.15689561 56.0625 20.875 C67.65273583 7.75134809 67.65273583 7.75134809 75.5703125 6.46875 C78.0625 6.875 78.0625 6.875 79.9765625 8.81640625 C80.54117188 9.68136719 81.10578125 10.54632813 81.6875 11.4375 C82.25726563 12.28441406 82.82703125 13.13132812 83.4140625 14.00390625 C86.99994425 20.24945858 88.92549854 26.469767 90.5625 33.4375 C90.77680664 34.3457251 90.99111328 35.2539502 91.21191406 36.18969727 C94.29740056 49.76839745 95.98039364 63.56337278 96.828125 77.453125 C97.6397334 89.30260765 99.31390567 101.09414015 100.8543396 112.86645508 C101.03465214 114.24617436 101.21371087 115.62605809 101.39151001 117.00610352 C101.64330784 118.95386394 101.90159482 120.90078214 102.16015625 122.84765625 C102.30976807 123.98468994 102.45937988 125.12172363 102.61352539 126.29321289 C102.79404973 128.79838413 102.79404973 128.79838413 104.0625 129.875 C104.41441406 128.88242188 104.76632812 127.88984375 105.12890625 126.8671875 C109.27371956 115.38289695 113.77346736 103.78213415 121.0625 93.875 C121.7225 93.875 122.3825 93.875 123.0625 93.875 C123.0625 93.215 123.0625 92.555 123.0625 91.875 C123.7225 91.875 124.3825 91.875 125.0625 91.875 C125.0625 91.215 125.0625 90.555 125.0625 89.875 C136.1651098 83.12164089 146.99552619 79.02684851 160.0625 81.875 C163.922753 83.23239615 167.47251079 84.91947742 171.0625 86.875 C172.155625 87.4525 173.24875 88.03 174.375 88.625 C178.6574632 92.21031803 181.57339567 96.89679134 184.0625 101.875 C184.18577929 103.97648182 184.23808006 106.08243907 184.25 108.1875 C184.26417969 109.31800781 184.27835938 110.44851562 184.29296875 111.61328125 C183.93782744 116.63943375 182.89878337 119.07588478 179.25 122.5625 C175.05041097 125.60926067 172.79221285 126.93677546 167.5625 126.75 C163.61365243 125.76278811 161.85345111 124.82100395 159.0625 121.875 C156.18217245 116.78642133 155.78592873 113.56154474 157.0625 107.875 C152.99518603 106.51922868 149.31542704 106.34338412 145.0625 106.875 C138.3532465 110.41951128 134.6649868 114.74490125 132.125 121.8125 C131.86904053 122.51286377 131.61308105 123.21322754 131.34936523 123.93481445 C128.50247805 132.02852444 126.6621473 140.33770358 124.78808594 148.69824219 C123.49121373 154.37620355 122.10774928 160.03355212 120.7338562 165.69326782 C119.95950671 168.8847794 119.18901398 172.07721986 118.41796875 175.26953125 C117.96619276 177.13803218 117.51438894 179.00652638 117.0625 180.875 C117.7225 180.875 118.3825 180.875 119.0625 180.875 C120.39453125 182.6328125 120.39453125 182.6328125 121.875 185 C123.7561509 187.93496517 125.6476372 190.68339827 127.9375 193.3125 C130.0625 195.875 130.0625 195.875 130.0625 197.875 C130.7225 197.875 131.3825 197.875 132.0625 197.875 C133.66092113 199.88495492 135.12120765 201.88180677 136.5625 204 C136.96597656 204.56976563 137.36945313 205.13953125 137.78515625 205.7265625 C141.58051088 211.23796856 143.3861918 216.07747225 143.0625 222.875 C137.4375 225.875 137.4375 225.875 134.0625 225.875 C134.0625 226.535 134.0625 227.195 134.0625 227.875 C133.093125 228.514375 132.12375 229.15375 131.125 229.8125 C127.81994775 231.58561007 127.81994775 231.58561007 127.0625 234.875 C127.3925 235.535 127.7225 236.195 128.0625 236.875 C128.7912533 241.33033268 129.0451581 245.26333273 126.640625 249.20703125 C122.50643476 253.96841701 118.52711641 258.1403845 112.0625 258.875 C106.48595423 259.14483286 102.44615584 258.50025459 97.0625 256.875 C93.46072817 256.53995146 91.08925245 256.82113226 88.0625 258.875 C87.7325 259.865 87.4025 260.855 87.0625 261.875 C86.31484375 261.93558594 85.5671875 261.99617188 84.796875 262.05859375 C83.81203125 262.14238281 82.8271875 262.22617187 81.8125 262.3125 C80.83796875 262.39371094 79.8634375 262.47492188 78.859375 262.55859375 C76.49788247 262.82574584 74.34348935 263.22871968 72.0625 263.875 C71.0725 262.39 71.0725 262.39 70.0625 260.875 C67.40966146 260.40090089 67.40966146 260.40090089 64.375 260.375 C59.20918206 260.08282979 55.62624652 259.26059477 51.0625 256.875 C50.27875 257.596875 49.495 258.31875 48.6875 259.0625 C42.92508358 263.8080194 36.27111312 267.79035176 28.609375 267.3828125 C24.03748588 266.47123952 19.77298519 264.65061925 15.4375 262.96875 C12.3157268 261.95706424 10.28778773 261.65707515 7.0625 261.875 C2.60473433 261.875 2.60473433 261.875 -0.0625 259.3125 C-2.7549219 256.47510488 -2.7549219 256.47510488 -6.4375 257 C-8.17 257.433125 -8.17 257.433125 -9.9375 257.875 C-17.91591432 259.43599411 -25.65642052 260.03787805 -32.9375 255.875 C-36.02105575 253.24112947 -37.70564497 251.44185192 -38.30859375 247.3671875 C-38.41780854 242.9600493 -38.43556284 240.62209427 -35.9375 236.875 C-35.86801435 233.87206929 -35.86801435 233.87206929 -36.9375 230.875 C-41.8384515 226.22788264 -48.14451202 223.3305547 -54.07617188 220.20507812 C-59.61103238 217.13594371 -62.46235493 214.7627429 -64.9375 208.875 C-65.7758146 204.64080085 -65.36920104 201.52255155 -62.9375 197.875 C-59.70992397 196.4874033 -56.42501741 195.39048282 -53.1015625 194.25390625 C-49.88842752 192.85361409 -48.29024893 191.40501084 -45.9375 188.875 C-45.2775 188.875 -44.6175 188.875 -43.9375 188.875 C-43.5971875 187.885 -43.5971875 187.885 -43.25 186.875 C-41.9375 183.875 -41.9375 183.875 -39.625 180.625 C-25.80326893 158.71349104 -26.80130231 125.92252757 -24.9375 100.875 C-28.5675 100.875 -32.1975 100.875 -35.9375 100.875 C-36.4325 99.885 -36.4325 99.885 -36.9375 98.875 C-36.6075 98.215 -36.2775 97.555 -35.9375 96.875 C-32.3075 96.875 -28.6775 96.875 -24.9375 96.875 C-24.9375 95.225 -24.9375 93.575 -24.9375 91.875 C-27.2475 90.885 -29.5575 89.895 -31.9375 88.875 C-31.4425 87.39 -31.4425 87.39 -30.9375 85.875 C-27.9675 86.37 -27.9675 86.37 -24.9375 86.875 C-23.67598713 82.65903492 -22.6508307 78.50150948 -21.7956543 74.18041992 C-20.22229149 66.49258388 -17.72735332 60.03127199 -14.125 53.0625 C-10.21892435 45.39413534 -9.2136125 40.43330672 -10.9375 31.875 C-11.46856962 24.70054998 -10.77642154 17.87158799 -9.5625 10.8125 C-9.43649414 10.07362549 -9.31048828 9.33475098 -9.18066406 8.57348633 C-8.53556586 5.09984967 -7.92237139 2.85230709 -5.9375 -0.125 C-2.9375 -1.125 -2.9375 -1.125 0 0 Z " fill="#FCFCFC" transform="translate(204.9375,94.125)"/>
<path d="M0 0 C3.25586459 1.99338648 4.81310158 3.82742795 7.0625 6.875 C7.805 7.596875 8.5475 8.31875 9.3125 9.0625 C20.0625 20.05681818 20.0625 20.05681818 20.0625 23.875 C20.7225 23.875 21.3825 23.875 22.0625 23.875 C22.0625 24.535 22.0625 25.195 22.0625 25.875 C25.93357262 26.50426886 29.80855612 27.07577583 33.69580078 27.59619141 C35.66229475 27.87147164 37.62238035 28.1913345 39.58203125 28.51171875 C46.21244424 29.64752791 46.21244424 29.64752791 52.14599609 27.31713867 C53.67773282 25.24369018 54.87008682 23.15689561 56.0625 20.875 C67.65273583 7.75134809 67.65273583 7.75134809 75.5703125 6.46875 C78.0625 6.875 78.0625 6.875 79.9765625 8.81640625 C80.54117188 9.68136719 81.10578125 10.54632813 81.6875 11.4375 C82.25726563 12.28441406 82.82703125 13.13132812 83.4140625 14.00390625 C86.99994425 20.24945858 88.92549854 26.469767 90.5625 33.4375 C90.77680664 34.3457251 90.99111328 35.2539502 91.21191406 36.18969727 C94.29740056 49.76839745 95.98039364 63.56337278 96.828125 77.453125 C97.6397334 89.30260765 99.31390567 101.09414015 100.8543396 112.86645508 C101.03465214 114.24617436 101.21371087 115.62605809 101.39151001 117.00610352 C101.64330784 118.95386394 101.90159482 120.90078214 102.16015625 122.84765625 C102.30976807 123.98468994 102.45937988 125.12172363 102.61352539 126.29321289 C102.79404973 128.79838413 102.79404973 128.79838413 104.0625 129.875 C104.41441406 128.88242188 104.76632812 127.88984375 105.12890625 126.8671875 C109.27371956 115.38289695 113.77346736 103.78213415 121.0625 93.875 C121.7225 93.875 122.3825 93.875 123.0625 93.875 C123.0625 93.215 123.0625 92.555 123.0625 91.875 C123.7225 91.875 124.3825 91.875 125.0625 91.875 C125.0625 91.215 125.0625 90.555 125.0625 89.875 C136.1651098 83.12164089 146.99552619 79.02684851 160.0625 81.875 C163.922753 83.23239615 167.47251079 84.91947742 171.0625 86.875 C172.155625 87.4525 173.24875 88.03 174.375 88.625 C178.6574632 92.21031803 181.57339567 96.89679134 184.0625 101.875 C184.18577929 103.97648182 184.23808006 106.08243907 184.25 108.1875 C184.26417969 109.31800781 184.27835938 110.44851562 184.29296875 111.61328125 C183.93782744 116.63943375 182.89878337 119.07588478 179.25 122.5625 C175.05041097 125.60926067 172.79221285 126.93677546 167.5625 126.75 C163.61365243 125.76278811 161.85345111 124.82100395 159.0625 121.875 C156.18217245 116.78642133 155.78592873 113.56154474 157.0625 107.875 C152.99518603 106.51922868 149.31542704 106.34338412 145.0625 106.875 C138.3532465 110.41951128 134.6649868 114.74490125 132.125 121.8125 C131.86904053 122.51286377 131.61308105 123.21322754 131.34936523 123.93481445 C128.50247805 132.02852444 126.6621473 140.33770358 124.78808594 148.69824219 C123.49121373 154.37620355 122.10774928 160.03355212 120.7338562 165.69326782 C119.95950671 168.8847794 119.18901398 172.07721986 118.41796875 175.26953125 C117.96619276 177.13803218 117.51438894 179.00652638 117.0625 180.875 C117.7225 180.875 118.3825 180.875 119.0625 180.875 C120.39453125 182.6328125 120.39453125 182.6328125 121.875 185 C123.7561509 187.93496517 125.6476372 190.68339827 127.9375 193.3125 C130.0625 195.875 130.0625 195.875 130.0625 197.875 C130.7225 197.875 131.3825 197.875 132.0625 197.875 C133.66092113 199.88495492 135.12120765 201.88180677 136.5625 204 C136.96597656 204.56976563 137.36945313 205.13953125 137.78515625 205.7265625 C141.58051088 211.23796856 143.3861918 216.07747225 143.0625 222.875 C137.4375 225.875 137.4375 225.875 134.0625 225.875 C134.0625 226.535 134.0625 227.195 134.0625 227.875 C133.093125 228.514375 132.12375 229.15375 131.125 229.8125 C127.81994775 231.58561007 127.81994775 231.58561007 127.0625 234.875 C127.3925 235.535 127.7225 236.195 128.0625 236.875 C128.7912533 241.33033268 129.0451581 245.26333273 126.640625 249.20703125 C122.50643476 253.96841701 118.52711641 258.1403845 112.0625 258.875 C106.48595423 259.14483286 102.44615584 258.50025459 97.0625 256.875 C93.46072817 256.53995146 91.08925245 256.82113226 88.0625 258.875 C87.7325 259.865 87.4025 260.855 87.0625 261.875 C86.31484375 261.93558594 85.5671875 261.99617188 84.796875 262.05859375 C83.81203125 262.14238281 82.8271875 262.22617187 81.8125 262.3125 C80.83796875 262.39371094 79.8634375 262.47492188 78.859375 262.55859375 C76.49788247 262.82574584 74.34348935 263.22871968 72.0625 263.875 C71.0725 262.39 71.0725 262.39 70.0625 260.875 C67.40966146 260.40090089 67.40966146 260.40090089 64.375 260.375 C59.20918206 260.08282979 55.62624652 259.26059477 51.0625 256.875 C50.27875 257.596875 49.495 258.31875 48.6875 259.0625 C42.92508358 263.8080194 36.27111312 267.79035176 28.609375 267.3828125 C24.03748588 266.47123952 19.77298519 264.65061925 15.4375 262.96875 C12.3157268 261.95706424 10.28778773 261.65707515 7.0625 261.875 C2.60473433 261.875 2.60473433 261.875 -0.0625 259.3125 C-2.7549219 256.47510488 -2.7549219 256.47510488 -6.4375 257 C-8.17 257.433125 -8.17 257.433125 -9.9375 257.875 C-17.91591432 259.43599411 -25.65642052 260.03787805 -32.9375 255.875 C-36.02105575 253.24112947 -37.70564497 251.44185192 -38.30859375 247.3671875 C-38.41780854 242.9600493 -38.43556284 240.62209427 -35.9375 236.875 C-35.86801435 233.87206929 -35.86801435 233.87206929 -36.9375 230.875 C-41.8384515 226.22788264 -48.14451202 223.3305547 -54.07617188 220.20507812 C-59.61103238 217.13594371 -62.46235493 214.7627429 -64.9375 208.875 C-65.7758146 204.64080085 -65.36920104 201.52255155 -62.9375 197.875 C-59.70992397 196.4874033 -56.42501741 195.39048282 -53.1015625 194.25390625 C-49.88842752 192.85361409 -48.29024893 191.40501084 -45.9375 188.875 C-45.2775 188.875 -44.6175 188.875 -43.9375 188.875 C-43.5971875 187.885 -43.5971875 187.885 -43.25 186.875 C-41.9375 183.875 -41.9375 183.875 -39.625 180.625 C-25.80326893 158.71349104 -26.80130231 125.92252757 -24.9375 100.875 C-28.5675 100.875 -32.1975 100.875 -35.9375 100.875 C-36.4325 99.885 -36.4325 99.885 -36.9375 98.875 C-36.6075 98.215 -36.2775 97.555 -35.9375 96.875 C-32.3075 96.875 -28.6775 96.875 -24.9375 96.875 C-24.9375 95.225 -24.9375 93.575 -24.9375 91.875 C-27.2475 90.885 -29.5575 89.895 -31.9375 88.875 C-31.4425 87.39 -31.4425 87.39 -30.9375 85.875 C-27.9675 86.37 -27.9675 86.37 -24.9375 86.875 C-23.67598713 82.65903492 -22.6508307 78.50150948 -21.7956543 74.18041992 C-20.22229149 66.49258388 -17.72735332 60.03127199 -14.125 53.0625 C-10.21892435 45.39413534 -9.2136125 40.43330672 -10.9375 31.875 C-11.46856962 24.70054998 -10.77642154 17.87158799 -9.5625 10.8125 C-9.43649414 10.07362549 -9.31048828 9.33475098 -9.18066406 8.57348633 C-8.53556586 5.09984967 -7.92237139 2.85230709 -5.9375 -0.125 C-2.9375 -1.125 -2.9375 -1.125 0 0 Z M-3.9375 2.875 C-6.79992069 10.56424775 -7.34308133 17.46670402 -7.1875 25.625 C-7.17976563 27.27048828 -7.17976563 27.27048828 -7.171875 28.94921875 C-7.12259379 35.01531736 -7.12259379 35.01531736 -6.33032227 41.01611328 C-5.76916556 45.10010648 -7.58372206 47.62454773 -9.625 51 C-16.71378981 63.49226213 -20.41024504 76.45627642 -19.9375 90.875 C-17.03149739 92.13164978 -15.14145416 92.875 -11.9375 92.875 C-11.9375 93.535 -11.9375 94.195 -11.9375 94.875 C-14.9075 94.215 -17.8775 93.555 -20.9375 92.875 C-20.9375 94.855 -20.9375 96.835 -20.9375 98.875 C-18.9575 98.875 -16.9775 98.875 -14.9375 98.875 C-15.9375 99.875 -15.9375 99.875 -19 99.9375 C-19.969375 99.916875 -20.93875 99.89625 -21.9375 99.875 C-22.00481323 101.0199292 -22.00481323 101.0199292 -22.07348633 102.18798828 C-26.43449858 174.6470486 -26.43449858 174.6470486 -44.8125 192.71875 C-49.68306866 196.72518551 -54.84938933 198.45277743 -60.9375 199.875 C-61.04661227 201.43591166 -61.12359398 202.99908492 -61.1875 204.5625 C-61.23390625 205.43261719 -61.2803125 206.30273438 -61.328125 207.19921875 C-60.78599869 210.91278399 -59.63237563 212.25060573 -56.9375 214.875 C-53.32306005 217.16527903 -49.49051674 219.03482685 -45.66796875 220.94921875 C-40.76195201 223.52059192 -37.45633208 226.06920703 -34.12451172 230.52392578 C-33.73279785 230.96978027 -33.34108398 231.41563477 -32.9375 231.875 C-32.2775 231.875 -31.6175 231.875 -30.9375 231.875 C-20.83696778 212.38054409 -20.83696778 212.38054409 -17.9375 190.875 C-17.2775 190.875 -16.6175 190.875 -15.9375 190.875 C-15.9908981 204.97209847 -21.73197441 217.16312013 -28.22094727 229.38378906 C-30.37509212 233.48539224 -31.80316491 237.37817159 -32.9375 241.875 C-31.885625 242.4525 -30.83375 243.03 -29.75 243.625 C-27.38771325 244.96537196 -25.44073723 246.27714129 -23.3125 248 C-17.91529789 252.26094903 -11.95460776 252.47762705 -5.3125 253.21484375 C-1.87062128 253.8880816 0.14080898 255.01343645 3.0625 256.875 C4.0525 256.875 5.0425 256.875 6.0625 256.875 C7.69396631 255.05413466 7.69396631 255.05413466 9.125 252.6875 C9.88490234 251.52154297 9.88490234 251.52154297 10.66015625 250.33203125 C13.85640476 244.73191895 14.41567839 240.34900721 14.375 234 C14.37371094 233.16879639 14.37242187 232.33759277 14.37109375 231.48120117 C14.2519549 223.68728625 12.95858416 216.425478 11.0625 208.875 C13.9632757 217.16293057 15.39111797 224.26030236 15.3125 233 C15.32410156 234.30130859 15.32410156 234.30130859 15.3359375 235.62890625 C15.31482561 242.56416195 13.91768567 247.70546699 10.4375 253.75 C9.99148437 254.53117188 9.54546875 255.31234375 9.0859375 256.1171875 C8.74820313 256.69726562 8.41046875 257.27734375 8.0625 257.875 C8.94292969 258.14054688 9.82335937 258.40609375 10.73046875 258.6796875 C11.89191406 259.03289062 13.05335938 259.38609375 14.25 259.75 C15.39855469 260.09804688 16.54710937 260.44609375 17.73046875 260.8046875 C21.0625 261.875 21.0625 261.875 23.78515625 262.984375 C28.69450469 264.90432602 32.89399536 264.15146327 37.625 262.1875 C41.69898532 260.21666608 44.85880879 258.07869121 48.0625 254.875 C49.03710283 252.05842699 49.17166171 249.5027289 49.125 246.5390625 C49.11339844 245.31316406 49.11339844 245.31316406 49.1015625 244.0625 C49.0756399 242.36197735 49.04959933 240.66145649 49.0234375 238.9609375 C49.01183594 237.73117187 49.01183594 237.73117187 49 236.4765625 C48.98839844 235.73744629 48.97679687 234.99833008 48.96484375 234.23681641 C49.0625 231.875 49.0625 231.875 49.56030273 228.96582031 C50.06591542 225.85397948 50.17639189 222.97002619 50.16015625 219.8203125 C50.15693359 218.71171875 50.15371094 217.603125 50.15039062 216.4609375 C50.14201172 215.31882812 50.13363281 214.17671875 50.125 213 C50.12048828 211.8346875 50.11597656 210.669375 50.11132812 209.46875 C50.09958781 206.60411355 50.0831657 203.73958367 50.0625 200.875 C50.7225 201.205 51.3825 201.535 52.0625 201.875 C52.09157084 205.45831625 52.10932263 209.04160208 52.125 212.625 C52.13337891 213.64078125 52.14175781 214.6565625 52.15039062 215.703125 C52.15361328 216.6828125 52.15683594 217.6625 52.16015625 218.671875 C52.16539307 219.57260742 52.17062988 220.47333984 52.17602539 221.40136719 C52.06949559 223.72257127 51.64949324 225.63938122 51.0625 227.875 C50.99351758 230.46873914 50.96815248 233.03310197 51 235.625 C51.00451172 236.32238281 51.00902344 237.01976562 51.01367188 237.73828125 C51.0253998 239.45055803 51.04333347 241.16279033 51.0625 242.875 C51.825625 242.565625 52.58875 242.25625 53.375 241.9375 C59.26550699 239.60869491 63.91660125 238.68777729 69.92578125 240.95556641 C73.17812495 242.46258793 76.37320656 244.05133585 79.5625 245.6875 C96.38311974 254.33279661 96.38311974 254.33279661 115.0625 254.875 C119.5933847 252.39458867 122.23368193 249.11822711 125.0625 244.875 C125.4990717 238.27246617 123.04757501 233.11170476 119.6875 227.625 C119.28789062 226.944375 118.88828125 226.26375 118.4765625 225.5625 C116.86547294 222.82788746 115.22915796 220.1282871 113.484375 217.4765625 C111.39168633 213.64763213 110.06052586 209.63362722 108.6875 205.5 C108.38440918 204.58895508 108.08131836 203.67791016 107.76904297 202.73925781 C103.49239539 189.46472427 100.39471876 175.76408918 99.0625 161.875 C99.7225 161.875 100.3825 161.875 101.0625 161.875 C101.0109375 162.94492187 100.959375 164.01484375 100.90625 165.1171875 C100.91642622 170.91508911 102.24211605 176.37930594 103.5625 182 C103.82877197 183.13711426 104.09504395 184.27422852 104.36938477 185.44580078 C109.93511613 209.13123769 109.93511613 209.13123769 122.0625 229.875 C126.54562462 229.875 127.16744889 229.105546 130.3359375 226.25390625 C133.2970541 223.88903259 136.63767351 222.46931578 140.0625 220.875 C138.7653222 210.03315591 131.71724148 202.24849474 124.4765625 194.5703125 C118.66981401 188.08704962 114.73606962 180.45951747 110.8125 172.75 C110.4829834 172.10522705 110.1534668 171.4604541 109.81396484 170.79614258 C105.79943779 162.68392308 103.59426221 154.53136592 102.125 145.625 C101.9602417 144.64845459 101.7954834 143.67190918 101.62573242 142.66577148 C98.82152164 125.70659413 96.05994719 108.65960761 95.26953125 91.47265625 C94.99857384 86.76413225 94.44436953 82.11219194 93.85839844 77.43408203 C93.39273905 73.70796029 92.96748832 69.98613541 92.62890625 66.24609375 C90.86043132 46.94240237 87.96609372 27.30308121 77.0625 10.875 C67.61987595 11.88622168 61.78552987 18.75078315 55.9375 25.75 C53.02471011 28.94379504 53.02471011 28.94379504 52.0625 32.875 C48.0387741 32.42379467 44.0194041 31.94477375 40.00195312 31.44067383 C38.63729488 31.27331922 37.27170792 31.11335425 35.90527344 30.96118164 C25.60509442 29.80711049 20.8378866 28.61644861 14.3515625 20.5703125 C13.45930515 19.38338127 12.57137281 18.19318808 11.6875 17 C7.67726094 11.74046742 3.63176922 6.58784615 -1.9375 2.875 C-2.5975 2.875 -3.2575 2.875 -3.9375 2.875 Z " fill="#121212" transform="translate(204.9375,94.125)"/>
<path d="M0 0 C12.68727661 15.69089323 14.04546825 39.97558428 16.1875 59.1875 C16.27235657 59.94800659 16.35721313 60.70851318 16.44464111 61.49206543 C17.31524916 69.40408654 18.059308 77.302092 18.50390625 85.25 C19.22108233 97.59899477 21.13512534 109.78066082 23 122 C23.18046875 123.20881836 23.3609375 124.41763672 23.546875 125.66308594 C25.80970406 140.47249401 28.75353212 153.80236138 36 167 C36.81597656 168.50820313 36.81597656 168.50820313 37.6484375 170.046875 C41.29269606 176.19767238 45.8667538 181.38249872 50.57250977 186.72167969 C56.53624407 193.58975463 61.87149686 200.75443209 63 210 C62.33613281 210.30292969 61.67226563 210.60585938 60.98828125 210.91796875 C55.77378998 213.39199746 51.76754403 215.60453197 48 220 C44.73311143 218.96185541 43.91908724 217.87011373 42.0703125 214.90234375 C41.40562176 213.58882842 40.75821862 212.26647347 40.125 210.9375 C39.77840332 210.21997559 39.43180664 209.50245117 39.07470703 208.76318359 C33.37659811 196.69180947 29.68969614 184.4202714 26.625 171.4375 C26.36187012 170.33100098 26.09874023 169.22450195 25.82763672 168.08447266 C24.50941879 162.25044967 23.69555114 156.98024554 24 151 C23.34 151 22.68 151 22 151 C24.45234052 174.63548876 30.77607677 197.33557084 42.6953125 217.87109375 C47.92999161 227.03976513 47.92999161 227.03976513 48.125 232.5 C46.59744079 237.25240644 43.8145903 239.88137421 40 243 C34.75826858 245.62086571 26.60709744 245.01548784 21.00195312 243.4375 C16.16760239 241.66023619 11.58671237 239.32964009 7 237 C4.74449689 235.87126135 2.48582695 234.7508086 0.21826172 233.64648438 C-1.21814516 232.94456422 -2.64692741 232.2267277 -4.06591797 231.49023438 C-8.962255 229.07140317 -12.53600332 228.53412239 -18 229 C-21.30101131 230.39924945 -21.30101131 230.39924945 -24 232 C-24.66 232 -25.32 232 -26 232 C-26 227.05 -26 222.1 -26 217 C-25.67 217 -25.34 217 -25 217 C-24.67 219.64 -24.34 222.28 -24 225 C-22.515 224.01 -22.515 224.01 -21 223 C-12.16998201 221.58939547 -2.64513108 224.31510206 6 226 C6 226.66 6 227.32 6 228 C6.84111328 228.18369141 6.84111328 228.18369141 7.69921875 228.37109375 C10.19730288 229.05393169 12.43281163 230.04263355 14.8125 231.0625 C21.87928858 233.71493962 28.55227126 233.36183297 36 233 C34.95856072 228.73956659 33.57325812 224.95904227 31.6953125 220.9921875 C28.8318973 214.838891 26.63316891 208.50538778 24.51513672 202.06689453 C23.87708894 200.13133692 23.22633052 198.2003896 22.57421875 196.26953125 C20.2203906 189.22284686 18.2113459 182.17962272 16.63745117 174.91625977 C15.97000432 171.86277349 15.21182385 168.84046054 14.4375 165.8125 C12.96519673 159.53015881 12.2518281 153.24067797 11.64624023 146.82739258 C11.61433527 143.10263302 11.61433527 143.10263302 10 140 C9.46341778 136.97980862 8.99079726 133.97367586 8.5625 130.9375 C8.43053223 130.01533691 8.29856445 129.09317383 8.16259766 128.14306641 C7.00333602 119.69782423 6.26451927 111.23453519 5.64672852 102.73413086 C5.53929321 101.2840564 5.53929321 101.2840564 5.4296875 99.8046875 C5.37022949 98.94858887 5.31077148 98.09249023 5.24951172 97.21044922 C5.0581241 94.82800191 5.0581241 94.82800191 4 92 C0.04 91.34 -3.92 90.68 -8 90 C-8 89.34 -8 88.68 -8 88 C-6.39592672 87.97291433 -4.7917215 87.95356517 -3.1875 87.9375 C-2.29417969 87.92589844 -1.40085937 87.91429687 -0.48046875 87.90234375 C2 88 2 88 5 89 C5 87.02 5 85.04 5 83 C0.71 83 -3.58 83 -8 83 C-8 82.34 -8 81.68 -8 81 C-6.046875 80.77213542 -4.09375 80.54427083 -2.140625 80.31640625 C-0.04394578 80.00649564 1.94909336 79.52775162 4 79 C3.34953255 73.59552268 2.69203631 68.1919588 2.02856445 62.7890625 C1.80471856 60.95855749 1.58265412 59.12783356 1.36254883 57.296875 C-1.08715337 35.56634608 -1.08715337 35.56634608 -6.6875 14.5 C-6.91244141 13.85675781 -7.13738281 13.21351562 -7.36914062 12.55078125 C-7.90247608 11.03020782 -8.44949203 9.5144409 -9 8 C-9.76699219 8.47050781 -10.53398437 8.94101563 -11.32421875 9.42578125 C-13.8333981 10.90198458 -16.27646362 11.98840077 -19 13 C-14.13241909 6.75951166 -8.3889638 0 0 0 Z " fill="#E0E0E0" transform="translate(282,105)"/>
<path d="M0 0 C1.093125 0.5775 2.18625 1.155 3.3125 1.75 C7.5949632 5.33531803 10.51089567 10.02179134 13 15 C13.12327929 17.10148182 13.17558006 19.20743907 13.1875 21.3125 C13.20167969 22.44300781 13.21585937 23.57351562 13.23046875 24.73828125 C12.87532744 29.76443375 11.83628337 32.20088478 8.1875 35.6875 C3.98791097 38.73426067 1.72971285 40.06177546 -3.5 39.875 C-7.44884757 38.88778811 -9.20904889 37.94600395 -12 35 C-14.88032755 29.91142133 -15.27657127 26.68654474 -14 21 C-18.06731397 19.64422868 -21.74707296 19.46838412 -26 20 C-32.7092535 23.54451128 -36.3975132 27.86990125 -38.9375 34.9375 C-39.32143921 35.98804565 -39.32143921 35.98804565 -39.71313477 37.05981445 C-42.56002195 45.15352444 -44.4003527 53.46270358 -46.27441406 61.82324219 C-47.57128627 67.50120355 -48.95475072 73.15855212 -50.3286438 78.81826782 C-51.10299329 82.0097794 -51.87348602 85.20221986 -52.64453125 88.39453125 C-53.09630724 90.26303218 -53.54811106 92.13152638 -54 94 C-54.99 94 -55.98 94 -57 94 C-58.27869084 91.52462463 -59.54795131 89.04509034 -60.8125 86.5625 C-61.34713867 85.53092773 -61.34713867 85.53092773 -61.89257812 84.47851562 C-66.3224515 75.74069199 -68.54112686 67.14261967 -70.125 57.5 C-70.29386719 56.51902344 -70.46273438 55.53804687 -70.63671875 54.52734375 C-71.93201461 46.86775954 -73.1721923 39.22565362 -73.0625 31.4375 C-73.05347656 30.59058594 -73.04445313 29.74367187 -73.03515625 28.87109375 C-73.02355469 28.25363281 -73.01195312 27.63617188 -73 27 C-70.62080296 30.56879555 -70.25681487 33.45911077 -69.5625 37.625 C-69.08715001 40.24628387 -69.08715001 40.24628387 -67 43 C-66.64808594 42.00742188 -66.29617188 41.01484375 -65.93359375 39.9921875 C-61.78878044 28.50789695 -57.28903264 16.90713415 -50 7 C-49.34 7 -48.68 7 -48 7 C-48 6.34 -48 5.68 -48 5 C-47.34 5 -46.68 5 -46 5 C-46 4.34 -46 3.68 -46 3 C-30.42942399 -6.47107871 -16.3946196 -8.93040255 0 0 Z " fill="#0C0C0C" transform="translate(376,181)"/>
<path d="M0 0 C2.03133139 0.03399709 4.06272934 0.06426945 6.09417725 0.09039307 C16.93095904 0.2409211 27.61898813 0.74591199 38.3711853 2.1612854 C39.26343307 2.27611267 40.15568085 2.39093994 41.07496643 2.50924683 C46.55039772 3.29866838 51.30192954 4.68344424 56.41415405 6.8019104 C56.08415405 8.4519104 55.75415405 10.1019104 55.41415405 11.8019104 C22.01286384 23.59060106 -25.83962362 20.34889471 -60.58584595 15.4269104 C-61.81549072 15.2561499 -61.81549072 15.2561499 -63.06997681 15.0819397 C-67.73742638 14.34832253 -71.4312123 13.18549829 -75.58584595 10.8019104 C-75.58584595 9.4819104 -75.58584595 8.1619104 -75.58584595 6.8019104 C-57.42958611 -5.30226283 -20.86502849 -0.3519765 0 0 Z " fill="#100F0F" transform="translate(252.58584594726563,382.1980895996094)"/>
<path d="M0 0 C3.25586459 1.99338648 4.81310158 3.82742795 7.0625 6.875 C7.805 7.596875 8.5475 8.31875 9.3125 9.0625 C20.0625 20.05681818 20.0625 20.05681818 20.0625 23.875 C20.7225 23.875 21.3825 23.875 22.0625 23.875 C22.0625 24.535 22.0625 25.195 22.0625 25.875 C25.93357262 26.50426886 29.80855612 27.07577583 33.69580078 27.59619141 C35.66229475 27.87147164 37.62238035 28.1913345 39.58203125 28.51171875 C46.21244424 29.64752791 46.21244424 29.64752791 52.14599609 27.31713867 C53.67773282 25.24369018 54.87008682 23.15689561 56.0625 20.875 C67.65273583 7.75134809 67.65273583 7.75134809 75.5703125 6.46875 C78.0625 6.875 78.0625 6.875 79.9765625 8.81640625 C80.54117188 9.68136719 81.10578125 10.54632813 81.6875 11.4375 C82.25726563 12.28441406 82.82703125 13.13132812 83.4140625 14.00390625 C86.99994425 20.24945858 88.92549854 26.469767 90.5625 33.4375 C90.88395996 34.79983765 90.88395996 34.79983765 91.21191406 36.18969727 C94.29492672 49.75751052 95.98650693 63.54604625 96.82421875 77.42578125 C97.67371619 89.72260481 99.42156436 101.96608683 101.09716797 114.17163086 C101.22236816 115.10112549 101.34756836 116.03062012 101.4765625 116.98828125 C101.5895166 117.81110596 101.7024707 118.63393066 101.81884766 119.48168945 C102.07142468 121.96266398 102.10408472 124.38296641 102.0625 126.875 C99.75046073 124.56296073 99.78974909 123.94285625 99.5625 120.8125 C99.3975 119.513125 99.2325 118.21375 99.0625 116.875 C98.4025 116.545 97.7425 116.215 97.0625 115.875 C95.11587074 108.83914393 94.83786228 101.3982017 94.45458984 94.14550781 C94.14480032 88.5429314 93.556213 83.00468741 92.85888672 77.43823242 C92.39310631 73.71072113 91.96761405 69.9875242 91.62890625 66.24609375 C90.05352026 49.05005411 88.15714032 28.87758889 78.015625 14.3984375 C77.0625 12.875 77.0625 12.875 77.0625 10.875 C66.47366518 14.70500408 57.14500429 22.70999142 52.0625 32.875 C23.26364213 31.47017766 23.26364213 31.47017766 17.8671875 26.046875 C14.86544607 22.43438964 11.98188157 18.73085409 9.12866211 15.00024414 C5.41300664 10.17873115 1.61739397 5.65244699 -3.9375 2.875 C-5.83190331 10.52130547 -6.21395383 17.76897265 -6.125 25.625 C-6.12435547 26.72199219 -6.12371094 27.81898437 -6.12304688 28.94921875 C-6.10695716 35.01476549 -6.10695716 35.01476549 -5.33251953 41.01611328 C-4.76803818 45.10145109 -6.58471926 47.62296845 -8.625 51 C-15.84160966 63.81928604 -18.05294348 76.42673336 -19.9375 90.875 C-20.9275 90.875 -21.9175 90.875 -22.9375 90.875 C-23.4325 91.865 -23.4325 91.865 -23.9375 92.875 C-26.5775 91.555 -29.2175 90.235 -31.9375 88.875 C-31.6075 87.885 -31.2775 86.895 -30.9375 85.875 C-28.9575 86.205 -26.9775 86.535 -24.9375 86.875 C-23.67598713 82.65903492 -22.6508307 78.50150948 -21.7956543 74.18041992 C-20.22229149 66.49258388 -17.72735332 60.03127199 -14.125 53.0625 C-10.21892435 45.39413534 -9.2136125 40.43330672 -10.9375 31.875 C-11.46856962 24.70054998 -10.77642154 17.87158799 -9.5625 10.8125 C-9.43649414 10.07362549 -9.31048828 9.33475098 -9.18066406 8.57348633 C-8.53556586 5.09984967 -7.92237139 2.85230709 -5.9375 -0.125 C-2.9375 -1.125 -2.9375 -1.125 0 0 Z " fill="#3C3B3B" transform="translate(204.9375,94.125)"/>
<path d="M0 0 C4.92546874 3.80604402 7.64530884 8.33981627 8.46875 14.515625 C8.53711579 22.68533693 8.0128618 29.2926497 3 36 C-0.69932798 38.46621866 -3.70741523 38.67202893 -8 38 C-12.3193393 35.50438173 -14.40588405 32.69844701 -16 28 C-16.75275096 19.75502468 -16.91028328 10.23492491 -11.5 3.5 C-7.6904201 -0.3095799 -5.36808177 -0.54590662 0 0 Z " fill="#080808" transform="translate(253,156)"/>
<path d="M0 0 C3.88416755 1.05864068 6.06182477 4.1952443 8.03515625 7.5546875 C10.4050036 14.25962148 10.35947979 23.74312913 7.34765625 30.1796875 C5.37100077 33.39348049 3.41342944 35.74770417 0.03515625 37.5546875 C-3.46484375 37.6796875 -3.46484375 37.6796875 -6.96484375 36.5546875 C-11.80216151 31.82486569 -14.23887175 27.19481169 -14.33984375 20.4296875 C-14.22560199 14.40751452 -12.86667674 8.85680209 -9.96484375 3.5546875 C-6.86476337 0.65872764 -4.32021809 -0.14535313 0 0 Z " fill="#090909" transform="translate(212.96484375,153.4453125)"/>
<path d="M0 0 C0.66 0 1.32 0 2 0 C2.25523437 1.54494141 2.25523437 1.54494141 2.515625 3.12109375 C6.29848233 25.58630777 11.04776076 48.81449563 24 68 C26.42636759 66.84824323 28.27319764 65.77712824 30.375 64.0625 C33.49699786 61.60950168 36.90101927 59 41 59 C38.02273745 50.89141858 34.62987112 44.52676038 29 38 C27.69445718 36.45004048 26.38908356 34.8999293 25.08862305 33.34570312 C23.81134594 31.82312731 22.52312339 30.30975355 21.234375 28.796875 C16 22.24475524 16 22.24475524 16 19 C17.32 19 18.64 19 20 19 C21.52734375 20.7578125 21.52734375 20.7578125 22.9375 23.125 C24.76854499 26.08355869 26.58159094 28.81924547 28.875 31.4375 C31 34 31 34 31 36 C31.66 36 32.32 36 33 36 C34.59842113 38.00995492 36.05870765 40.00680677 37.5 42.125 C37.90347656 42.69476563 38.30695313 43.26453125 38.72265625 43.8515625 C42.51801088 49.36296856 44.3236918 54.20247225 44 61 C38.375 64 38.375 64 35 64 C35 64.66 35 65.32 35 66 C34.030625 66.639375 33.06125 67.27875 32.0625 67.9375 C28.75744775 69.71061007 28.75744775 69.71061007 28 73 C28.495 73.99 28.495 73.99 29 75 C29.7287533 79.45533268 29.9826581 83.38833273 27.578125 87.33203125 C23.44393476 92.09341701 19.46461641 96.2653845 13 97 C7.44763229 97.26866295 3.2628339 96.75427797 -2 95 C0.49064888 94.31292445 2.37886292 94 5 94 C5 93.67 5 93.34 5 93 C5.70125 93.00902344 6.4025 93.01804687 7.125 93.02734375 C13.76483377 92.81984894 17.78565515 91.73183568 22.52734375 86.9609375 C24.81635917 83.91296471 25.20259432 81.7817606 25 78 C23.25496331 73.38771653 21.05596075 69.28209269 18.53588867 65.05395508 C10.14269305 50.83157594 5.66154462 35.79104931 2.0625 19.75 C1.85069092 18.81003174 1.63888184 17.87006348 1.4206543 16.90161133 C0.21354517 11.15099901 -0.19781635 5.87454629 0 0 Z " fill="#282727" transform="translate(304,256)"/>
<path d="M0 0 C0.02917234 3.87498404 0.04685673 7.74993958 0.0625 11.625 C0.07087891 12.71941406 0.07925781 13.81382812 0.08789062 14.94140625 C0.09272461 16.53662109 0.09272461 16.53662109 0.09765625 18.1640625 C0.10551147 19.62513428 0.10551147 19.62513428 0.11352539 21.11572266 C-0.00590919 24.15013147 -0.49690558 27.00806933 -1 30 C-1.0431154 31.59447138 -1.04226227 33.19088825 -0.9921875 34.78515625 C-0.97542969 35.64560547 -0.95867187 36.50605469 -0.94140625 37.39257812 C-0.89703308 39.17664073 -0.84491315 40.96052702 -0.78515625 42.74414062 C-0.70383514 47.67146039 -0.71109189 51.03818885 -4 55 C-8.7448093 59.44610459 -13.96342855 61.72394805 -20.4375 62.3125 C-24.61548354 61.94601022 -27.25651066 60.8335458 -31 59 C-31 58.67 -31 58.34 -31 58 C-30.34773437 57.84144531 -29.69546875 57.68289063 -29.0234375 57.51953125 C-23.10000427 55.93820173 -19.3440684 54.3440684 -15 50 C-13.948125 48.948125 -13.948125 48.948125 -12.875 47.875 C-4.58648345 35.16594129 -4.30423223 17.86835038 -3.36791992 3.1171875 C-3.24650635 2.41851562 -3.12509277 1.71984375 -3 1 C-1 0 -1 0 0 0 Z " fill="#E2E2E2" transform="translate(255,296)"/>
<path d="M0 0 C0.87460244 15.15977567 -6.41564476 27.87143802 -13 41 C-13.66 41 -14.32 41 -15 41 C-16.15625 39.6796875 -16.15625 39.6796875 -17.5 37.875 C-21.2262842 33.32374243 -25.87898585 30.7629187 -31 28 C-28.53848443 26.7342316 -26.15975976 25.679181 -23.5625 24.6875 C-19.09541716 22.57151339 -16.56777634 19.87587169 -13.4296875 16.12109375 C-12.89601562 15.48300781 -12.36234375 14.84492188 -11.8125 14.1875 C-11.32394531 13.58292969 -10.83539063 12.97835938 -10.33203125 12.35546875 C-9.89246094 11.90816406 -9.45289063 11.46085937 -9 11 C-8.34 11 -7.68 11 -7 11 C-6.7525 9.9275 -6.505 8.855 -6.25 7.75 C-3.66666667 0 -3.66666667 0 0 0 Z " fill="#E0E0E0" transform="translate(187,285)"/>
<path d="M0 0 C5.65320595 5.65320595 5.38098188 17.06435212 5.5 24.6875 C5.49145331 34.32816641 2.80324543 40.39281317 -3 48 C-6.37462715 47.45276317 -8.08235 46.9451 -11 45 C-13.38299617 44.55058745 -15.78225484 44.18393057 -18.1875 43.875 C-19.45980469 43.70742188 -20.73210937 43.53984375 -22.04296875 43.3671875 C-23.50669922 43.18542969 -23.50669922 43.18542969 -25 43 C-25 42.67 -25 42.34 -25 42 C-20.1666528 41.91666643 -15.76307437 42.04738513 -11 43 C-10.67 41.68 -10.34 40.36 -10 39 C-9.34 39 -8.68 39 -8 39 C-7.9175 38.175 -7.835 37.35 -7.75 36.5 C-7.10945742 33.51080128 -6.48316354 31.84838833 -5.0625 29.25 C-0.38395307 20.24888254 -0.50312174 9.93003431 0 0 Z " fill="#DEDEDE" transform="translate(214,303)"/>
<path d="M0 0 C5.91417587 5.91417587 5.28800082 17.56461584 5.3125 25.4375 C5.32047607 26.71536377 5.32047607 26.71536377 5.32861328 28.01904297 C5.2540899 34.65162401 4.05517454 39.75789149 0.375 45.375 C-0.07101563 46.06335938 -0.51703125 46.75171875 -0.9765625 47.4609375 C-1.31429687 47.96882813 -1.65203125 48.47671875 -2 49 C-1.19175781 49.26554687 -0.38351563 49.53109375 0.44921875 49.8046875 C1.51785156 50.15789062 2.58648437 50.51109375 3.6875 50.875 C5.27111328 51.39707031 5.27111328 51.39707031 6.88671875 51.9296875 C8.84125231 52.60163505 10.78055707 53.32173906 12.69140625 54.109375 C17.66830691 56.02939759 21.84923815 55.26502244 26.625 53.25 C31.4381027 50.92954333 35.00406296 48.49390556 38 44 C38 44.66 38 45.32 38 46 C39.32 46.66 40.64 47.32 42 48 C35.04775355 54.02528026 27.22493432 59.39796063 17.79296875 59.3671875 C13.06413864 58.74549515 8.80080367 56.8106566 4.375 55.09375 C1.2532268 54.08206424 -0.77471227 53.78207515 -4 54 C-8 54 -8 54 -11 51.4375 C-13.66297923 48.780681 -13.66297923 48.780681 -16.3671875 48.890625 C-18.61453286 49.15666588 -20.79259631 49.5045605 -23 50 C-23 49.34 -23 48.68 -23 48 C-22.01 47.505 -22.01 47.505 -21 47 C-21 46.34 -21 45.68 -21 45 C-14.49686791 44.53549057 -10.5825192 45.67424388 -5 49 C-4.72414062 48.42378906 -4.44828125 47.84757812 -4.1640625 47.25390625 C-3 45 -3 45 -1.7109375 43.08984375 C4.79758932 32.60388387 2.93017918 18.94754636 0.4375 7.375 C0.14746094 6.16585938 -0.14257812 4.95671875 -0.44140625 3.7109375 C-0.62574219 2.81632812 -0.81007812 1.92171875 -1 1 C-0.67 0.67 -0.34 0.34 0 0 Z " fill="#262526" transform="translate(216,302)"/>
<path d="M0 0 C0.33 0.66 0.66 1.32 1 2 C2.0209375 2.12375 2.0209375 2.12375 3.0625 2.25 C6.83507909 3.21321168 9.05611796 5.20003702 12.08984375 7.5703125 C16.40742005 10.80187268 20.72348159 11.37923313 26 12 C26 13.32 26 14.64 26 16 C25.01 16 24.02 16 23 16 C23 16.66 23 17.32 23 18 C15.79432653 20.01239529 8.60267805 19.69630735 2 16 C-0.51963096 13.79532291 -1.79413476 12.34868126 -2.3046875 9.00390625 C-2.43134667 5.16894813 -2.15122661 3.22683992 0 0 Z " fill="#101010" transform="translate(170,334)"/>
<path d="M0 0 C0.33 0 0.66 0 1 0 C1.33 2.64 1.66 5.28 2 8 C2.33 5.36 2.66 2.72 3 0 C3.33 0 3.66 0 4 0 C4.06058594 1.22976562 4.12117188 2.45953125 4.18359375 3.7265625 C4.26805005 5.35938427 4.35269547 6.99219627 4.4375 8.625 C4.47681641 9.43324219 4.51613281 10.24148437 4.55664062 11.07421875 C4.74089616 14.5609005 4.93571297 17.73629198 5.765625 21.140625 C6.09754826 25.1900888 4.33513538 27.77717469 2.3125 31.125 C-4.90410966 43.94428604 -7.11544348 56.55173336 -9 71 C-9.99 71 -10.98 71 -12 71 C-12.495 71.99 -12.495 71.99 -13 73 C-15.64 71.68 -18.28 70.36 -21 69 C-20.67 68.01 -20.34 67.02 -20 66 C-18.02 66.33 -16.04 66.66 -14 67 C-12.73848713 62.78403492 -11.7133307 58.62650948 -10.8581543 54.30541992 C-9.28479149 46.61758388 -6.78985332 40.15627199 -3.1875 33.1875 C0.73619886 25.48453765 1.65204613 20.58345708 0 12 C-0.06729153 9.75090999 -0.0886926 7.49994399 -0.0625 5.25 C-0.05347656 4.24453125 -0.04445312 3.2390625 -0.03515625 2.203125 C-0.02355469 1.47609375 -0.01195312 0.7490625 0 0 Z " fill="#515050" transform="translate(194,114)"/>
<path d="M0 0 C0.33 0 0.66 0 1 0 C1 1.65 1 3.3 1 5 C3.97 5.66 6.94 6.32 10 7 C10 7.66 10 8.32 10 9 C7.03 8.34 4.06 7.68 1 7 C1 8.98 1 10.96 1 13 C2.98 13 4.96 13 7 13 C6.67 13.66 6.34 14.32 6 15 C3.03 14.505 3.03 14.505 0 14 C0.01015137 14.72268066 0.02030273 15.44536133 0.03076172 16.18994141 C0.08938945 23.63087745 -0.2476664 30.96231549 -0.875 38.375 C-0.96523437 39.45974609 -1.05546875 40.54449219 -1.1484375 41.66210938 C-2.70522699 59.74897611 -2.70522699 59.74897611 -4 65 C-4.99 65.495 -4.99 65.495 -6 66 C-6.21470678 54.39788204 -5.57719063 43.0454593 -4.5 31.5 C-4.35481968 29.88677703 -4.21028547 28.27349578 -4.06640625 26.66015625 C-3.71834234 22.77272887 -3.36168434 18.8861828 -3 15 C-6.63 15 -10.26 15 -14 15 C-14.33 14.34 -14.66 13.68 -15 13 C-14.67 12.34 -14.34 11.68 -14 11 C-10.37 11 -6.74 11 -3 11 C-2.67 8.69 -2.34 6.38 -2 4 C-1.34 4 -0.68 4 0 4 C0 2.68 0 1.36 0 0 Z " fill="#2D2B2C" transform="translate(183,180)"/>
<path d="M0 0 C0.33 0 0.66 0 1 0 C2.5645409 10.8355128 4.10176825 21.61630723 4.76171875 32.55078125 C5.61121619 44.84760481 7.35906436 57.09108683 9.03466797 69.29663086 C9.15986816 70.22612549 9.28506836 71.15562012 9.4140625 72.11328125 C9.5270166 72.93610596 9.6399707 73.75893066 9.75634766 74.60668945 C10.00892468 77.08766398 10.04158472 79.50796641 10 82 C7.68796073 79.68796073 7.72724909 79.06785625 7.5 75.9375 C7.335 74.638125 7.17 73.33875 7 72 C6.34 71.67 5.68 71.34 5 71 C3.05649671 63.97544235 2.76881901 56.54115653 2.39648438 49.29907227 C2.07746294 43.41606518 1.42568912 37.59959076 0.66015625 31.7590332 C-0.6713572 21.34271441 -0.6713572 21.34271441 1 18 C1.04589339 16.05693343 1.04589339 16.05693343 0.87890625 13.8671875 C0.83056641 13.06152344 0.78222656 12.25585938 0.73242188 11.42578125 C0.64831055 10.16314453 0.64831055 10.16314453 0.5625 8.875 C0.51029297 8.02550781 0.45808594 7.17601562 0.40429688 6.30078125 C0.27448622 4.20020876 0.1378826 2.10005809 0 0 Z " fill="#444243" transform="translate(297,139)"/>
<path d="M0 0 C0.33 0 0.66 0 1 0 C3.80081607 15.37902643 -0.96825559 30.65254834 -9.25390625 43.69921875 C-11.55750976 46.73461577 -13.85918783 48.8550551 -17 51 C-17 50.34 -17 49.68 -17 49 C-17.66 48.67 -18.32 48.34 -19 48 C-18.38125 47.773125 -17.7625 47.54625 -17.125 47.3125 C-14.30206434 45.5689221 -14.14707956 44.10386233 -13 41 C-12.236875 39.9275 -11.47375 38.855 -10.6875 37.75 C-3.80968299 26.95649367 -2.05825329 12.43318855 0 0 Z " fill="#373536" transform="translate(176,237)"/>
<path d="M0 0 C0.495 0.99 0.495 0.99 1 2 C-2.75 5 -2.75 5 -5 5 C-5.33 5.99 -5.66 6.98 -6 8 C-6.74765625 8.06058594 -7.4953125 8.12117188 -8.265625 8.18359375 C-9.25046875 8.26738281 -10.2353125 8.35117187 -11.25 8.4375 C-12.71179688 8.55931641 -12.71179688 8.55931641 -14.203125 8.68359375 C-16.56461753 8.95074584 -18.71901065 9.35371968 -21 10 C-21.66 9.01 -22.32 8.02 -23 7 C-25.78727327 6.48954941 -25.78727327 6.48954941 -28.9375 6.4375 C-34.68972204 6.20685197 -34.68972204 6.20685197 -38 4 C-36.98421875 4.04640625 -35.9684375 4.0928125 -34.921875 4.140625 C-26.79746782 4.39432691 -20.4508698 3.87746168 -12.7734375 0.890625 C-8.50635179 -0.47965041 -4.42857135 -0.35271807 0 0 Z " fill="#666067" transform="translate(298,348)"/>
<path d="M0 0 C0.99 0.33 1.98 0.66 3 1 C3.02907084 4.58331625 3.04682263 8.16660208 3.0625 11.75 C3.07087891 12.76578125 3.07925781 13.7815625 3.08789062 14.828125 C3.09111328 15.8078125 3.09433594 16.7875 3.09765625 17.796875 C3.10289307 18.69760742 3.10812988 19.59833984 3.11352539 20.52636719 C3.00696037 22.84833872 2.58322905 24.76276983 2 27 C1.93073032 29.75970408 1.9058264 32.49196042 1.9375 35.25 C1.94201172 35.99507813 1.94652344 36.74015625 1.95117188 37.5078125 C1.96290754 39.3385764 1.9808415 41.16929873 2 43 C1.34 43 0.68 43 0 43 C-0.33 45.31 -0.66 47.62 -1 50 C-1.33 50 -1.66 50 -2 50 C-2.0271045 46.95827281 -2.04688964 43.91679003 -2.0625 40.875 C-2.07087891 40.0190625 -2.07925781 39.163125 -2.08789062 38.28125 C-2.09111328 37.44335938 -2.09433594 36.60546875 -2.09765625 35.7421875 C-2.10289307 34.9776123 -2.10812988 34.21303711 -2.11352539 33.42529297 C-1.97949437 30.56192912 -1.47111158 27.82666949 -1 25 C-0.86090105 22.98380951 -0.7564684 20.96498126 -0.68359375 18.9453125 C-0.64169922 17.83671875 -0.59980469 16.728125 -0.55664062 15.5859375 C-0.51732422 14.44382812 -0.47800781 13.30171875 -0.4375 12.125 C-0.39431641 10.9596875 -0.35113281 9.794375 -0.30664062 8.59375 C-0.20098371 5.72927375 -0.09888201 2.86471679 0 0 Z " fill="#484848" transform="translate(255,295)"/>
<path d="M0 0 C1.23626794 3.70880381 0.5152777 4.51343728 -1 8 C-1.46328361 9.68513232 -1.89227332 11.38001451 -2.2890625 13.08203125 C-2.50820313 14.01337891 -2.72734375 14.94472656 -2.953125 15.90429688 C-3.17484375 16.86400391 -3.3965625 17.82371094 -3.625 18.8125 C-3.85445313 19.79154297 -4.08390625 20.77058594 -4.3203125 21.77929688 C-4.88369443 24.18540721 -5.44347112 26.59229704 -6 29 C-6.33 28.34 -6.66 27.68 -7 27 C-9.02463255 26.34786708 -9.02463255 26.34786708 -11 26 C-10.67 25.34 -10.34 24.68 -10 24 C-9.01 24 -8.02 24 -7 24 C-7 22.68 -7 21.36 -7 20 C-7.99 20 -8.98 20 -10 20 C-9.52372025 18.04096255 -9.04388577 16.08278903 -8.5625 14.125 C-8.29566406 13.03445312 -8.02882813 11.94390625 -7.75390625 10.8203125 C-7 8 -7 8 -6 6 C-4.68 6.33 -3.36 6.66 -2 7 C-2.33 6.01 -2.66 5.02 -3 4 C-2.34 4 -1.68 4 -1 4 C-0.67 2.68 -0.34 1.36 0 0 Z " fill="#1C1B1B" transform="translate(335,217)"/>
<path d="M0 0 C-0.65771191 1.33777325 -1.32718395 2.66975912 -2 4 C-2.45632813 4.93457031 -2.91265625 5.86914062 -3.3828125 6.83203125 C-5.34839008 10.19466733 -6.95732923 12.54015067 -10 15 C-15.2933438 16.10555495 -20.76131584 14.98543209 -26 14 C-26 13.34 -26 12.68 -26 12 C-27.32 11.34 -28.64 10.68 -30 10 C-25.19864125 9.92378796 -21.00317335 9.98687838 -16.3125 11 C-14.10054228 11.39610959 -14.10054228 11.39610959 -12 11 C-9.99268322 9.19822546 -8.6996569 7.37137204 -7.2890625 5.078125 C-4.13909774 0 -4.13909774 0 0 0 Z " fill="#363334" transform="translate(267,112)"/>
<path d="M0 0 C0.33 0.66 0.66 1.32 1 2 C3.01669827 3.13350534 3.01669827 3.13350534 5 4 C-2.3307085 10.3532807 -9.88527498 15.24817994 -19.703125 15.16796875 C-22.68508508 14.94990024 -25.24379589 14.1307504 -28 13 C-24.27116893 11.90428426 -20.97156177 11.99782623 -17.12109375 12.16015625 C-14.69576058 12.15140845 -14.69576058 12.15140845 -12 10 C-9.99314079 9.00061648 -7.96816747 8.04760864 -5.9375 7.09765625 C-2.59001941 5.20120051 -1.22376001 3.67128003 0 0 Z " fill="#4A4949" transform="translate(253,346)"/>
<path d="M0 0 C0.33 0 0.66 0 1 0 C1 1.65 1 3.3 1 5 C3.97 5.66 6.94 6.32 10 7 C10 7.66 10 8.32 10 9 C7.03 8.34 4.06 7.68 1 7 C1 8.98 1 10.96 1 13 C2.98 13 4.96 13 7 13 C6.67 13.66 6.34 14.32 6 15 C-0.27 14.67 -6.54 14.34 -13 14 C-13 13.34 -13 12.68 -13 12 C-9.37 12 -5.74 12 -2 12 C-2 9.36 -2 6.72 -2 4 C-1.34 4 -0.68 4 0 4 C0 2.68 0 1.36 0 0 Z " fill="#1C1B1C" transform="translate(183,180)"/>
<path d="M0 0 C0.99 0 1.98 0 3 0 C3 0.99 3 1.98 3 3 C1.44424022 3.84584998 -0.1199612 4.67618399 -1.6875 5.5 C-2.99267578 6.19609375 -2.99267578 6.19609375 -4.32421875 6.90625 C-7.11788829 8.04818792 -9.01629113 8.21504208 -12 8 C-12.33 10.97 -12.66 13.94 -13 17 C-13.33 16.34 -13.66 15.68 -14 15 C-14.66 15 -15.32 15 -16 15 C-16.25 9.375 -16.25 9.375 -14 6 C-10.99609375 4.6484375 -10.99609375 4.6484375 -7.4375 3.375 C-3.42797148 2.19334055 -3.42797148 2.19334055 0 0 Z " fill="#302F2F" transform="translate(156,286)"/>
<path d="M0 0 C0.99 2.97 1.98 5.94 3 9 C1 7.625 1 7.625 -1 6 C-1 5.34 -1 4.68 -1 4 C-6.40747098 6.14045726 -11.14310063 8.80832327 -16 12 C-16.66 11.34 -17.32 10.68 -18 10 C-6.35726545 -0.54490847 -6.35726545 -0.54490847 0 0 Z " fill="#3F3D3D" transform="translate(283,101)"/>
<path d="M0 0 C2 1 2 1 3.0625 4 C3.371875 4.99 3.68125 5.98 4 7 C4.33 7.33 4.66 7.66 5 8 C5.22791141 9.62141083 5.39492078 11.25147848 5.53515625 12.8828125 C5.62216797 13.88570312 5.70917969 14.88859375 5.79882812 15.921875 C5.88583984 16.97890625 5.97285156 18.0359375 6.0625 19.125 C6.15337891 20.15882813 6.24425781 21.19265625 6.33789062 22.2578125 C6.78464507 27.52481222 7.11230132 32.71435127 7 38 C6.67 38 6.34 38 6 38 C5.14110223 33.2318991 4.28673325 28.46301712 3.43652344 23.69335938 C3.1467476 22.0713926 2.85574245 20.44964494 2.56347656 18.828125 C2.14323571 16.49535947 1.72744364 14.16183784 1.3125 11.828125 C1.18125732 11.10506165 1.05001465 10.38199829 0.91479492 9.63702393 C0.3333612 6.3436952 0 3.35963091 0 0 Z " fill="#0C0B0C" transform="translate(292,126)"/>
<path d="M0 0 C0.66 0 1.32 0 2 0 C2.20882812 0.79019531 2.41765625 1.58039063 2.6328125 2.39453125 C3.76541752 5.23131176 3.76541752 5.23131176 6.6171875 6.07421875 C7.69226563 6.27660156 8.76734375 6.47898437 9.875 6.6875 C11.03128906 6.914375 12.18757812 7.14125 13.37890625 7.375 C15.17134766 7.684375 15.17134766 7.684375 17 8 C18.16402344 8.20625 19.32804687 8.4125 20.52734375 8.625 C23.34839766 9.1080342 26.17094007 9.56672055 29 10 C29 10.33 29 10.66 29 11 C8.7605533 11.47436203 8.7605533 11.47436203 4.19140625 7.37890625 C0 2.72286374 0 2.72286374 0 0 Z " fill="#252324" transform="translate(220,114)"/>
<path d="M0 0 C0.99 0 1.98 0 3 0 C3 0.66 3 1.32 3 2 C4.65 2 6.3 2 8 2 C7.01 2.495 7.01 2.495 6 3 C5.67 3.99 5.34 4.98 5 6 C4.25234375 6.06058594 3.5046875 6.12117188 2.734375 6.18359375 C1.74953125 6.26738281 0.7646875 6.35117187 -0.25 6.4375 C-1.71179688 6.55931641 -1.71179688 6.55931641 -3.203125 6.68359375 C-5.56461753 6.95074584 -7.71901065 7.35371968 -10 8 C-10.66 6.68 -11.32 5.36 -12 4 C-8.12315913 2.80712589 -5.08378077 2 -1 2 C-0.67 2.33 -0.34 2.66 0 3 C0 2.01 0 1.02 0 0 Z " fill="#948E95" transform="translate(287,350)"/>
<path d="M0 0 C0.33 0 0.66 0 1 0 C1.84681133 5.08086796 2.09038099 9.84828377 2 15 C1.01 15 0.02 15 -1 15 C-1.33 15.66 -1.66 16.32 -2 17 C-4.64 15.68 -7.28 14.36 -10 13 C-9.67 12.01 -9.34 11.02 -9 10 C-6.03 10.495 -6.03 10.495 -3 11 C-1.41678933 5.52225234 -1.41678933 5.52225234 0 0 Z " fill="#4C4B4D" transform="translate(183,170)"/>
<path d="M0 0 C1.28125091 2.13701178 2.0477601 3.45184433 1.828125 5.97265625 C1.63734375 6.66230469 1.4465625 7.35195312 1.25 8.0625 C0.06829371 12.61509923 -0.71475885 17.16630689 -1.4375 21.8125 C-1.623125 22.534375 -1.80875 23.25625 -2 24 C-2.66 24.33 -3.32 24.66 -4 25 C-4.53344824 15.81283582 -3.44660395 8.53957675 0 0 Z " fill="#302D2F" transform="translate(188,152)"/>
<path d="M0 0 C-0.06058594 0.83660156 -0.12117187 1.67320313 -0.18359375 2.53515625 C-0.8184641 11.35497053 -1.41917958 20.17647279 -2 29 C-2.33 29 -2.66 29 -3 29 C-3.83726938 23.90993378 -4.1542294 19.02911738 -4.125 13.875 C-4.12886719 13.18535156 -4.13273438 12.49570313 -4.13671875 11.78515625 C-4.12964235 8.08419889 -4.06186901 4.56196565 -3 1 C-1 0 -1 0 0 0 Z " fill="#1E1E1E" transform="translate(199,100)"/>
<path d="M0 0 C6.46326465 -0.45356243 9.60931587 0.40621058 15 4 C14.01 4.495 14.01 4.495 13 5 C13.95865509 7.33075929 13.95865509 7.33075929 17 9 C13.66557428 8.61892278 12.23650819 8.22336885 9.75 5.875 C6.11500492 3.39659426 3.9973575 3.95475408 -0.20703125 4.640625 C-0.79871094 4.75921875 -1.39039063 4.8778125 -2 5 C-2 4.34 -2 3.68 -2 3 C-1.34 2.67 -0.68 2.34 0 2 C0 1.34 0 0.68 0 0 Z " fill="#3C3B3C" transform="translate(195,347)"/>
<path d="M0 0 C0.95519531 0.34933594 1.91039062 0.69867188 2.89453125 1.05859375 C10.62370635 3.80605438 17.71321656 5.81048936 26 6 C21.9715677 8.9052233 17.92992966 7.83062823 13.3125 7.1875 C12.52810547 7.09146484 11.74371094 6.99542969 10.93554688 6.89648438 C5.15162295 6.15162295 5.15162295 6.15162295 4 5 C2.65252916 4.76924918 1.29622435 4.58846937 -0.0625 4.4375 C-1.361875 4.293125 -2.66125 4.14875 -4 4 C-2.68 3.34 -1.36 2.68 0 2 C0 1.34 0 0.68 0 0 Z " fill="#0B0B0B" transform="translate(294,344)"/>
<path d="M0 0 C0 1.65 0 3.3 0 5 C-7.88432693 7.62810898 -14.11567307 7.62810898 -22 5 C-19.50935112 4.31292445 -17.62113708 4 -15 4 C-15 3.67 -15 3.34 -15 3 C-13.86111328 2.92652344 -13.86111328 2.92652344 -12.69921875 2.8515625 C-11.70535156 2.77679688 -10.71148437 2.70203125 -9.6875 2.625 C-8.70136719 2.55539062 -7.71523438 2.48578125 -6.69921875 2.4140625 C-4.13355786 2.02048789 -2.3318921 0 0 0 Z " fill="#5B5B5B" transform="translate(324,346)"/>
<path d="M0 0 C0.33 0 0.66 0 1 0 C1.5860306 4.53941165 1.98425305 8.4060784 -0.48828125 12.41015625 C-4.91094507 17.45547254 -4.91094507 17.45547254 -8 19 C-8.3125 16.875 -8.3125 16.875 -8 14 C-6.79941305 12.53982668 -5.59168158 11.08324303 -4.3125 9.69140625 C-2.04455836 6.76873145 -1.1440667 3.49241414 0 0 Z " fill="#333333" transform="translate(332,331)"/>
<path d="M0 0 C6.41688675 -0.10349817 12.62694402 0.25492456 19 1 C19.33 2.32 19.66 3.64 20 5 C14.72 4.67 9.44 4.34 4 4 C4 3.34 4 2.68 4 2 C2.68 1.34 1.36 0.68 0 0 Z " fill="#514F50" transform="translate(237,122)"/>
<path d="M0 0 C3.88192126 3.76774711 7.79531881 7.62797789 11 12 C11 12.66 11 13.32 11 14 C11.66 14 12.32 14 13 14 C12.67 14.66 12.34 15.32 12 16 C10.62437146 14.71034824 9.29233607 13.37310707 8 12 C8 11.34 8 10.68 8 10 C7.01 10.33 6.02 10.66 5 11 C2.69 8.36 0.38 5.72 -2 3 C-1.34 2.67 -0.68 2.34 0 2 C0 1.34 0 0.68 0 0 Z " fill="#494848" transform="translate(214,104)"/>
<path d="M0 0 C7.2484945 -0.41640288 13.16914355 0.55833216 20 3 C20 3.66 20 4.32 20 5 C17.79154015 4.68839539 15.58323749 4.37567654 13.375 4.0625 C12.14523437 3.88847656 10.91546875 3.71445313 9.6484375 3.53515625 C6.42443816 3.06225699 3.21187824 2.54848998 0 2 C0 1.34 0 0.68 0 0 Z " fill="#444444" transform="translate(274,193)"/>
<path d="M0 0 C1.32 0 2.64 0 4 0 C5.66796875 1.8984375 5.66796875 1.8984375 7.1875 4.375 C7.69667969 5.18710937 8.20585937 5.99921875 8.73046875 6.8359375 C9.53034923 8.19942607 10.29304741 9.58609481 11 11 C7 11 7 11 4.9375 9.3125 C0 3.41935484 0 3.41935484 0 0 Z " fill="#424141" transform="translate(320,275)"/>
<path d="M0 0 C0.33 0 0.66 0 1 0 C1.103125 1.216875 1.20625 2.43375 1.3125 3.6875 C1.77005392 7.4407684 2.84311389 9.85454109 5 13 C5.33 13.99 5.66 14.98 6 16 C3.2941403 15.32353508 1.48483064 14.64282657 -0.22265625 12.37890625 C-3 7.59072581 -3 7.59072581 -3 5 C-2.34 5 -1.68 5 -1 5 C-0.67 3.35 -0.34 1.7 0 0 Z " fill="#454445" transform="translate(143,296)"/>
<path d="M0 0 C0.33 0 0.66 0 1 0 C1.66 5.94 2.32 11.88 3 18 C2.34 18 1.68 18 1 18 C0.67 20.31 0.34 22.62 0 25 C-0.33 25 -0.66 25 -1 25 C-1.0271045 21.95827281 -1.04688964 18.91679003 -1.0625 15.875 C-1.07087891 15.0190625 -1.07925781 14.163125 -1.08789062 13.28125 C-1.10538306 8.73321589 -0.93192358 4.47616836 0 0 Z " fill="#666666" transform="translate(254,320)"/>
<path d="M0 0 C1.84790538 3.31016094 2.74541487 6.57173491 3.625 10.25 C3.88539063 11.32765625 4.14578125 12.4053125 4.4140625 13.515625 C4.60742188 14.33546875 4.80078125 15.1553125 5 16 C4.01 16.33 3.02 16.66 2 17 C-1.62870159 5.47835991 -1.62870159 5.47835991 0 0 Z " fill="#353535" transform="translate(309,278)"/>
<path d="M0 0 C2.31 0 4.62 0 7 0 C7 0.99 7 1.98 7 3 C10.3 3 13.6 3 17 3 C14.14166714 5.85833286 11.98484539 5.80075773 8 6 C3.98480937 4.48483372 2.39631647 3.5944747 0 0 Z " fill="#575757" transform="translate(364,215)"/>
<path d="M0 0 C2.90039305 2.46700099 3.97011276 4.9468802 5.25 8.5 C5.78367187 9.93859375 5.78367187 9.93859375 6.328125 11.40625 C7 14 7 14 6 17 C4 16 4 16 2.9296875 13.41796875 C2.58164062 12.35191406 2.23359375 11.28585937 1.875 10.1875 C1.52179688 9.12917969 1.16859375 8.07085937 0.8046875 6.98046875 C0 4 0 4 0 0 Z " fill="#292929" transform="translate(312,293)"/>
<path d="M0 0 C-0.1875 2.3125 -0.1875 2.3125 -1 5 C-3.375 6.625 -3.375 6.625 -6 8 C-6.556875 8.556875 -7.11375 9.11375 -7.6875 9.6875 C-8.120625 10.120625 -8.55375 10.55375 -9 11 C-9.66 11 -10.32 11 -11 11 C-10.34 9.35 -9.68 7.7 -9 6 C-8.34 6 -7.68 6 -7 6 C-7 5.34 -7 4.68 -7 4 C-6.34 4 -5.68 4 -5 4 C-5 3.34 -5 2.68 -5 2 C-2 0 -2 0 0 0 Z " fill="#494748" transform="translate(335,182)"/>
<path d="M0 0 C1.5625 1.625 1.5625 1.625 3 4 C2.76340641 7.7854975 1.89087137 10.72248962 0 14 C-0.66 14 -1.32 14 -2 14 C-2.25328119 8.93437617 -1.33583899 4.84241633 0 0 Z " fill="#232122" transform="translate(197,130)"/>
<path d="M0 0 C0.33 0 0.66 0 1 0 C1.22245975 2.24864725 1.42746557 4.49902623 1.625 6.75 C1.74101562 8.00296875 1.85703125 9.2559375 1.9765625 10.546875 C1.99888599 13.83586903 1.77961002 15.31020776 0 18 C-0.66 17.34 -1.32 16.68 -2 16 C-1.81864449 13.23286597 -1.5356614 10.6080224 -1.125 7.875 C-1.02058594 7.12089844 -0.91617188 6.36679688 -0.80859375 5.58984375 C-0.54895402 3.72515844 -0.27574971 1.86237113 0 0 Z " fill="#484647" transform="translate(176,237)"/>
<path d="M0 0 C1.25312512 3.75937536 0.50868401 4.42680103 -1 8 C-1.73485188 10.65335778 -2.36414524 13.32032637 -3 16 C-3.12375 15.360625 -3.2475 14.72125 -3.375 14.0625 C-3.58125 13.381875 -3.7875 12.70125 -4 12 C-4.66 11.67 -5.32 11.34 -6 11 C-6 9.35 -6 7.7 -6 6 C-4.68 6.33 -3.36 6.66 -2 7 C-2.33 6.01 -2.66 5.02 -3 4 C-2.34 4 -1.68 4 -1 4 C-0.67 2.68 -0.34 1.36 0 0 Z " fill="#3D3B3C" transform="translate(335,217)"/>
<path d="M0 0 C0.8531488 2.38881665 1.12563748 3.62308755 0.3125 6.0625 C-1.18464888 8.27257692 -2.79042813 9.52695209 -5 11 C-5 10.34 -5 9.68 -5 9 C-5.66 8.67 -6.32 8.34 -7 8 C-6.071875 7.6596875 -6.071875 7.6596875 -5.125 7.3125 C-2.37585439 5.6144983 -2.00115914 4.00347742 -1 1 C-0.67 0.67 -0.34 0.34 0 0 Z " fill="#464445" transform="translate(164,277)"/>
<path d="M0 0 C2 1 2 1 3.0625 4 C3.371875 4.99 3.68125 5.98 4 7 C4.33 7.33 4.66 7.66 5 8 C5.25 10.4375 5.25 10.4375 5 13 C4.01 13.66 3.02 14.32 2 15 C1.66223316 13.2508503 1.32996329 11.50063855 1 9.75 C0.814375 8.77546875 0.62875 7.8009375 0.4375 6.796875 C0 4 0 4 0 0 Z " fill="#252324" transform="translate(292,126)"/>
<path d="M0 0 C3.2626876 3.08632611 6.02235218 5.93483504 8 10 C7.67 10.66 7.34 11.32 7 12 C5.68 11.67 4.36 11.34 3 11 C2.51171875 9.01432292 2.0234375 7.02864583 1.53515625 5.04296875 C1.08989295 3.34316798 0.55566015 1.66698046 0 0 Z " fill="#4B4B4B" transform="translate(283,103)"/>
<path d="M0 0 C0.99 0.33 1.98 0.66 3 1 C1.54955729 5.10958767 -0.51110752 8.43258745 -3 12 C-3.99 11.34 -4.98 10.68 -6 10 C-5.38125 9.278125 -4.7625 8.55625 -4.125 7.8125 C-2.16333647 5.21618062 -1.04684 3.05328334 0 0 Z " fill="#3F3F3F" transform="translate(217,339)"/>
<path d="M0 0 C1.65 0 3.3 0 5 0 C4.01 0.495 4.01 0.495 3 1 C2.53348793 3.12576782 2.53348793 3.12576782 2.375 5.5625 C2.30023438 6.38878906 2.22546875 7.21507812 2.1484375 8.06640625 C2.09945312 8.70449219 2.05046875 9.34257812 2 10 C1.67 9.34 1.34 8.68 1 8 C0.34 8 -0.32 8 -1 8 C-1.125 2.25 -1.125 2.25 0 0 Z " fill="#181617" transform="translate(141,293)"/>
<path d="M0 0 C3.34097385 0.59660247 5.54300129 1.63075125 8 4 C8 5.32 8 6.64 8 8 C4.63820226 6.55922954 2.40843732 4.75249979 0 2 C0 1.34 0 0.68 0 0 Z " fill="#242323" transform="translate(206,98)"/>
<path d="M0 0 C2.64 0.99 5.28 1.98 8 3 C8 3.99 8 4.98 8 6 C2.06 5.01 2.06 5.01 -4 4 C-2.68 3.34 -1.36 2.68 0 2 C0 1.34 0 0.68 0 0 Z " fill="#2C2A2D" transform="translate(294,344)"/>
<path d="M0 0 C4.83256305 0.41421969 6.82679218 2.46413986 10 6 C6.38238619 5.67112602 4.44334967 5.37334709 1.625 3 C0 1 0 1 0 0 Z " fill="#1A1A1A" transform="translate(159,316)"/>
<path d="M0 0 C0.66 0 1.32 0 2 0 C1.4739075 3.78786597 0.61896089 6.17152224 -2 9 C-2.66 9 -3.32 9 -4 9 C-2.25 2.25 -2.25 2.25 0 0 Z " fill="#262525" transform="translate(168,272)"/>
<path d="M0 0 C0.66 0.33 1.32 0.66 2 1 C-1.16952847 4.26008643 -4.39937989 7.22237877 -8 10 C-8.66 9.67 -9.32 9.34 -10 9 C-6.7 6.03 -3.4 3.06 0 0 Z " fill="#D4D2D3" transform="translate(273,108)"/>
<path d="M0 0 C0.69480469 0.14308594 1.38960937 0.28617187 2.10546875 0.43359375 C5.16693345 1.03266579 8.23455833 1.55514698 11.3125 2.0625 C12.38113281 2.23910156 13.44976562 2.41570312 14.55078125 2.59765625 C15.35902344 2.73042969 16.16726562 2.86320312 17 3 C17 3.33 17 3.66 17 4 C5.47835991 4.3690205 5.47835991 4.3690205 0 2 C0 1.34 0 0.68 0 0 Z " fill="#0D0B0C" transform="translate(223,355)"/>
<path d="M0 0 C1.0828125 0.37125 1.0828125 0.37125 2.1875 0.75 C1.1975 1.08 0.2075 1.41 -0.8125 1.75 C-0.8125 2.41 -0.8125 3.07 -0.8125 3.75 C-2.4625 4.41 -4.1125 5.07 -5.8125 5.75 C-6.4725 5.09 -7.1325 4.43 -7.8125 3.75 C-3.50480769 -0.31153846 -3.50480769 -0.31153846 0 0 Z " fill="#333333" transform="translate(339.8125,318.25)"/>
<path d="M0 0 C2 3 2 3 2 6 C0.02 6.66 -1.96 7.32 -4 8 C-3.67 6.35 -3.34 4.7 -3 3 C-2.01 2.67 -1.02 2.34 0 2 C0 1.34 0 0.68 0 0 Z " fill="#CECCCD" transform="translate(343,309)"/>
<path d="M0 0 C0.33 0 0.66 0 1 0 C1.84681133 5.08086796 2.09038099 9.84828377 2 15 C0.5 14 0.5 14 -1 12 C-1.26676927 7.79838392 -1.34346122 4.03038366 0 0 Z " fill="#444244" transform="translate(183,170)"/>
<path d="M0 0 C0.33 0.99 0.66 1.98 1 3 C1.66 3 2.32 3 3 3 C3.33 2.01 3.66 1.02 4 0 C4.66 0.33 5.32 0.66 6 1 C5.75 3.375 5.75 3.375 5 6 C2.9375 7.3125 2.9375 7.3125 1 8 C0.67 5.36 0.34 2.72 0 0 Z " fill="#545253" transform="translate(304,223)"/>
<path d="M0 0 C0.99 0.33 1.98 0.66 3 1 C2.34 3.31 1.68 5.62 1 8 C0.01 8 -0.98 8 -2 8 C-1.125 1.125 -1.125 1.125 0 0 Z " fill="#121212" transform="translate(257,181)"/>
<path d="M0 0 C0.33 0 0.66 0 1 0 C1.52923572 2.12292296 2.04815377 4.24842051 2.5625 6.375 C2.85253906 7.55835937 3.14257812 8.74171875 3.44140625 9.9609375 C4 13 4 13 3 15 C2.34 13.02 1.68 11.04 1 9 C0.34 9 -0.32 9 -1 9 C-0.67 6.03 -0.34 3.06 0 0 Z " fill="#424142" transform="translate(292,118)"/>
<path d="M0 0 C0.66 0 1.32 0 2 0 C2.98248524 4.0527516 3.08159574 7.83861737 3 12 C2.34 11.67 1.68 11.34 1 11 C0.5859375 8.49609375 0.5859375 8.49609375 0.375 5.4375 C0.30023438 4.42558594 0.22546875 3.41367187 0.1484375 2.37109375 C0.09945313 1.58863281 0.05046875 0.80617188 0 0 Z " fill="#2A2A2A" transform="translate(306,268)"/>
<path d="M0 0 C-0.66 1.32 -1.32 2.64 -2 4 C-3.98 4 -5.96 4 -8 4 C-8 3.34 -8 2.68 -8 2 C-5.09399739 0.74335022 -3.20395416 0 0 0 Z " fill="#232122" transform="translate(249,354)"/>
<path d="M0 0 C0.33 0 0.66 0 1 0 C1.05395478 1.62463842 1.09277195 3.24978541 1.125 4.875 C1.14820313 5.77992188 1.17140625 6.68484375 1.1953125 7.6171875 C1 10 1 10 -1 12 C-2 11 -2 11 -2.1875 7.6875 C-2.01798052 4.35361682 -1.75557129 2.74308013 0 0 Z " fill="#454444" transform="translate(332,331)"/>
<path d="M0 0 C0.99 0.99 1.98 1.98 3 3 C2.85546875 5.26171875 2.85546875 5.26171875 2.1875 7.6875 C1.86845703 8.89986328 1.86845703 8.89986328 1.54296875 10.13671875 C1.27419922 11.05904297 1.27419922 11.05904297 1 12 C0.67 12 0.34 12 0 12 C0 8.04 0 4.08 0 0 Z " fill="#0E0D0E" transform="translate(299,170)"/>
<path d="M0 0 C2.02350324 3.03525486 2.32124018 4.19426202 2.625 7.6875 C2.69976562 8.49574219 2.77453125 9.30398438 2.8515625 10.13671875 C2.90054687 10.75160156 2.94953125 11.36648438 3 12 C1.10786631 9.61426621 -0.02391783 7.92824652 -1 5 C-0.5625 2.3125 -0.5625 2.3125 0 0 Z " fill="#434242" transform="translate(345,305)"/>
<path d="M0 0 C1.32 0 2.64 0 4 0 C4.66 1.98 5.32 3.96 6 6 C5.01 6.495 5.01 6.495 4 7 C0 2.25 0 2.25 0 0 Z " fill="#202020" transform="translate(333,292)"/>
<path d="M0 0 C0.33 0 0.66 0 1 0 C1.66 2.97 2.32 5.94 3 9 C2.01 9.33 1.02 9.66 0 10 C-1.125 3.375 -1.125 3.375 0 0 Z " fill="#4B4B4B" transform="translate(311,285)"/>
<path d="M0 0 C0.66 0 1.32 0 2 0 C1.67 2.31 1.34 4.62 1 7 C0.67 6.34 0.34 5.68 0 5 C-2.02463255 4.34786708 -2.02463255 4.34786708 -4 4 C-3.67 3.34 -3.34 2.68 -3 2 C-2.01 2 -1.02 2 0 2 C0 1.34 0 0.68 0 0 Z " fill="#747374" transform="translate(328,239)"/>
<path d="M0 0 C2.97 0.495 2.97 0.495 6 1 C5.0409375 1.433125 5.0409375 1.433125 4.0625 1.875 C1.84793921 2.82823451 1.84793921 2.82823451 1 5 C2.65 5 4.3 5 6 5 C6 5.33 6 5.66 6 6 C4.02 6 2.04 6 0 6 C0 4.02 0 2.04 0 0 Z " fill="#D6D5D6" transform="translate(184,187)"/>
<path d="M0 0 C0.66 0 1.32 0 2 0 C0.92598892 2.91517292 0.22189824 4.77810176 -2 7 C-2.99 6.67 -3.98 6.34 -5 6 C-4.34 6 -3.68 6 -3 6 C-3 4.68 -3 3.36 -3 2 C-2.01 2 -1.02 2 0 2 C0 1.34 0 0.68 0 0 Z " fill="#1A1819" transform="translate(259,119)"/>
<path d="M0 0 C1.8125 0.1875 1.8125 0.1875 4 1 C5.8125 3.4375 5.8125 3.4375 7 6 C6.67 6.66 6.34 7.32 6 8 C5.38125 7.195625 4.7625 6.39125 4.125 5.5625 C2.25835959 2.96125481 2.25835959 2.96125481 0 2 C0 1.34 0 0.68 0 0 Z " fill="#121011" transform="translate(279,102)"/>
<path d="M0 0 C-3.00617269 3.00617269 -5.82381598 2.59585316 -10 3 C-10 2.34 -10 1.68 -10 1 C-6.78548731 -0.60725635 -3.56387464 -0.05748185 0 0 Z " fill="#595657" transform="translate(308,393)"/>
<path d="M0 0 C0.66 0 1.32 0 2 0 C2 0.66 2 1.32 2 2 C2.66 2 3.32 2 4 2 C4.33 1.34 4.66 0.68 5 0 C5.66 0.99 6.32 1.98 7 3 C5.02 3.99 5.02 3.99 3 5 C2.01 3.35 1.02 1.7 0 0 Z " fill="#C3C2C2" transform="translate(325,320)"/>
<path d="M0 0 C0.66 0 1.32 0 2 0 C2.66 2.31 3.32 4.62 4 7 C3.01 7 2.02 7 1 7 C0.67 4.69 0.34 2.38 0 0 Z " fill="#343434" transform="translate(315,302)"/>
<path d="M0 0 C0.33 1.32 0.66 2.64 1 4 C1.66 4.33 2.32 4.66 3 5 C1.71034824 6.37562854 0.37310707 7.70766393 -1 9 C-1.66 9 -2.32 9 -3 9 C-2.01 6.03 -1.02 3.06 0 0 Z " fill="#555555" transform="translate(317,203)"/>
<path d="M0 0 C2 1 2 1 2 1 Z M-5 2 C-3.68 2.33 -2.36 2.66 -1 3 C-2.28965176 4.37562854 -3.62689293 5.70766393 -5 7 C-5.66 7 -6.32 7 -7 7 C-6.34 5.35 -5.68 3.7 -5 2 Z " fill="#353535" transform="translate(331,186)"/>
<path d="M0 0 C-0.3125 1.9375 -0.3125 1.9375 -1 4 C-1.99 4.33 -2.98 4.66 -4 5 C-4 4.34 -4 3.68 -4 3 C-4.66 2.67 -5.32 2.34 -6 2 C-3 0 -3 0 0 0 Z " fill="#373535" transform="translate(253,351)"/>
<path d="M0 0 C0.66 0 1.32 0 2 0 C2.268125 0.804375 2.53625 1.60875 2.8125 2.4375 C3.204375 3.283125 3.59625 4.12875 4 5 C4.99 5.33 5.98 5.66 7 6 C6.01 6.33 5.02 6.66 4 7 C0 2.25 0 2.25 0 0 Z " fill="#141414" transform="translate(220,114)"/>
<path d="" fill="#FFFFFF" transform="translate(0,0)"/>
<path d="" fill="#FFFFFF" transform="translate(0,0)"/>
<path d="" fill="#FFFFFF" transform="translate(0,0)"/>
<path d="" fill="#FFFFFF" transform="translate(0,0)"/>
<path d="" fill="#FFFFFF" transform="translate(0,0)"/>
<path d="" fill="#FFFFFF" transform="translate(0,0)"/>
<path d="" fill="#FFFFFF" transform="translate(0,0)"/>
<path d="" fill="#FFFFFF" transform="translate(0,0)"/>
<path d="" fill="#FFFFFF" transform="translate(0,0)"/>
<path d="" fill="#FFFFFF" transform="translate(0,0)"/>
<path d="" fill="#FFFFFF" transform="translate(0,0)"/>
<path d="" fill="#FFFFFF" transform="translate(0,0)"/>
<path d="" fill="#FFFFFF" transform="translate(0,0)"/>
<path d="" fill="#FFFFFF" transform="translate(0,0)"/>
<path d="" fill="#FFFFFF" transform="translate(0,0)"/>
<path d="" fill="#FFFFFF" transform="translate(0,0)"/>
<path d="" fill="#FFFFFF" transform="translate(0,0)"/>
<path d="" fill="#FFFFFF" transform="translate(0,0)"/>
<path d="" fill="#FFFFFF" transform="translate(0,0)"/>
<path d="" fill="#FFFFFF" transform="translate(0,0)"/>
<path d="" fill="#FFFFFF" transform="translate(0,0)"/>
<path d="" fill="#FFFFFF" transform="translate(0,0)"/>
<path d="" fill="#FFFFFF" transform="translate(0,0)"/>
<path d="" fill="#FFFFFF" transform="translate(0,0)"/>
<path d="" fill="#FFFFFF" transform="translate(0,0)"/>
<path d="" fill="#FFFFFF" transform="translate(0,0)"/>
<path d="" fill="#FFFFFF" transform="translate(0,0)"/>
<path d="" fill="#FFFFFF" transform="translate(0,0)"/>
<path d="" fill="#FFFFFF" transform="translate(0,0)"/>
<path d="" fill="#FFFFFF" transform="translate(0,0)"/>
<path d="" fill="#FFFFFF" transform="translate(0,0)"/>
<path d="" fill="#FFFFFF" transform="translate(0,0)"/>
<path d="" fill="#FFFFFF" transform="translate(0,0)"/>
<path d="" fill="#FFFFFF" transform="translate(0,0)"/>
<path d="" fill="#FFFFFF" transform="translate(0,0)"/>
<path d="" fill="#FFFFFF" transform="translate(0,0)"/>
<path d="" fill="#FFFFFF" transform="translate(0,0)"/>
<path d="" fill="#FFFFFF" transform="translate(0,0)"/>
<path d="" fill="#FFFFFF" transform="translate(0,0)"/>
<path d="" fill="#FFFFFF" transform="translate(0,0)"/>
<path d="" fill="#FFFFFF" transform="translate(0,0)"/>
<path d="" fill="#FFFFFF" transform="translate(0,0)"/>
<path d="" fill="#FFFFFF" transform="translate(0,0)"/>
<path d="" fill="#FFFFFF" transform="translate(0,0)"/>
<path d="" fill="#FFFFFF" transform="translate(0,0)"/>
<path d="" fill="#FFFFFF" transform="translate(0,0)"/>
<path d="" fill="#FFFFFF" transform="translate(0,0)"/>
<path d="" fill="#FFFFFF" transform="translate(0,0)"/>
<path d="" fill="#FFFFFF" transform="translate(0,0)"/>
<path d="" fill="#FFFFFF" transform="translate(0,0)"/>
<path d="" fill="#FFFFFF" transform="translate(0,0)"/>
<path d="" fill="#FFFFFF" transform="translate(0,0)"/>
<path d="" fill="#FFFFFF" transform="translate(0,0)"/>
</svg>
