<?xml version="1.0" encoding="UTF-8"?>
<svg version="1.1" xmlns="http://www.w3.org/2000/svg" width="500" height="500">
<path d="M0 0 C165 0 330 0 500 0 C500 165 500 330 500 500 C335 500 170 500 0 500 C0 335 0 170 0 0 Z " fill="#FEFEFE" transform="translate(0,0)"/>
<path d="M0 0 C12.22633675 10.34723909 19.80838092 21.8006939 23.984375 37.16015625 C25.13271589 41.54765457 25.13271589 41.54765457 26.95703125 45.65625 C29.20001355 46.73311205 29.20001355 46.73311205 31.89453125 47.15625 C38.03688568 48.5963616 43.30510126 50.88795776 48.95703125 53.65625 C50.1860743 54.23984374 51.41524861 54.82316111 52.64453125 55.40625 C63.88947029 60.81316603 74.64887992 67.03056091 84.734375 74.39453125 C88.69127558 77.17155602 91.2325325 77.77412127 95.9375 77.8671875 C107.91404719 78.18256472 119.28622358 78.74783027 130.95703125 81.65625 C132.16230469 81.94886719 133.36757813 82.24148437 134.609375 82.54296875 C154.21660755 87.98604982 178.145582 97.80506299 190.78515625 114.41796875 C194.95880846 122.38964446 194.45810143 136.24322428 191.8984375 144.7109375 C188.80913524 153.32450905 183.99071377 161.06110138 178.95703125 168.65625 C178.13857175 169.92008678 177.32089031 171.1844277 176.50390625 172.44921875 C168.95148197 184.05679235 160.46205196 194.33074388 150.984375 204.41015625 C148.74502271 206.79657454 146.57368511 209.22204857 144.45703125 211.71875 C137.22882611 220.03029792 129.45975217 227.71271308 120.70703125 234.40625 C112.07410084 240.77173275 112.07410084 240.77173275 104.95703125 248.65625 C105.03716116 252.37136403 107.21790654 254.27508559 109.70703125 256.84375 C112.74403952 260.03976393 114.39103298 262.53968488 115.89453125 266.65625 C116.94224148 269.01311933 116.94224148 269.01311933 118.95703125 270.65625 C123.13394385 271.42031938 127.12565669 271.47587387 131.359375 271.515625 C155.20155164 271.85458967 179.5089506 286.32509883 195.95703125 302.65625 C212.60666127 320.80777964 217.90467809 342.6832459 217.140625 366.77001953 C215.80342236 387.79184085 203.40471489 407.97164232 188.58203125 422.41796875 C177.77149764 431.6358791 165.16257175 440.62822491 151.80078125 445.59765625 C149.72059114 446.37201273 147.66019683 447.20013266 145.61328125 448.05859375 C125.71389661 456.26722201 104.22023031 458.60150004 82.95703125 460.65625 C81.52846802 460.80090698 81.52846802 460.80090698 80.07104492 460.94848633 C57.65495191 463.13613493 26.03156779 465.40180991 6.671875 452.140625 C1.66108649 447.8032682 -2.45838579 442.11669805 -3.328125 435.48046875 C-3.74949216 428.53331269 -2.03640231 423.33600586 1.95703125 417.65625 C9.21603458 409.66456222 17.85075891 405.10221756 28.75222778 404.50247192 C32.04269201 404.47498357 35.32708972 404.51020485 38.6171875 404.56640625 C41.12955509 404.5868608 43.64192499 404.60703358 46.15429688 404.62695312 C50.06333257 404.67001114 53.97221206 404.71808884 57.88110352 404.77270508 C88.58852528 405.17028188 131.10867416 404.48800425 155.14453125 381.96875 C165.29429883 371.18205369 169.79335293 359.98090005 169.421875 345.2109375 C168.42319106 337.57394268 164.02273913 333.3532632 158.39453125 328.46875 C148.32771325 320.91112395 137.02627016 317.49410701 124.95703125 314.65625 C125.00150391 316.22052734 125.00150391 316.22052734 125.046875 317.81640625 C124.76323948 329.93874184 117.0150528 344.85592045 108.58203125 353.59375 C107.3970404 354.64158913 106.18591939 355.66025598 104.95703125 356.65625 C104.11140625 357.38070313 103.26578125 358.10515625 102.39453125 358.8515625 C83.47375103 374.77655252 61.08484755 384.54354339 36.10668945 384.81689453 C30.02648734 384.69217748 30.02648734 384.69217748 24.921875 387.46484375 C23.41730155 389.76178427 23.41730155 389.76178427 22.21484375 392.2421875 C18.72052194 398.9486809 11.64047166 403.14014679 4.76171875 405.765625 C-6.87099145 408.48868242 -20.32387301 408.80295373 -30.7578125 402.4375 C-34.07863805 399.84895906 -36.73736729 397.17933079 -39.04296875 393.65625 C-39.58179688 392.90085937 -40.120625 392.14546875 -40.67578125 391.3671875 C-44.31939403 384.14242387 -42.4323002 374.12291078 -40.04296875 366.65625 C-40.78417969 367.0171875 -41.52539062 367.378125 -42.2890625 367.75 C-53.18823845 372.55257447 -65.34951434 373.71895821 -76.99609375 370.46875 C-85.83940637 366.95842743 -92.04662902 361.9298363 -96.16796875 353.30078125 C-98.06356065 347.57169322 -98.32601267 340.83860303 -96.05078125 335.1953125 C-93.89522069 331.82192112 -91.43210386 329.04290259 -88.59375 326.22265625 C-76.17011464 313.72473907 -75.2443249 299.49694646 -75.04296875 282.65625 C-76.0484375 282.53056641 -76.0484375 282.53056641 -77.07421875 282.40234375 C-80.91389045 281.43737363 -84.13044486 279.66407724 -87.54296875 277.71875 C-88.24566895 277.31978516 -88.94836914 276.92082031 -89.67236328 276.50976562 C-100.49960772 270.21366056 -109.94559151 262.23512387 -119.04296875 253.65625 C-119.71714844 253.03492188 -120.39132813 252.41359375 -121.0859375 251.7734375 C-135.65379076 237.87436792 -144.92180715 221.32937404 -149.04296875 201.65625 C-149.37941406 200.19638672 -149.37941406 200.19638672 -149.72265625 198.70703125 C-158.01681675 156.15685172 -139.17237788 115.20915256 -116.04296875 80.65625 C-113.45721796 76.92503577 -110.77417711 73.28179522 -108.04296875 69.65625 C-107.32367188 68.67011719 -106.604375 67.68398437 -105.86328125 66.66796875 C-100.93858067 59.96253734 -95.6996426 53.75019963 -90.04296875 47.65625 C-88.71341536 46.18622297 -87.38387749 44.71618176 -86.05493164 43.24560547 C-83.73887187 40.69594206 -81.39318666 38.17439942 -79.04296875 35.65625 C-77.73005859 34.24279297 -77.73005859 34.24279297 -76.390625 32.80078125 C-67.28445284 23.32019966 -56.81748082 16.22488966 -45.6953125 9.31640625 C-43.85664028 8.16554367 -42.0372835 6.98346196 -40.234375 5.77734375 C-29.33076409 -1.46652535 -11.98639537 -8.78839579 0 0 Z " fill="#020202" transform="translate(217.04296875,28.34375)"/>
<path d="M0 0 C7.66621023 5.76768168 13.42402184 11.70014626 18.4921875 19.875 C19.0284375 20.72964844 19.5646875 21.58429688 20.1171875 22.46484375 C31.48968583 41.82652216 32.23738703 66.98332927 27.39453125 88.51953125 C21.82294311 109.2381209 10.17940321 128.94463121 -8.69018555 139.9831543 C-24.21682927 148.89670993 -39.04294734 152.67569949 -56.8828125 148.75 C-72.45737778 144.15422664 -85.92539502 132.36702047 -94.18359375 118.45703125 C-96.00440663 114.90671469 -97.62682691 111.29303642 -99.1953125 107.625 C-99.49308594 106.94638916 -99.79085937 106.26777832 -100.09765625 105.56860352 C-108.06510335 86.24528081 -107.35777737 60.10321359 -99.5078125 40.875 C-99.08967285 39.84826172 -99.08967285 39.84826172 -98.66308594 38.80078125 C-89.80441429 17.88529071 -74.26135239 1.24635282 -53.16796875 -7.51171875 C-34.7981784 -13.6206922 -15.91298789 -10.95493528 0 0 Z " fill="#FAFAFA" transform="translate(287.5078125,159.125)"/>
<path d="M0 0 C15.50160496 11.97017424 21.7952565 29.08375238 24.5534668 48.00488281 C26.4699445 63.0736285 25.20924685 77.30711144 22.328125 92.1640625 C22.09996094 93.37320313 21.87179688 94.58234375 21.63671875 95.828125 C17.39917855 116.11988894 6.49480092 137.76317246 -11.0078125 149.50390625 C-11.88695312 150.05175781 -12.76609375 150.59960938 -13.671875 151.1640625 C-14.36539063 151.61910156 -15.05890625 152.07414063 -15.7734375 152.54296875 C-23.61597453 156.88815818 -34.16069637 156.36122084 -42.7109375 154.50390625 C-52.38745424 151.04372766 -60.39523828 143.03812554 -64.7890625 133.8203125 C-65.82210399 131.28976126 -66.75602081 128.73918391 -67.671875 126.1640625 C-68.01089844 125.2978125 -68.34992188 124.4315625 -68.69921875 123.5390625 C-73.55466825 110.93321625 -75.22157597 98.88625002 -75.109375 85.4765625 C-75.10699829 84.7287149 -75.10462158 83.98086731 -75.10217285 83.21035767 C-75.04514642 71.74053251 -74.09219943 61.14947952 -70.671875 50.1640625 C-70.23875 48.48376953 -70.23875 48.48376953 -69.796875 46.76953125 C-64.58355263 27.52213124 -53.75813755 9.15546677 -36.49609375 -1.32421875 C-24.33113404 -7.8357532 -11.48741046 -7.89339608 0 0 Z " fill="#F9F9F9" transform="translate(148.671875,119.8359375)"/>
<path d="M0 0 C12.7688834 9.16567116 17.41087949 19.83422878 19.97851562 34.99267578 C22.69195815 53.33221494 16.72334514 70.23992216 6 85 C-1.01785807 93.64093098 -10.71546867 100.05559373 -21.6875 102.25 C-33.55348347 103.19728439 -41.65607467 100.8538792 -51.109375 93.60546875 C-60.26916987 85.23674707 -66.09076314 71.58256183 -66.6875 59.25 C-66.73777344 58.46882813 -66.78804687 57.68765625 -66.83984375 56.8828125 C-67.48117311 39.59257286 -61.927495 22.57108497 -50.71875 9.2734375 C-36.42680885 -4.96353465 -18.08108284 -11.44217425 0 0 Z " fill="#020202" transform="translate(277.6875,179.75)"/>
<path d="M0 0 C7.9139603 5.76207447 12.54746525 17.5260323 14.05078125 26.890625 C15.78801963 46.15168127 14.14364731 66.02050008 2.05078125 81.890625 C1.40496094 82.75042969 0.75914062 83.61023438 0.09375 84.49609375 C-5.88598723 91.79029574 -12.65243522 96.7385819 -22.06640625 98.4609375 C-28.48111275 98.83635289 -32.844629 97.65888647 -37.921875 93.7109375 C-47.99093759 84.67012215 -53.27013225 73.11330214 -54.16796875 59.59765625 C-54.41768375 49.72350906 -53.03223734 40.51126435 -50.94921875 30.890625 C-50.74425781 29.93027344 -50.53929688 28.96992188 -50.328125 27.98046875 C-47.22444299 15.81634859 -38.73673545 4.74459278 -28.1796875 -1.88671875 C-18.24347237 -7.33336557 -9.36018326 -5.32723857 0 0 Z " fill="#030303" transform="translate(142.94921875,148.109375)"/>
<path d="M0 0 C1.43107947 21.82396187 -17.17049073 43.56010119 -30.67016602 59.25585938 C-48.96636963 79.89262251 -48.96636963 79.89262251 -60 87 C-60.33 87 -60.66 87 -61 87 C-60.58754339 82.29230555 -60.0445953 77.84921689 -58.80859375 73.28515625 C-56.38681513 64.1782138 -54.78030697 55.62119316 -55.0234375 46.18359375 C-55.04086502 45.4254689 -55.05829254 44.66734406 -55.07624817 43.88624573 C-55.17943702 40.09494097 -55.35699261 36.32244952 -55.62475586 32.53930664 C-56.15735477 22.37919151 -56.15735477 22.37919151 -52.96459961 18.57446289 C-50.38905278 16.74375137 -47.85569054 15.3437594 -45 14 C-43.40478516 13.00806641 -43.40478516 13.00806641 -41.77734375 11.99609375 C-28.43133409 4.67139244 -15.31334938 -0.05354318 0 0 Z " fill="#F9F9F9" transform="translate(402,159)"/>
<path d="M0 0 C0.33 0.99 0.66 1.98 1 3 C-1.40730648 5.63371858 -3.82739042 8.25535748 -6.25 10.875 C-7.27287109 11.99455078 -7.27287109 11.99455078 -8.31640625 13.13671875 C-8.98027344 13.85214844 -9.64414062 14.56757813 -10.328125 15.3046875 C-11.23933105 16.2944458 -11.23933105 16.2944458 -12.16894531 17.30419922 C-14.01818015 19.01683724 -15.69931591 20.00066811 -18 21 C-13.51973031 15.69441747 -8.87845747 10.55905386 -4.171875 5.453125 C-1.9045614 3.00442955 -1.9045614 3.00442955 0 0 Z " fill="#D7D7D7" transform="translate(382,216)"/>
<path d="M0 0 C0.66 0.66 1.32 1.32 2 2 C1.401875 2.556875 0.80375 3.11375 0.1875 3.6875 C-2.01922139 5.85394547 -2.01922139 5.85394547 -3.3125 8.1875 C-5.84126263 12.40210438 -8.94437187 16.15744298 -12 20 C-12.66 19.67 -13.32 19.34 -14 19 C-13.40832031 18.21496094 -12.81664062 17.42992187 -12.20703125 16.62109375 C-8.073305 11.12519343 -3.9611732 5.62231035 0 0 Z " fill="#2E2E2E" transform="translate(387,196)"/>
<path d="M0 0 C0.66 0.33 1.32 0.66 2 1 C-8.10679612 12.73786408 -8.10679612 12.73786408 -13 16 C-10.69565838 8.87748953 -5.6863363 4.49617289 0 0 Z " fill="#222222" transform="translate(235,182)"/>
<path d="M0 0 C1.79158489 -0.02696365 3.58328473 -0.04637917 5.375 -0.0625 C6.37273437 -0.07410156 7.37046875 -0.08570313 8.3984375 -0.09765625 C11 0 11 0 13 1 C15.204364 1.22950319 17.41392173 1.41075933 19.625 1.5625 C20.81351563 1.64628906 22.00203125 1.73007812 23.2265625 1.81640625 C24.59941406 1.90728516 24.59941406 1.90728516 26 2 C26 2.33 26 2.66 26 3 C8.14350797 3.3690205 8.14350797 3.3690205 0 1 C0 0.67 0 0.34 0 0 Z " fill="#2E2E2E" transform="translate(138,397)"/>
<path d="M0 0 C0.66 0.33 1.32 0.66 2 1 C-0.85276137 3.93200474 -3.65079784 6.64315404 -7 9 C-7.66 8.67 -8.32 8.34 -9 8 C-6.03 5.36 -3.06 2.72 0 0 Z " fill="#313131" transform="translate(113,147)"/>
<path d="M0 0 C0.66 0.33 1.32 0.66 2 1 C-0.25 3.5625 -0.25 3.5625 -3 6 C-4.32 5.67 -5.64 5.34 -7 5 C-4.69 3.35 -2.38 1.7 0 0 Z " fill="#262626" transform="translate(180,32)"/>
<path d="M0 0 C3.96 0 7.92 0 12 0 C12 0.33 12 0.66 12 1 C11.32453125 1.03738281 10.6490625 1.07476562 9.953125 1.11328125 C9.06109375 1.17902344 8.1690625 1.24476563 7.25 1.3125 C6.36828125 1.37050781 5.4865625 1.42851562 4.578125 1.48828125 C1.67696226 2.0641181 0.20774393 3.07596148 -2 5 C-1.34 3.35 -0.68 1.7 0 0 Z " fill="#C7C7C7" transform="translate(244,413)"/>
<path d="M0 0 C0.66 0.33 1.32 0.66 2 1 C1.43945339 4.36327963 0.58158962 6.99112219 -1 10 C-1.02689216 8.52093108 -1.04634621 7.04172517 -1.0625 5.5625 C-1.07410156 4.73878906 -1.08570313 3.91507813 -1.09765625 3.06640625 C-1 1 -1 1 0 0 Z " fill="#D6D6D6" transform="translate(348,179)"/>
</svg>
