<?xml version="1.0" encoding="UTF-8"?>
<svg version="1.1" xmlns="http://www.w3.org/2000/svg" width="500" height="500">
<path d="M0 0 C14.44947689 11.41196407 23.14860892 26.68388235 27.71875 44.40234375 C28.87559583 46.88263725 28.87559583 46.88263725 32.015625 47.80078125 C33.31573545 48.13288666 34.61948965 48.45091927 35.92578125 48.7578125 C45.32478988 51.31509416 53.45752481 55.70959165 61.93066406 60.42919922 C64.49161025 61.84944868 67.0852187 63.20501602 69.67578125 64.5703125 C72.75520246 66.19400732 75.49969853 67.93356463 78.22265625 70.0859375 C89.96179304 78.97197791 101.468281 78.93224355 115.81933594 79.41943359 C143.51690014 80.738162 171.75379934 94.15159413 191.24609375 113.4296875 C197.10390299 120.62717509 196.29859496 130.58759244 195.48828125 139.30859375 C193.32848726 153.39787484 184.97015399 166.09733165 176.98828125 177.5703125 C176.32957031 178.55257812 175.67085938 179.53484375 174.9921875 180.546875 C174.37214844 181.46210938 173.75210937 182.37734375 173.11328125 183.3203125 C172.55898438 184.14015625 172.0046875 184.96 171.43359375 185.8046875 C170.95664062 186.38734375 170.4796875 186.97 169.98828125 187.5703125 C169.32828125 187.5703125 168.66828125 187.5703125 167.98828125 187.5703125 C167.74207031 188.12460938 167.49585938 188.67890625 167.2421875 189.25 C163.02178811 197.05971102 156.04256922 203.72450369 150.08984375 210.25 C148.26545331 212.26428981 146.49734323 214.31179864 144.73828125 216.3828125 C137.03860456 225.16470181 128.8620108 233.20721984 119.47143555 240.16113281 C115.22733357 243.3152052 111.59442575 246.71257652 107.98828125 250.5703125 C109.40824227 254.64530481 111.39062946 257.69951905 113.98828125 261.1328125 C117.87567636 266.28504021 117.87567636 266.28504021 118.82543945 268.69116211 C119.81737134 270.765141 119.81737134 270.765141 121.99682617 271.14453125 C122.81256104 271.18191406 123.6282959 271.21929687 124.46875 271.2578125 C125.37802246 271.31404785 126.28729492 271.3702832 127.22412109 271.42822266 C128.68519287 271.49855713 128.68519287 271.49855713 130.17578125 271.5703125 C146.09187241 272.70956414 159.09046883 276.80165548 172.98828125 284.5703125 C173.96539062 285.11558594 174.9425 285.66085937 175.94921875 286.22265625 C195.1040482 297.70993667 209.99446146 313.96971761 215.77001953 335.88549805 C216.57485489 339.10372886 217.30667742 342.32308196 217.98828125 345.5703125 C218.28025391 346.94703125 218.28025391 346.94703125 218.578125 348.3515625 C221.72929474 373.08074215 215.84412989 394.65439314 200.98828125 414.5703125 C198.45493666 417.39484612 195.76867346 419.9919146 192.98828125 422.5703125 C191.81265625 423.8078125 191.81265625 423.8078125 190.61328125 425.0703125 C154.55930526 459.40743249 101.69201892 465.77831715 54.05078125 465.8203125 C53.35239136 465.82098724 52.65400146 465.82166199 51.93444824 465.82235718 C34.39419623 465.79552572 16.09993215 464.60730104 2.8359375 451.65625 C-2.60714243 445.51120839 -3.74184987 440.02308883 -3.45703125 431.8203125 C-2.42277589 424.27206285 1.42402087 418.2380639 6.95703125 413.10546875 C13.67703996 408.02669294 20.53542978 405.47265251 28.89233398 405.39672852 C30.68216957 405.37649376 30.68216957 405.37649376 32.50816345 405.35585022 C33.79968826 405.34541183 35.09121307 405.33497345 36.421875 405.32421875 C37.77833315 405.30868125 39.13478372 405.29246923 40.4912262 405.27561951 C46.22981805 405.20539288 51.96849257 405.14574531 57.70727539 405.09350586 C110.207701 405.37036757 110.207701 405.37036757 155.80078125 382.2578125 C164.60720683 372.81783112 168.58247551 362.15788068 168.46948242 349.38232422 C168.22139402 343.46873542 167.25977863 339.69258726 162.98828125 335.5703125 C153.03400234 326.70319033 140.74852493 321.92208158 127.98828125 318.5703125 C127.91351563 319.27414062 127.83875 319.97796875 127.76171875 320.703125 C125.73508884 335.92271821 119.18061473 348.17743141 107.98828125 358.5703125 C107.38886719 359.15167969 106.78945313 359.73304688 106.171875 360.33203125 C85.70819524 379.51437563 59.49262094 388.4835838 31.73046875 388.93359375 C28.00871297 389.79776212 27.09549782 391.46115714 24.98828125 394.5703125 C18.4109522 402.87599079 11.70022027 408.72420479 0.98828125 410.5703125 C-11.25440359 411.76517512 -23.26912783 411.46803942 -33.19921875 403.4453125 C-34.8671875 401.9375 -34.8671875 401.9375 -36.01171875 400.5703125 C-36.01171875 399.9103125 -36.01171875 399.2503125 -36.01171875 398.5703125 C-36.67171875 398.5703125 -37.33171875 398.5703125 -38.01171875 398.5703125 C-42.98026336 389.98626444 -43.19136462 381.13948949 -41.01171875 371.5703125 C-42.57019531 372.0034375 -42.57019531 372.0034375 -44.16015625 372.4453125 C-58.24747702 376.24501497 -70.25404762 377.2381212 -83.58203125 370.1796875 C-89.49479292 366.26319585 -94.50508831 360.59675308 -96.61328125 353.73828125 C-97.94134949 346.51202758 -97.69785998 340.05283674 -94.01171875 333.5703125 C-92.45600335 331.36882844 -90.88309679 329.53765865 -89.01171875 327.5703125 C-88.35171875 327.5703125 -87.69171875 327.5703125 -87.01171875 327.5703125 C-86.74230469 327.003125 -86.47289062 326.4359375 -86.1953125 325.8515625 C-84.96201891 323.47452138 -83.54108864 321.30980851 -82.07421875 319.0703125 C-75.86215129 308.67646304 -75.44566222 297.36160413 -75.01171875 285.5703125 C-75.92308594 285.27640625 -76.83445312 284.9825 -77.7734375 284.6796875 C-93.6755783 279.23190947 -106.54772874 267.27313437 -118.56103516 255.93310547 C-119.92188146 254.65470694 -121.30022094 253.3950023 -122.6796875 252.13671875 C-133.78930794 241.64717015 -140.74796662 228.76099223 -146.01171875 214.5703125 C-146.27001465 213.90064453 -146.52831055 213.23097656 -146.79443359 212.54101562 C-157.75336673 183.00750024 -150.90396732 147.85203803 -138.22021484 120.09765625 C-128.36862496 99.49489696 -116.03553594 80.5443647 -102.01171875 62.5703125 C-101.55925781 61.98862305 -101.10679688 61.40693359 -100.640625 60.80761719 C-95.34869219 54.04352206 -95.34869219 54.04352206 -93.01171875 51.5703125 C-92.35171875 51.5703125 -91.69171875 51.5703125 -91.01171875 51.5703125 C-90.77864014 51.0141626 -90.54556152 50.4580127 -90.30541992 49.88500977 C-88.67584722 46.9693693 -86.6546503 44.91823093 -84.3125 42.53515625 C-83.84556229 42.05979431 -83.37862457 41.58443237 -82.89753723 41.09466553 C-81.38058723 39.55804948 -79.85411529 38.03153457 -78.32421875 36.5078125 C-77.80317566 35.98764557 -77.28213257 35.46747864 -76.74530029 34.93154907 C-68.72360065 26.95441271 -60.64133718 19.57020844 -51.01171875 13.5703125 C-50.31320801 13.13444824 -49.61469727 12.69858398 -48.89501953 12.24951172 C-14.5614373 -8.91771106 -14.5614373 -8.91771106 0 0 Z " fill="#080808" transform="translate(216.01171875,26.4296875)"/>
<path d="M0 0 C15.59600336 13.34805256 25.25372422 30.90954265 27.6875 51.40234375 C29.48541608 76.43075969 23.89394505 102.55147208 7.609375 122.22265625 C6.65804687 123.30160156 6.65804687 123.30160156 5.6875 124.40234375 C4.97078125 125.22476563 4.2540625 126.0471875 3.515625 126.89453125 C-7.92550187 139.1956121 -25.02890908 148.02309171 -41.99609375 148.703125 C-59.75262127 148.9221596 -72.75467551 144.4435661 -85.9375 131.89453125 C-94.61340558 122.79053823 -99.99023961 113.06205952 -104.3125 101.40234375 C-104.74820313 100.26667969 -105.18390625 99.13101563 -105.6328125 97.9609375 C-112.66434843 76.35002811 -109.00499805 51.53709586 -99.3125 31.40234375 C-94.28622251 21.76864522 -87.92792065 14.02901317 -80.3125 6.40234375 C-79.65636719 5.73460937 -79.00023437 5.066875 -78.32421875 4.37890625 C-56.99193022 -15.81139682 -23.27314997 -18.83856194 0 0 Z " fill="#F7F7F7" transform="translate(290.3125,160.59765625)"/>
<path d="M0 0 C15.80760349 9.94722366 23.96793177 26.42253565 28.21972656 44.11230469 C31.76823312 61.626882 30.40817952 81.16361107 26.40234375 98.51171875 C26.23605469 99.23359375 26.06976563 99.95546875 25.8984375 100.69921875 C20.70045931 122.26120237 9.67613268 142.45538631 -9.0703125 155 C-17.45299431 160.01406161 -26.64727945 160.94115541 -36.21875 158.97265625 C-40.88569913 157.54030424 -44.6860857 155.46712761 -48.59765625 152.51171875 C-49.58765625 151.78984375 -50.57765625 151.06796875 -51.59765625 150.32421875 C-63.84236504 139.67387308 -69.00372134 119.01284725 -70.59765625 103.51171875 C-70.73994358 100.8888058 -70.85192246 98.28801574 -70.90625 95.6640625 C-70.92921143 94.57542656 -70.92921143 94.57542656 -70.95263672 93.46479797 C-71.24656761 76.34047113 -70.65578018 60.76424881 -64.59765625 44.51171875 C-64.31438477 43.74472656 -64.03111328 42.97773438 -63.73925781 42.1875 C-57.0526338 24.6322397 -46.22047382 7.64983052 -28.59765625 -0.48828125 C-19.8247966 -3.96842392 -8.61774965 -4.08662005 0 0 Z " fill="#F5F5F5" transform="translate(144.59765625,116.48828125)"/>
<path d="M0 0 C10.71618676 8.57294941 17.83825395 19.43027762 19.8125 33.25 C20.02952292 36.45950396 20.10320259 39.65863578 20.125 42.875 C20.13063965 43.66269775 20.1362793 44.45039551 20.14208984 45.26196289 C19.93750633 61.87657181 12.8666817 77.79021231 1.75 90 C-6.9486791 98.33873376 -18.10367915 102.62147539 -30.04882812 102.77563477 C-39.12717456 102.53953683 -47.21685247 98.16692255 -54.0625 92.3125 C-65.88457859 79.07658503 -67.94859431 62.61332893 -67.32666016 45.68017578 C-66.54296093 31.99431247 -58.92648203 15.94882128 -49.1875 6.25 C-34.11220962 -6.66791898 -17.57346283 -9.64817567 0 0 Z " fill="#030303" transform="translate(278.1875,179.75)"/>
<path d="M0 0 C8.24148988 5.05727788 12.66755213 14.93813886 15 24 C15.54596367 28.93037556 15.57179557 33.79360852 15.5 38.75 C15.49446106 39.41263855 15.48892212 40.0752771 15.48321533 40.75799561 C15.31014257 58.38958364 11.40792604 75.67083583 -1 89 C-7.43426845 95.03755055 -15.09924532 99.95244932 -24.125 100.5 C-31.65403604 99.52851148 -36.85683347 96.0013825 -42.04296875 90.5390625 C-53.22895906 76.02630062 -54.78049115 59.07710774 -52.6953125 41.41992188 C-50.31063802 26.24803882 -44.37498244 11.37209042 -32 1.625 C-21.38996202 -5.67827662 -11.33723515 -5.91597543 0 0 Z " fill="#040404" transform="translate(142,147)"/>
<path d="M0 0 C-0.25187823 13.99069058 -4.63115321 26.67303735 -13 38 C-13.62777344 38.30035156 -14.25554687 38.60070312 -14.90234375 38.91015625 C-18.23094176 40.63953958 -19.93553225 43.72211397 -22 46.75 C-22.42539062 47.3584375 -22.85078125 47.966875 -23.2890625 48.59375 C-25.23982125 51.39422576 -27.13677672 54.2131235 -28.98046875 57.0859375 C-31.18568155 60.26792734 -33.66021021 63.06980863 -36.3125 65.875 C-39.50190145 69.2814177 -42.60492859 72.70003778 -45.5625 76.3125 C-49.36483984 80.71472355 -53.99082172 84.06958492 -59 87 C-59.66 87 -60.32 87 -61 87 C-61.21511803 82.97191489 -61.02449706 79.65281888 -59.90625 75.76953125 C-55.8760937 61.73163327 -55.61458007 48.60152689 -56.18554688 34.1262207 C-56.20669556 33.36236053 -56.22784424 32.59850037 -56.24963379 31.81149292 C-56.29038832 30.37125559 -56.35217744 28.93139958 -56.43884277 27.49319458 C-56.53472451 23.67254427 -56.13942931 22.17155982 -53.69677734 19.16601562 C-51.66859205 17.53700423 -49.79011562 16.03677514 -47.5390625 14.75390625 C-46.91008057 14.39433838 -46.28109863 14.03477051 -45.63305664 13.66430664 C-44.97039795 13.30071045 -44.30773926 12.93711426 -43.625 12.5625 C-42.92818115 12.17634521 -42.2313623 11.79019043 -41.51342773 11.39233398 C-28.14579143 4.14870556 -15.32251031 -0.51552371 0 0 Z " fill="#F6F6F6" transform="translate(402,159)"/>
<path d="M0 0 C0.99 0.495 0.99 0.495 2 1 C-17.40572416 15.7107909 -39.06811448 21.97117891 -63.2578125 22.36328125 C-66.95197917 23.2210436 -67.90660959 24.92907926 -70 28 C-71.31494512 29.35147138 -72.64264858 30.69112542 -74 32 C-72.45052978 27.60983438 -70.33033996 23.33033996 -67 20 C-64.88876801 19.90422839 -62.77700693 19.81524185 -60.66430664 19.76074219 C-39.32282474 19.17406166 -17.04857546 13.49167842 0 0 Z " fill="#E6E6E6" transform="translate(311,393)"/>
<path d="M0 0 C2.12691797 0.44934887 4.25150039 0.90976473 6.375 1.375 C7.55835938 1.63023437 8.74171875 1.88546875 9.9609375 2.1484375 C13 3 13 3 15 5 C13.20767663 4.69128878 11.41615679 4.37790936 9.625 4.0625 C8.62726563 3.88847656 7.62953125 3.71445312 6.6015625 3.53515625 C4 3 4 3 2 2 C1.92523438 2.70382812 1.85046875 3.40765625 1.7734375 4.1328125 C0.46267352 13.97639295 -2.29570327 25.19620549 -10 32 C-8.55595304 28.34977017 -7.03834341 24.73635495 -5.5 21.125 C-2.5736616 14.08457408 -0.79575925 7.5597129 0 0 Z " fill="#DADADA" transform="translate(342,343)"/>
<path d="M0 0 C1 3 1 3 0 6 C-3.06704377 9.32263075 -6.26283767 12.4429942 -10 15 C-10.99 14.67 -11.98 14.34 -13 14 C-11.77801556 12.41111701 -10.54705525 10.82913536 -9.3125 9.25 C-8.28576172 7.92742187 -8.28576172 7.92742187 -7.23828125 6.578125 C-5.01538057 4.01771584 -2.70749594 2.02943654 0 0 Z " fill="#2B2B2B" transform="translate(234,182)"/>
<path d="M0 0 C9.56470344 -0.29032827 18.57182803 0.53948097 28 2 C28 2.33 28 2.66 28 3 C24.83341337 3.05880804 21.66697007 3.09386406 18.5 3.125 C17.613125 3.14175781 16.72625 3.15851563 15.8125 3.17578125 C10.17676212 3.2172205 5.40699768 2.60441286 0 1 C0 0.67 0 0.34 0 0 Z " fill="#333333" transform="translate(136,397)"/>
<path d="M0 0 C0.66 0 1.32 0 2 0 C0.61686753 4.03413637 -1.34288302 6.69873345 -4 10 C-4.45375 11.03125 -4.9075 12.0625 -5.375 13.125 C-7.37649752 16.66611099 -9.28633114 17.51453246 -13 19 C-10.96309497 14.71588303 -8.292513 11.06715602 -5.5 7.25 C-4.75169922 6.20392578 -4.75169922 6.20392578 -3.98828125 5.13671875 C-3.50746094 4.47800781 -3.02664063 3.81929687 -2.53125 3.140625 C-2.09361328 2.53766602 -1.65597656 1.93470703 -1.20507812 1.31347656 C-0.80740234 0.8800293 -0.40972656 0.44658203 0 0 Z " fill="#3C3C3C" transform="translate(386,197)"/>
<path d="M0 0 C1.65322266 0.01740234 1.65322266 0.01740234 3.33984375 0.03515625 C4.99693359 0.04869141 4.99693359 0.04869141 6.6875 0.0625 C7.54214844 0.07410156 8.39679688 0.08570313 9.27734375 0.09765625 C9.27734375 0.42765625 9.27734375 0.75765625 9.27734375 1.09765625 C8.5296875 1.18402344 7.78203125 1.27039063 7.01171875 1.359375 C0.82915941 2.09481235 0.82915941 2.09481235 -4.16015625 5.47265625 C-4.67578125 6.33890625 -5.19140625 7.20515625 -5.72265625 8.09765625 C-7.03760137 9.44912763 -8.36530483 10.78878167 -9.72265625 12.09765625 C-5.52281011 0.19809218 -5.52281011 0.19809218 0 0 Z " fill="#CDCDCD" transform="translate(246.72265625,412.90234375)"/>
<path d="M0 0 C0.33 0.99 0.66 1.98 1 3 C0.34 3 -0.32 3 -1 3 C-1.33 3.99 -1.66 4.98 -2 6 C-3.8125 7.75 -3.8125 7.75 -6 9 C-7.32 8.67 -8.64 8.34 -10 8 C-6.7 5.36 -3.4 2.72 0 0 Z " fill="#3A3A3A" transform="translate(114,146)"/>
<path d="M0 0 C2.12691797 0.44934887 4.25150039 0.90976473 6.375 1.375 C7.55835938 1.63023437 8.74171875 1.88546875 9.9609375 2.1484375 C13 3 13 3 15 5 C13.20767663 4.69128878 11.41615679 4.37790936 9.625 4.0625 C8.62726563 3.88847656 7.62953125 3.71445312 6.6015625 3.53515625 C4 3 4 3 2 2 C1.67 4.64 1.34 7.28 1 10 C0.67 10 0.34 10 0 10 C0 6.7 0 3.4 0 0 Z " fill="#F1F1F1" transform="translate(342,343)"/>
<path d="M0 0 C1.31534494 3.65857532 0.65468309 6.08026481 -0.4375 9.75 C-0.86869141 11.22726563 -0.86869141 11.22726563 -1.30859375 12.734375 C-1.53675781 13.48203125 -1.76492188 14.2296875 -2 15 C-2.33 15 -2.66 15 -3 15 C-3.08142927 13.2507786 -3.13938541 11.50045458 -3.1875 9.75 C-3.22230469 8.77546875 -3.25710938 7.8009375 -3.29296875 6.796875 C-2.96075202 3.62531258 -2.11327721 2.32959693 0 0 Z " fill="#CACACA" transform="translate(349,177)"/>
<path d="M0 0 C0.33 0.66 0.66 1.32 1 2 C-0.07507629 3.29854721 -1.16043736 4.58858361 -2.25 5.875 C-2.85328125 6.59429687 -3.4565625 7.31359375 -4.078125 8.0546875 C-5.97087634 9.97052118 -7.53657727 10.96449045 -10 12 C-8.52278578 8.54798361 -6.56205999 6.35038064 -3.875 3.75 C-3.15054688 3.04359375 -2.42609375 2.3371875 -1.6796875 1.609375 C-1.12539062 1.07828125 -0.57109375 0.5471875 0 0 Z " fill="#6D6D6D" transform="translate(135,66)"/>
<path d="M0 0 C0.66 0.33 1.32 0.66 2 1 C1.34 2.32 0.68 3.64 0 5 C-0.66 4.67 -1.32 4.34 -2 4 C-2.33 4.66 -2.66 5.32 -3 6 C-5.32156597 6.40729228 -7.6568787 6.74438677 -10 7 C-8.67408323 4.34816647 -7.13437549 3.74863527 -4.5625 2.3125 C-3.75941406 1.85488281 -2.95632812 1.39726563 -2.12890625 0.92578125 C-1.42636719 0.62027344 -0.72382813 0.31476562 0 0 Z " fill="#5F5F5F" transform="translate(180,31)"/>
<path d="M0 0 C0.66 0.66 1.32 1.32 2 2 C2.99 1.67 3.98 1.34 5 1 C5.33 1.99 5.66 2.98 6 4 C2.25 7 2.25 7 0 7 C0 4.69 0 2.38 0 0 Z " fill="#D2D2D2" transform="translate(341,239)"/>
<path d="M0 0 C0.66 0.33 1.32 0.66 2 1 C2 1.99 2 2.98 2 4 C0.46875 5.38671875 0.46875 5.38671875 -1.5 6.6875 C-2.47453125 7.34298828 -2.47453125 7.34298828 -3.46875 8.01171875 C-3.9740625 8.33785156 -4.479375 8.66398437 -5 9 C-5 4.61031544 -2.87194899 3.23094261 0 0 Z " fill="#8A8A8A" transform="translate(123,78)"/>
<path d="M0 0 C0.66 0.33 1.32 0.66 2 1 C0.86500606 4.29148243 0.00716624 4.9959869 -3.125 6.75 C-4.548125 7.36875 -4.548125 7.36875 -6 8 C-4.55746343 4.63408134 -2.66735273 2.48952921 0 0 Z " fill="#323232" transform="translate(379,208)"/>
<path d="M0 0 C1.32 0.33 2.64 0.66 4 1 C4 4.10551666 3.4606285 5.35261084 2 8 C1.34 5.36 0.68 2.72 0 0 Z " fill="#EFEFEF" transform="translate(153,126)"/>
<path d="M0 0 C0.33 0.66 0.66 1.32 1 2 C1.66 2.33 2.32 2.66 3 3 C0.69 4.32 -1.62 5.64 -4 7 C-2.79618552 4.50638429 -1.54571278 2.31856917 0 0 Z " fill="#818181" transform="translate(108,97)"/>
<path d="" fill="#FFFFFF" transform="translate(0,0)"/>
<path d="" fill="#FFFFFF" transform="translate(0,0)"/>
<path d="" fill="#FFFFFF" transform="translate(0,0)"/>
<path d="" fill="#FFFFFF" transform="translate(0,0)"/>
<path d="" fill="#FFFFFF" transform="translate(0,0)"/>
<path d="" fill="#FFFFFF" transform="translate(0,0)"/>
<path d="" fill="#FFFFFF" transform="translate(0,0)"/>
<path d="" fill="#FFFFFF" transform="translate(0,0)"/>
<path d="" fill="#FFFFFF" transform="translate(0,0)"/>
<path d="" fill="#FFFFFF" transform="translate(0,0)"/>
<path d="" fill="#FFFFFF" transform="translate(0,0)"/>
<path d="" fill="#FFFFFF" transform="translate(0,0)"/>
<path d="" fill="#FFFFFF" transform="translate(0,0)"/>
<path d="" fill="#FFFFFF" transform="translate(0,0)"/>
<path d="" fill="#FFFFFF" transform="translate(0,0)"/>
<path d="" fill="#FFFFFF" transform="translate(0,0)"/>
<path d="" fill="#FFFFFF" transform="translate(0,0)"/>
<path d="" fill="#FFFFFF" transform="translate(0,0)"/>
<path d="" fill="#FFFFFF" transform="translate(0,0)"/>
<path d="" fill="#FFFFFF" transform="translate(0,0)"/>
<path d="" fill="#FFFFFF" transform="translate(0,0)"/>
<path d="" fill="#FFFFFF" transform="translate(0,0)"/>
<path d="" fill="#FFFFFF" transform="translate(0,0)"/>
<path d="" fill="#FFFFFF" transform="translate(0,0)"/>
<path d="" fill="#FFFFFF" transform="translate(0,0)"/>
<path d="" fill="#FFFFFF" transform="translate(0,0)"/>
<path d="" fill="#FFFFFF" transform="translate(0,0)"/>
<path d="" fill="#FFFFFF" transform="translate(0,0)"/>
<path d="" fill="#FFFFFF" transform="translate(0,0)"/>
<path d="" fill="#FFFFFF" transform="translate(0,0)"/>
<path d="" fill="#FFFFFF" transform="translate(0,0)"/>
<path d="" fill="#FFFFFF" transform="translate(0,0)"/>
<path d="" fill="#FFFFFF" transform="translate(0,0)"/>
<path d="" fill="#FFFFFF" transform="translate(0,0)"/>
<path d="" fill="#FFFFFF" transform="translate(0,0)"/>
<path d="" fill="#FFFFFF" transform="translate(0,0)"/>
<path d="" fill="#FFFFFF" transform="translate(0,0)"/>
<path d="" fill="#FFFFFF" transform="translate(0,0)"/>
<path d="" fill="#FFFFFF" transform="translate(0,0)"/>
<path d="" fill="#FFFFFF" transform="translate(0,0)"/>
<path d="" fill="#FFFFFF" transform="translate(0,0)"/>
<path d="" fill="#FFFFFF" transform="translate(0,0)"/>
<path d="" fill="#FFFFFF" transform="translate(0,0)"/>
<path d="" fill="#FFFFFF" transform="translate(0,0)"/>
<path d="" fill="#FFFFFF" transform="translate(0,0)"/>
<path d="" fill="#FFFFFF" transform="translate(0,0)"/>
</svg>
