<?xml version="1.0" encoding="UTF-8"?>
<svg version="1.1" xmlns="http://www.w3.org/2000/svg" width="499" height="499">
<path d="M0 0 C0.99 0.495 0.99 0.495 2 1 C2.43896484 2.93920898 2.43896484 2.93920898 2.7109375 5.49609375 C2.87311768 6.90955078 2.87311768 6.90955078 3.03857422 8.3515625 C3.20510498 9.87910156 3.20510498 9.87910156 3.375 11.4375 C7.15133072 42.81457993 17.4639871 72.1832382 36 98 C36.68964844 98.98742187 37.37929688 99.97484375 38.08984375 100.9921875 C56.2172648 125.84379722 80.78191342 143.99090027 108.29199219 157.18066406 C109.66039854 157.83709227 111.02266912 158.50630504 112.3828125 159.1796875 C131.76947982 168.37885121 152.76662974 172.47625173 174 174 C174.33 174.99 174.66 175.98 175 177 C174.43829102 177.03440186 173.87658203 177.06880371 173.29785156 177.10424805 C133.9481058 179.67834399 95.88355197 194.10127469 66.45996094 220.68701172 C64.54458399 222.40956978 62.58373462 224.07707296 60.625 225.75 C48.59430321 236.37583835 39.07112414 248.83949825 30 262 C29.34773437 262.9384375 28.69546875 263.876875 28.0234375 264.84375 C24.02815083 270.82787982 21.10850908 276.96843932 18.3984375 283.62890625 C17.21313664 286.48620972 15.90119749 289.18419156 14.5 291.9375 C7.40329476 307.32517802 4.24262197 325.83239579 2.875 342.625 C2.78863281 343.62917969 2.70226562 344.63335937 2.61328125 345.66796875 C2.40382717 348.11159966 2.19948243 350.55553841 2 353 C1.01 353 0.02 353 -1 353 C-1.03440186 352.41847168 -1.06880371 351.83694336 -1.10424805 351.23779297 C-2.03931194 336.41884239 -4.06222237 322.32464404 -8 308 C-8.35723145 306.69748291 -8.35723145 306.69748291 -8.72167969 305.36865234 C-14.21305014 286.00377332 -23.08536887 267.51021876 -36 252 C-36.98747055 250.74331166 -37.97161996 249.48400931 -38.953125 248.22265625 C-50.11778142 233.99285643 -62.4099116 221.69716084 -77 211 C-77.80969238 210.39913574 -77.80969238 210.39913574 -78.63574219 209.78613281 C-98.44196924 195.18129791 -121.04714092 186.2532975 -145 181 C-146.85625 180.49146484 -146.85625 180.49146484 -148.75 179.97265625 C-153.77207343 178.70441304 -158.84999372 178.30831087 -164 177.875 C-165.44826172 177.74544922 -165.44826172 177.74544922 -166.92578125 177.61328125 C-169.28341676 177.40319492 -171.64139857 177.19889508 -174 177 C-173.67 176.01 -173.34 175.02 -173 174 C-171.83726562 173.90203125 -170.67453125 173.8040625 -169.4765625 173.703125 C-137.46818631 170.80216562 -104.81338983 160.68887537 -79 141 C-77.44539063 139.84177734 -77.44539063 139.84177734 -75.859375 138.66015625 C-68.91543569 133.4463567 -62.31302021 127.97261226 -56 122 C-55.19046875 121.24332031 -54.3809375 120.48664063 -53.546875 119.70703125 C-22.45095509 89.73564933 -5.12173186 48.24111663 -1.39453125 5.68359375 C-1 2 -1 2 0 0 Z " fill="#020202" transform="translate(249,74)"/>
<path d="M0 0 C1.35490296 0.11674901 2.70890696 0.24393423 4.0625 0.375 C5.19365234 0.47941406 5.19365234 0.47941406 6.34765625 0.5859375 C9 1 9 1 12.125 1.96875 C16.96712295 3.40991266 21.92250991 3.7067985 26.9375 4.125 C27.90751953 4.21136719 28.87753906 4.29773438 29.87695312 4.38671875 C32.25084011 4.59721119 34.62508706 4.80147885 37 5 C37.495 6.485 37.495 6.485 38 8 C37.39639648 8.04487549 36.79279297 8.08975098 36.17089844 8.13598633 C21.01240224 9.18291354 21.01240224 9.18291354 6.2421875 12.51171875 C3.78030327 13.04784336 2.35943645 12.81003694 0 12 C2.71191239 10.1920584 4.78885274 9.27348487 7.9375 8.5625 C10.14019326 7.96176547 11.99192674 7.07575353 14 6 C14 5.34 14 4.68 14 4 C12.35 4.33 10.7 4.66 9 5 C8.67 4.34 8.34 3.68 8 3 C6.11235097 2.31527335 6.11235097 2.31527335 3.9375 1.875 C3.20402344 1.70742187 2.47054688 1.53984375 1.71484375 1.3671875 C1.14894531 1.24601563 0.58304687 1.12484375 0 1 C0 0.67 0 0.34 0 0 Z " fill="#555555" transform="translate(386,243)"/>
<path d="M0 0 C-2.85478326 1.90318884 -4.41941308 2.4619099 -7.6875 3.125 C-8.49574219 3.29257813 -9.30398437 3.46015625 -10.13671875 3.6328125 C-10.75160156 3.75398437 -11.36648437 3.87515625 -12 4 C-12 4.99 -12 5.98 -12 7 C-11.01 7.33 -10.02 7.66 -9 8 C-8.67 8.99 -8.34 9.98 -8 11 C-11.33352425 10.68951584 -14.66678081 10.37624092 -18 10.0625 C-18.93457031 9.97548828 -19.86914062 9.88847656 -20.83203125 9.79882812 C-26.23573347 9.28868841 -31.61811907 8.7044679 -37 8 C-36.67 7.01 -36.34 6.02 -36 5 C-34.76765625 4.89042969 -33.5353125 4.78085938 -32.265625 4.66796875 C-23.7959622 3.87120703 -15.64025596 2.99902581 -7.4453125 0.5859375 C-4.8794886 -0.02887653 -2.62842962 -0.10362984 0 0 Z " fill="#545454" transform="translate(112,243)"/>
<path d="M0 0 C0.99 0.33 1.98 0.66 3 1 C3.625 2.9375 3.625 2.9375 4 5 C4.33 5.66 4.66 6.32 5 7 C5.66 7 6.32 7 7 7 C7.33 6.34 7.66 5.68 8 5 C7.85785272 8.00021487 7.71138304 11.00011789 7.5625 14 C7.50352539 15.25876953 7.50352539 15.25876953 7.44335938 16.54296875 C7.18148668 21.74013458 6.7100648 26.84457153 6 32 C5.01 32 4.02 32 3 32 C2.91697632 31.0255896 2.91697632 31.0255896 2.83227539 30.03149414 C2.57686018 27.04172759 2.31969074 24.05211432 2.0625 21.0625 C1.97548828 20.04091797 1.88847656 19.01933594 1.79882812 17.96679688 C1.28122303 11.96641186 0.69247917 5.98277047 0 0 Z " fill="#5D5D5D" transform="translate(245,395)"/>
<path d="M0 0 C0.66 0.33 1.32 0.66 2 1 C2.47070312 3.08203125 2.47070312 3.08203125 2.78125 5.8125 C2.90113281 6.80636719 3.02101562 7.80023438 3.14453125 8.82421875 C3.26183594 9.87222656 3.37914062 10.92023438 3.5 12 C4.24671889 18.47429897 5.03991323 24.8196767 6.60302734 31.15405273 C7.09934625 33.46196619 7.1516968 35.64869955 7 38 C5.35173889 35.03312999 4.55728913 32.34373475 4 29 C3.34 29 2.68 29 2 29 C1.15318867 23.91913204 0.90961901 19.15171623 1 14 C0.34 15.98 -0.32 17.96 -1 20 C-1.33 20 -1.66 20 -2 20 C-2.23668569 12.96517526 -1.7879537 6.8165735 0 0 Z " fill="#C4C4C4" transform="translate(249,74)"/>
<path d="M0 0 C0.66 0.33 1.32 0.66 2 1 C1.34 1.66 0.68 2.32 0 3 C-0.12375 3.66 -0.2475 4.32 -0.375 5 C-1 7 -1 7 -2.875 8.25 C-5 9 -5 9 -8 9 C-8 9.99 -8 10.98 -8 12 C-8.721875 12.061875 -9.44375 12.12375 -10.1875 12.1875 C-13.84362105 13.24371275 -15.37471773 15.3074028 -18 18 C-20.1875 18.875 -20.1875 18.875 -22 19 C-22.66 18.67 -23.32 18.34 -24 18 C-23.14341797 17.41605469 -23.14341797 17.41605469 -22.26953125 16.8203125 C-10.62667423 9.05473852 -10.62667423 9.05473852 0 0 Z " fill="#6F6F6F" transform="translate(184,204)"/>
<path d="M0 0 C3.80705054 3.17254212 7.42267554 6.38118986 10.875 9.9375 C14.93120363 14.06528369 19.35562898 17.55972517 24 21 C20.61682513 21.97591583 18.4342662 21.85856655 15 21 C14.855625 20.38125 14.71125 19.7625 14.5625 19.125 C14.06847775 16.96741678 14.06847775 16.96741678 13 15 C12.01 14.67 11.02 14.34 10 14 C9.5875 13.29875 9.175 12.5975 8.75 11.875 C6.71632066 8.53395537 4.26973374 6.20631453 1.42578125 3.55078125 C0 2 0 2 0 0 Z " fill="#797979" transform="translate(298,189)"/>
<path d="M0 0 C3.81695526 3.52613962 6.72774752 7.55374918 9.75 11.75 C10.25660156 12.44738281 10.76320313 13.14476562 11.28515625 13.86328125 C12.52661661 15.57321722 13.76374599 17.28629616 15 19 C14.34 19.66 13.68 20.32 13 21 C9.125 18.375 9.125 18.375 8 15 C7.34 14.67 6.68 14.34 6 14 C2.92955592 9.7280778 1.52754736 4.97265418 0 0 Z " fill="#414141" transform="translate(279,165)"/>
<path d="M0 0 C-2 1 -4 2 -6 3 C-4.35 3.33 -2.7 3.66 -1 4 C-1 4.33 -1 4.66 -1 5 C-7.1105424 5.11269443 -12.95170514 4.89604368 -19 4 C-18.67 3.01 -18.34 2.02 -18 1 C-11.97403427 -0.0712828 -6.11090483 -0.09945415 0 0 Z " fill="#8C8C8C" transform="translate(94,247)"/>
<path d="M0 0 C3.44439012 0.65078339 5.91607065 2.02221246 8.875 3.875 C12.51757573 6.11658506 16.13659922 8.16996805 20 10 C17.47454232 11.26272884 15.80127043 11.20497101 13 11 C12.01 10.34 11.02 9.68 10 9 C10 8.34 10 7.68 10 7 C9.34 7 8.68 7 8 7 C8 6.34 8 5.68 8 5 C6.68 5.33 5.36 5.66 4 6 C3.67 5.34 3.34 4.68 3 4 C0.98330173 2.86649466 0.98330173 2.86649466 -1 2 C-0.67 1.34 -0.34 0.68 0 0 Z " fill="#777777" transform="translate(334,220)"/>
<path d="M0 0 C0.33 0 0.66 0 1 0 C2.9333722 15.77325435 2.9333722 15.77325435 -0.4375 21 C-1.283125 21.99 -2.12875 22.98 -3 24 C-4.23286828 20.47399672 -3.73230301 18.33250451 -2.625 14.8125 C-1.15922079 9.83286651 -0.42357812 5.16765308 0 0 Z " fill="#444444" transform="translate(249,80)"/>
<path d="M0 0 C0.33 0.66 0.66 1.32 1 2 C1.92039063 2.42925781 1.92039063 2.42925781 2.859375 2.8671875 C5.44980304 4.23803445 6.56287115 5.74768208 8.25 8.125 C8.77078125 8.84945313 9.2915625 9.57390625 9.828125 10.3203125 C10.40820312 11.15175781 10.40820312 11.15175781 11 12 C10.34 12.66 9.68 13.32 9 14 C5.04 10.04 1.08 6.08 -3 2 C-2.01 1.34 -1.02 0.68 0 0 Z " fill="#505050" transform="translate(193,298)"/>
<path d="M0 0 C0.33 0 0.66 0 1 0 C2.76465957 8.4588573 2.76465957 8.4588573 0.0625 12.6875 C-2.14723535 16.2364689 -2.3981243 17.91922591 -2 22 C-2.66 22.33 -3.32 22.66 -4 23 C-5.13350534 25.01669827 -5.13350534 25.01669827 -6 27 C-7 25 -7 25 -6.07421875 21.875 C-5.61746078 20.58138477 -5.15487537 19.28981722 -4.6875 18 C-2.6104802 12.06045215 -0.98229939 6.23100358 0 0 Z " fill="#8D8D8D" transform="translate(244,104)"/>
<path d="M0 0 C1.04449911 3.13349732 0.93423645 3.98968256 0 7 C-0.66 7 -1.32 7 -2 7 C-2 7.66 -2 8.32 -2 9 C-2.66 9 -3.32 9 -4 9 C-4.226875 9.61875 -4.45375 10.2375 -4.6875 10.875 C-6.37929835 13.61410209 -7.99244161 14.05024472 -11 15 C-9.3718356 11.24269753 -6.98598083 8.383177 -4.375 5.25 C-3.55773437 4.26515625 -2.74046875 3.2803125 -1.8984375 2.265625 C-1.27195313 1.51796875 -0.64546875 0.7703125 0 0 Z " fill="#656565" transform="translate(215,171)"/>
<path d="M0 0 C1.32 0.33 2.64 0.66 4 1 C0.04 5.29 -3.92 9.58 -8 14 C-8.66 13.01 -9.32 12.02 -10 11 C-8.6875 9.5 -8.6875 9.5 -7 8 C-6.01 8 -5.02 8 -4 8 C-3.896875 7.236875 -3.79375 6.47375 -3.6875 5.6875 C-2.94960299 2.80299352 -2.46756016 1.64504011 0 0 Z " fill="#575757" transform="translate(300,304)"/>
<path d="M0 0 C6.11090483 -0.09945415 11.97403427 -0.0712828 18 1 C18.33 1.99 18.66 2.98 19 4 C11.08 4.495 11.08 4.495 3 5 C3 4.67 3 4.34 3 4 C6.465 3.505 6.465 3.505 10 3 C6.7 2.34 3.4 1.68 0 1 C0 0.67 0 0.34 0 0 Z " fill="#D0D0D0" transform="translate(405,247)"/>
<path d="M0 0 C0.33 0 0.66 0 1 0 C1.66 4.95 2.32 9.9 3 15 C3.33 15 3.66 15 4 15 C4 17.64 4 20.28 4 23 C3.01 23 2.02 23 1 23 C0.02840067 15.31395526 -0.10920422 7.74136601 0 0 Z " fill="#D1D1D1" transform="translate(247,404)"/>
<path d="M0 0 C-2.91209343 1.94139562 -5.8340201 3.57246287 -8.9375 5.1875 C-10.49791016 6.01314453 -10.49791016 6.01314453 -12.08984375 6.85546875 C-15.06686448 8.02629704 -16.10832227 8.20544638 -19 7 C-18.01 6.34 -17.02 5.68 -16 5 C-15.34 5.33 -14.68 5.66 -14 6 C-14 5.01 -14 4.02 -14 3 C-10.25 1.875 -10.25 1.875 -8 3 C-7.67 2.01 -7.34 1.02 -7 0 C-4.3333581 -1.33332095 -2.83319697 -0.67102033 0 0 Z " fill="#484848" transform="translate(365,263)"/>
<path d="M0 0 C0.33 0.99 0.66 1.98 1 3 C0.67 3.66 0.34 4.32 0 5 C-0.66 5 -1.32 5 -2 5 C-2 5.66 -2 6.32 -2 7 C-2.99 7.556875 -2.99 7.556875 -4 8.125 C-8.2806915 10.80043219 -11.52363498 14.36836309 -15 18 C-15.66 17.67 -16.32 17.34 -17 17 C-11.39 11.39 -5.78 5.78 0 0 Z " fill="#A2A2A2" transform="translate(203,186)"/>
<path d="M0 0 C0.66 0.33 1.32 0.66 2 1 C2.8515625 3.984375 2.8515625 3.984375 3.625 7.75 C3.88539063 8.98234375 4.14578125 10.2146875 4.4140625 11.484375 C4.90408651 14.42451906 5.12452174 17.03411863 5 20 C3.35173889 17.03312999 2.55728913 14.34373475 2 11 C1.34 11 0.68 11 0 11 C-1.28571429 3.57142857 -1.28571429 3.57142857 0 0 Z " fill="#7B7B7B" transform="translate(251,92)"/>
<path d="M0 0 C3.24271506 0.5590888 4.93057424 1.4132178 7 4 C7 4.66 7 5.32 7 6 C7.66 6 8.32 6 9 6 C9.33 8.31 9.66 10.62 10 13 C6.40523299 9.50794062 3.07973809 5.95966325 0 2 C0 1.34 0 0.68 0 0 Z " fill="#646464" transform="translate(204,313)"/>
<path d="M0 0 C4.57399709 0.78488708 8.90157509 2.15526122 13.3125 3.5625 C14.05306641 3.79646484 14.79363281 4.03042969 15.55664062 4.27148438 C17.37183405 4.84531972 19.18602006 5.42234011 21 6 C15.14131896 7.73542222 9.44105846 6.55049615 4 4 C4 3.34 4 2.68 4 2 C2.68 1.34 1.36 0.68 0 0 Z " fill="#919191" transform="translate(365,236)"/>
<path d="M0 0 C2.475 0.99 2.475 0.99 5 2 C1.56638098 5.63559661 -1.7973607 8.36113346 -6 11 C-6 9.68 -6 8.36 -6 7 C-5.01 6.34 -4.02 5.68 -3 5 C-1.94895617 3.36504293 -0.94011682 1.70116376 0 0 Z " fill="#5C5C5C" transform="translate(321,283)"/>
<path d="M0 0 C2.3125 0.5625 2.3125 0.5625 5 2 C6.34776978 4.27962623 7.11364216 6.48087772 8 9 C4.05860922 7.33248852 1.2107188 4.77289351 -2 2 C-1.34 1.34 -0.68 0.68 0 0 Z " fill="#5B5B5B" transform="translate(178,286)"/>
<path d="M0 0 C1.95825873 -0.02694851 3.91662226 -0.04637218 5.875 -0.0625 C6.96554688 -0.07410156 8.05609375 -0.08570313 9.1796875 -0.09765625 C12 0 12 0 14 1 C15.66194453 1.35613097 17.328451 1.69208308 19 2 C18.67 2.99 18.34 3.98 18 5 C9.09 3.02 9.09 3.02 0 1 C0 0.67 0 0.34 0 0 Z " fill="#6A6A6A" transform="translate(104,254)"/>
<path d="M0 0 C1.55693206 2.33539809 2.90200646 4.57968756 4.1875 7.0625 C4.55230469 7.75472656 4.91710937 8.44695312 5.29296875 9.16015625 C5.52628906 9.76730469 5.75960938 10.37445313 6 11 C5.67 11.66 5.34 12.32 5 13 C4.01 12.67 3.02 12.34 2 12 C2 10.68 2 9.36 2 8 C1.34 8 0.68 8 0 8 C-0.98120464 4.94736336 -0.98120464 3.05263664 0 0 Z " fill="#515151" transform="translate(266,140)"/>
<path d="M0 0 C0 0.33 0 0.66 0 1 C-0.69867188 1.04898438 -1.39734375 1.09796875 -2.1171875 1.1484375 C-3.02726562 1.22320312 -3.93734375 1.29796875 -4.875 1.375 C-5.77992187 1.44460937 -6.68484375 1.51421875 -7.6171875 1.5859375 C-10.17941903 1.79568132 -10.17941903 1.79568132 -12 4 C-15.625 4.125 -15.625 4.125 -19 4 C-18.67 3.01 -18.34 2.02 -18 1 C-11.97403427 -0.0712828 -6.11090483 -0.09945415 0 0 Z " fill="#DEDEDE" transform="translate(94,247)"/>
<path d="M0 0 C-0.33 0.99 -0.66 1.98 -1 3 C-7.435 3.495 -7.435 3.495 -14 4 C-3.6 -1.2 -3.6 -1.2 0 0 Z " fill="#818181" transform="translate(136,236)"/>
<path d="M0 0 C1.32 0.66 2.64 1.32 4 2 C1.36 3.98 -1.28 5.96 -4 8 C-4.33 6.68 -4.66 5.36 -5 4 C-3.35 2.68 -1.7 1.36 0 0 Z " fill="#505050" transform="translate(311,293)"/>
<path d="M0 0 C1.0625 1.8125 1.0625 1.8125 2 4 C1.67 4.99 1.34 5.98 1 7 C0.34 7 -0.32 7 -1 7 C-1.2165625 8.175625 -1.2165625 8.175625 -1.4375 9.375 C-2 12 -2 12 -3 14 C-3.66 14 -4.32 14 -5 14 C-3.46527032 9.27775484 -1.76054874 4.64144669 0 0 Z " fill="#646464" transform="translate(236,131)"/>
<path d="M0 0 C2.9297008 2.82506863 5.50174717 5.78796065 8 9 C7.67 9.66 7.34 10.32 7 11 C4.625 10 4.625 10 2 8 C0.95231959 5.33078407 0.51315454 2.84567517 0 0 Z " fill="#6A6A6A" transform="translate(279,165)"/>
<path d="M0 0 C2.96175123 0.61277612 4.38058783 1.25372522 7 3 C6.67 3.99 6.34 4.98 6 6 C5.34 6 4.68 6 4 6 C3.67 5.34 3.34 4.68 3 4 C0.98330173 2.86649466 0.98330173 2.86649466 -1 2 C-0.67 1.34 -0.34 0.68 0 0 Z " fill="#5F5F5F" transform="translate(334,220)"/>
<path d="M0 0 C2.19963566 2.19963566 2.57049648 2.99347539 3 6 C2.5625 8.75 2.5625 8.75 2 11 C-0.30694043 7.53958935 -0.62056512 5.09789669 -1 1 C-0.67 0.67 -0.34 0.34 0 0 Z " fill="#515151" transform="translate(240,371)"/>
<path d="M0 0 C1.32 0.33 2.64 0.66 4 1 C4.625 3.875 4.625 3.875 5 7 C4.34 7.66 3.68 8.32 3 9 C2.01 6.03 1.02 3.06 0 0 Z " fill="#3A3A3A" transform="translate(234,360)"/>
<path d="M0 0 C0.99 0 1.98 0 3 0 C1.55746343 3.36591866 -0.33264727 5.51047079 -3 8 C-2.25 2.25 -2.25 2.25 0 0 Z " fill="#6A6A6A" transform="translate(288,318)"/>
<path d="M0 0 C0 0.99 0 1.98 0 3 C-2.5 5.1875 -2.5 5.1875 -5 7 C-5.33 6.01 -5.66 5.02 -6 4 C-3.94766315 1.7522025 -2.99332739 0.9977758 0 0 Z " fill="#6B6B6B" transform="translate(296,311)"/>
<path d="M0 0 C2.97 0.33 5.94 0.66 9 1 C5.96474514 3.02350324 4.80573798 3.32124018 1.3125 3.625 C0.50425781 3.69976562 -0.30398438 3.77453125 -1.13671875 3.8515625 C-1.75160156 3.90054688 -2.36648438 3.94953125 -3 4 C-2.505 3.525625 -2.01 3.05125 -1.5 2.5625 C0.11542197 1.24076302 0.11542197 1.24076302 0 0 Z " fill="#717171" transform="translate(389,252)"/>
<path d="M0 0 C0.80824219 0.10183594 1.61648438 0.20367187 2.44921875 0.30859375 C3.06410156 0.39238281 3.67898438 0.47617188 4.3125 0.5625 C4.3125 0.8925 4.3125 1.2225 4.3125 1.5625 C0.6825 1.8925 -2.9475 2.2225 -6.6875 2.5625 C-7.0175 1.9025 -7.3475 1.2425 -7.6875 0.5625 C-4.59271121 -0.46909626 -3.16118607 -0.41232862 0 0 Z " fill="#343434" transform="translate(403.6875,250.4375)"/>
<path d="M0 0 C0.33 0 0.66 0 1 0 C1.2226746 1.43534841 1.42761906 2.87345525 1.625 4.3125 C1.74101562 5.11300781 1.85703125 5.91351563 1.9765625 6.73828125 C2 9 2 9 0 12 C-1 11 -1 11 -1.125 7.6875 C-1.02893262 4.85351237 -0.85249568 2.66404901 0 0 Z " fill="#707070" transform="translate(244,104)"/>
<path d="M0 0 C0.99 0.33 1.98 0.66 3 1 C0.525 4.465 0.525 4.465 -2 8 C-2.33 6.68 -2.66 5.36 -3 4 C-1.5625 1.75 -1.5625 1.75 0 0 Z " fill="#4F4F4F" transform="translate(282,326)"/>
<path d="M0 0 C0.66 0.33 1.32 0.66 2 1 C0.7508258 4.45925163 -0.67527795 7.14693203 -3 10 C-3.33 8.68 -3.66 7.36 -4 6 C-2.68 5.34 -1.36 4.68 0 4 C0 2.68 0 1.36 0 0 Z " fill="#505050" transform="translate(277,333)"/>
<path d="M0 0 C3.3 0.33 6.6 0.66 10 1 C6.5647952 3.29013653 5.014669 3.17842973 1 3 C0.67 2.01 0.34 1.02 0 0 Z " fill="#2C2C2C" transform="translate(408,248)"/>
<path d="M0 0 C0.33 0 0.66 0 1 0 C1.22226864 1.76913824 1.42733873 3.54044371 1.625 5.3125 C1.74101562 6.29863281 1.85703125 7.28476563 1.9765625 8.30078125 C2 11 2 11 0 14 C-1.39151652 9.20699867 -0.68662689 4.84864218 0 0 Z " fill="#141414" transform="translate(249,80)"/>
<path d="M0 0 C3 1 3 1 4.6875 4.0625 C5.120625 5.031875 5.55375 6.00125 6 7 C2.63408134 5.55746343 0.48952921 3.66735273 -2 1 C-1.34 0.67 -0.68 0.34 0 0 Z " fill="#595959" transform="translate(170,280)"/>
<path d="M0 0 C3.875 4.75 3.875 4.75 5 7 C1.34683329 5.75023244 0.21934164 5.32901247 -2 2 C-1.34 1.34 -0.68 0.68 0 0 Z " fill="#4E4E4E" transform="translate(163,274)"/>
<path d="M0 0 C0 2 0 2 -1.1875 3.6875 C-3 5 -3 5 -5.6875 4.6875 C-6.450625 4.460625 -7.21375 4.23375 -8 4 C-2.7826087 0 -2.7826087 0 0 0 Z " fill="#636363" transform="translate(153,227)"/>
<path d="M0 0 C-1 3 -1 3 -3 4 C-3.99 5.485 -3.99 5.485 -5 7 C-5.66 5.68 -6.32 4.36 -7 3 C-2.25 0 -2.25 0 0 0 Z " fill="#6C6C6C" transform="translate(160,223)"/>
<path d="M0 0 C6.875 3.75 6.875 3.75 8 6 C5.36 5.34 2.72 4.68 0 4 C0 2.68 0 1.36 0 0 Z " fill="#7F7F7F" transform="translate(322,211)"/>
<path d="M0 0 C0.99 0.33 1.98 0.66 3 1 C3 1.66 3 2.32 3 3 C2.01 3.495 2.01 3.495 1 4 C0.67 4.99 0.34 5.98 0 7 C-0.99 7.33 -1.98 7.66 -3 8 C-1.125 2.25 -1.125 2.25 0 0 Z " fill="#616161" transform="translate(230,145)"/>
<path d="M0 0 C0.99 0.33 1.98 0.66 3 1 C2.34 2.98 1.68 4.96 1 7 C0.34 6.34 -0.32 5.68 -1 5 C-0.625 2.375 -0.625 2.375 0 0 Z " fill="#404040" transform="translate(260,365)"/>
<path d="M0 0 C-2.91765 1.9451 -4.62537285 2.45276317 -8 3 C-7.67 2.01 -7.34 1.02 -7 0 C-4.3333581 -1.33332095 -2.83319697 -0.67102033 0 0 Z " fill="#424242" transform="translate(365,263)"/>
<path d="M0 0 C0 1.32 0 2.64 0 4 C-2.31 4.33 -4.62 4.66 -7 5 C-2.25 0 -2.25 0 0 0 Z " fill="#787878" transform="translate(176,212)"/>
<path d="M0 0 C0.33 0.99 0.66 1.98 1 3 C0.67 3.66 0.34 4.32 0 5 C-0.66 5 -1.32 5 -2 5 C-2 5.66 -2 6.32 -2 7 C-2.66 7 -3.32 7 -4 7 C-3.43628586 3.73045798 -2.50037734 2.17424117 0 0 Z " fill="#595959" transform="translate(203,186)"/>
<path d="M0 0 C1.875 0.25 1.875 0.25 4 1 C5.25 3.0625 5.25 3.0625 6 5 C3 5 3 5 0 3 C0 2.01 0 1.02 0 0 Z " fill="#282828" transform="translate(288,180)"/>
<path d="" fill="#FFFFFF" transform="translate(0,0)"/>
<path d="" fill="#FFFFFF" transform="translate(0,0)"/>
<path d="" fill="#FFFFFF" transform="translate(0,0)"/>
<path d="" fill="#FFFFFF" transform="translate(0,0)"/>
<path d="" fill="#FFFFFF" transform="translate(0,0)"/>
<path d="" fill="#FFFFFF" transform="translate(0,0)"/>
<path d="" fill="#FFFFFF" transform="translate(0,0)"/>
<path d="" fill="#FFFFFF" transform="translate(0,0)"/>
<path d="" fill="#FFFFFF" transform="translate(0,0)"/>
<path d="" fill="#FFFFFF" transform="translate(0,0)"/>
<path d="" fill="#FFFFFF" transform="translate(0,0)"/>
<path d="" fill="#FFFFFF" transform="translate(0,0)"/>
<path d="" fill="#FFFFFF" transform="translate(0,0)"/>
<path d="" fill="#FFFFFF" transform="translate(0,0)"/>
<path d="" fill="#FFFFFF" transform="translate(0,0)"/>
<path d="" fill="#FFFFFF" transform="translate(0,0)"/>
<path d="" fill="#FFFFFF" transform="translate(0,0)"/>
<path d="" fill="#FFFFFF" transform="translate(0,0)"/>
<path d="" fill="#FFFFFF" transform="translate(0,0)"/>
<path d="" fill="#FFFFFF" transform="translate(0,0)"/>
<path d="" fill="#FFFFFF" transform="translate(0,0)"/>
<path d="" fill="#FFFFFF" transform="translate(0,0)"/>
<path d="" fill="#FFFFFF" transform="translate(0,0)"/>
<path d="" fill="#FFFFFF" transform="translate(0,0)"/>
<path d="" fill="#FFFFFF" transform="translate(0,0)"/>
<path d="" fill="#FFFFFF" transform="translate(0,0)"/>
<path d="" fill="#FFFFFF" transform="translate(0,0)"/>
<path d="" fill="#FFFFFF" transform="translate(0,0)"/>
<path d="" fill="#FFFFFF" transform="translate(0,0)"/>
<path d="" fill="#FFFFFF" transform="translate(0,0)"/>
<path d="" fill="#FFFFFF" transform="translate(0,0)"/>
<path d="" fill="#FFFFFF" transform="translate(0,0)"/>
<path d="" fill="#FFFFFF" transform="translate(0,0)"/>
<path d="" fill="#FFFFFF" transform="translate(0,0)"/>
<path d="" fill="#FFFFFF" transform="translate(0,0)"/>
<path d="" fill="#FFFFFF" transform="translate(0,0)"/>
<path d="" fill="#FFFFFF" transform="translate(0,0)"/>
<path d="" fill="#FFFFFF" transform="translate(0,0)"/>
<path d="" fill="#FFFFFF" transform="translate(0,0)"/>
<path d="" fill="#FFFFFF" transform="translate(0,0)"/>
<path d="" fill="#FFFFFF" transform="translate(0,0)"/>
<path d="" fill="#FFFFFF" transform="translate(0,0)"/>
<path d="" fill="#FFFFFF" transform="translate(0,0)"/>
<path d="" fill="#FFFFFF" transform="translate(0,0)"/>
<path d="" fill="#FFFFFF" transform="translate(0,0)"/>
<path d="" fill="#FFFFFF" transform="translate(0,0)"/>
<path d="" fill="#FFFFFF" transform="translate(0,0)"/>
<path d="" fill="#FFFFFF" transform="translate(0,0)"/>
<path d="" fill="#FFFFFF" transform="translate(0,0)"/>
<path d="" fill="#FFFFFF" transform="translate(0,0)"/>
<path d="" fill="#FFFFFF" transform="translate(0,0)"/>
<path d="" fill="#FFFFFF" transform="translate(0,0)"/>
<path d="" fill="#FFFFFF" transform="translate(0,0)"/>
<path d="" fill="#FFFFFF" transform="translate(0,0)"/>
<path d="" fill="#FFFFFF" transform="translate(0,0)"/>
<path d="" fill="#FFFFFF" transform="translate(0,0)"/>
<path d="" fill="#FFFFFF" transform="translate(0,0)"/>
<path d="" fill="#FFFFFF" transform="translate(0,0)"/>
<path d="" fill="#FFFFFF" transform="translate(0,0)"/>
<path d="" fill="#FFFFFF" transform="translate(0,0)"/>
<path d="" fill="#FFFFFF" transform="translate(0,0)"/>
<path d="" fill="#FFFFFF" transform="translate(0,0)"/>
<path d="" fill="#FFFFFF" transform="translate(0,0)"/>
<path d="" fill="#FFFFFF" transform="translate(0,0)"/>
<path d="" fill="#FFFFFF" transform="translate(0,0)"/>
<path d="" fill="#FFFFFF" transform="translate(0,0)"/>
<path d="" fill="#FFFFFF" transform="translate(0,0)"/>
<path d="" fill="#FFFFFF" transform="translate(0,0)"/>
<path d="" fill="#FFFFFF" transform="translate(0,0)"/>
<path d="" fill="#FFFFFF" transform="translate(0,0)"/>
</svg>
