<?xml version="1.0" encoding="UTF-8"?>
<svg version="1.1" xmlns="http://www.w3.org/2000/svg" width="500" height="500">
<path d="M0 0 C0.33 0.99 0.66 1.98 1 3 C1.66 3 2.32 3 3 3 C3 3.99 3 4.98 3 6 C3.66 6 4.32 6 5 6 C5.27972656 6.51046875 5.55945313 7.0209375 5.84765625 7.546875 C6.24855469 8.27390625 6.64945313 9.0009375 7.0625 9.75 C7.743125 10.99136719 7.743125 10.99136719 8.4375 12.2578125 C9.49482704 14.11342145 10.60107144 15.94185747 11.75 17.7421875 C16.67912039 25.58203846 18.88207598 33.08873478 21 42 C22.31431311 46.58668451 23.81966083 50.75803617 26.125 54.9375 C28.15206421 58.79967159 28.51110455 62.25713469 28.79296875 66.5703125 C29.03388906 69.3977169 29.70914395 72.04055608 30.45703125 74.7734375 C31.59860884 79.45472691 32.25462963 84.24231678 33 89 C33.66 89 34.32 89 35 89 C35.67305018 90.60149886 36.33822227 92.20631029 37 93.8125 C37.37125 94.70582031 37.7425 95.59914063 38.125 96.51953125 C39 99 39 99 39 102 C39.66 102 40.32 102 41 102 C41.26554687 102.67546875 41.53109375 103.3509375 41.8046875 104.046875 C42.15789062 104.93890625 42.51109375 105.8309375 42.875 106.75 C43.22304687 107.63171875 43.57109375 108.5134375 43.9296875 109.421875 C44.93715443 111.9615841 44.93715443 111.9615841 46.1328125 114.140625 C47 116 47 116 47 119 C47.66 119 48.32 119 49 119 C49.23074219 119.51949219 49.46148437 120.03898437 49.69921875 120.57421875 C51.30883429 124.01612393 52.66303963 126.66303963 55.375 129.375 C57.85830951 131.85830951 59.26432475 133.98259534 61 137 C63.28023959 140.93064318 65.54523987 143.98815783 69 147 C69.721875 147.680625 70.44375 148.36125 71.1875 149.0625 C78.72771171 154.25686807 85.67359218 155.27662666 94.6953125 155.6640625 C99.78905811 155.97562873 104.74734988 156.89808184 109.75 157.875 C110.61995605 158.03677734 111.48991211 158.19855469 112.38623047 158.36523438 C113.20236816 158.53087891 114.01850586 158.69652344 114.859375 158.8671875 C115.58608398 159.01269043 116.31279297 159.15819336 117.06152344 159.30810547 C119.36390719 160.12988828 120.48198732 161.0991997 122 163 C122 163.66 122 164.32 122 165 C123.08667969 165.14695313 123.08667969 165.14695313 124.1953125 165.296875 C130.18481478 166.22325135 134.03345516 167.38796739 139 171 C140.216875 171.309375 141.43375 171.61875 142.6875 171.9375 C146 173 146 173 147.3203125 175.421875 C149.52444724 178.80496553 151.36283644 179.20211381 155.1875 180.3125 C156.27417969 180.63863281 157.36085937 180.96476563 158.48046875 181.30078125 C159.72763672 181.64689453 159.72763672 181.64689453 161 182 C161.33 183.65 161.66 185.3 162 187 C162.73605469 187.15855469 163.47210938 187.31710938 164.23046875 187.48046875 C170.37864693 188.95050871 173.73085731 190.18353133 178 195 C179.57082976 196.27149332 181.17927022 197.49722193 182.8125 198.6875 C183.99779297 199.55955078 183.99779297 199.55955078 185.20703125 200.44921875 C192.45918184 204.47593733 200.02404589 204.28342719 208.1015625 204.23046875 C209.25562592 204.23001053 210.40968933 204.22955231 211.59872437 204.2290802 C214.03441397 204.22606881 216.47010184 204.21821601 218.90576172 204.20581055 C222.59219365 204.18766151 226.27837196 204.18530049 229.96484375 204.18554688 C249.86967198 205.0187847 249.86967198 205.0187847 269 201 C271.62310953 200.79620681 274.18666139 200.68047345 276.8125 200.625 C285.4012652 200.30280157 293.90422911 199.43222752 302.43002319 198.38641357 C303.8368777 198.21395174 305.24412393 198.04465199 306.65176392 197.87872314 C313.94244983 197.01393044 320.95965667 195.96010674 327.95483398 193.65576172 C330.5235709 192.83212231 333.08367716 192.38782878 335.75 192 C340.77650733 191.14216165 344.88557664 189.85589124 348.7890625 186.4296875 C353.04473993 183.67778301 358.12936126 184.43519196 363 185 C366.25 186.375 366.25 186.375 368 189 C368.7664233 194.45842939 367.89835831 199.60985015 367 205 C367.30271961 206.34061543 367.63837971 207.67405895 368 209 C368.3125 212.5 368.3125 212.5 368 216 C367.38125 216.598125 366.7625 217.19625 366.125 217.8125 C363.66212557 220.34781191 363.55906761 221.46468756 363 224.875 C362.20088933 229.52067727 360.97427843 232.24301672 358 236 C357.41992188 236.76054687 356.83984375 237.52109375 356.2421875 238.3046875 C352.35007082 243.32628118 348.23642832 247.85706519 343.6640625 252.26171875 C341.84770525 254.00854365 341.84770525 254.00854365 340.5625 256.625 C338.38760051 259.93084722 335.44899766 261.41535768 332.05859375 263.375 C329.5533445 265.35257816 329.04750775 267.03127848 328 270 C326.37660195 271.70884005 324.70680947 273.37446717 323 275 C322.34 275.845625 321.68 276.69125 321 277.5625 C318.88033366 280.14584335 316.72074983 282.06683565 314 284 C313.34 284 312.68 284 312 284 C311.773125 284.66 311.54625 285.32 311.3125 286 C307.94912723 293.68770918 304.00059342 298.00470805 297.28515625 303.05859375 C295.13972708 304.8812917 294.09325463 306.13932352 292.875 308.625 C290.45504486 312.98091925 287.26392534 315.48040775 283 318 C282.34 318 281.68 318 281 318 C280.93683594 318.55171875 280.87367188 319.1034375 280.80859375 319.671875 C279.65041122 323.00654547 277.56721585 324.79200051 275.0625 327.25 C274.16660156 328.14203125 273.27070313 329.0340625 272.34765625 329.953125 C270 332 270 332 268 332 C267.731875 332.78375 267.46375 333.5675 267.1875 334.375 C266 337 266 337 263 339 C262.3037391 340.9230063 261.61094007 342.84742674 260.9453125 344.78125 C259.59180315 347.95808187 257.61020783 350.43768037 255.46875 353.125 C253.83127541 355.14504588 253.83127541 355.14504588 252.0625 358.125 C250.2857122 360.60173451 248.9475401 361.95751721 246.625 363.8125 C243.20093545 366.61532077 241.14601862 369.63469798 238.80859375 373.359375 C235.71241314 377.87993243 232.06661985 381.94038882 228.48828125 386.08203125 C226.05448573 388.85226665 226.05448573 388.85226665 224.29296875 391.38671875 C223.86628906 391.91910156 223.43960938 392.45148438 223 393 C222.34 393 221.68 393 221 393 C220.731875 393.53625 220.46375 394.0725 220.1875 394.625 C218.79166667 397.41666667 217.39583333 400.20833333 216 403 C215.34 403 214.68 403 214 403 C213.938125 403.763125 213.87625 404.52625 213.8125 405.3125 C213 408 213 408 210.5625 409.8125 C208 411 208 411 206 411 C205.773125 411.61875 205.54625 412.2375 205.3125 412.875 C204 415 204 415 201.6875 415.875 C198.88637054 417.04756582 198.13611517 417.81580683 196.3125 420.125 C195.549375 421.07375 194.78625 422.0225 194 423 C193.34 423 192.68 423 192 423 C192 423.66 192 424.32 192 425 C190.5390625 426.5078125 190.5390625 426.5078125 188.625 428.125 C187.99851563 428.66382813 187.37203125 429.20265625 186.7265625 429.7578125 C185 431 185 431 183 431 C182.74863281 431.59554688 182.49726563 432.19109375 182.23828125 432.8046875 C179.44597864 437.75507888 173.38739425 441.4607445 168 443 C167.01 443 166.02 443 165 443 C164.67 443.66 164.34 444.32 164 445 C162.7315625 445.0928125 162.7315625 445.0928125 161.4375 445.1875 C157.60581345 446.09317137 157.23983813 446.70249308 154.75 449.5 C149.95730753 454.09650038 144.73688871 453.77256322 138.43457031 453.73632812 C137.67885742 453.73568359 136.92314453 453.73503906 136.14453125 453.734375 C135.46753174 453.71600586 134.79053223 453.69763672 134.09301758 453.67871094 C131.84207776 453.87919466 131.84207776 453.87919466 129.67602539 455.49169922 C126.27906253 457.40634538 123.92456274 457.38765158 120.0390625 457.3984375 C119.3714389 457.40130768 118.70381531 457.40417786 118.01596069 457.40713501 C116.60226595 457.40917082 115.18854274 457.40367468 113.77490234 457.39111328 C111.66565526 457.37530471 109.55839987 457.39084231 107.44921875 457.41015625 C99.09094177 457.42179773 91.36857191 456.55359026 83.21557617 454.70410156 C80.35767728 454.07831913 77.59567965 453.65990644 74.6875 453.375 C71 453 71 453 69 452 C67.45002778 451.90647969 65.89651576 451.86823108 64.34375 451.859375 C43.96174361 451.51204414 43.96174361 451.51204414 37 446 C36.26716797 445.19369141 36.26716797 445.19369141 35.51953125 444.37109375 C33.59884738 442.63803453 32.42535208 442.58336885 29.875 442.4375 C28.59625 442.293125 27.3175 442.14875 26 442 C25.67 441.34 25.34 440.68 25 440 C22.71658257 439.32845316 22.71658257 439.32845316 20 440 C16.86457513 443.02787732 15.03588837 446.25941424 14.9453125 450.65234375 C15.14270284 452.37571325 15.3923522 454.09420993 15.703125 455.80078125 C16 458 16 458 15 461 C14.08476563 461.08636719 13.16953125 461.17273438 12.2265625 461.26171875 C11.03804687 461.40222656 9.84953125 461.54273438 8.625 461.6875 C6.84996094 461.87892578 6.84996094 461.87892578 5.0390625 462.07421875 C4.03617188 462.37972656 3.03328125 462.68523437 2 463 C0.82126858 465.36316651 0.82126858 465.36316651 0 468 C-2.171875 469.9140625 -2.171875 469.9140625 -4.75 471.625 C-5.64460938 472.223125 -6.53921875 472.82125 -7.4609375 473.4375 C-10 475 -10 475 -13.375 476.625 C-16.4742898 478.24843751 -17.91130831 480.23994313 -20 483 C-20.66 483 -21.32 483 -22 483 C-22.33 483.66 -22.66 484.32 -23 485 C-23 328.58 -23 172.16 -23 11 C-21.35 10.34 -19.7 9.68 -18 9 C-16.96567096 7.01753602 -15.96761608 5.01586684 -15 3 C-9.82113471 -1.91328245 -6.6373092 -2.9499152 0 0 Z " fill="#030303" transform="translate(23,7)"/>
<path d="M0 0 C0.79019531 -0.00257813 1.58039063 -0.00515625 2.39453125 -0.0078125 C5.29284647 0.13000948 8.12479087 0.51133428 10.99926758 0.89306641 C13.27760578 1.13455043 15.51824087 1.22127251 17.80859375 1.265625 C34.7620994 1.59763767 34.7620994 1.59763767 41.1875 7.125 C42.04859375 7.86363281 42.9096875 8.60226562 43.796875 9.36328125 C48.63179208 13.85584148 52.09142321 17.90586828 54.390625 24.109375 C55.20397238 26.40003242 55.20397238 26.40003242 57.3125 29.125 C59.38977447 32.44863916 60.03907671 35.15968084 60.6953125 38.9765625 C61.0862034 41.13986399 61.0862034 41.13986399 62.19140625 42.93359375 C63.63332279 46.10581015 63.74263017 49.1000179 64 52.5625 C64.10957031 53.86058594 64.21914062 55.15867187 64.33203125 56.49609375 C64.1875 60.125 64.1875 60.125 62.74487305 62.42651367 C60.87014939 65.67487871 60.541306 68.2107209 60.125 71.9296875 C59.96773437 73.23550781 59.81046875 74.54132813 59.6484375 75.88671875 C59.49353137 77.25767068 59.33989528 78.62876669 59.1875 80 C58.88734212 82.68673232 58.57264194 85.37041231 58.25 88.0546875 C58.11722656 89.24304199 57.98445312 90.43139648 57.84765625 91.65576172 C56.13704571 100.64532376 51.04686866 108.18021383 44.1875 114.125 C41.80793673 115.6667497 39.38539635 117.10221561 36.9296875 118.51953125 C34.1237746 120.16230931 31.40970369 121.9099704 28.6875 123.6875 C24.4085899 126.43303297 20.06725105 128.80418178 15.4765625 130.984375 C13.11404613 132.10614803 13.11404613 132.10614803 10.7734375 133.703125 C7.01840767 135.76782418 3.33005899 135.98509482 -0.875 136.5 C-3.86510989 136.96359426 -3.86510989 136.96359426 -6.30859375 138.66796875 C-9.37179589 140.45045611 -11.35600517 140.4953343 -14.875 140.4375 C-16.40833984 140.43169922 -16.40833984 140.43169922 -17.97265625 140.42578125 C-20.82857025 140.12329792 -22.30522229 139.41812354 -24.8125 138.125 C-26.70283147 137.85417103 -28.59996667 137.62874519 -30.5 137.4375 C-37.27608071 136.37104662 -40.8190753 133.62419495 -45.8125 129.125 C-47.70414832 127.59896438 -49.60013568 126.07829471 -51.5 124.5625 C-57.58274348 119.54317322 -62.4207631 115.39300764 -65.8125 108.125 C-66.31080322 107.65175293 -66.80910645 107.17850586 -67.32250977 106.69091797 C-72.5232836 101.22512027 -71.21253694 89.96609901 -71.375 83 C-70.75113698 71.27284599 -70.75113698 71.27284599 -74.8125 61.125 C-74.6396009 53.51743938 -68.91550517 49.10043005 -63.8125 44.125 C-62.925625 43.34125 -62.03875 42.5575 -61.125 41.75 C-58.5624177 39.22361272 -58.5624177 39.22361272 -57.8125 35.5625 C-56.61385977 31.44217421 -55.2766295 30.51689894 -51.8125 28.125 C-51.20148438 27.51398438 -50.59046875 26.90296875 -49.9609375 26.2734375 C-45.88747779 22.19997779 -41.30309499 18.72323317 -36.8125 15.125 C-35.86890625 14.32964844 -34.9253125 13.53429687 -33.953125 12.71484375 C-24.35221711 4.94329804 -12.5495466 -0.04054781 0 0 Z " fill="#FCFCFC" transform="translate(172.8125,289.875)"/>
<path d="M0 0 C4.25803117 0.73831333 8.00629259 1.1124024 12.05078125 -0.546875 C16.33025221 -2.21691245 20.40511766 -2.35059683 24.6953125 -0.7890625 C26.73570115 0.20187195 28.67149268 1.28156572 30.61328125 2.453125 C31.62390625 3.05125 32.63453125 3.649375 33.67578125 4.265625 C40.22126094 9.13991839 44.79475252 14.71472887 48.9609375 21.71875 C50.14267819 23.67434924 51.38149922 25.59590432 52.65625 27.4921875 C60.18945823 39.63496067 60.45908621 53.48610984 58.61328125 67.453125 C57.61865234 69.63183594 57.61865234 69.63183594 56.61328125 71.453125 C56.22396092 73.44298449 55.89440189 75.44512044 55.61328125 77.453125 C55.07840144 81.2736951 54.32234547 84.03499656 52.61328125 87.453125 C51.79861204 90.96960855 51.56556132 94.32184338 51.54296875 97.9140625 C51.44268033 112.7387863 51.44268033 112.7387863 47.42578125 117.453125 C44.43005646 120.12679418 41.22796061 121.71807891 37.61328125 123.453125 C33.97712904 126.40710752 30.40971631 129.50993891 27.2265625 132.953125 C16.25955423 143.15005279 2.15128396 144.1384227 -12.1027832 145.19116211 C-14.41426803 145.32424138 -14.41426803 145.32424138 -16.38671875 146.453125 C-18.00837627 146.57460805 -19.63556202 146.62856152 -21.26171875 146.640625 C-22.12539063 146.65480469 -22.9890625 146.66898438 -23.87890625 146.68359375 C-26.38671875 146.453125 -26.38671875 146.453125 -30.38671875 144.453125 C-30.38671875 97.923125 -30.38671875 51.393125 -30.38671875 3.453125 C-26.92171875 2.958125 -26.92171875 2.958125 -23.38671875 2.453125 C-22.72671875 1.793125 -22.06671875 1.133125 -21.38671875 0.453125 C-14.45022069 -3.21913868 -7.30738541 -1.41498473 0 0 Z " fill="#FCFCFC" transform="translate(30.38671875,223.546875)"/>
<path d="M0 0 C0.99 0.66 1.98 1.32 3 2 C2.40384833 6.64464439 0.42145048 10.33686084 -1.8125 14.375 C-2.32780273 15.32632813 -2.32780273 15.32632813 -2.85351562 16.296875 C-4.58140217 19.47385213 -6.35538821 22.61901402 -8.171875 25.74609375 C-10.09716367 28.99551742 -10.09716367 28.99551742 -11.4375 32.6875 C-13.14125345 36.29945732 -14.66577562 37.86267668 -18 40 C-18.66 40 -19.32 40 -20 40 C-20.33 40.99 -20.66 41.98 -21 43 C-22.6436814 44.68933922 -24.3142876 46.35259924 -26 48 C-29.50901504 52.00511322 -29.50901504 52.00511322 -32.3125 56.5 C-34.34035297 59.50422662 -36.61005971 61.03594864 -39.5390625 63.12109375 C-42.62638238 65.47823797 -45.46141406 68.0528702 -48.3125 70.6875 C-48.82804443 71.1633252 -49.34358887 71.63915039 -49.87475586 72.12939453 C-51.2564513 73.41251075 -52.62864046 74.70584292 -54 76 C-54.58265625 76.54398437 -55.1653125 77.08796875 -55.765625 77.6484375 C-57.23347971 79.12845206 -57.23347971 79.12845206 -58.4375 81.9375 C-60.37398329 85.73300725 -62.82892526 87.9753096 -66 90.75 C-67.86055444 92.84312375 -68.76934904 94.43700016 -69.9375 96.9375 C-71.731604 100.72193812 -73.86726503 103.17289771 -77 106 C-78.2375 107.3303125 -78.2375 107.3303125 -79.5 108.6875 C-82 111 -82 111 -84.6875 112 C-85.450625 112.33 -86.21375 112.66 -87 113 C-87.27714844 113.7734375 -87.55429687 114.546875 -87.83984375 115.34375 C-89.28727492 118.65773383 -90.84171009 119.59181763 -93.875 121.5 C-97.66332168 124.00921881 -100.36382143 126.24851511 -103 130 C-104.33333333 131.33333333 -105.66666667 132.66666667 -107 134 C-107.66 134.99 -108.32 135.98 -109 137 C-109.99 137 -110.98 137 -112 137 C-111.98839844 136.27039063 -111.97679687 135.54078125 -111.96484375 134.7890625 C-111.93375635 131.19180624 -111.95664326 127.59694172 -112 124 C-112.00580078 123.24041992 -112.01160156 122.48083984 -112.01757812 121.69824219 C-112.04696437 119.29738623 -112.11328531 116.89985311 -112.1875 114.5 C-112.19322021 113.73510254 -112.19894043 112.97020508 -112.20483398 112.18212891 C-112.36975511 108.04037013 -112.54490706 106.50191922 -115.4296875 103.3203125 C-116.70199219 102.17175781 -116.70199219 102.17175781 -118 101 C-119.21484375 98.2109375 -119.21484375 98.2109375 -119.9375 95.375 C-120.19402344 94.43398438 -120.45054687 93.49296875 -120.71484375 92.5234375 C-121 90 -121 90 -119 87 C-115.35955253 86.0349925 -111.75647859 85.78758008 -108 86 C-105.625 87.9375 -105.625 87.9375 -104 90 C-101.33165034 90.33498301 -101.33165034 90.33498301 -99 90 C-98.67 87.69 -98.34 85.38 -98 83 C-101.32287982 80.78474679 -102.07061661 80.83701223 -105.875 81.0625 C-110.11965883 81.16799591 -112.58206647 80.73434683 -116 78 C-114.37861617 74.75723234 -111.24889406 74.31095725 -108 73 C-107.01 72.505 -107.01 72.505 -106 72 C-102.46981203 71.84651357 -99.38472048 71.95854754 -96 73 C-95.67 71.35 -95.34 69.7 -95 68 C-100.61 68 -106.22 68 -112 68 C-112 67.01 -112 66.02 -112 65 C-111.14535156 64.86722656 -110.29070312 64.73445313 -109.41015625 64.59765625 C-107.75306641 64.33275391 -107.75306641 64.33275391 -106.0625 64.0625 C-104.40927734 63.80146484 -104.40927734 63.80146484 -102.72265625 63.53515625 C-100.09573071 63.28154864 -100.09573071 63.28154864 -99 62 C-97.31816052 61.76712992 -95.6287584 61.58735834 -93.9375 61.4375 C-93.01839844 61.35371094 -92.09929687 61.26992188 -91.15234375 61.18359375 C-90.44207031 61.12300781 -89.73179687 61.06242187 -89 61 C-88.67 59.68 -88.34 58.36 -88 57 C-93.88272522 55.5293187 -98.18614531 56.63336376 -103.9765625 58.23046875 C-107.98721885 59.25126888 -111.8809266 59.65674388 -116 60 C-115.62095638 57.65092705 -115.32219412 56.319479 -113.609375 54.62109375 C-108.30696783 51.24582196 -103.17147481 49.93122246 -97.0390625 48.68359375 C-94.56793363 48.12774857 -92.57817992 47.51665086 -90.3125 46.4375 C-87.39326868 45.17066377 -85.21775859 44.63177668 -82.125 44.125 C-74.0239925 42.62980648 -67.76194914 37.90836359 -61.06640625 33.34375 C-58.48537742 31.6653494 -55.75141796 30.37570898 -53 29 C-51.32012773 27.68334336 -49.65533995 26.34736973 -48 25 C-46.54846736 24.03139694 -45.08941217 23.07401838 -43.625 22.125 C-40.0579563 19.7844979 -36.8461828 17.27566757 -33.703125 14.39453125 C-29.19425895 10.70263864 -23.74244528 8.22759915 -18.62109375 5.5 C-16.01564238 4.08321045 -16.01564238 4.08321045 -13.875 2.390625 C-9.67575401 -0.72381578 -4.93947731 -1.64649244 0 0 Z " fill="#FAFAFA" transform="translate(384,207)"/>
<path d="M0 0 C1.33333333 2.66666667 2.66666667 5.33333333 4 8 C4.34877197 8.586604 4.69754395 9.17320801 5.05688477 9.77758789 C6.23957096 12.56453907 6.21096858 14.67552022 6.16015625 17.69921875 C6.14823242 18.81828613 6.13630859 19.93735352 6.12402344 21.09033203 C6.09356934 22.87093018 6.09356934 22.87093018 6.0625 24.6875 C6.04492903 27.1366976 6.03060345 29.58592065 6.01953125 32.03515625 C6.0138916 33.2277002 6.00825195 34.42024414 6.00244141 35.64892578 C5.73805379 49.84936917 5.73805379 49.84936917 10.08203125 63.1328125 C11.50276437 66.02264411 11.66871511 68.81966507 12 72 C12.495 72.495 12.495 72.495 13 73 C13.8068576 76.86580877 14.34264708 80.78415534 14.9375 84.6875 C15.20699463 86.4351062 15.20699463 86.4351062 15.48193359 88.21801758 C16.75821826 96.7515049 17.70504416 105.27325601 18.31616211 113.87963867 C18.69303424 118.87115406 19.50848761 123.22353724 21 128 C21.5115516 133.3201366 21.5115516 133.3201366 19.75415039 135.65576172 C17.53694059 137.3548511 16.38825482 137.33739706 13.62109375 137.2578125 C12.78255859 137.24363281 11.94402344 137.22945312 11.08007812 137.21484375 C10.20802734 137.18519531 9.33597656 137.15554687 8.4375 137.125 C6.70713187 137.08170897 4.97665672 137.0424504 3.24609375 137.0078125 C2.47966553 136.98348145 1.7132373 136.95915039 0.92358398 136.93408203 C-1.08554008 136.86930391 -1.08554008 136.86930391 -3 138 C-3.33 138.99 -3.66 139.98 -4 141 C-1.08175756 142.66674321 0.97594379 143.2432008 4.328125 143.1953125 C5.12734375 143.18886719 5.9265625 143.18242187 6.75 143.17578125 C7.575 143.15902344 8.4 143.14226562 9.25 143.125 C10.09046875 143.11597656 10.9309375 143.10695312 11.796875 143.09765625 C13.86470604 143.07415817 15.93238995 143.03828908 18 143 C19.94566951 146.47547073 20.07637127 148.12506344 19 152 C15.9513642 153.01621193 13.62851518 152.99790524 10.4519043 152.8840332 C3.30737224 152.64514836 -1.95784129 152.85342049 -8 157 C-8.59361328 157.74830078 -8.59361328 157.74830078 -9.19921875 158.51171875 C-12.06463893 160.87988597 -15.40500445 161.16125049 -19 162 C-19.09340203 143.29386017 -19.1639589 124.5877676 -19.20724869 105.88144302 C-19.22788231 97.19594787 -19.25601809 88.51059753 -19.30175781 79.82519531 C-19.34160121 72.25582908 -19.367427 64.68656771 -19.37635398 57.11709952 C-19.38157301 53.10831203 -19.39385588 49.09982455 -19.42292023 45.09113312 C-19.45005011 41.31872308 -19.45845007 37.54673692 -19.45243073 33.77423859 C-19.45353207 32.38909604 -19.46150085 31.00393947 -19.4768219 29.61888123 C-19.49670734 27.72862987 -19.48955804 25.8381516 -19.48101807 23.94781494 C-19.48470524 22.8895966 -19.48839241 21.83137825 -19.49219131 20.74109268 C-18.8737865 17.29709671 -17.59651591 16.26118877 -15 14 C-13.56771424 11.78671313 -12.19980945 9.58684018 -10.875 7.3125 C-6.50344721 -0.17114335 -6.50344721 -0.17114335 0 0 Z " fill="#FDFDFD" transform="translate(19,17)"/>
<path d="M0 0 C3.76775625 1.39945232 5.8440771 4.51656559 8.05078125 7.76171875 C10.52628417 13.83795319 11.02639298 20.30955418 9.23828125 26.63671875 C8.05078125 28.76171875 8.05078125 28.76171875 6.67578125 30.01953125 C4.49187406 32.36093175 3.28444452 34.89833794 1.86328125 37.76171875 C1.33347656 38.81359375 0.80367187 39.86546875 0.2578125 40.94921875 C-1.14640943 43.7110974 -1.14640943 43.7110974 -0.94921875 46.76171875 C1.48795383 46.49137241 1.48795383 46.49137241 4.05078125 45.76171875 C4.71078125 44.77171875 5.37078125 43.78171875 6.05078125 42.76171875 C7.98828125 43.51171875 7.98828125 43.51171875 10.05078125 44.76171875 C11.02352336 47.59375275 11.21276687 50.28163884 11.23828125 53.26171875 C11.25246094 54.01453125 11.26664063 54.76734375 11.28125 55.54296875 C10.90745013 59.14158449 9.62419906 61.20622025 7.05078125 63.69921875 C4.93034127 65.62184241 4.93034127 65.62184241 4.11328125 68.13671875 C2.66909848 71.7046997 0.73598175 74.01549097 -1.94921875 76.76171875 C-8.62928638 79.56334483 -17.42875583 80.60029358 -24.2734375 77.81640625 C-26.0500839 76.59086709 -27.47599779 75.33489275 -28.94921875 73.76171875 C-30.09390625 72.61703125 -30.09390625 72.61703125 -31.26171875 71.44921875 C-35.52590774 64.65810295 -35.31427749 56.84331679 -35.32421875 49.07421875 C-35.34871094 48.05521484 -35.37320313 47.03621094 -35.3984375 45.98632812 C-35.42785781 38.48905274 -35.42785781 38.48905274 -33.0546875 34.8828125 C-32.35988281 34.18285156 -31.66507813 33.48289062 -30.94921875 32.76171875 C-29.80845713 30.16523775 -28.90026175 27.55101089 -27.9765625 24.87109375 C-27.63753906 24.175 -27.29851563 23.47890625 -26.94921875 22.76171875 C-25.95921875 22.43171875 -24.96921875 22.10171875 -23.94921875 21.76171875 C-23.73265625 20.86453125 -23.73265625 20.86453125 -23.51171875 19.94921875 C-22.7432096 16.96057204 -21.21127897 15.83527395 -18.94921875 13.76171875 C-18.18609375 12.97796875 -17.42296875 12.19421875 -16.63671875 11.38671875 C-4.42506795 -0.54094017 -4.42506795 -0.54094017 0 0 Z " fill="#040404" transform="translate(52.94921875,264.23828125)"/>
<path d="M0 0 C3 2 3 2 4 5 C4.77175327 10.22723608 5.12944393 14.97580179 2.49609375 19.6953125 C0.44170644 22.26028139 -1.72530313 24.62891767 -4 27 C-5.4600911 28.70683124 -6.91851168 30.41509338 -8.375 32.125 C-10.3359375 34.3828125 -10.3359375 34.3828125 -12 36 C-12.66 36 -13.32 36 -14 36 C-13.67 37.32 -13.34 38.64 -13 40 C-11.35 40 -9.7 40 -8 40 C-8 39.34 -8 38.68 -8 38 C-4.6330414 35.49883075 -2.19975031 34.43246617 2 35 C4.70338822 37.70338822 4.87479145 39.77757291 5.23828125 43.5078125 C4.86851165 47.37523883 2.79193176 49.64409647 0.48828125 52.66796875 C-1.16576049 55.25973495 -1.64626648 57.22995211 -2.125 60.25 C-2.82160577 64.58369165 -3.6723706 66.93507818 -7 70 C-9.02679712 71.37532662 -11.07584282 72.65902594 -13.1953125 73.88671875 C-15.15131001 74.99760084 -15.15131001 74.99760084 -17 77 C-19.49013521 77.25343388 -21.82145158 77.37025062 -24.3125 77.375 C-25.62863281 77.40335937 -26.94476563 77.43171875 -28.30078125 77.4609375 C-33.23839722 76.84569074 -35.26941615 74.87479917 -38.546875 71.32421875 C-43.90577522 64.03402657 -43.47706886 55.76614023 -43 47 C-42.2729004 42.44736502 -40.45588838 38.87274705 -38 35 C-37.38682177 33.7543958 -36.78353439 32.50389807 -36.1875 31.25 C-32.47546065 23.7553502 -27.63960302 17.15088572 -22 11 C-21.236875 10.154375 -20.47375 9.30875 -19.6875 8.4375 C-13.50217359 2.82755279 -8.6030438 -1.18662673 0 0 Z " fill="#050505" transform="translate(161,313)"/>
<path d="M0 0 C1.06857345 3.20572035 1.46543595 6.07746236 1.8125 9.4375 C1.94269531 10.57058594 2.07289063 11.70367187 2.20703125 12.87109375 C1.9484144 16.77962388 0.80930896 17.43405867 -2 20 C-2.75417361 22.36399446 -2.75417361 22.36399446 -3 24.875 C-3.79911067 29.52067727 -5.02572157 32.24301672 -8 36 C-8.58007812 36.76054687 -9.16015625 37.52109375 -9.7578125 38.3046875 C-13.64992918 43.32628118 -17.76357168 47.85706519 -22.3359375 52.26171875 C-24.15229475 54.00854365 -24.15229475 54.00854365 -25.4375 56.625 C-27.61239949 59.93084722 -30.55100234 61.41535768 -33.94140625 63.375 C-36.4466555 65.35257816 -36.95249225 67.03127848 -38 70 C-39.62339805 71.70884005 -41.29319053 73.37446717 -43 75 C-43.66 75.845625 -44.32 76.69125 -45 77.5625 C-47.11966634 80.14584335 -49.27925017 82.06683565 -52 84 C-52.66 84 -53.32 84 -54 84 C-54.3403125 84.99 -54.3403125 84.99 -54.6875 86 C-58.05087277 93.68770918 -61.99940658 98.00470805 -68.71484375 103.05859375 C-70.86027292 104.8812917 -71.90674537 106.13932352 -73.125 108.625 C-75.54495514 112.98091925 -78.73607466 115.48040775 -83 118 C-83.66 118 -84.32 118 -85 118 C-85.06316406 118.55171875 -85.12632812 119.1034375 -85.19140625 119.671875 C-86.34958878 123.00654547 -88.43278415 124.79200051 -90.9375 127.25 C-91.83339844 128.14203125 -92.72929687 129.0340625 -93.65234375 129.953125 C-96 132 -96 132 -98 132 C-98.495 132.99 -98.495 132.99 -99 134 C-100.125 127.25 -100.125 127.25 -99 125 C-99.66 124.67 -100.32 124.34 -101 124 C-101.33 123.34 -101.66 122.68 -102 122 C-96.25 118 -96.25 118 -94 118 C-93.835 117.278125 -93.67 116.55625 -93.5 115.8125 C-91.87566561 112.76687302 -91.08395735 112.2668713 -88.1875 110.625 C-84.44108714 108.48031438 -82.38414944 106.28445506 -80.10546875 102.6484375 C-79 101 -79 101 -77.45703125 99.484375 C-75.74531297 97.90023093 -75.74531297 97.90023093 -74.5 94.875 C-73 92 -73 92 -70 91 C-69.32558869 89.3364521 -68.6599679 87.66933058 -68 86 C-66.68799596 84.64567325 -65.35368596 83.31266518 -64 82 C-63.55785156 81.23429687 -63.11570312 80.46859375 -62.66015625 79.6796875 C-57.24279999 70.93543715 -48.15638514 64.31057488 -39.82421875 58.4765625 C-37.78419229 57.03785898 -37.78419229 57.03785898 -36.6875 54.3125 C-33.4737098 48.00394887 -28.58911938 43.26538058 -23 39 C-19.30984699 35.75986565 -17.30242339 32.73631419 -15.16625977 28.34472656 C-12.99979074 23.98911246 -10.60631356 19.75497042 -8.25 15.5 C-7.74339844 14.5821875 -7.23679687 13.664375 -6.71484375 12.71875 C-5.47797381 10.4783818 -4.23966726 8.23882117 -3 6 C-2.34 6 -1.68 6 -1 6 C-0.67 4.02 -0.34 2.04 0 0 Z " fill="#111111" transform="translate(389,207)"/>
<path d="M0 0 C0.33 0.99 0.66 1.98 1 3 C1.66 3 2.32 3 3 3 C3 3.99 3 4.98 3 6 C3.66 6 4.32 6 5 6 C5.81837442 7.41328129 6.62946219 8.83078346 7.4375 10.25 C8.11619141 11.43335938 8.11619141 11.43335938 8.80859375 12.640625 C9.89311602 14.78833468 10.53148716 16.65205061 11 19 C7.66666667 17.33333333 4.33333333 15.66666667 1 14 C0.34 14.99 -0.32 15.98 -1 17 C-4 12.25 -4 12.25 -4 10 C-6.31 10.33 -8.62 10.66 -11 11 C-11.25910156 11.70640625 -11.51820312 12.4128125 -11.78515625 13.140625 C-13.09295342 16.21878425 -14.65861709 18.91908957 -16.4375 21.75 C-17.03433594 22.71421875 -17.63117187 23.6784375 -18.24609375 24.671875 C-20 27 -20 27 -23 28 C-23 22.39 -23 16.78 -23 11 C-21.35 10.34 -19.7 9.68 -18 9 C-16.96567096 7.01753602 -15.96761608 5.01586684 -15 3 C-9.82113471 -1.91328245 -6.6373092 -2.9499152 0 0 Z " fill="#161616" transform="translate(23,7)"/>
<path d="M0 0 C1.06857345 3.20572035 1.46543595 6.07746236 1.8125 9.4375 C2.00779297 11.13712891 2.00779297 11.13712891 2.20703125 12.87109375 C1.9484144 16.77962388 0.80930896 17.43405867 -2 20 C-2.75417361 22.36399446 -2.75417361 22.36399446 -3 24.875 C-3.77452326 29.47499469 -5.09720568 32.26783588 -8 36 C-8.92110882 37.28850266 -9.83771861 38.58023237 -10.75 39.875 C-11.4925 40.90625 -12.235 41.9375 -13 43 C-13.495 41.515 -13.495 41.515 -14 40 C-14.99 40 -15.98 40 -17 40 C-18.45786956 35.14043479 -17.57017858 32.71053902 -15.26074219 28.31835938 C-14.84469727 27.55330078 -14.42865234 26.78824219 -14 26 C-13.55043945 25.16791016 -13.10087891 24.33582031 -12.63769531 23.47851562 C-11.18623848 20.81273582 -9.72046894 18.155335 -8.25 15.5 C-7.74339844 14.5821875 -7.23679687 13.664375 -6.71484375 12.71875 C-5.47797381 10.4783818 -4.23966726 8.23882117 -3 6 C-2.34 6 -1.68 6 -1 6 C-0.67 4.02 -0.34 2.04 0 0 Z " fill="#1D1D1D" transform="translate(389,207)"/>
<path d="M0 0 C0.99 0.33 1.98 0.66 3 1 C2.67 1.99 2.34 2.98 2 4 C2.99 4 3.98 4 5 4 C4.53382063 8.62090073 2.89776525 10.54434603 -0.4375 13.6875 C-1.24058594 14.45449219 -2.04367187 15.22148437 -2.87109375 16.01171875 C-3.57363281 16.66785156 -4.27617187 17.32398438 -5 18 C-5.66 18.66 -6.32 19.32 -7 20 C-7.33 19.67 -7.66 19.34 -8 19 C-8.66 19.99 -9.32 20.98 -10 22 C-10 21.34 -10 20.68 -10 20 C-11.32 19.34 -12.64 18.68 -14 18 C-14.5513099 14.25109265 -14.06375655 13.08925917 -11.8125 9.9375 C-9.4298258 7.31251995 -6.84769087 5.11751373 -4 3 C-3.29875 2.401875 -2.5975 1.80375 -1.875 1.1875 C-1.25625 0.795625 -0.6375 0.40375 0 0 Z " fill="#0B0B0B" transform="translate(370,243)"/>
<path d="M0 0 C0.625 1.875 0.625 1.875 1 4 C-1.49399165 6.49399165 -2.61442573 6.32932088 -6.0625 6.5625 C-9.33839564 6.53981953 -9.33839564 6.53981953 -12 8 C-13.84891946 8.23363881 -15.70488031 8.41303635 -17.5625 8.5625 C-19.08037109 8.68818359 -19.08037109 8.68818359 -20.62890625 8.81640625 C-21.41136719 8.87699219 -22.19382812 8.93757813 -23 9 C-21.52041633 3.32826261 -21.52041633 3.32826261 -19.22265625 1.87890625 C-12.82384238 -0.65138043 -6.71270662 -1.45928405 0 0 Z " fill="#0A0A0A" transform="translate(296,263)"/>
<path d="M0 0 C0.99 0.33 1.98 0.66 3 1 C3 4.10551666 2.4606285 5.35261084 1 8 C1.66 8.33 2.32 8.66 3 9 C2.42110619 12.28754511 1.45171589 13.93672495 -0.9375 16.25 C-1.46214844 16.77078125 -1.98679687 17.2915625 -2.52734375 17.828125 C-4 19 -4 19 -6 19 C-6.33 19.66 -6.66 20.32 -7 21 C-8.125 14.25 -8.125 14.25 -7 12 C-7.66 11.67 -8.32 11.34 -9 11 C-9.33 10.34 -9.66 9.68 -10 9 C-4.25 5 -4.25 5 -2 5 C-1.34 3.35 -0.68 1.7 0 0 Z " fill="#111111" transform="translate(297,320)"/>
<path d="M0 0 C0.66 0.33 1.32 0.66 2 1 C2.33333333 2.33333333 2.66666667 3.66666667 3 5 C3.66 5.33 4.32 5.66 5 6 C5.66 5.34 6.32 4.68 7 4 C7.33 4.99 7.66 5.98 8 7 C5.74502688 9.4284326 3.71027654 11.17962855 0.875 12.9375 C-2.25613476 15.18374885 -2.84408118 16.43591697 -4 20 C-4.66 20.33 -5.32 20.66 -6 21 C-6.93065133 18.39417629 -7.14917407 17.35801776 -6.0625 14.75 C-5.711875 14.1725 -5.36125 13.595 -5 13 C-5.99 13 -6.98 13 -8 13 C-8.99 14.485 -8.99 14.485 -10 16 C-10.99 15.34 -11.98 14.68 -13 14 C-8.17525773 10.11340206 -8.17525773 10.11340206 -5.875 8.625 C-3.36995224 6.45395861 -2.36375356 3.98726971 -1 1 C-0.67 0.67 -0.34 0.34 0 0 Z " fill="#151515" transform="translate(355,257)"/>
<path d="M0 0 C1.8125 1.6875 1.8125 1.6875 3 4 C1.81059977 7.89019301 -0.18086076 10.99593435 -2.5 14.3125 C-3.1084375 15.19550781 -3.716875 16.07851563 -4.34375 16.98828125 C-4.8903125 17.65214844 -5.436875 18.31601562 -6 19 C-6.66 19 -7.32 19 -8 19 C-8 13.39 -8 7.78 -8 2 C-3 0 -3 0 0 0 Z " fill="#070707" transform="translate(8,16)"/>
<path d="M0 0 C0.80179688 0.05220703 1.60359375 0.10441406 2.4296875 0.15820312 C4.41179103 0.28798371 6.39344499 0.42459735 8.375 0.5625 C6.98288915 3.92676789 5.53652754 5.72203932 2.375 7.5625 C-0.0625 7.9609375 -0.0625 7.9609375 -2.625 7.9375 C-3.470625 7.94523438 -4.31625 7.95296875 -5.1875 7.9609375 C-8.05865432 7.4916142 -9.45941027 6.45739101 -11.625 4.5625 C-11.25 2.625 -11.25 2.625 -10.625 0.5625 C-7.2967269 -1.10163655 -3.62766027 -0.25617406 0 0 Z " fill="#111111" transform="translate(26.625,153.4375)"/>
<path d="M0 0 C7.17381818 1.07607273 7.17381818 1.07607273 9.38671875 3.55078125 C11.1029019 6.53017728 12.4551626 9.59476628 13 13 C9.66666667 11.33333333 6.33333333 9.66666667 3 8 C2.01 9.485 2.01 9.485 1 11 C0.34 10.01 -0.32 9.02 -1 8 C-0.5625 5.9375 -0.5625 5.9375 0 4 C-0.33 3.34 -0.66 2.68 -1 2 C-0.67 1.34 -0.34 0.68 0 0 Z " fill="#1E1E1E" transform="translate(21,13)"/>
<path d="M0 0 C0.66 0.33 1.32 0.66 2 1 C1.01 2.485 1.01 2.485 0 4 C0.99 4 1.98 4 3 4 C3 4.66 3 5.32 3 6 C4.32 6.33 5.64 6.66 7 7 C0.67572401 8.35991738 -5.56025419 9.37679879 -12 10 C-11.63108098 7.37843912 -11.32833246 6.2731196 -9.2578125 4.55078125 C-8.55398438 4.14214844 -7.85015625 3.73351562 -7.125 3.3125 C-6.42632812 2.89613281 -5.72765625 2.47976563 -5.0078125 2.05078125 C-3 1 -3 1 0 0 Z " fill="#E1E0E0" transform="translate(280,257)"/>
<path d="M0 0 C1.60294922 0.15275391 1.60294922 0.15275391 3.23828125 0.30859375 C4.45064453 0.43427734 4.45064453 0.43427734 5.6875 0.5625 C5.730221 2.22861905 5.72813832 3.89632885 5.6875 5.5625 C4.6875 6.5625 4.6875 6.5625 2.125 6.625 C0.9184375 6.5940625 0.9184375 6.5940625 -0.3125 6.5625 C-0.3125 6.2325 -0.3125 5.9025 -0.3125 5.5625 C-1.735625 5.6553125 -1.735625 5.6553125 -3.1875 5.75 C-4.21875 5.688125 -5.25 5.62625 -6.3125 5.5625 C-6.9725 4.5725 -7.6325 3.5825 -8.3125 2.5625 C-9.3025 1.9025 -10.2925 1.2425 -11.3125 0.5625 C-7.36602382 -0.42594951 -4.03857036 -0.39941905 0 0 Z " fill="#0F0F0F" transform="translate(283.3125,274.4375)"/>
<path d="M0 0 C1.23556641 0.01740234 1.23556641 0.01740234 2.49609375 0.03515625 C3.32238281 0.04417969 4.14867187 0.05320312 5 0.0625 C5.63808594 0.07410156 6.27617187 0.08570313 6.93359375 0.09765625 C3.7056782 2.24959995 2.64958566 2.29852068 -1.06640625 2.09765625 C-1.39640625 2.75765625 -1.72640625 3.41765625 -2.06640625 4.09765625 C-0.74640625 4.75765625 0.57359375 5.41765625 1.93359375 6.09765625 C-3.67640625 6.09765625 -9.28640625 6.09765625 -15.06640625 6.09765625 C-15.06640625 5.10765625 -15.06640625 4.11765625 -15.06640625 3.09765625 C-14.21175781 2.96488281 -13.35710937 2.83210938 -12.4765625 2.6953125 C-11.37183594 2.51871094 -10.26710938 2.34210938 -9.12890625 2.16015625 C-8.02675781 1.98613281 -6.92460937 1.81210937 -5.7890625 1.6328125 C-3.15500164 1.11507026 -2.51992567 0.11908911 0 0 Z " fill="#E5E5E5" transform="translate(287.06640625,268.90234375)"/>
<path d="M0 0 C0.99 0.66 1.98 1.32 3 2 C1.94844171 4.86788625 1.36380824 5.82276009 -1.4375 7.1875 C-2.283125 7.455625 -3.12875 7.72375 -4 8 C-4.99 8.33 -5.98 8.66 -7 9 C-7.6875 7.1875 -7.6875 7.1875 -8 5 C-6.07005952 2.257453 -4.20254368 1.64050874 -1 1 C-0.67 0.67 -0.34 0.34 0 0 Z " fill="#151515" transform="translate(226,416)"/>
<path d="M0 0 C0.66 0 1.32 0 2 0 C2 0.66 2 1.32 2 2 C3.98 1.67 5.96 1.34 8 1 C7.07038578 2.15224028 6.1309875 3.29659176 5.1875 4.4375 C4.40439453 5.39462891 4.40439453 5.39462891 3.60546875 6.37109375 C2 8 2 8 -1 9 C-1.33 9.66 -1.66 10.32 -2 11 C-2.25 3.375 -2.25 3.375 0 0 Z " fill="#2C2C2C" transform="translate(2,481)"/>
<path d="M0 0 C0.33 0.66 0.66 1.32 1 2 C0.67 2.66 0.34 3.32 0 4 C0.66 4.33 1.32 4.66 2 5 C1.34 5 0.68 5 0 5 C0 5.66 0 6.32 0 7 C-2.31 7.33 -4.62 7.66 -7 8 C-6.875 6.25 -6.875 6.25 -6 4 C-2.9375 1.75 -2.9375 1.75 0 0 Z " fill="#E8E8E8" transform="translate(275,259)"/>
<path d="M0 0 C-1 4 -1 4 -2 8 C-3.65 8 -5.3 8 -7 8 C-6.75 4.625 -6.75 4.625 -6 1 C-3.56217182 -0.88735085 -2.80901846 -1.40450923 0 0 Z " fill="#F4F4F4" transform="translate(296,254)"/>
<path d="M0 0 C6.75 0.75 6.75 0.75 9 3 C8.67 3.99 8.34 4.98 8 6 C5 4 5 4 4 3 C3.01 3.495 3.01 3.495 2 4 C2 4.66 2 5.32 2 6 C1.01 5.67 0.02 5.34 -1 5 C-0.67 3.35 -0.34 1.7 0 0 Z " fill="#0E0E0E" transform="translate(278,287)"/>
<path d="M0 0 C0.33 1.32 0.66 2.64 1 4 C-0.98 4.66 -2.96 5.32 -5 6 C-5.66 5.01 -6.32 4.02 -7 3 C-7.99 2.34 -8.98 1.68 -10 1 C-6.59437148 0.22157062 -3.49234244 -0.09978121 0 0 Z " fill="#161616" transform="translate(282,274)"/>
<path d="M0 0 C0.99 0.33 1.98 0.66 3 1 C2.52797514 5.24822374 0.03344482 7.19989709 -3 10 C-3.36923077 4.58461538 -3.36923077 4.58461538 -1.5 1.625 C-1.005 1.08875 -0.51 0.5525 0 0 Z " fill="#292929" transform="translate(344,277)"/>
<path d="M0 0 C3.79450934 0.39253545 5.51015791 2.24338912 8 5 C7.67 5.99 7.34 6.98 7 8 C4.03 7.505 4.03 7.505 1 7 C1.66 5.35 2.32 3.7 3 2 C1.68 1.67 0.36 1.34 -1 1 C-0.67 0.67 -0.34 0.34 0 0 Z " fill="#151515" transform="translate(51,264)"/>
<path d="M0 0 C1.32 0 2.64 0 4 0 C4 0.66 4 1.32 4 2 C2 3.625 2 3.625 0 5 C-0.5625 3.0625 -0.5625 3.0625 -1 1 C-0.67 0.67 -0.34 0.34 0 0 Z M-3 2 C-2.34 3.32 -1.68 4.64 -1 6 C-4 7 -4 7 -7 6 C-6.67 5.01 -6.34 4.02 -6 3 C-5.01 2.67 -4.02 2.34 -3 2 Z " fill="#050505" transform="translate(347,269)"/>
<path d="M0 0 C0.66 0.66 1.32 1.32 2 2 C1.01 2.99 0.02 3.98 -1 5 C0.98 5 2.96 5 5 5 C4.67 5.66 4.34 6.32 4 7 C-0.27343092 7.36629408 -2.48812804 6.40814077 -6 4 C-4.60804085 1.2160817 -2.84424221 1.02101003 0 0 Z " fill="#C5C5C5" transform="translate(274,281)"/>
<path d="M0 0 C0 3 0 3 -1.5625 5.75 C-2.7690625 6.86375 -2.7690625 6.86375 -4 8 C-7.75 7.8125 -7.75 7.8125 -11 7 C-8.45316295 3.88719916 -5.75704438 3.19905672 -2 2 C-1.34 1.34 -0.68 0.68 0 0 Z " fill="#242424" transform="translate(11,173)"/>
<path d="M0 0 C-1.47896592 4.43689776 -4.28145603 6.30726126 -8 9 C-8.33 8.01 -8.66 7.02 -9 6 C-3.15384615 0 -3.15384615 0 0 0 Z " fill="#101010" transform="translate(212,407)"/>
<path d="M0 0 C1.32 1.32 2.64 2.64 4 4 C2.02 4.99 0.04 5.98 -2 7 C-2.66 6.34 -3.32 5.68 -4 5 C-3.67 4.34 -3.34 3.68 -3 3 C-2.34 3 -1.68 3 -1 3 C-0.67 2.01 -0.34 1.02 0 0 Z " fill="#E9E9E9" transform="translate(200,408)"/>
<path d="M0 0 C2 3.75 2 3.75 2 6 C0.3545622 7.68762851 -1.31288577 9.3540349 -3 11 C-3.33 11.66 -3.66 12.32 -4 13 C-4.66 13 -5.32 13 -6 13 C-5.71382812 12.43796875 -5.42765625 11.8759375 -5.1328125 11.296875 C-3.98584069 8.97129077 -2.92160206 6.62229799 -1.875 4.25 C-1.52179687 3.45078125 -1.16859375 2.6515625 -0.8046875 1.828125 C-0.53914063 1.22484375 -0.27359375 0.6215625 0 0 Z " fill="#2C2C2C" transform="translate(25,289)"/>
<path d="M0 0 C0.99 0.33 1.98 0.66 3 1 C4.1875 3.5625 4.1875 3.5625 5 6 C3.35 6.66 1.7 7.32 0 8 C-0.98120464 4.94736336 -0.98120464 3.05263664 0 0 Z " fill="#4D4D4D" transform="translate(77,136)"/>
<path d="M0 0 C3.125 -0.1875 3.125 -0.1875 6 0 C3.53846154 4.8 3.53846154 4.8 0.8125 5.8125 C0.214375 5.874375 -0.38375 5.93625 -1 6 C-1.33 5.01 -1.66 4.02 -2 3 C-1.34 2.01 -0.68 1.02 0 0 Z " fill="#D8D8D8" transform="translate(265,294)"/>
<path d="M0 0 C1.875 1.5 1.875 1.5 3 3 C0.36 3.66 -2.28 4.32 -5 5 C-5 4.01 -5 3.02 -5 2 C-5.99 1.67 -6.98 1.34 -8 1 C-5.20129973 -0.39935013 -3.09501208 -0.25265405 0 0 Z " fill="#DFDFDF" transform="translate(284,279)"/>
<path d="M0 0 C1 1 2 2 3 3 C3.886875 3.825 4.77375 4.65 5.6875 5.5 C8 8 8 8 8 11 C2.125 7.25 2.125 7.25 1 5 C0.01 4.34 -0.98 3.68 -2 3 C-1.34 2.67 -0.68 2.34 0 2 C0 1.34 0 0.68 0 0 Z " fill="#9E9E9E" transform="translate(82,143)"/>
<path d="M0 0 C0.66 0.33 1.32 0.66 2 1 C2 1.99 2 2.98 2 4 C1.05125 4.45375 0.1025 4.9075 -0.875 5.375 C-4.00313679 6.80238254 -4.00313679 6.80238254 -6 9 C-6.33 8.01 -6.66 7.02 -7 6 C-4.69 4.02 -2.38 2.04 0 0 Z " fill="#1C1C1C" transform="translate(46,267)"/>
<path d="M0 0 C0.33 0.66 0.66 1.32 1 2 C1.66 2.33 2.32 2.66 3 3 C2.34 3.66 1.68 4.32 1 5 C0.67 5.99 0.34 6.98 0 8 C-0.66 8 -1.32 8 -2 8 C-2 8.99 -2 9.98 -2 11 C-2.66 10.67 -3.32 10.34 -4 10 C-2.68 6.7 -1.36 3.4 0 0 Z " fill="#323232" transform="translate(126,341)"/>
<path d="M0 0 C2.02350324 3.03525486 2.32124018 4.19426202 2.625 7.6875 C2.69976562 8.49574219 2.77453125 9.30398437 2.8515625 10.13671875 C2.92503906 11.05904297 2.92503906 11.05904297 3 12 C1.5 10.75 1.5 10.75 0 9 C0 7.68 0 6.36 0 5 C-0.66 4.34 -1.32 3.68 -2 3 C-1.34 3 -0.68 3 0 3 C0 2.01 0 1.02 0 0 Z " fill="#606060" transform="translate(43,49)"/>
<path d="M0 0 C0.99 0.33 1.98 0.66 3 1 C0.25 6.875 0.25 6.875 -2 8 C-2.6875 6.25 -2.6875 6.25 -3 4 C-1.5625 1.75 -1.5625 1.75 0 0 Z " fill="#3E3E3E" transform="translate(351,270)"/>
<path d="M0 0 C3.93673644 1.31224548 6.22719294 2.91910327 9 6 C6.03 5.01 3.06 4.02 0 3 C0 2.01 0 1.02 0 0 Z " fill="#1E1E1E" transform="translate(51,219)"/>
<path d="M0 0 C0 3.86695678 -1.41909971 6.5088452 -3 10 C-3.66 9.67 -4.32 9.34 -5 9 C-3.90931332 5.22454612 -3.0916909 2.52956528 0 0 Z " fill="#CFCFCF" transform="translate(60,293)"/>
<path d="M0 0 C1.98 0.495 1.98 0.495 4 1 C3.67 2.32 3.34 3.64 3 5 C1.68 5.33 0.36 5.66 -1 6 C-0.67 4.02 -0.34 2.04 0 0 Z " fill="#121212" transform="translate(58,274)"/>
<path d="M0 0 C0.99 0.33 1.98 0.66 3 1 C3.6875 3.0625 3.6875 3.0625 4 5 C3.01 5.33 2.02 5.66 1 6 C0.34 4.35 -0.32 2.7 -1 1 C-0.67 0.67 -0.34 0.34 0 0 Z " fill="#0A0A0A" transform="translate(75,236)"/>
<path d="M0 0 C0.33 0.66 0.66 1.32 1 2 C-2.07999946 5.67230705 -4.2482602 6.56802365 -9 7 C-6.62997587 4.38049964 -4.04546021 2.76316117 -1 1 C-0.67 0.67 -0.34 0.34 0 0 Z " fill="#D8D8D8" transform="translate(358,216)"/>
<path d="M0 0 C2.0625 0.4375 2.0625 0.4375 4 1 C3.67 2.32 3.34 3.64 3 5 C2.01 5 1.02 5 0 5 C-0.5625 3.0625 -0.5625 3.0625 -1 1 C-0.67 0.67 -0.34 0.34 0 0 Z " fill="#484848" transform="translate(36,33)"/>
<path d="M0 0 C1.32 0.66 2.64 1.32 4 2 C2.74458443 4.51083114 1.49936512 4.87125446 -1 6 C-1.33 5.01 -1.66 4.02 -2 3 C-1.34 2.01 -0.68 1.02 0 0 Z " fill="#F6F6F6" transform="translate(8,25)"/>
<path d="M0 0 C0.66 1.32 1.32 2.64 2 4 C1.34 4 0.68 4 0 4 C0 4.66 0 5.32 0 6 C-1.32 5.34 -2.64 4.68 -4 4 C-3.67 3.34 -3.34 2.68 -3 2 C-2.01 2 -1.02 2 0 2 C0 1.34 0 0.68 0 0 Z " fill="#101010" transform="translate(109,401)"/>
<path d="M0 0 C0.99 0.66 1.98 1.32 3 2 C1.68 3.32 0.36 4.64 -1 6 C-1.99 5.67 -2.98 5.34 -4 5 C-2.68 3.35 -1.36 1.7 0 0 Z " fill="#ECECEC" transform="translate(341,268)"/>
<path d="M0 0 C2.475 0.99 2.475 0.99 5 2 C4.67 2.66 4.34 3.32 4 4 C2.35 3.67 0.7 3.34 -1 3 C-0.67 2.01 -0.34 1.02 0 0 Z " fill="#191919" transform="translate(9,220)"/>
<path d="M0 0 C0.66 0.33 1.32 0.66 2 1 C2 1.99 2 2.98 2 4 C0.35 4.33 -1.3 4.66 -3 5 C-2.625 3.0625 -2.625 3.0625 -2 1 C-1.34 0.67 -0.68 0.34 0 0 Z " fill="#0E0E0E" transform="translate(377,203)"/>
<path d="" fill="#FFFFFF" transform="translate(0,0)"/>
<path d="" fill="#FFFFFF" transform="translate(0,0)"/>
<path d="" fill="#FFFFFF" transform="translate(0,0)"/>
<path d="" fill="#FFFFFF" transform="translate(0,0)"/>
<path d="" fill="#FFFFFF" transform="translate(0,0)"/>
<path d="" fill="#FFFFFF" transform="translate(0,0)"/>
<path d="" fill="#FFFFFF" transform="translate(0,0)"/>
<path d="" fill="#FFFFFF" transform="translate(0,0)"/>
<path d="" fill="#FFFFFF" transform="translate(0,0)"/>
<path d="" fill="#FFFFFF" transform="translate(0,0)"/>
<path d="" fill="#FFFFFF" transform="translate(0,0)"/>
<path d="" fill="#FFFFFF" transform="translate(0,0)"/>
<path d="" fill="#FFFFFF" transform="translate(0,0)"/>
<path d="" fill="#FFFFFF" transform="translate(0,0)"/>
<path d="" fill="#FFFFFF" transform="translate(0,0)"/>
<path d="" fill="#FFFFFF" transform="translate(0,0)"/>
<path d="" fill="#FFFFFF" transform="translate(0,0)"/>
<path d="" fill="#FFFFFF" transform="translate(0,0)"/>
<path d="" fill="#FFFFFF" transform="translate(0,0)"/>
<path d="" fill="#FFFFFF" transform="translate(0,0)"/>
<path d="" fill="#FFFFFF" transform="translate(0,0)"/>
<path d="" fill="#FFFFFF" transform="translate(0,0)"/>
<path d="" fill="#FFFFFF" transform="translate(0,0)"/>
<path d="" fill="#FFFFFF" transform="translate(0,0)"/>
<path d="" fill="#FFFFFF" transform="translate(0,0)"/>
<path d="" fill="#FFFFFF" transform="translate(0,0)"/>
<path d="" fill="#FFFFFF" transform="translate(0,0)"/>
<path d="" fill="#FFFFFF" transform="translate(0,0)"/>
<path d="" fill="#FFFFFF" transform="translate(0,0)"/>
<path d="" fill="#FFFFFF" transform="translate(0,0)"/>
<path d="" fill="#FFFFFF" transform="translate(0,0)"/>
<path d="" fill="#FFFFFF" transform="translate(0,0)"/>
<path d="" fill="#FFFFFF" transform="translate(0,0)"/>
<path d="" fill="#FFFFFF" transform="translate(0,0)"/>
<path d="" fill="#FFFFFF" transform="translate(0,0)"/>
<path d="" fill="#FFFFFF" transform="translate(0,0)"/>
<path d="" fill="#FFFFFF" transform="translate(0,0)"/>
<path d="" fill="#FFFFFF" transform="translate(0,0)"/>
<path d="" fill="#FFFFFF" transform="translate(0,0)"/>
<path d="" fill="#FFFFFF" transform="translate(0,0)"/>
<path d="" fill="#FFFFFF" transform="translate(0,0)"/>
<path d="" fill="#FFFFFF" transform="translate(0,0)"/>
<path d="" fill="#FFFFFF" transform="translate(0,0)"/>
<path d="" fill="#FFFFFF" transform="translate(0,0)"/>
<path d="" fill="#FFFFFF" transform="translate(0,0)"/>
<path d="" fill="#FFFFFF" transform="translate(0,0)"/>
<path d="" fill="#FFFFFF" transform="translate(0,0)"/>
<path d="" fill="#FFFFFF" transform="translate(0,0)"/>
<path d="" fill="#FFFFFF" transform="translate(0,0)"/>
<path d="" fill="#FFFFFF" transform="translate(0,0)"/>
<path d="" fill="#FFFFFF" transform="translate(0,0)"/>
<path d="" fill="#FFFFFF" transform="translate(0,0)"/>
<path d="" fill="#FFFFFF" transform="translate(0,0)"/>
</svg>
