<?xml version="1.0" encoding="UTF-8"?>
<svg version="1.1" xmlns="http://www.w3.org/2000/svg" width="525" height="475">
<path d="M0 0 C173.25 0 346.5 0 525 0 C525 156.75 525 313.5 525 475 C351.75 475 178.5 475 0 475 C0 318.25 0 161.5 0 0 Z " fill="#FD0204" transform="translate(0,0)"/>
<path d="M0 0 C173.25 0 346.5 0 525 0 C525 156.75 525 313.5 525 475 C351.75 475 178.5 475 0 475 C0 318.25 0 161.5 0 0 Z M105 26 C105 39.2 105 52.4 105 66 C91.8 66 78.6 66 65 66 C65 79.2 65 92.4 65 106 C51.8 106 38.6 106 25 106 C25 159.13 25 212.26 25 267 C38.2 267 51.4 267 65 267 C65 280.2 65 293.4 65 307 C78.53 307 92.06 307 106 307 C106 320.2 106 333.4 106 347 C119.2 347 132.4 347 146 347 C146 360.2 146 373.4 146 387 C159.2 387 172.4 387 186 387 C186 400.2 186 413.4 186 427 C199.2 427 212.4 427 226 427 C225.9375 446.9375 225.9375 446.9375 225.90991211 453.23803711 C225.90699299 454.87613866 225.90444442 456.51424094 225.90234375 458.15234375 C225.89722778 459.01089966 225.89211182 459.86945557 225.88684082 460.75402832 C225.8865309 462.83636052 225.93757824 464.9186036 226 467 C227.70563104 468.70563104 229.8516213 468.12587612 232.12675476 468.13552856 C232.86029678 468.13350433 233.59383881 468.1314801 234.34960938 468.12939453 C235.50321709 468.13202301 235.50321709 468.13202301 236.68013 468.13470459 C239.23469263 468.1391234 241.78918661 468.13618502 244.34375 468.1328125 C246.11112481 468.13348553 247.87849953 468.13445555 249.64587402 468.13571167 C253.35490803 468.13718868 257.063918 468.13503398 260.77294922 468.13037109 C265.53822493 468.1246738 270.30344432 468.12795279 275.06871796 468.13394356 C278.71971057 468.13754908 282.37068973 468.13641062 286.02168274 468.13381577 C287.77924099 468.13314647 289.53680045 468.133975 291.2943573 468.13629532 C293.74640154 468.13882171 296.19835331 468.13498146 298.65039062 468.12939453 C299.75070366 468.13243088 299.75070366 468.13243088 300.87324524 468.13552856 C304.22137383 468.41575358 304.22137383 468.41575358 307 467 C307.08867636 464.04316769 307.11527527 461.10914786 307.09765625 458.15234375 C307.09664917 457.36702271 307.09564209 456.58170166 307.09460449 455.77258301 C307.08935638 452.82754057 307.07539523 449.88251888 307.0625 446.9375 C307.041875 440.358125 307.02125 433.77875 307 427 C320.2 427 333.4 427 347 427 C347 413.8 347 400.6 347 387 C360.2 387 373.4 387 387 387 C387 373.8 387 360.6 387 347 C400.2 347 413.4 347 427 347 C427 333.8 427 320.6 427 307 C440.2 307 453.4 307 467 307 C467 293.8 467 280.6 467 267 C480.53 267 494.06 267 508 267 C508.02254545 246.15586097 508.04097826 225.31173177 508.05181217 204.46758366 C508.05697553 194.78998949 508.06401897 185.11240342 508.07543945 175.43481445 C508.08538509 167.00299669 508.09185314 158.57118479 508.09408849 150.13936132 C508.09539581 145.67192608 508.09848295 141.2045076 508.10573006 136.73707771 C508.11248838 132.5371584 508.11461735 128.33726287 508.11310768 124.13733864 C508.11338409 122.59131491 508.11539033 121.04529044 508.11920547 119.49927139 C508.1241398 117.39764224 508.12299928 115.29610428 508.12025452 113.19447327 C508.12117631 112.01550004 508.1220981 110.83652681 508.12304783 109.62182713 C508.29827555 107.07388228 508.29827555 107.07388228 507 106 C504.04316769 105.91132364 501.10914786 105.88472473 498.15234375 105.90234375 C497.36702271 105.90335083 496.58170166 105.90435791 495.77258301 105.90539551 C492.82754057 105.91064362 489.88251888 105.92460477 486.9375 105.9375 C480.358125 105.958125 473.77875 105.97875 467 106 C467 92.8 467 79.6 467 66 C453.8 66 440.6 66 427 66 C427 52.8 427 39.6 427 26 C387.07 26 347.14 26 306 26 C306 39.2 306 52.4 306 66 C279.93 66 253.86 66 227 66 C227 52.8 227 39.6 227 26 C186.74 26 146.48 26 105 26 Z " fill="#FEFEFE" transform="translate(0,0)"/>
<path d="M0 0 C40.26 0 80.52 0 122 0 C122 13.2 122 26.4 122 40 C148.07 40 174.14 40 201 40 C201 26.8 201 13.6 201 0 C240.93 0 280.86 0 322 0 C322 13.2 322 26.4 322 40 C335.2 40 348.4 40 362 40 C362 53.2 362 66.4 362 80 C375.11903899 79.96039538 375.11903899 79.96039538 388.23803711 79.90991211 C389.87613866 79.90699299 391.51424094 79.90444442 393.15234375 79.90234375 C394.44017761 79.8946698 394.44017761 79.8946698 395.75402832 79.88684082 C397.83636052 79.8865309 399.9186036 79.93757824 402 80 C403 81 403 81 403.12304783 83.62182713 C403.12212604 84.80080035 403.12120424 85.97977358 403.12025452 87.19447327 C403.12153615 88.17580747 403.12153615 88.17580747 403.12284368 89.17696661 C403.12450028 91.38501343 403.11897421 93.59298548 403.11352539 95.80102539 C403.11324353 97.37750751 403.11340123 98.95398976 403.1139679 100.5304718 C403.11425592 104.82367549 403.1083584 109.11685149 403.10139394 113.41004872 C403.09516121 117.89172683 403.09455667 122.37340551 403.09336853 126.85508728 C403.09025497 135.34780909 403.08204126 143.84051809 403.07201904 152.33323425 C403.06085866 161.99933539 403.05534764 171.66543712 403.05032361 181.33154309 C403.03985866 201.22103747 403.02151288 221.11051429 403 241 C389.47 241 375.94 241 362 241 C362 254.2 362 267.4 362 281 C348.8 281 335.6 281 322 281 C322 294.2 322 307.4 322 321 C308.8 321 295.6 321 282 321 C282 334.2 282 347.4 282 361 C268.8 361 255.6 361 242 361 C242 374.2 242 387.4 242 401 C228.8 401 215.6 401 202 401 C202.03960462 414.11903899 202.03960462 414.11903899 202.09008789 427.23803711 C202.09300701 428.87613866 202.09555558 430.51424094 202.09765625 432.15234375 C202.10277222 433.01089966 202.10788818 433.86945557 202.11315918 434.75402832 C202.1134691 436.83636052 202.06242176 438.9186036 202 441 C200.29436896 442.70563104 198.1483787 442.12587612 195.87324524 442.13552856 C194.77293221 442.13249222 194.77293221 442.13249222 193.65039062 442.12939453 C192.88131882 442.13114685 192.11224701 442.13289917 191.31987 442.13470459 C188.76530737 442.1391234 186.21081339 442.13618502 183.65625 442.1328125 C181.88887519 442.13348553 180.12150047 442.13445555 178.35412598 442.13571167 C174.64509197 442.13718868 170.936082 442.13503398 167.22705078 442.13037109 C162.46177507 442.1246738 157.69655568 442.12795279 152.93128204 442.13394356 C149.28028943 442.13754908 145.62931027 442.13641062 141.97831726 442.13381577 C140.22075901 442.13314647 138.46319955 442.133975 136.7056427 442.13629532 C134.25359846 442.13882171 131.80164669 442.13498146 129.34960938 442.12939453 C128.61606735 442.13141876 127.88252533 442.13344299 127.12675476 442.13552856 C122.11426264 442.11426264 122.11426264 442.11426264 121 441 C120.91131701 438.04294679 120.88479704 435.10934944 120.90234375 432.15234375 C120.90446617 430.82270348 120.90446617 430.82270348 120.90663147 429.46620178 C120.91224785 426.62326746 120.92480309 423.78041069 120.9375 420.9375 C120.94251289 419.01497509 120.94707616 417.09244896 120.95117188 415.16992188 C120.96222259 410.44658451 120.97949817 405.72330542 121 401 C122.01795654 400.98018066 123.03591309 400.96036133 124.0847168 400.93994141 C148.75845695 400.44693613 173.36664565 399.49603204 198 398 C199.49983085 395.0003383 199.23902055 391.88053039 199.31640625 388.5859375 C199.3475779 387.49147812 199.3475779 387.49147812 199.37937927 386.37490845 C199.44481917 384.04170237 199.50373368 381.70838279 199.5625 379.375 C199.60569053 377.79425905 199.64930499 376.21352961 199.69335938 374.6328125 C199.80049481 370.75532496 199.90177782 366.87772315 200 363 C200.66 363 201.32 363 202 363 C202 362.34 202 361.68 202 361 C221.305 360.505 221.305 360.505 241 360 C241.33 347.13 241.66 334.26 242 321 C254.87 321 267.74 321 281 321 C281.33 294.6 281.66 268.2 282 241 C294.87 240.67 307.74 240.34 321 240 C321 187.86 321 135.72 321 82 C301.695 81.505 301.695 81.505 282 81 C282 67.8 282 54.6 282 41 C268.33880961 41.14873131 268.33880961 41.14873131 254.67773438 41.30664062 C249.10964669 41.37304297 243.54156071 41.43834816 237.97338867 41.49731445 C233.48649883 41.54489685 228.99968788 41.59723717 224.51289177 41.65294075 C222.79721975 41.67339216 221.08152607 41.69210053 219.36581612 41.70907402 C216.97109231 41.73305665 214.57651898 41.76311912 212.18188477 41.79467773 C211.46547318 41.8004332 210.74906158 41.80618866 210.01094055 41.81211853 C206.72243051 41.58238175 206.72243051 41.58238175 204 43 C203.86459355 45.62928475 203.78944214 48.23602287 203.75390625 50.8671875 C203.72096553 52.49089076 203.68775392 54.11458855 203.65429688 55.73828125 C203.60687207 58.30806671 203.56245676 60.8778303 203.52319336 63.44775391 C203.48349941 65.92113838 203.43194431 68.39405828 203.37890625 70.8671875 C203.3704921 71.63602264 203.36207794 72.40485779 203.35340881 73.19699097 C203.26568843 76.97785883 203.14720804 78.77918793 201 82 C198.39712638 82.2864952 196.03294626 82.37848245 193.42919922 82.34057617 C192.64862152 82.34101425 191.86804382 82.34145233 191.06381226 82.34190369 C188.47718511 82.33980941 185.89120176 82.31644883 183.3046875 82.29296875 C181.51392979 82.28737506 179.7231675 82.28310389 177.93240356 82.28010559 C173.21404392 82.26863895 168.49596036 82.23915625 163.77770996 82.20599365 C158.96512589 82.17533187 154.1524973 82.1616086 149.33984375 82.14648438 C139.89310772 82.11428819 130.4465768 82.06306998 121 82 C115.02970315 70.05940631 119.35119393 55.34536942 119 42 C61.085 41.505 61.085 41.505 2 41 C-1.07756005 60.75761794 -1.07756005 60.75761794 4 77 C6.40250532 77.12489698 8.77772785 77.1860079 11.18188477 77.20532227 C11.93305573 77.21522186 12.68422668 77.22512146 13.4581604 77.23532104 C15.95254312 77.26702546 18.44694491 77.29172859 20.94140625 77.31640625 C22.66634123 77.33696807 24.39127108 77.35796433 26.11619568 77.37937927 C30.66506814 77.43467971 35.21398667 77.48405369 39.76293945 77.53222656 C44.40124633 77.58238354 49.03948598 77.63809983 53.67773438 77.69335938 C62.78509888 77.80103839 71.89252165 77.90246157 81 78 C82.71376612 81.42753224 82.1414536 85.35796744 82.1328125 89.12890625 C82.13376923 90.03374252 82.13472595 90.9385788 82.13571167 91.87083435 C82.13639273 93.78490264 82.13454361 95.69897324 82.13037109 97.61303711 C82.12501561 100.55392604 82.13032178 103.49466267 82.13671875 106.43554688 C82.13605808 108.29166701 82.13477714 110.14778704 82.1328125 112.00390625 C82.13483673 112.88929581 82.13686096 113.77468536 82.13894653 114.68690491 C82.11495408 120.88504592 82.11495408 120.88504592 81 122 C78.1883662 122.08861992 75.40141745 122.11522355 72.58984375 122.09765625 C71.74780899 122.0962413 70.90577423 122.09482635 70.03822327 122.09336853 C67.33794665 122.08775263 64.63775172 122.07519748 61.9375 122.0625 C60.11132932 122.05748705 58.28515734 122.05292379 56.45898438 122.04882812 C51.97262458 122.03777804 47.48632616 122.02050279 43 122 C43.01047363 123.14065918 43.02094727 124.28131836 43.03173828 125.45654297 C43.06787717 129.67949294 43.09087812 133.90242919 43.10986328 138.12548828 C43.11993484 139.95493873 43.13359276 141.78437303 43.15087891 143.61376953 C43.17507677 146.23994934 43.18647132 148.86591675 43.1953125 151.4921875 C43.20563507 152.31306854 43.21595764 153.13394958 43.22659302 153.97970581 C43.22699184 155.98789142 43.1224954 157.99555382 43 160 C41 162 41 162 37.00927734 162.22705078 C35.28479831 162.22673337 33.56029967 162.21539124 31.8359375 162.1953125 C30.47512558 162.19106766 30.47512558 162.19106766 29.08682251 162.18673706 C26.18274877 162.17552153 23.27898088 162.15041463 20.375 162.125 C18.40885861 162.11497197 16.4427124 162.10584581 14.4765625 162.09765625 C9.65092341 162.07557772 4.8255136 162.04103865 0 162 C-1.50252915 158.9949417 -1.12992759 155.90743067 -1.11352539 152.61279297 C-1.11367142 151.85172241 -1.11381744 151.09065186 -1.1139679 150.30651855 C-1.11326993 147.78504611 -1.10548294 145.26364708 -1.09765625 142.7421875 C-1.09579166 140.99626709 -1.09436795 139.25034616 -1.09336853 137.50442505 C-1.08954659 132.90454672 -1.07971905 128.30469986 -1.06866455 123.70483398 C-1.05664709 118.18822378 -1.05204665 112.67160306 -1.04621124 107.15498352 C-1.03650714 98.76996711 -1.01734832 90.38501978 -1 82 C-12.88 82 -24.76 82 -37 82 C-37 133.81 -37 185.62 -37 239 C-25.12 239 -13.24 239 -1 239 C-1.02320312 236.28007812 -1.04640625 233.56015625 -1.0703125 230.7578125 C-1.08589993 228.13005032 -1.09804984 225.50229325 -1.10986328 222.87451172 C-1.11993484 221.04506127 -1.13359276 219.21562697 -1.15087891 217.38623047 C-1.17507677 214.76005066 -1.18647132 212.13408325 -1.1953125 209.5078125 C-1.20563507 208.68693146 -1.21595764 207.86605042 -1.22659302 207.02029419 C-1.22699184 205.01210858 -1.1224954 203.00444618 -1 201 C1.6572762 198.3427238 3.65802123 198.73985382 7.27392578 198.69645691 C8.56145752 198.69782402 8.56145752 198.69782402 9.875 198.69921875 C10.75526855 198.69493362 11.63553711 198.6906485 12.54248047 198.68623352 C14.40526468 198.68048559 16.26807134 198.67999336 18.13085938 198.68432617 C20.98866841 198.68748747 23.84544397 198.66402862 26.703125 198.63867188 C28.51041535 198.63639915 30.31770851 198.63569526 32.125 198.63671875 C32.98335449 198.627509 33.84170898 198.61829926 34.72607422 198.60881042 C37.1328125 198.62768555 37.1328125 198.62768555 41 199 C43.61388261 202.92082392 43.26961163 206.24338583 43.23046875 210.7890625 C43.23001053 211.64809174 43.22955231 212.50712097 43.2290802 213.3921814 C43.22606083 215.20612979 43.21818395 217.02007567 43.20581055 218.83398438 C43.18752502 221.62118636 43.18530109 224.40805673 43.18554688 227.1953125 C43.18063274 228.95573206 43.17480488 230.71614936 43.16796875 232.4765625 C43.16685593 233.31506744 43.1657431 234.15357239 43.16459656 235.01748657 C43.11605613 240.88394387 43.11605613 240.88394387 42 242 C39.04294679 242.08868299 36.10934944 242.11520296 33.15234375 242.09765625 C31.82270348 242.09553383 31.82270348 242.09553383 30.46620178 242.09336853 C27.62326746 242.08775215 24.78041069 242.07519691 21.9375 242.0625 C20.01497509 242.05748711 18.09244896 242.05292384 16.16992188 242.04882812 C11.44656036 242.03862648 6.72336742 242.01905437 2 242 C2.33 254.54 2.66 267.08 3 280 C14.75759129 279.96042262 14.75759129 279.96042262 26.51513672 279.90991211 C27.98665291 279.90699212 29.45816991 279.90444376 30.9296875 279.90234375 C31.69676025 279.89722778 32.46383301 279.89211182 33.25415039 279.88684082 C38.7718564 279.8859282 38.7718564 279.8859282 41 281 C41 294.2 41 307.4 41 321 C27.8 321 14.6 321 1 321 C1 307.8 1 294.6 1 281 C-12.53 281 -26.06 281 -40 281 C-40 267.8 -40 254.6 -40 241 C-53.2 241 -66.4 241 -80 241 C-80 187.87 -80 134.74 -80 80 C-66.8 80 -53.6 80 -40 80 C-40 66.8 -40 53.6 -40 40 C-26.8 40 -13.6 40 0 40 C0 26.8 0 13.6 0 0 Z " fill="#1A0203" transform="translate(105,26)"/>
<path d="M0 0 C40.26 0 80.52 0 122 0 C122 26.4 122 52.8 122 80 C148.07 80 174.14 80 201 80 C201 80.66 201 81.32 201 82 C174.6 82 148.2 82 121 82 C115.02970315 70.05940631 119.35119393 55.34536942 119 42 C61.085 41.505 61.085 41.505 2 41 C-1.07756005 60.75761794 -1.07756005 60.75761794 4 77 C6.40250532 77.12489698 8.77772785 77.1860079 11.18188477 77.20532227 C11.93305573 77.21522186 12.68422668 77.22512146 13.4581604 77.23532104 C15.95254312 77.26702546 18.44694491 77.29172859 20.94140625 77.31640625 C22.66634123 77.33696807 24.39127108 77.35796433 26.11619568 77.37937927 C30.66506814 77.43467971 35.21398667 77.48405369 39.76293945 77.53222656 C44.40124633 77.58238354 49.03948598 77.63809983 53.67773438 77.69335938 C62.78509888 77.80103839 71.89252165 77.90246157 81 78 C82.71376612 81.42753224 82.1414536 85.35796744 82.1328125 89.12890625 C82.13376923 90.03374252 82.13472595 90.9385788 82.13571167 91.87083435 C82.13639273 93.78490264 82.13454361 95.69897324 82.13037109 97.61303711 C82.12501561 100.55392604 82.13032178 103.49466267 82.13671875 106.43554688 C82.13605808 108.29166701 82.13477714 110.14778704 82.1328125 112.00390625 C82.13483673 112.88929581 82.13686096 113.77468536 82.13894653 114.68690491 C82.11495408 120.88504592 82.11495408 120.88504592 81 122 C78.1883662 122.08861992 75.40141745 122.11522355 72.58984375 122.09765625 C71.74780899 122.0962413 70.90577423 122.09482635 70.03822327 122.09336853 C67.33794665 122.08775263 64.63775172 122.07519748 61.9375 122.0625 C60.11132932 122.05748705 58.28515734 122.05292379 56.45898438 122.04882812 C51.97262458 122.03777804 47.48632616 122.02050279 43 122 C43.01047363 123.14065918 43.02094727 124.28131836 43.03173828 125.45654297 C43.06787717 129.67949294 43.09087812 133.90242919 43.10986328 138.12548828 C43.11993484 139.95493873 43.13359276 141.78437303 43.15087891 143.61376953 C43.17507677 146.23994934 43.18647132 148.86591675 43.1953125 151.4921875 C43.20563507 152.31306854 43.21595764 153.13394958 43.22659302 153.97970581 C43.22699184 155.98789142 43.1224954 157.99555382 43 160 C41 162 41 162 37.00927734 162.22705078 C35.28479831 162.22673337 33.56029967 162.21539124 31.8359375 162.1953125 C30.47512558 162.19106766 30.47512558 162.19106766 29.08682251 162.18673706 C26.18274877 162.17552153 23.27898088 162.15041463 20.375 162.125 C18.40885861 162.11497197 16.4427124 162.10584581 14.4765625 162.09765625 C9.65092341 162.07557772 4.8255136 162.04103865 0 162 C-1.50252915 158.9949417 -1.12992759 155.90743067 -1.11352539 152.61279297 C-1.11367142 151.85172241 -1.11381744 151.09065186 -1.1139679 150.30651855 C-1.11326993 147.78504611 -1.10548294 145.26364708 -1.09765625 142.7421875 C-1.09579166 140.99626709 -1.09436795 139.25034616 -1.09336853 137.50442505 C-1.08954659 132.90454672 -1.07971905 128.30469986 -1.06866455 123.70483398 C-1.05664709 118.18822378 -1.05204665 112.67160306 -1.04621124 107.15498352 C-1.03650714 98.76996711 -1.01734832 90.38501978 -1 82 C-12.88 82 -24.76 82 -37 82 C-37 133.81 -37 185.62 -37 239 C-25.12 239 -13.24 239 -1 239 C-1.02320312 236.28007812 -1.04640625 233.56015625 -1.0703125 230.7578125 C-1.08589993 228.13005032 -1.09804984 225.50229325 -1.10986328 222.87451172 C-1.11993484 221.04506127 -1.13359276 219.21562697 -1.15087891 217.38623047 C-1.17507677 214.76005066 -1.18647132 212.13408325 -1.1953125 209.5078125 C-1.20563507 208.68693146 -1.21595764 207.86605042 -1.22659302 207.02029419 C-1.22699184 205.01210858 -1.1224954 203.00444618 -1 201 C1.6572762 198.3427238 3.65802123 198.73985382 7.27392578 198.69645691 C8.56145752 198.69782402 8.56145752 198.69782402 9.875 198.69921875 C10.75526855 198.69493362 11.63553711 198.6906485 12.54248047 198.68623352 C14.40526468 198.68048559 16.26807134 198.67999336 18.13085938 198.68432617 C20.98866841 198.68748747 23.84544397 198.66402862 26.703125 198.63867188 C28.51041535 198.63639915 30.31770851 198.63569526 32.125 198.63671875 C32.98335449 198.627509 33.84170898 198.61829926 34.72607422 198.60881042 C37.1328125 198.62768555 37.1328125 198.62768555 41 199 C43.61388261 202.92082392 43.26961163 206.24338583 43.23046875 210.7890625 C43.23001053 211.64809174 43.22955231 212.50712097 43.2290802 213.3921814 C43.22606083 215.20612979 43.21818395 217.02007567 43.20581055 218.83398438 C43.18752502 221.62118636 43.18530109 224.40805673 43.18554688 227.1953125 C43.18063274 228.95573206 43.17480488 230.71614936 43.16796875 232.4765625 C43.16685593 233.31506744 43.1657431 234.15357239 43.16459656 235.01748657 C43.11605613 240.88394387 43.11605613 240.88394387 42 242 C39.04294679 242.08868299 36.10934944 242.11520296 33.15234375 242.09765625 C31.82270348 242.09553383 31.82270348 242.09553383 30.46620178 242.09336853 C27.62326746 242.08775215 24.78041069 242.07519691 21.9375 242.0625 C20.01497509 242.05748711 18.09244896 242.05292384 16.16992188 242.04882812 C11.44656036 242.03862648 6.72336742 242.01905437 2 242 C2.33 254.54 2.66 267.08 3 280 C14.75759129 279.96042262 14.75759129 279.96042262 26.51513672 279.90991211 C27.98665291 279.90699212 29.45816991 279.90444376 30.9296875 279.90234375 C31.69676025 279.89722778 32.46383301 279.89211182 33.25415039 279.88684082 C38.7718564 279.8859282 38.7718564 279.8859282 41 281 C41 294.2 41 307.4 41 321 C27.8 321 14.6 321 1 321 C1 307.8 1 294.6 1 281 C-12.53 281 -26.06 281 -40 281 C-40 267.8 -40 254.6 -40 241 C-53.2 241 -66.4 241 -80 241 C-80 187.87 -80 134.74 -80 80 C-66.8 80 -53.6 80 -40 80 C-40 66.8 -40 53.6 -40 40 C-26.8 40 -13.6 40 0 40 C0 26.8 0 13.6 0 0 Z " fill="#A32D2D" transform="translate(105,26)"/>
<path d="M0 0 C20.40458904 -0.0227394 40.80916752 -0.04108985 61.2137661 -0.05181217 C70.69199458 -0.05692723 80.17021451 -0.06387629 89.6484375 -0.07543945 C97.92785353 -0.08553512 106.20726337 -0.09188805 114.4866854 -0.09408849 C118.85400959 -0.09537088 123.22131608 -0.09829382 127.58863449 -0.10573006 C145.1394808 -0.13437096 162.67627417 -0.04784602 180.22119141 0.44360352 C180.95728535 0.46307537 181.6933793 0.48254722 182.45177913 0.50260913 C184.5095354 0.55861499 186.56695082 0.62139818 188.62442017 0.68702698 C189.78783243 0.72306314 190.9512447 0.75909929 192.14991188 0.79622746 C195 1 195 1 198 2 C198.98295615 6.0574512 199.07587189 9.778273 198.9921875 13.9453125 C198.97468452 15.28254467 198.95777497 16.61978472 198.94140625 17.95703125 C198.91036584 20.04856359 198.87467624 22.13969849 198.82861328 24.23095703 C198.78631513 26.26079313 198.76286003 28.29015668 198.7421875 30.3203125 C198.7201123 31.52961426 198.69803711 32.73891602 198.67529297 33.98486328 C198.79464448 36.9143694 198.79464448 36.9143694 200.03955078 38.88769531 C203.09259409 40.61990768 206.20485758 40.46108522 209.625 40.4765625 C210.36830566 40.49214203 211.11161133 40.50772156 211.87744141 40.52377319 C214.25161683 40.57128287 216.62549941 40.59904392 219 40.625 C221.37429243 40.66152758 223.74842038 40.70219734 226.12255859 40.74765015 C227.59934889 40.77480173 229.07625897 40.79618552 230.55322266 40.81118774 C233.63224059 40.85829198 236.05609218 41.01869739 239 42 C240.3918334 44.78366681 240.12275516 47.04707187 240.12025452 50.16287231 C240.12231651 52.13590836 240.12231651 52.13590836 240.12442017 54.14880371 C240.12088077 55.61499046 240.11724595 57.08117698 240.11352539 58.54736328 C240.11324345 60.08458454 240.11340139 61.62180592 240.1139679 63.1590271 C240.11425561 67.34060521 240.10836314 71.52215482 240.10139394 75.70372629 C240.09515601 80.07062035 240.09455625 84.43751501 240.09336853 88.80441284 C240.09025652 97.07752252 240.08204487 105.35061904 240.07201904 113.62372291 C240.06085389 123.04075881 240.05534644 132.45779534 240.05032361 141.87483621 C240.03986215 161.24989828 240.02226521 180.62494808 240 200 C227.77252638 206.11373681 212.6707311 201 199 201 C199 148.53 199 96.06 199 42 C179.695 41.505 179.695 41.505 160 41 C160 27.8 160 14.6 160 1 C146.33880961 1.14873131 146.33880961 1.14873131 132.67773438 1.30664062 C127.10964669 1.37304297 121.54156071 1.43834816 115.97338867 1.49731445 C111.48649883 1.54489685 106.99968788 1.59723717 102.51289177 1.65294075 C100.79721975 1.67339216 99.08152607 1.69210053 97.36581612 1.70907402 C94.97109231 1.73305665 92.57651898 1.76311912 90.18188477 1.79467773 C89.46547318 1.8004332 88.74906158 1.80618866 88.01094055 1.81211853 C84.72243051 1.58238175 84.72243051 1.58238175 82 3 C81.85229385 5.65261967 81.76500765 8.28255807 81.71875 10.9375 C81.70034058 11.732771 81.68193115 12.52804199 81.66296387 13.34741211 C81.60403029 15.89819735 81.55128742 18.44905022 81.5 21 C81.43256073 24.35431585 81.35889262 27.70840658 81.28125 31.0625 C81.26767456 31.84165771 81.25409912 32.62081543 81.2401123 33.42358398 C81.11280181 38.88719819 81.11280181 38.88719819 80 40 C77.50507612 40.09502416 75.03793986 40.12557566 72.54272461 40.11352539 C71.76229294 40.11367142 70.98186127 40.11381744 70.17778015 40.1139679 C67.5859402 40.11326858 64.99417122 40.10547536 62.40234375 40.09765625 C60.6101536 40.09579213 58.81796294 40.0943682 57.02577209 40.09336853 C52.29929203 40.08954284 47.57284248 40.07971212 42.84637451 40.06866455 C37.18044414 40.05665719 31.51450359 40.05204843 25.84856415 40.04621124 C17.23235484 40.03650039 8.61621257 40.0173442 0 40 C0 26.8 0 13.6 0 0 Z " fill="#830203" transform="translate(227,66)"/>
<path d="M0 0 C13.2 0 26.4 0 40 0 C40 52.47 40 104.94 40 159 C27.13 159 14.26 159 1 159 C0.67 106.53 0.34 54.06 0 0 Z " fill="#020001" transform="translate(467,107)"/>
<path d="M0 0 C12.87 0 25.74 0 39 0 C39 52.47 39 104.94 39 159 C26.13 159 13.26 159 0 159 C0 106.53 0 54.06 0 0 Z " fill="#030101" transform="translate(26,107)"/>
<path d="M0 0 C19.5215625 -0.0309375 19.5215625 -0.0309375 39.4375 -0.0625 C43.55275146 -0.071604 47.66800293 -0.08070801 51.90795898 -0.09008789 C56.91809082 -0.09460449 56.91809082 -0.09460449 59.26063538 -0.09544373 C60.90309418 -0.09698325 62.54555183 -0.10050835 64.18800354 -0.10557556 C66.67019629 -0.11285326 69.15231973 -0.11390741 71.63452148 -0.11352539 C72.37102401 -0.1171235 73.10752653 -0.12072161 73.86634731 -0.12442875 C78.88597366 -0.11402634 78.88597366 -0.11402634 80 1 C80.08864512 3.88411175 80.11528526 6.74482809 80.09765625 9.62890625 C80.09664917 10.39456909 80.09564209 11.16023193 80.09460449 11.94909668 C80.08935663 14.82024627 80.07539547 17.69137458 80.0625 20.5625 C80.041875 26.976875 80.02125 33.39125 80 40 C66.8 40 53.6 40 40 40 C40 53.2 40 66.4 40 80 C26.8 80 13.6 80 0 80 C0 53.6 0 27.2 0 0 Z " fill="#FEFEFD" transform="translate(106,106)"/>
<path d="M0 0 C39.93 0 79.86 0 121 0 C121 12.87 121 25.74 121 39 C61.105 39.495 61.105 39.495 0 40 C0 26.8 0 13.6 0 0 Z " fill="#030202" transform="translate(306,26)"/>
<path d="M0 0 C39.6 0 79.2 0 120 0 C120 13.2 120 26.4 120 40 C80.4 39.67 40.8 39.34 0 39 C0 26.13 0 13.26 0 0 Z " fill="#030101" transform="translate(106,26)"/>
<path d="M0 0 C26.07 0 52.14 0 79 0 C79 13.2 79 26.4 79 40 C52.93 40 26.86 40 0 40 C0 26.8 0 13.6 0 0 Z " fill="#070202" transform="translate(227,66)"/>
<path d="M0 0 C13.2 0 26.4 0 40 0 C40 13.2 40 26.4 40 40 C26.8 40 13.6 40 0 40 C0 26.8 0 13.6 0 0 Z " fill="#030102" transform="translate(186,387)"/>
<path d="M0 0 C13.2 0 26.4 0 40 0 C40 13.2 40 26.4 40 40 C26.8 40 13.6 40 0 40 C0 26.8 0 13.6 0 0 Z " fill="#090102" transform="translate(146,347)"/>
<path d="M0 0 C13.2 0 26.4 0 40 0 C40 13.2 40 26.4 40 40 C26.8 40 13.6 40 0 40 C0 26.8 0 13.6 0 0 Z " fill="#020101" transform="translate(106,307)"/>
<path d="M0 0 C13.2 0 26.4 0 40 0 C40.020625 6.414375 40.04125 12.82875 40.0625 19.4375 C40.071604 21.46447021 40.08070801 23.49144043 40.09008789 25.57983398 C40.09300703 27.1769199 40.09555559 28.77400655 40.09765625 30.37109375 C40.10277222 31.20805786 40.10788818 32.04502197 40.11315918 32.90734863 C40.11346924 34.93858265 40.06240188 36.96972471 40 39 C39 40 39 40 35.30639648 40.11352539 C33.66128709 40.11327427 32.01617243 40.10771184 30.37109375 40.09765625 C29.22259949 40.09614563 29.22259949 40.09614563 28.05090332 40.09460449 C25.17975373 40.08935663 22.30862542 40.07539547 19.4375 40.0625 C13.023125 40.041875 6.60875 40.02125 0 40 C0 26.8 0 13.6 0 0 Z " fill="#830204" transform="translate(307,347)"/>
<path d="M0 0 C13.2 0 26.4 0 40 0 C40.020625 6.22875 40.04125 12.4575 40.0625 18.875 C40.071604 20.84065918 40.08070801 22.80631836 40.09008789 24.83154297 C40.0930078 26.38509045 40.09555618 27.93863869 40.09765625 29.4921875 C40.10277222 30.30244385 40.10788818 31.1127002 40.11315918 31.94750977 C40.1140718 37.7718564 40.1140718 37.7718564 39 40 C26.13 40 13.26 40 0 40 C0 26.8 0 13.6 0 0 Z " fill="#850203" transform="translate(347,307)"/>
<path d="M0 0 C12.87 0 25.74 0 39 0 C39 13.2 39 26.4 39 40 C26.13 40 13.26 40 0 40 C0 26.8 0 13.6 0 0 Z " fill="#020101" transform="translate(66,267)"/>
<path d="M0 0 C12.87 0 25.74 0 39 0 C39 12.87 39 25.74 39 39 C26.13 39.33 13.26 39.66 0 40 C0 26.8 0 13.6 0 0 Z " fill="#050202" transform="translate(66,66)"/>
<path d="M0 0 C12.87 0 25.74 0 39 0 C39 12.87 39 25.74 39 39 C26.13 39 13.26 39 0 39 C0 26.13 0 13.26 0 0 Z " fill="#FDFBF9" transform="translate(106,227)"/>
<path d="M0 0 C13.2 0 26.4 0 40 0 C40 0.66 40 1.32 40 2 C39.34 2 38.68 2 38 2 C38.01571045 3.47593628 38.01571045 3.47593628 38.03173828 4.98168945 C38.06794031 8.63253135 38.09090115 12.28335737 38.10986328 15.93432617 C38.11992041 17.51443144 38.13356785 19.0945181 38.15087891 20.67456055 C38.17514022 22.9458475 38.18648582 25.21688836 38.1953125 27.48828125 C38.20563507 28.19463211 38.21595764 28.90098297 38.22659302 29.6287384 C38.22743775 33.32197792 38.10720523 34.83919216 36 38 C33.26171875 38.51171875 33.26171875 38.51171875 29.6875 38.6875 C29.04611084 38.72093506 28.40472168 38.75437012 27.74389648 38.78881836 C18.50517023 39.20634502 9.24387621 39.06041749 0 39 C0 26.13 0 13.26 0 0 Z " fill="#840104" transform="translate(267,387)"/>
<path d="M0 0 C0 12.87 0 25.74 0 39 C-12.54 39 -25.08 39 -38 39 C-38 26.46 -38 13.92 -38 1 C-28.8734375 0.7525 -28.8734375 0.7525 -19.5625 0.5 C-16.67866577 0.42168945 -16.67866577 0.42168945 -13.73657227 0.34179688 C-12.22151722 0.30077054 -10.7064619 0.25975422 -9.19140625 0.21875 C-8.39762573 0.1971582 -7.60384521 0.17556641 -6.78601074 0.15332031 C-1.1140718 0 -1.1140718 0 0 0 Z " fill="#020101" transform="translate(467,267)"/>
<path d="M0 0 C12.87 0 25.74 0 39 0 C39 12.54 39 25.08 39 38 C26.46 38 13.92 38 1 38 C0.67 25.46 0.34 12.92 0 0 Z " fill="#020001" transform="translate(428,67)"/>
<path d="M0 0 C5.73375 -0.020625 11.4675 -0.04125 17.375 -0.0625 C19.18403809 -0.071604 20.99307617 -0.08070801 22.85693359 -0.09008789 C24.28743414 -0.09300792 25.71793551 -0.09555628 27.1484375 -0.09765625 C27.89391846 -0.10277222 28.63939941 -0.10788818 29.4074707 -0.11315918 C34.7718564 -0.1140718 34.7718564 -0.1140718 37 1 C37 13.21 37 25.42 37 38 C24.79 38 12.58 38 0 38 C0 25.46 0 12.92 0 0 Z " fill="#020102" transform="translate(349,349)"/>
<path d="M0 0 C14.82483982 -0.02370732 29.64967814 -0.04115982 44.47453308 -0.05181217 C51.36307423 -0.05689693 58.25160327 -0.06381073 65.14013672 -0.07543945 C96.4412434 -0.12726188 127.71392477 -0.0568996 159 1 C159 1.33 159 1.66 159 2 C146.46 2.33 133.92 2.66 121 3 C121 15.21 121 27.42 121 40 C126.445 39.979375 131.89 39.95875 137.5 39.9375 C152.10940041 39.9168607 166.70731362 40.08732321 181.3125 40.4375 C182.19760254 40.45714813 183.08270508 40.47679626 183.99462891 40.49703979 C186.49269029 40.55366306 188.99046077 40.61726957 191.48828125 40.68359375 C192.23753372 40.70031128 192.98678619 40.71702881 193.75874329 40.73425293 C198.88469095 40.88469095 198.88469095 40.88469095 200 42 C200.09681822 44.06294278 200.12186923 46.12926042 200.12025452 48.19447327 C200.12153615 49.17580747 200.12153615 49.17580747 200.12284368 50.17696661 C200.12450028 52.38501343 200.11897421 54.59298548 200.11352539 56.80102539 C200.11324353 58.37750751 200.11340123 59.95398976 200.1139679 61.5304718 C200.11425592 65.82367549 200.1083584 70.11685149 200.10139394 74.41004872 C200.09516121 78.89172683 200.09455667 83.37340551 200.09336853 87.85508728 C200.09025497 96.34780909 200.08204126 104.84051809 200.07201904 113.33323425 C200.06085866 122.99933539 200.05534764 132.66543712 200.05032361 142.33154309 C200.03985866 162.22103588 200.02225875 182.11051714 200 202 C154.74034678 203.16748098 154.74034678 203.16748098 136.875 203.0625 C129.016875 203.0315625 129.016875 203.0315625 121 203 C121 215.54 121 228.08 121 241 C133.54 241 146.08 241 159 241 C159 241.33 159 241.66 159 242 C145.8 242 132.6 242 119 242 C119.495 222.2 119.495 222.2 120 202 C132.87 201.67 145.74 201.34 159 201 C158.67 148.86 158.34 96.72 158 43 C139.685 42.505 139.685 42.505 121 42 C120.67 41.01 120.34 40.02 120 39 C118.515 38.505 118.515 38.505 117 38 C117 26.45 117 14.9 117 3 C91.45644033 2.25112501 65.92662899 1.75212389 40.37445068 1.46777344 C35.79322884 1.41615755 31.2120466 1.36122787 26.63085938 1.30664062 C17.75394036 1.20132413 8.87698671 1.09944666 0 1 C0 0.67 0 0.34 0 0 Z M159 42 C159.33 94.47 159.66 146.94 160 201 C172.87 201 185.74 201 199 201 C199 148.53 199 96.06 199 42 C185.8 42 172.6 42 159 42 Z " fill="#4C1F21" transform="translate(308,65)"/>
<path d="M0 0 C13.2 0 26.4 0 40 0 C40 0.33 40 0.66 40 1 C27.13 1 14.26 1 1 1 C1 53.47 1 105.94 1 160 C26.74 159.67 52.48 159.34 79 159 C79 146.46 79 133.92 79 121 C81.6572762 118.3427238 83.65802123 118.73985382 87.27392578 118.69645691 C88.13228027 118.69736832 88.99063477 118.69827972 89.875 118.69921875 C90.75526855 118.69493362 91.63553711 118.6906485 92.54248047 118.68623352 C94.40526468 118.68048559 96.26807134 118.67999336 98.13085938 118.68432617 C100.98866841 118.68748747 103.84544397 118.66402862 106.703125 118.63867188 C108.51041535 118.63639915 110.31770851 118.63569526 112.125 118.63671875 C112.98335449 118.627509 113.84170898 118.61829926 114.72607422 118.60881042 C117.1328125 118.62768555 117.1328125 118.62768555 121 119 C123.61388261 122.92082392 123.26961163 126.24338583 123.23046875 130.7890625 C123.23001053 131.64809174 123.22955231 132.50712097 123.2290802 133.3921814 C123.22606083 135.20612979 123.21818395 137.02007567 123.20581055 138.83398438 C123.18752502 141.62118636 123.18530109 144.40805673 123.18554688 147.1953125 C123.18063274 148.95573206 123.17480488 150.71614936 123.16796875 152.4765625 C123.16685593 153.31506744 123.1657431 154.15357239 123.16459656 155.01748657 C123.11605613 160.88394387 123.11605613 160.88394387 122 162 C119.04294679 162.08868299 116.10934944 162.11520296 113.15234375 162.09765625 C111.82270348 162.09553383 111.82270348 162.09553383 110.46620178 162.09336853 C107.62326746 162.08775215 104.78041069 162.07519691 101.9375 162.0625 C100.01497509 162.05748711 98.09244896 162.05292384 96.16992188 162.04882812 C91.44656036 162.03862648 86.72336742 162.01905437 82 162 C82.33 174.54 82.66 187.08 83 200 C94.88 200 106.76 200 119 200 C119 200.33 119 200.66 119 201 C106.13 201 93.26 201 80 201 C80 187.8 80 174.6 80 161 C67.13 161 54.26 161 41 161 C41 174.2 41 187.4 41 201 C40.67 201 40.34 201 40 201 C40 187.8 40 174.6 40 161 C26.8 161 13.6 161 0 161 C0 107.87 0 54.74 0 0 Z M81 121 C81 133.87 81 146.74 81 160 C93.87 160 106.74 160 120 160 C120 147.13 120 134.26 120 121 C107.13 121 94.26 121 81 121 Z " fill="#742B2B" transform="translate(25,106)"/>
<path d="M0 0 C13.2 0 26.4 0 40 0 C40 0.66 40 1.32 40 2 C36.27573819 3.2414206 32.91648103 3.01823389 29.05078125 2.87890625 C27.89185616 2.84348976 27.89185616 2.84348976 26.70951843 2.80735779 C24.2436536 2.73083079 21.77811154 2.64675953 19.3125 2.5625 C17.63998971 2.50926832 15.96746371 2.45652799 14.29492188 2.40429688 C10.19641048 2.27523053 6.09817248 2.13939792 2 2 C2.14047235 6.29185941 2.28836362 10.58343361 2.4375 14.875 C2.47681641 16.07898438 2.51613281 17.28296875 2.55664062 18.5234375 C2.79903523 25.38506942 3.19747447 32.18000999 4 39 C2.68 39.33 1.36 39.66 0 40 C0 53.2 0 66.4 0 80 C-0.33 80 -0.66 80 -1 80 C-1.02505615 78.91992676 -1.0501123 77.83985352 -1.07592773 76.72705078 C-1.16995572 72.72757688 -1.27018754 68.72827853 -1.37231445 64.72900391 C-1.4156808 62.99662374 -1.45735463 61.26420037 -1.49731445 59.53173828 C-1.55497594 57.04446373 -1.61868198 54.55740707 -1.68359375 52.0703125 C-1.70866249 50.90461227 -1.70866249 50.90461227 -1.73423767 49.71536255 C-1.76473429 45.72725784 -1.76473429 45.72725784 -3 42 C-3.56960449 42.07726318 -4.13920898 42.15452637 -4.72607422 42.23413086 C-11.92041325 43.09387227 -18.90010478 42.92794528 -26.125 42.5625 C-27.27226562 42.51029297 -28.41953125 42.45808594 -29.6015625 42.40429688 C-32.40140963 42.27597055 -35.20077156 42.14108111 -38 42 C-37.96447021 43.08007324 -37.92894043 44.16014648 -37.89233398 45.27294922 C-37.7621701 49.27214087 -37.63893794 53.27152103 -37.51782227 57.27099609 C-37.4643827 59.00347759 -37.40905182 60.7359018 -37.35180664 62.46826172 C-37.26995007 64.95527798 -37.19485012 67.4424195 -37.12109375 69.9296875 C-37.09405869 70.70682098 -37.06702362 71.48395447 -37.03916931 72.28463745 C-36.88612829 77.77225659 -36.88612829 77.77225659 -38 80 C-38.66 80 -39.32 80 -40 80 C-40 93.2 -40 106.4 -40 120 C-40.33 120 -40.66 120 -41 120 C-41.33 107.46 -41.66 94.92 -42 82 C-53.88 82.33 -65.76 82.66 -78 83 C-78.66 108.41 -79.32 133.82 -80 160 C-80.33 160 -80.66 160 -81 160 C-81 147.13 -81 134.26 -81 121 C-107.07 121 -133.14 121 -160 121 C-160 120.67 -160 120.34 -160 120 C-159.01233643 119.98018066 -158.02467285 119.96036133 -157.00708008 119.93994141 C-132.63714338 119.43829891 -108.33072999 118.46921082 -84 117 C-82.50016915 114.0003383 -82.76097945 110.88053039 -82.68359375 107.5859375 C-82.6524221 106.49147812 -82.6524221 106.49147812 -82.62062073 105.37490845 C-82.55518083 103.04170237 -82.49626632 100.70838279 -82.4375 98.375 C-82.39430947 96.79425905 -82.35069501 95.21352961 -82.30664062 93.6328125 C-82.19950519 89.75532496 -82.09822218 85.87772315 -82 82 C-81.34 82 -80.68 82 -80 82 C-80 81.34 -80 80.68 -80 80 C-67.13 79.67 -54.26 79.34 -41 79 C-40.67 66.13 -40.34 53.26 -40 40 C-27.13 40 -14.26 40 -1 40 C-0.67 26.8 -0.34 13.6 0 0 Z " fill="#290909" transform="translate(387,307)"/>
<path d="M0 0 C11.88 0 23.76 0 36 0 C36.33 26.4 36.66 52.8 37 80 C47.085625 79.7834375 47.085625 79.7834375 57.375 79.5625 C59.49728027 79.51939697 61.61956055 79.47629395 63.80615234 79.43188477 C65.48275602 79.39376938 67.15935172 79.35530089 68.8359375 79.31640625 C70.14848511 79.2916925 70.14848511 79.2916925 71.48754883 79.26647949 C75.88237969 79.29191963 75.88237969 79.29191963 80 78 C79.505 79.485 79.505 79.485 79 81 C72.8944529 81.02464513 66.78893449 81.04283371 60.68334961 81.05493164 C58.60456844 81.05997288 56.52579084 81.06680574 54.44702148 81.07543945 C51.46597414 81.08751422 48.48497351 81.09323024 45.50390625 81.09765625 C44.10078941 81.10539818 44.10078941 81.10539818 42.66932678 81.11329651 C41.80850998 81.11337204 40.94769318 81.11344757 40.06079102 81.11352539 C39.29912125 81.115746 38.53745148 81.11796661 37.75270081 81.12025452 C36 81 36 81 35 80 C34.88102881 77.69059515 34.83252538 75.37754837 34.81054688 73.06518555 C34.80225357 72.3399469 34.79396027 71.61470825 34.78541565 70.86749268 C34.7679764 69.2872966 34.75282029 67.70707411 34.73963928 66.12683678 C34.71866194 63.62622103 34.69163289 61.12573697 34.66296387 58.62519836 C34.60316209 53.31268267 34.55109425 48.00010561 34.5 42.6875 C34.44077704 36.54301371 34.37840829 30.39859146 34.30812073 24.25422096 C34.2815584 21.79032557 34.26073207 19.3264238 34.2401123 16.86247253 C34.22350423 15.34931129 34.20663195 13.83615292 34.18945312 12.32299805 C34.18526871 11.63764481 34.18108429 10.95229156 34.17677307 10.24617004 C34.13442892 7.02295464 33.97645637 4.08506127 33 1 C32.01 1.33 31.02 1.66 30 2 C28.1158093 2.07110154 26.22915801 2.08410238 24.34375 2.0625 C23.23902344 2.05476563 22.13429688 2.04703125 20.99609375 2.0390625 C18.66536458 2.01302083 16.33463542 1.98697917 14.00390625 1.9609375 C12.89917969 1.95320313 11.79445313 1.94546875 10.65625 1.9375 C9.13741211 1.92009766 9.13741211 1.92009766 7.58789062 1.90234375 C4.88280125 1.8833835 4.88280125 1.8833835 2 3 C0.83487399 5.98328719 0.88362863 8.91212551 0.90234375 12.0847168 C0.90564697 13.09644455 0.9089502 14.1081723 0.91235352 15.15055847 C0.92065186 16.23911636 0.9289502 17.32767426 0.9375 18.44921875 C0.94128662 19.57640823 0.94507324 20.70359772 0.94897461 21.86494446 C0.96530114 26.68466646 0.99332739 31.50430351 1.02050781 36.32397461 C1.03867532 39.84488528 1.05072193 43.36578181 1.0625 46.88671875 C1.07079834 47.96515549 1.07909668 49.04359222 1.08764648 50.15470886 C1.10705935 56.19320567 0.793604 62.01242965 0 68 C0.66 68 1.32 68 2 68 C2.12623592 75.32168354 2.12623592 75.32168354 1.48413086 78.77197266 C1.00587478 81.96082884 0.98486197 84.77033328 1.15625 87.984375 C1.20910156 89.08394531 1.26195313 90.18351562 1.31640625 91.31640625 C1.37699219 92.44949219 1.43757813 93.58257812 1.5 94.75 C1.61949769 97.01537111 1.73432588 99.28099496 1.84375 101.546875 C1.89724609 102.54557617 1.95074219 103.54427734 2.00585938 104.57324219 C2 107 2 107 1 109 C0.90208977 111.69829074 0.8609375 114.36484461 0.875 117.0625 C0.87113281 117.80822266 0.86726563 118.55394531 0.86328125 119.32226562 C0.52788848 122.95917324 0.52788848 122.95917324 2 126 C2.00452594 127.88222571 1.93875027 129.76469906 1.84375 131.64453125 C1.79089844 132.79630859 1.73804687 133.94808594 1.68359375 135.13476562 C1.56178146 137.57489899 1.43939124 140.01500358 1.31640625 142.45507812 C1.26355469 143.61072266 1.21070312 144.76636719 1.15625 145.95703125 C1.07600586 147.54994995 1.07600586 147.54994995 0.99414062 149.17504883 C0.99934347 151.68347027 1.25290415 153.62238894 2 156 C3.65 155.67 5.3 155.34 7 155 C7 155.66 7 156.32 7 157 C10.39612414 156.8604947 13.79181458 156.71227678 17.1875 156.5625 C18.14720703 156.52318359 19.10691406 156.48386719 20.09570312 156.44335938 C21.49272461 156.38051758 21.49272461 156.38051758 22.91796875 156.31640625 C23.77156982 156.27974854 24.6251709 156.24309082 25.50463867 156.20532227 C28.06454594 155.99468906 30.49333243 155.55158464 33 155 C33.84191782 152.0751367 34.11819313 149.49258344 34.09765625 146.453125 C34.09443359 145.60878906 34.09121094 144.76445312 34.08789062 143.89453125 C34.07951172 143.02183594 34.07113281 142.14914063 34.0625 141.25 C34.05798828 140.36183594 34.05347656 139.47367188 34.04882812 138.55859375 C34.037074 136.37232671 34.02064249 134.18619821 34 132 C33.34 132.33 32.68 132.66 32 133 C32.2784375 131.4840625 32.2784375 131.4840625 32.5625 129.9375 C32.99768247 126.02085773 32.70853021 122.85755337 32 119 C32.639375 118.71125 33.27875 118.4225 33.9375 118.125 C36.15206079 117.17176549 36.15206079 117.17176549 37 115 C50.53 115 64.06 115 78 115 C78 115.66 78 116.32 78 117 C76.79351807 117.02505615 75.58703613 117.0501123 74.34399414 117.07592773 C69.88424339 117.16982523 65.42465487 117.27008833 60.96508789 117.37231445 C59.03185815 117.41573041 57.09858841 117.45740042 55.1652832 117.49731445 C52.39261798 117.55485631 49.62015543 117.6185962 46.84765625 117.68359375 C45.97786636 117.70030624 45.10807648 117.71701874 44.21192932 117.73423767 C40.28884034 117.45026213 40.28884034 117.45026213 37 119 C36.83982834 121.80976518 36.74049466 124.59773596 36.68359375 127.41015625 C36.66281265 128.25219101 36.64203156 129.09422577 36.62062073 129.96177673 C36.55503188 132.66193179 36.49619724 135.36218717 36.4375 138.0625 C36.39432363 139.88868241 36.35070964 141.71485454 36.30664062 143.54101562 C36.19934106 148.02723992 36.09810034 152.5135655 36 157 C33.0539914 158.4730043 30.41391588 158.12989305 27.12890625 158.1328125 C26.45077377 158.13376923 25.7726413 158.13472595 25.07395935 158.13571167 C23.63906766 158.1363924 22.20417289 158.13454554 20.76928711 158.13037109 C18.57463641 158.12502954 16.38019113 158.13031534 14.18554688 158.13671875 C12.79166622 158.13605779 11.39778568 158.13477625 10.00390625 158.1328125 C8.73361572 158.13168457 7.4633252 158.13055664 6.15454102 158.12939453 C3 158 3 158 0 157 C-1.09194979 153.72415063 -1.12581808 151.33083437 -1.12698364 147.88218689 C-1.12980347 146.6020018 -1.13262329 145.32181671 -1.13552856 144.00283813 C-1.13358421 142.58123765 -1.13153603 141.15963731 -1.12939453 139.73803711 C-1.13074931 138.2433213 -1.13252967 136.74860583 -1.13470459 135.25389099 C-1.13926943 131.19207212 -1.13749335 127.1302786 -1.1343255 123.06845927 C-1.13179749 118.82262143 -1.13414063 114.5767858 -1.13571167 110.33094788 C-1.13753187 103.20134083 -1.13513075 96.07174414 -1.13037109 88.94213867 C-1.12492668 80.69136664 -1.12669303 72.44061932 -1.1321975 64.18984789 C-1.13673039 57.11295482 -1.13737838 50.03606921 -1.13475883 42.95917517 C-1.1331973 38.72929419 -1.13299897 34.49942484 -1.13629532 30.2695446 C-1.13917664 26.29446947 -1.13719351 22.3194263 -1.13140106 18.34435463 C-1.13007496 16.88260323 -1.13046505 15.42084916 -1.13266373 13.95909882 C-1.13538099 11.96967665 -1.13137535 9.98024864 -1.12698364 7.99082947 C-1.12660662 6.87566924 -1.12622959 5.76050901 -1.12584114 4.61155605 C-1 2 -1 2 0 0 Z " fill="#E50D0F" transform="translate(68,108)"/>
<path d="M0 0 C0.33 0 0.66 0 1 0 C1 13.2 1 26.4 1 40 C13.87 40 26.74 40 40 40 C40 66.4 40 92.8 40 120 C39.67 120 39.34 120 39 120 C39 94.26 39 68.52 39 42 C27.12 42 15.24 42 3 42 C3 93.81 3 145.62 3 199 C3.99 199.33 4.98 199.66 6 200 C4.02 200 2.04 200 0 200 C0 134 0 68 0 0 Z " fill="#A71D1F" transform="translate(65,66)"/>
<path d="M0 0 C19.5215625 -0.0309375 19.5215625 -0.0309375 39.4375 -0.0625 C43.55275146 -0.071604 47.66800293 -0.08070801 51.90795898 -0.09008789 C56.91809082 -0.09460449 56.91809082 -0.09460449 59.26063538 -0.09544373 C60.90309418 -0.09698325 62.54555183 -0.10050835 64.18800354 -0.10557556 C66.67019629 -0.11285326 69.15231973 -0.11390741 71.63452148 -0.11352539 C72.37102401 -0.1171235 73.10752653 -0.12072161 73.86634731 -0.12442875 C78.88597366 -0.11402634 78.88597366 -0.11402634 80 1 C80.08864512 3.88411175 80.11528526 6.74482809 80.09765625 9.62890625 C80.09664917 10.39456909 80.09564209 11.16023193 80.09460449 11.94909668 C80.08935663 14.82024627 80.07539547 17.69137458 80.0625 20.5625 C80.041875 26.976875 80.02125 33.39125 80 40 C66.8 40 53.6 40 40 40 C40 53.2 40 66.4 40 80 C26.8 80 13.6 80 0 80 C0 53.6 0 27.2 0 0 Z M66 3 C64.00849371 3.07609832 62.01434111 3.08617382 60.02148438 3.06591797 C58.76678345 3.05615936 57.51208252 3.04640076 56.21936035 3.03634644 C55.21102898 3.02530191 55.21102898 3.02530191 54.18232727 3.01403427 C52.08130627 2.99205734 49.98037483 2.9779496 47.87927246 2.96633911 C41.90522986 2.93269471 35.9313363 2.89099965 29.95751953 2.82861328 C26.30479814 2.79102986 22.65222965 2.76796304 18.99934387 2.75430679 C17.60541008 2.74623573 16.21149726 2.73260322 14.81767273 2.71337509 C12.87142446 2.6869912 10.92493534 2.68065161 8.97851562 2.67529297 C7.86980103 2.66561493 6.76108643 2.65593689 5.61877441 2.64596558 C4.32248108 2.82121262 4.32248108 2.82121262 3 3 C0.51892836 6.72160746 0.75765048 8.59746433 0.77294922 13.04174805 C0.77265717 13.75419678 0.77236511 14.46664551 0.77206421 15.20068359 C0.77345704 17.55448607 0.78901581 19.9079716 0.8046875 22.26171875 C0.8084178 23.89410733 0.81126469 25.52649815 0.81326294 27.15888977 C0.82089806 31.45466293 0.84054548 35.75030079 0.8626709 40.04602051 C0.88672959 45.20053562 0.89591089 50.35509599 0.90757751 55.50965118 C0.92696998 63.33986155 0.96529327 71.16977505 1 79 C13.54 79 26.08 79 39 79 C39.33 66.13 39.66 53.26 40 40 C52.87 39.67 65.74 39.34 79 39 C79 26.79 79 14.58 79 2 C69.26710519 1.18010841 69.26710519 1.18010841 66 3 Z " fill="#F1CBC8" transform="translate(106,106)"/>
<path d="M0 0 C0.33 0 0.66 0 1 0 C1.66 11.55 2.32 23.1 3 35 C7.18816406 35.07347656 7.18816406 35.07347656 11.4609375 35.1484375 C14.15825876 35.20241184 16.85548947 35.25973322 19.55273438 35.31738281 C21.43059576 35.35571977 23.30853176 35.39056427 25.18652344 35.421875 C27.88243321 35.46742363 30.57782712 35.52543375 33.2734375 35.5859375 C34.11619232 35.59748871 34.95894714 35.60903992 35.82723999 35.62094116 C41.77225659 35.77225659 41.77225659 35.77225659 44 38 C44.17532289 40.86888581 44.23137614 43.63992645 44.1953125 46.5078125 C44.1924826 47.34843231 44.18965271 48.18905212 44.18673706 49.05514526 C44.1755243 51.74524046 44.15041803 54.4350051 44.125 57.125 C44.1149716 58.94660978 44.10584551 60.76822477 44.09765625 62.58984375 C44.07558142 67.06002358 44.04104434 71.52995571 44 76 C44.84788086 75.88736816 44.84788086 75.88736816 45.71289062 75.77246094 C53.0155547 74.9114354 60.16054251 74.97786281 67.5 75.25 C69.26730469 75.29060547 69.26730469 75.29060547 71.0703125 75.33203125 C72.19179687 75.37199219 73.31328125 75.41195312 74.46875 75.453125 C75.99145508 75.50194824 75.99145508 75.50194824 77.54492188 75.55175781 C78.35509766 75.69967773 79.16527344 75.84759766 80 76 C82.55753804 79.83630705 82.2533164 82.94485281 82.1953125 87.38671875 C82.19329834 88.11105103 82.19128418 88.8353833 82.18920898 89.58166504 C82.17875634 92.28367458 82.15083369 94.98559374 82.125 97.6875 C82.08375 103.730625 82.0425 109.77375 82 116 C100.81 116.495 100.81 116.495 120 117 C120 117.33 120 117.66 120 118 C106.8 118 93.6 118 80 118 C80 104.8 80 91.6 80 78 C66.8 78 53.6 78 40 78 C40 64.8 40 51.6 40 38 C26.8 38 13.6 38 0 38 C0 25.46 0 12.92 0 0 Z " fill="#CF1515" transform="translate(146,309)"/>
<path d="M0 0 C0.66 0 1.32 0 2 0 C3.3918334 2.78366681 3.12275516 5.04707187 3.12025452 8.16287231 C3.12162918 9.47822968 3.12300385 10.79358704 3.12442017 12.14880371 C3.12088077 13.61499046 3.11724595 15.08117698 3.11352539 16.54736328 C3.11324345 18.08458454 3.11340139 19.62180592 3.1139679 21.1590271 C3.11425561 25.34060521 3.10836314 29.52215482 3.10139394 33.70372629 C3.09515601 38.07062035 3.09455625 42.43751501 3.09336853 46.80441284 C3.09025652 55.07752252 3.08204487 63.35061904 3.07201904 71.62372291 C3.06085389 81.04075881 3.05534644 90.45779534 3.05032361 99.87483621 C3.03986215 119.24989828 3.02226521 138.62494808 3 158 C-0.22603545 159.61301773 -3.74710038 159.12053599 -7.2890625 159.09765625 C-8.51669815 159.09553383 -8.51669815 159.09553383 -9.76913452 159.09336853 C-12.38779325 159.0877629 -15.00636704 159.07520948 -17.625 159.0625 C-19.39843627 159.05748572 -21.17187387 159.05292269 -22.9453125 159.04882812 C-27.29690782 159.03779164 -31.6484395 159.02052325 -36 159 C-33.17300751 156.17300751 -30.40924509 156.66608981 -26.62109375 156.62109375 C-25.89382584 156.60409927 -25.16655792 156.5871048 -24.41725159 156.56959534 C-22.09075624 156.51639306 -19.76427942 156.47613169 -17.4375 156.4375 C-15.10724094 156.39362332 -12.77712287 156.34696891 -10.44703674 156.29469299 C-8.99592133 156.26265077 -7.544681 156.23578741 -6.09336853 156.21446228 C-2.76129328 156.43169641 -2.76129328 156.43169641 0 155 C0.09418904 153.21646531 0.11742775 151.42915847 0.11352539 149.6431427 C0.1134549 148.48087158 0.1133844 147.31860046 0.11331177 146.12110901 C0.10814545 144.8343779 0.10297913 143.54764679 0.09765625 142.22192383 C0.09573839 140.86207127 0.09427397 139.50221801 0.0932312 138.1423645 C0.09006207 135.20670592 0.08378107 132.27107584 0.07516479 129.33542824 C0.06167671 124.69202002 0.05575502 120.04862141 0.05102539 115.40519714 C0.03895972 104.70305518 0.01694979 94.00093787 -0.00520325 83.29881287 C-0.02538543 73.50569169 -0.0434634 63.71257901 -0.05341816 53.9194414 C-0.05839691 49.30561011 -0.06825238 44.69182284 -0.08184814 40.07800925 C-0.08932226 37.20205808 -0.09262645 34.32611293 -0.0948143 31.45015335 C-0.09757127 29.48560576 -0.10536148 27.52106725 -0.11331177 25.55653381 C-0.11338226 24.38016357 -0.11345276 23.20379333 -0.11352539 21.99177551 C-0.115746 20.97357129 -0.11796661 19.95536707 -0.12025452 18.90630817 C0.0055073 15.86689981 0.48079651 12.99416031 1 10 C0.91571361 7.24948498 0.91571361 7.24948498 0.5625 4.625 C0.40974609 3.31402344 0.40974609 3.31402344 0.25390625 1.9765625 C0.17011719 1.32429688 0.08632813 0.67203125 0 0 Z " fill="#6D0709" transform="translate(464,108)"/>
<path d="M0 0 C27.06 0 54.12 0 82 0 C82 12.87 82 25.74 82 39 C94.41579318 38.96042001 94.41579318 38.96042001 106.83154297 38.90991211 C108.38509045 38.9069922 109.93863869 38.90444382 111.4921875 38.90234375 C112.30244385 38.89722778 113.1127002 38.89211182 113.94750977 38.88684082 C119.7718564 38.8859282 119.7718564 38.8859282 122 40 C122 93.13 122 146.26 122 201 C121.34 200.67 120.68 200.34 120 200 C120 147.86 120 95.72 120 42 C100.695 41.505 100.695 41.505 81 41 C81 27.8 81 14.6 81 1 C67.33880961 1.14873131 67.33880961 1.14873131 53.67773438 1.30664062 C48.10964669 1.37304297 42.54156071 1.43834816 36.97338867 1.49731445 C32.48649883 1.54489685 27.99968788 1.59723717 23.51289177 1.65294075 C21.79721975 1.67339216 20.08152607 1.69210053 18.36581612 1.70907402 C15.97109231 1.73305665 13.57651898 1.76311912 11.18188477 1.79467773 C10.46547318 1.8004332 9.74906158 1.80618866 9.01094055 1.81211853 C5.72243051 1.58238175 5.72243051 1.58238175 3 3 C2.83996512 5.66426685 2.74057111 8.30560428 2.68359375 10.97265625 C2.66281265 11.77029892 2.64203156 12.56794159 2.62062073 13.38975525 C2.55503842 15.94724611 2.49620033 18.5048428 2.4375 21.0625 C2.39432301 22.79232882 2.35070899 24.52214679 2.30664062 26.25195312 C2.19934828 30.5011926 2.09810574 34.7505389 2 39 C1.01 39.495 1.01 39.495 0 40 C0 26.8 0 13.6 0 0 Z " fill="#C10605" transform="translate(306,66)"/>
<path d="M0 0 C0.66 0 1.32 0 2 0 C2 12.87 2 25.74 2 39 C-11.2 39 -24.4 39 -38 39 C-38 51.87 -38 64.74 -38 78 C-44.06375 78.020625 -50.1275 78.04125 -56.375 78.0625 C-58.28845215 78.071604 -60.2019043 78.08070801 -62.17333984 78.09008789 C-63.68587168 78.09300784 -65.1984043 78.09555621 -66.7109375 78.09765625 C-67.49960205 78.10277222 -68.2882666 78.10788818 -69.10083008 78.11315918 C-74.7718564 78.1140718 -74.7718564 78.1140718 -77 77 C-77.02505615 75.88963379 -77.0501123 74.77926758 -77.07592773 73.63525391 C-77.16994915 69.52396681 -77.27018257 65.41285077 -77.37231445 61.30175781 C-77.4156833 59.52087397 -77.45735694 57.73994802 -77.49731445 55.95898438 C-77.5549699 53.40221452 -77.6186777 50.84565702 -77.68359375 48.2890625 C-77.70030624 47.49005524 -77.71701874 46.69104797 -77.73423767 45.86782837 C-77.75392991 41.80193632 -77.75392991 41.80193632 -79 38 C-81.8159849 37.53101037 -81.8159849 37.53101037 -85.0625 37.375 C-86.16722656 37.30023438 -87.27195313 37.22546875 -88.41015625 37.1484375 C-89.26480469 37.09945312 -90.11945313 37.05046875 -91 37 C-91 36.67 -91 36.34 -91 36 C-89.64752616 35.80065578 -88.29284913 35.61625222 -86.9375 35.4375 C-85.80634766 35.28087891 -85.80634766 35.28087891 -84.65234375 35.12109375 C-81.34342756 34.97002394 -78.26832832 35.5024636 -75 36 C-75.00523682 36.98395752 -75.01047363 37.96791504 -75.01586914 38.98168945 C-75.03397029 42.63255911 -75.04545075 46.28342479 -75.05493164 49.93432617 C-75.05996014 51.51441108 -75.06678378 53.09449134 -75.07543945 54.67456055 C-75.08756992 56.94581246 -75.09324313 59.21700285 -75.09765625 61.48828125 C-75.10281754 62.19463211 -75.10797882 62.90098297 -75.11329651 63.6287384 C-75.11364803 66.70254391 -74.9803186 69.0590442 -74 72 C-74.66 72 -75.32 72 -76 72 C-76 73.32 -76 74.64 -76 76 C-74.56260487 76.02712066 -73.12506137 76.04645067 -71.6875 76.0625 C-70.48673828 76.07990234 -70.48673828 76.07990234 -69.26171875 76.09765625 C-66.83138666 76.09657855 -66.83138666 76.09657855 -64 75 C-60.31536257 74.93006619 -56.64167242 75.00276924 -52.95703125 75.0625 C-50.11782854 75.01765573 -47.54471234 74.8651913 -44.75268555 74.49609375 C-43.51429932 74.33238281 -42.27591309 74.16867187 -41 74 C-41.02618408 73.02651611 -41.05236816 72.05303223 -41.0793457 71.05004883 C-41.17010021 67.42544698 -41.22733901 63.80094473 -41.2746582 60.17553711 C-41.29974547 58.60895886 -41.33382415 57.04249701 -41.37719727 55.47631836 C-41.43811226 53.21959691 -41.46626499 50.96442706 -41.48828125 48.70703125 C-41.51408768 48.01100296 -41.5398941 47.31497467 -41.56648254 46.59785461 C-41.56862358 42.85438616 -41.06684643 41.09241095 -38.85375977 38.03295898 C-35.44985136 35.60808557 -33.9723891 35.47633433 -29.8515625 35.765625 C-28.68109375 35.83136719 -27.510625 35.89710938 -26.3046875 35.96484375 C-24.48324219 36.10599609 -24.48324219 36.10599609 -22.625 36.25 C-20.2217115 36.40662457 -17.81806245 36.5578283 -15.4140625 36.703125 C-14.3513916 36.78208008 -13.2887207 36.86103516 -12.19384766 36.94238281 C-8.34872414 37.09654891 -8.34872414 37.09654891 -2 36 C-1.34 24.12 -0.68 12.24 0 0 Z " fill="#DE0B0A" transform="translate(305,348)"/>
<path d="M0 0 C0.99 0 1.98 0 3 0 C3.02464513 6.1055471 3.04283371 12.21106551 3.05493164 18.31665039 C3.05997288 20.39543156 3.06680574 22.47420916 3.07543945 24.55297852 C3.08751422 27.53402586 3.09323024 30.51502649 3.09765625 33.49609375 C3.10281754 34.43150497 3.10797882 35.3669162 3.11329651 36.33067322 C3.11337204 37.19149002 3.11344757 38.05230682 3.11352539 38.93920898 C3.115746 39.70087875 3.11796661 40.46254852 3.12025452 41.24729919 C3 43 3 43 2 44 C-0.8843382 44.08865208 -3.74462158 44.11521296 -6.62890625 44.09765625 C-7.92525246 44.09553383 -7.92525246 44.09553383 -9.24778748 44.09336853 C-12.01939292 44.08775239 -14.7909188 44.07519719 -17.5625 44.0625 C-19.4368478 44.05748708 -21.31119685 44.05292381 -23.18554688 44.04882812 C-27.79039544 44.03777772 -32.39518421 44.0205023 -37 44 C-37.02905924 47.7499837 -37.04681874 51.49993837 -37.0625 55.25 C-37.07087891 56.31347656 -37.07925781 57.37695312 -37.08789062 58.47265625 C-37.09111328 59.49746094 -37.09433594 60.52226562 -37.09765625 61.578125 C-37.10289307 62.52075195 -37.10812988 63.46337891 -37.11352539 64.43457031 C-37.00934665 66.78878583 -36.57630383 68.73127884 -36 71 C-36.32550502 72.66821323 -36.65846063 74.33499557 -37 76 C-36.67 76.99 -36.34 77.98 -36 79 C-32.0625162 79.02946879 -28.12506144 79.04695407 -24.1875 79.0625 C-23.08728516 79.07087891 -21.98707031 79.07925781 -20.85351562 79.08789062 C-14.6133194 79.10629828 -8.53065825 78.87117605 -2.33325195 78.11889648 C0.01710411 77.99912842 1.76501041 78.30380284 4 79 C3.9285376 79.58700684 3.8570752 80.17401367 3.78344727 80.77880859 C3.03950962 87.41772111 2.87956578 93.94919531 2.9375 100.625 C2.94201172 101.62917969 2.94652344 102.63335937 2.95117188 103.66796875 C2.96281033 106.11204471 2.9791576 108.5559882 3 111 C3.66 111 4.32 111 5 111 C5.625 112.8125 5.625 112.8125 6 115 C5.34 115.99 4.68 116.98 4 118 C5.52137573 117.98428955 5.52137573 117.98428955 7.07348633 117.96826172 C10.83614574 117.93206411 14.59878976 117.90910044 18.36157227 117.89013672 C19.99017932 117.88007858 21.61876832 117.86643042 23.24731445 117.84912109 C25.58809872 117.82486426 27.92864424 117.81351517 30.26953125 117.8046875 C30.99775589 117.79436493 31.72598053 117.78404236 32.47627258 117.77340698 C36.21275069 117.77257751 37.80675056 117.87116704 41 120 C35.60653012 120.02464849 30.21309275 120.04283531 24.81958008 120.05493164 C22.98331125 120.05997231 21.14704646 120.06680477 19.31079102 120.07543945 C16.67723599 120.08751672 14.04373384 120.09323081 11.41015625 120.09765625 C10.17109276 120.10539818 10.17109276 120.10539818 8.90699768 120.11329651 C6.93763632 120.11349205 4.96838386 120.06204152 3 120 C0.99708562 117.99708562 1.60575602 114.07045688 1.46484375 111.31640625 C1.42186661 110.54570297 1.37888947 109.77499969 1.33460999 108.98094177 C1.19785257 106.50834583 1.0676805 104.03545006 0.9375 101.5625 C0.84611983 99.89776353 0.75432827 98.23304959 0.66210938 96.56835938 C0 84.50124627 0 84.50124627 0 82 C-12.54 81.67 -25.08 81.34 -38 81 C-39.58662647 77.82674706 -39.12088252 74.41216453 -39.09765625 70.9296875 C-39.09664917 70.22400635 -39.09564209 69.5183252 -39.09460449 68.79125977 C-39.08936828 66.15249001 -39.07540702 63.51374339 -39.0625 60.875 C-39.041875 54.97625 -39.02125 49.0775 -39 43 C-25.8 42.67 -12.6 42.34 1 42 C1.0309375 32.4403125 1.0309375 32.4403125 1.0625 22.6875 C1.071604 20.67873779 1.08070801 18.66997559 1.09008789 16.6003418 C1.09300849 15.00830146 1.09555671 13.41626038 1.09765625 11.82421875 C1.10277222 10.99748657 1.10788818 10.17075439 1.11315918 9.31896973 C1.11367235 5.95820403 1.07036749 3.21110248 0 0 Z " fill="#E10C0C" transform="translate(146,225)"/>
<path d="M0 0 C15.23763332 -0.02254755 30.47525916 -0.04097948 45.71290493 -0.05181217 C52.78753187 -0.056975 59.86214774 -0.06401744 66.93676758 -0.07543945 C73.75778878 -0.08644681 80.57879844 -0.09227618 87.39982796 -0.09487724 C90.00866948 -0.09673205 92.61751033 -0.1003537 95.22634697 -0.10573006 C98.86632552 -0.11293643 102.50625575 -0.11399111 106.14624023 -0.11352539 C107.23668137 -0.11712067 108.3271225 -0.12071594 109.4506073 -0.12442017 C110.43643799 -0.1230455 111.42226868 -0.12167084 112.43797302 -0.12025452 C113.73078768 -0.12163721 113.73078768 -0.12163721 115.04971981 -0.12304783 C117 0 117 0 118 1 C118.08861992 3.8116338 118.11522355 6.59858255 118.09765625 9.41015625 C118.0962413 10.25219101 118.09482635 11.09422577 118.09336853 11.96177673 C118.08775263 14.66205335 118.07519748 17.36224828 118.0625 20.0625 C118.05748705 21.88867068 118.05292379 23.71484266 118.04882812 25.54101562 C118.03777804 30.02737542 118.02050279 34.51367384 118 39 C117.67 39 117.34 39 117 39 C115.88985622 31.86336142 115.85103657 24.83799301 115.875 17.625 C115.87113281 16.43777344 115.86726563 15.25054687 115.86328125 14.02734375 C115.86457031 12.89683594 115.86585938 11.76632813 115.8671875 10.6015625 C115.86831543 9.57369629 115.86944336 8.54583008 115.87060547 7.48681641 C116 5 116 5 117 3 C115.92576782 3.00222061 114.85153564 3.00444122 113.74475098 3.00672913 C103.50979242 3.02719876 93.27483814 3.04208499 83.03986359 3.05181217 C77.78079867 3.05698145 72.52175056 3.06396763 67.26269531 3.07543945 C22.54145256 3.17053406 22.54145256 3.17053406 3 2 C3 2.66 3 3.32 3 4 C2.34 4 1.68 4 1 4 C1.13894957 8.08359816 1.28734938 12.16679956 1.4375 16.25 C1.47681641 17.40886719 1.51613281 18.56773438 1.55664062 19.76171875 C1.59853516 20.87675781 1.64042969 21.99179688 1.68359375 23.140625 C1.72025146 24.16704102 1.75690918 25.19345703 1.79467773 26.25097656 C1.91321448 28.94017966 1.91321448 28.94017966 2.58227539 31.24121094 C3 33 3 33 2 35 C1.34 35 0.68 35 0 35 C0 23.45 0 11.9 0 0 Z " fill="#E30B0C" transform="translate(107,67)"/>
<path d="M0 0 C0.33 0 0.66 0 1 0 C1.02332869 16.93262204 1.04097903 33.86523908 1.05181217 50.7978735 C1.05697519 58.65944391 1.06401801 66.52100435 1.07543945 74.38256836 C1.0853861 81.23225475 1.09185338 88.08193392 1.09408849 94.93162733 C1.09539563 98.56069396 1.09848169 102.18973994 1.10573006 105.81879997 C1.11374356 109.86350304 1.11399115 113.90816989 1.11352539 117.95288086 C1.11712067 119.16488159 1.12071594 120.37688232 1.12442017 121.62561035 C1.1230455 122.72082504 1.12167084 123.81603973 1.12025452 124.94444275 C1.12117631 125.90218566 1.1220981 126.85992857 1.12304783 127.84669399 C1 130 1 130 0 131 C-2.8843382 131.08865208 -5.74462158 131.11521296 -8.62890625 131.09765625 C-9.92525246 131.09553383 -9.92525246 131.09553383 -11.24778748 131.09336853 C-14.01939292 131.08775239 -16.7909188 131.07519719 -19.5625 131.0625 C-21.4368478 131.05748708 -23.31119685 131.05292381 -25.18554688 131.04882812 C-29.79039544 131.03777772 -34.39518421 131.0205023 -39 131 C-37 129 -37 129 -33.46826172 128.77294922 C-31.95536669 128.77326637 -30.44244912 128.78459367 -28.9296875 128.8046875 C-28.13345978 128.8075174 -27.33723206 128.81034729 -26.51687622 128.81326294 C-23.96943237 128.8244736 -21.42233789 128.84957938 -18.875 128.875 C-17.14974465 128.88502867 -15.42448381 128.89415472 -13.69921875 128.90234375 C-9.46601086 128.92441578 -5.2330647 128.95895133 -1 129 C-1.00092179 128.38377274 -1.00184359 127.76754547 -1.00279331 127.13264465 C-1.02490774 112.11682365 -1.0414404 97.10100767 -1.05181217 82.08517456 C-1.0569616 74.8235414 -1.06397845 67.56191914 -1.07543945 60.30029297 C-1.0854277 53.96876041 -1.09186327 47.63723575 -1.09408849 41.30569553 C-1.09538858 37.95529797 -1.09895975 34.60494079 -1.10573006 31.25454712 C-1.11299871 27.50822618 -1.11398847 23.76195186 -1.11352539 20.015625 C-1.11712067 18.91294785 -1.12071594 17.81027069 -1.12442017 16.67417908 C-1.11686539 11.01847679 -0.84859763 5.59360418 0 0 Z " fill="#E20909" transform="translate(426,136)"/>
<path d="M0 0 C0.33 0 0.66 0 1 0 C1.02505615 0.69150146 1.0501123 1.38300293 1.07592773 2.09545898 C1.19152161 5.20967866 1.31441242 8.32356789 1.4375 11.4375 C1.47681641 12.52611328 1.51613281 13.61472656 1.55664062 14.73632812 C1.59853516 15.77080078 1.64042969 16.80527344 1.68359375 17.87109375 C1.73858032 19.30859985 1.73858032 19.30859985 1.79467773 20.77514648 C1.75834424 22.97138925 1.75834424 22.97138925 3 24 C5.40250532 24.12489698 7.77772785 24.1860079 10.18188477 24.20532227 C10.93305573 24.21522186 11.68422668 24.22512146 12.4581604 24.23532104 C14.95254312 24.26702546 17.44694491 24.29172859 19.94140625 24.31640625 C21.66634123 24.33696807 23.39127108 24.35796433 25.11619568 24.37937927 C29.66506814 24.43467971 34.21398667 24.48405369 38.76293945 24.53222656 C43.40124633 24.58238354 48.03948598 24.63809983 52.67773438 24.69335938 C61.78509888 24.80103839 70.89252165 24.90246157 80 25 C81.71376612 28.42753224 81.1414536 32.35796744 81.1328125 36.12890625 C81.13376923 37.03374252 81.13472595 37.9385788 81.13571167 38.87083435 C81.13639273 40.78490264 81.13454361 42.69897324 81.13037109 44.61303711 C81.12501561 47.55392604 81.13032178 50.49466267 81.13671875 53.43554688 C81.13605808 55.29166701 81.13477714 57.14778704 81.1328125 59.00390625 C81.13483673 59.88929581 81.13686096 60.77468536 81.13894653 61.68690491 C81.11495408 67.88504592 81.11495408 67.88504592 80 69 C77.18859849 69.0886126 74.40120576 69.11529584 71.58984375 69.09765625 C70.84383911 69.09664917 70.09783447 69.09564209 69.32922363 69.09460449 C66.53196687 69.08935689 63.73473196 69.07539573 60.9375 69.0625 C54.688125 69.041875 48.43875 69.02125 42 69 C42 81.54 42 94.08 42 107 C41.67 107 41.34 107 41 107 C41 94.13 41 81.26 41 68 C53.54 67.67 66.08 67.34 79 67 C79 54.13 79 41.26 79 28 C52.93 27.67 26.86 27.34 0 27 C0 18.09 0 9.18 0 0 Z " fill="#BC1D1A" transform="translate(106,79)"/>
<path d="M0 0 C1.12462646 0.00410889 2.24925293 0.00821777 3.40795898 0.01245117 C6.74370397 0.03278441 10.07907929 0.06243971 13.41467285 0.09893799 C15.10826545 0.11734567 16.80187066 0.13461057 18.4954834 0.15106201 C24.4500948 0.20982546 30.40400876 0.28884156 36.35806274 0.38946533 C38.37034016 0.42150414 40.38270159 0.44863977 42.39511108 0.47088623 C45.24432403 0.5040463 48.09258365 0.5562768 50.94140625 0.61328125 C52.24118912 0.62288124 52.24118912 0.62288124 53.56723022 0.63267517 C55.97485352 0.69262695 55.97485352 0.69262695 59.8125 1.125 C62.42923884 5.05010826 62.13641557 8.43446301 62.1484375 12.9921875 C62.1584227 14.29979538 62.1584227 14.29979538 62.16860962 15.63381958 C62.1787339 17.47802623 62.18342671 19.3222695 62.18310547 21.16650391 C62.18747319 23.98271375 62.22377881 26.7973493 62.26171875 29.61328125 C62.26758812 31.40624465 62.27155671 33.19921548 62.2734375 34.9921875 C62.28780853 35.83192108 62.30217957 36.67165466 62.31698608 37.53683472 C62.28459587 41.69937467 62.14150876 43.62701297 59.78369141 47.19580078 C59.13319824 47.83243652 58.48270508 48.46907227 57.8125 49.125 C56.3275 48.63 56.3275 48.63 54.8125 48.125 C52.55236416 48.02951399 50.28949478 47.99426464 48.02734375 47.9921875 C47.37045059 47.99123077 46.71355743 47.99027405 46.03675842 47.98928833 C44.65072534 47.98860887 43.26468905 47.99044686 41.87866211 47.99462891 C39.75432217 47.99998909 37.63019283 47.9946717 35.50585938 47.98828125 C34.1588537 47.98894191 32.81184815 47.99022281 31.46484375 47.9921875 C29.62394165 47.99387939 29.62394165 47.99387939 27.74584961 47.99560547 C24.87788723 47.92257184 24.87788723 47.92257184 22.8125 49.125 C22.78356068 52.74998334 22.76572208 56.37493713 22.75 60 C22.73743164 61.54880859 22.73743164 61.54880859 22.72460938 63.12890625 C22.72138672 64.11503906 22.71816406 65.10117188 22.71484375 66.1171875 C22.70960693 67.02839355 22.70437012 67.93959961 22.69897461 68.87841797 C22.66364435 71.16187509 22.66364435 71.16187509 23.8125 73.125 C23.4825 73.785 23.1525 74.445 22.8125 75.125 C22.58782169 76.66168865 22.40453195 78.20468054 22.25 79.75 C22.16621094 80.56726563 22.08242187 81.38453125 21.99609375 82.2265625 C21.90521484 83.16628906 21.90521484 83.16628906 21.8125 84.125 C21.4825 84.125 21.1525 84.125 20.8125 84.125 C20.8125 71.585 20.8125 59.045 20.8125 46.125 C33.3525 45.795 45.8925 45.465 58.8125 45.125 C58.8125 30.935 58.8125 16.745 58.8125 2.125 C33.4025 2.125 7.9925 2.125 -18.1875 2.125 C-18.1875 1.795 -18.1875 1.465 -18.1875 1.125 C-12.10044513 0.05530835 -6.171707 -0.02775598 0 0 Z " fill="#DC0C0A" transform="translate(127.1875,101.875)"/>
<path d="M0 0 C0.66 0 1.32 0 2 0 C2 13.2 2 26.4 2 40 C-11.2 40 -24.4 40 -38 40 C-38 53.2 -38 66.4 -38 80 C-50.87 80 -63.74 80 -77 80 C-72.78683237 77.89341618 -69.93519357 77.73778458 -65.390625 77.8046875 C-64.66381531 77.8075174 -63.93700562 77.81034729 -63.18817139 77.81326294 C-60.87527749 77.82442477 -58.56277612 77.84952149 -56.25 77.875 C-54.67839102 77.88503499 -53.10677596 77.89415994 -51.53515625 77.90234375 C-47.68995378 77.92435096 -43.84504336 77.95885285 -40 78 C-40.01571045 76.85934082 -40.0314209 75.71868164 -40.04760742 74.54345703 C-40.10181524 70.3205468 -40.13631653 66.09766744 -40.16479492 61.87451172 C-40.17990251 60.04503207 -40.20038968 58.21558875 -40.22631836 56.38623047 C-40.26261585 53.76000008 -40.27970615 51.13424751 -40.29296875 48.5078125 C-40.30845261 47.68693146 -40.32393646 46.86605042 -40.33988953 46.02029419 C-40.34057617 43.71533203 -40.34057617 43.71533203 -40 40 C-36.16369295 37.44246196 -33.05514719 37.7466836 -28.61328125 37.8046875 C-27.88894897 37.80670166 -27.1646167 37.80871582 -26.41833496 37.81079102 C-23.71632542 37.82124366 -21.01440626 37.84916631 -18.3125 37.875 C-12.269375 37.91625 -6.22625 37.9575 0 38 C0 25.46 0 12.92 0 0 Z " fill="#E50B0C" transform="translate(385,267)"/>
<path d="M0 0 C0.66 0 1.32 0 2 0 C2 25.74 2 51.48 2 78 C1.67 78 1.34 78 1 78 C1 65.13 1 52.26 1 39 C-25.07 39 -51.14 39 -78 39 C-78 38.67 -78 38.34 -78 38 C-77.01233643 37.98018066 -76.02467285 37.96036133 -75.00708008 37.93994141 C-50.63714338 37.43829891 -26.33072999 36.46921082 -2 35 C-0.50016915 32.0003383 -0.76097945 28.88053039 -0.68359375 25.5859375 C-0.6524221 24.49147812 -0.6524221 24.49147812 -0.62062073 23.37490845 C-0.55518083 21.04170237 -0.49626632 18.70838279 -0.4375 16.375 C-0.39430947 14.79425905 -0.35069501 13.21352961 -0.30664062 11.6328125 C-0.19950519 7.75532496 -0.09822218 3.87772315 0 0 Z " fill="#581111" transform="translate(305,389)"/>
<path d="M0 0 C1.06922447 0.01078583 1.06922447 0.01078583 2.16004944 0.02178955 C2.91136642 0.0214975 3.66268341 0.02120544 4.43676758 0.02090454 C6.9258622 0.02230046 9.41465931 0.03787376 11.90370178 0.05352783 C13.62720069 0.05725704 15.35070171 0.06010444 17.07420349 0.06210327 C21.61494275 0.06974704 26.15555448 0.08940185 30.69624329 0.11151123 C36.14191553 0.13554658 41.58763037 0.14474711 47.03334045 0.15641785 C55.31052882 0.17582587 63.58743724 0.21414316 71.86463928 0.24884033 C71.86463928 12.45884033 71.86463928 24.66884033 71.86463928 37.24884033 C71.53463928 37.24884033 71.20463928 37.24884033 70.86463928 37.24884033 C70.53463928 26.02884033 70.20463928 14.80884033 69.86463928 3.24884033 C57.72326793 2.98349013 57.72326793 2.98349013 45.58143616 2.74688721 C40.62799784 2.65674244 35.67478262 2.56325824 30.72181702 2.44976807 C26.72791569 2.35846457 22.73398324 2.28223867 18.73958397 2.21639061 C17.21688317 2.18865222 15.69427073 2.15551261 14.17180824 2.11684608 C12.03660643 2.06354697 9.90189536 2.0295902 7.76625061 2.00006104 C6.55157608 1.97563431 5.33690155 1.95120758 4.0854187 1.92604065 C0.55723687 2.27964946 -1.20457187 3.34906583 -4.13536072 5.24884033 C-4.79536072 4.91884033 -5.45536072 4.58884033 -6.13536072 4.24884033 C-6.11965027 5.29862061 -6.10393982 6.34840088 -6.0877533 7.42999268 C-6.03353453 11.31744746 -5.99904032 15.2048687 -5.9705658 19.09259033 C-5.95546068 20.77656673 -5.93497526 22.46050368 -5.90904236 24.14434814 C-5.87273351 26.56209026 -5.85565225 28.97931325 -5.84239197 31.39727783 C-5.82690811 32.15253754 -5.81142426 32.90779724 -5.79547119 33.6859436 C-5.79478455 35.80889893 -5.79478455 35.80889893 -6.13536072 39.24884033 C-7.12536072 39.90884033 -8.11536072 40.56884033 -9.13536072 41.24884033 C-8.80536072 40.25884033 -8.47536072 39.26884033 -8.13536072 38.24884033 C-8.00538393 35.54309291 -7.92617148 32.85828034 -7.88926697 30.15118408 C-7.85634678 28.52943352 -7.82313485 26.90768886 -7.78965759 25.28594971 C-7.74212461 22.72926654 -7.69765077 20.17261037 -7.65855408 17.61578369 C-7.61895658 15.14817213 -7.56740431 12.6810359 -7.51426697 10.21368408 C-7.50585281 9.44596176 -7.49743866 8.67823944 -7.48876953 7.88725281 C-7.34101499 1.57547384 -6.4333903 0.02718481 0 0 Z " fill="#E30B0C" transform="translate(315.13536071777344,66.75115966796875)"/>
<path d="M0 0 C1.29997925 0.00303635 1.29997925 0.00303635 2.6262207 0.00613403 C3.51027588 0.00517731 4.39433105 0.00422058 5.30517578 0.00323486 C7.178142 0.00255302 9.05111056 0.0044076 10.92407227 0.00857544 C13.80140458 0.01392364 16.67858078 0.0086306 19.5559082 0.00222778 C21.37101272 0.00288856 23.18611713 0.00416972 25.0012207 0.00613403 C25.86787354 0.0041098 26.73452637 0.00208557 27.62744141 0 C33.69877061 0.02399644 33.69877061 0.02399644 34.8137207 1.13894653 C34.91482423 4.08430224 34.9534135 7.00572213 34.9465332 9.95144653 C34.94748993 10.83550171 34.94844666 11.71955688 34.94943237 12.63040161 C34.95011422 14.50336783 34.94825963 16.37633639 34.9440918 18.2492981 C34.9387436 21.12663041 34.94403664 24.00380661 34.95043945 26.88113403 C34.94977867 28.69623855 34.94849751 30.51134296 34.9465332 32.32644653 C34.94855743 33.19309937 34.95058167 34.0597522 34.95266724 34.95266724 C34.9286708 41.02399644 34.9286708 41.02399644 33.8137207 42.13894653 C30.868365 42.24005006 27.94694511 42.27863933 25.0012207 42.27175903 C23.67513794 42.27319412 23.67513794 42.27319412 22.32226562 42.2746582 C20.44929941 42.27534005 18.57633084 42.27348546 16.70336914 42.26931763 C13.82603683 42.26396943 10.94886062 42.26926247 8.0715332 42.27566528 C6.25642869 42.2750045 4.44132427 42.27372334 2.6262207 42.27175903 C1.75956787 42.27378326 0.89291504 42.2758075 0 42.27789307 C-6.0713292 42.25389663 -6.0713292 42.25389663 -7.1862793 41.13894653 C-7.28738283 38.19359083 -7.32597209 35.27217094 -7.3190918 32.32644653 C-7.32004852 31.44239136 -7.32100525 30.55833618 -7.32199097 29.64749146 C-7.32267281 27.77452524 -7.32081823 25.90155667 -7.31665039 24.02859497 C-7.31130219 21.15126266 -7.31659523 18.27408645 -7.32299805 15.39675903 C-7.32233727 13.58165452 -7.32105611 11.7665501 -7.3190918 9.95144653 C-7.32111603 9.0847937 -7.32314026 8.21814087 -7.32522583 7.32522583 C-7.29689626 0.15757319 -7.16765264 0.02832957 0 0 Z M-6.1862793 2.13894653 C-6.1862793 15.00894653 -6.1862793 27.87894653 -6.1862793 41.13894653 C6.6837207 41.13894653 19.5537207 41.13894653 32.8137207 41.13894653 C32.8137207 28.26894653 32.8137207 15.39894653 32.8137207 2.13894653 C19.9437207 2.13894653 7.0737207 2.13894653 -6.1862793 2.13894653 Z " fill="#C05855" transform="translate(112.186279296875,224.86105346679688)"/>
<path d="M0 0 C0.33 0 0.66 0 1 0 C2.01319308 13.75047753 2.04952869 27.46193758 1.98873901 41.23977661 C1.92493368 56.95914169 2.23811427 72.65273316 2.73242188 88.36401367 C2.75715073 89.20583191 2.78187958 90.04765015 2.80735779 90.91497803 C2.85400195 92.49580613 2.90495121 94.07651486 2.96083069 95.65704346 C3.01244422 97.4373288 3.01193498 99.21900662 3 101 C2.505 101.495 2.505 101.495 2 102 C1.87778475 103.44184293 1.82227242 104.88943144 1.79467773 106.33618164 C1.77473251 107.2570607 1.75478729 108.17793976 1.73423767 109.12672424 C1.71752518 110.12775681 1.70081268 111.12878937 1.68359375 112.16015625 C1.66281265 113.17975937 1.64203156 114.19936249 1.62062073 115.24986267 C1.55501148 118.52067048 1.49618766 121.79156137 1.4375 125.0625 C1.39432558 127.27409728 1.35071166 129.48568603 1.30664062 131.69726562 C1.1993186 137.13142151 1.09757377 142.56566082 1 148 C0.67 148 0.34 148 0 148 C0 99.16 0 50.32 0 0 Z " fill="#A00300" transform="translate(428,108)"/>
<path d="M0 0 C13.2 0 26.4 0 40 0 C40 13.2 40 26.4 40 40 C34.39 40 28.78 40 23 40 C23 39.67 23 39.34 23 39 C27.62 39 32.24 39 37 39 C37 26.79 37 14.58 37 2 C24.79 2 12.58 2 0 2 C0 1.34 0 0.68 0 0 Z " fill="#390404" transform="translate(106,307)"/>
<path d="M0 0 C12.87 0 25.74 0 39 0 C39 13.2 39 26.4 39 40 C26.13 40 13.26 40 0 40 C0 39.67 0 39.34 0 39 C12.21 39 24.42 39 37 39 C37 26.79 37 14.58 37 2 C24.79 2 12.58 2 0 2 C0 1.34 0 0.68 0 0 Z " fill="#250404" transform="translate(66,267)"/>
<path d="M0 0 C13.2 0 26.4 0 40 0 C40 0.66 40 1.32 40 2 C36.27573819 3.2414206 32.91648103 3.01823389 29.05078125 2.87890625 C28.27816452 2.85529526 27.50554779 2.83168427 26.70951843 2.80735779 C24.2436536 2.73083079 21.77811154 2.64675953 19.3125 2.5625 C17.63998971 2.50926832 15.96746371 2.45652799 14.29492188 2.40429688 C10.19641048 2.27523053 6.09817248 2.13939792 2 2 C2.14047235 6.29185941 2.28836362 10.58343361 2.4375 14.875 C2.47681641 16.07898438 2.51613281 17.28296875 2.55664062 18.5234375 C2.79903523 25.38506942 3.19747447 32.18000999 4 39 C1.525 39.495 1.525 39.495 -1 40 C-0.67 26.8 -0.34 13.6 0 0 Z " fill="#250102" transform="translate(387,307)"/>
<path d="M0 0 C13.2 0 26.4 0 40 0 C39.67 0.66 39.34 1.32 39 2 C32.4761506 3.05223377 25.96850332 3.09816077 19.375 3.125 C18.17641357 3.13200928 18.17641357 3.13200928 16.95361328 3.13916016 C16.17228027 3.13706543 15.39094727 3.1349707 14.5859375 3.1328125 C13.8954834 3.13168457 13.2050293 3.13055664 12.49365234 3.12939453 C8.9802945 2.94708793 5.49091749 2.43636469 2 2 C2 14.21 2 26.42 2 39 C1.34 39 0.68 39 0 39 C0 26.13 0 13.26 0 0 Z " fill="#A60101" transform="translate(307,347)"/>
<path d="M0 0 C12.87 0 25.74 0 39 0 C32.86562469 4.08958354 25.01205318 3.1535102 17.875 3.125 C16.41126953 3.13080078 16.41126953 3.13080078 14.91796875 3.13671875 C13.50064453 3.13478516 13.50064453 3.13478516 12.0546875 3.1328125 C11.20374512 3.13168457 10.35280273 3.13055664 9.47607422 3.12939453 C7 3 7 3 2 2 C2 13.88 2 25.76 2 38 C1.01 38.495 1.01 38.495 0 39 C0 26.13 0 13.26 0 0 Z " fill="#A30201" transform="translate(387,267)"/>
<path d="M0 0 C27.06 0 54.12 0 82 0 C82 0.33 82 0.66 82 1 C81.02503067 1.01030746 80.05006134 1.02061493 79.04554749 1.03123474 C69.87763686 1.12879945 60.70979667 1.23151702 51.54200077 1.33933926 C46.82823641 1.39461048 42.1144659 1.44803705 37.40063477 1.49731445 C32.85539096 1.54489624 28.31022504 1.59723654 23.76507378 1.65294075 C22.02707281 1.67339243 20.28905046 1.69210076 18.55101204 1.70907402 C16.12515623 1.73305604 13.69944899 1.7631186 11.27368164 1.79467773 C10.18503815 1.80331093 10.18503815 1.80331093 9.07440186 1.81211853 C5.75258984 1.5763987 5.75258984 1.5763987 3 3 C2.83996512 5.66426685 2.74057111 8.30560428 2.68359375 10.97265625 C2.66281265 11.77029892 2.64203156 12.56794159 2.62062073 13.38975525 C2.55503842 15.94724611 2.49620033 18.5048428 2.4375 21.0625 C2.39432301 22.79232882 2.35070899 24.52214679 2.30664062 26.25195312 C2.19934828 30.5011926 2.09810574 34.7505389 2 39 C1.01 39.495 1.01 39.495 0 40 C0 26.8 0 13.6 0 0 Z " fill="#B71919" transform="translate(306,66)"/>
<path d="M0 0 C13.2 0 26.4 0 40 0 C40 13.2 40 26.4 40 40 C39.01 39.505 39.01 39.505 38 39 C38 26.79 38 14.58 38 2 C32.286875 2.144375 26.57375 2.28875 20.6875 2.4375 C17.98759888 2.50215454 17.98759888 2.50215454 15.2331543 2.56811523 C13.80516602 2.60624439 12.37718679 2.64471406 10.94921875 2.68359375 C10.20885376 2.70006958 9.46848877 2.71654541 8.70568848 2.73352051 C5.56286954 2.82282641 3.00237738 2.99920754 0 4 C0 2.68 0 1.36 0 0 Z " fill="#3F0103" transform="translate(186,387)"/>
<path d="M0 0 C0.33 0 0.66 0 1 0 C1.02467917 5.23274388 1.04285003 10.46545403 1.05493164 15.69824219 C1.05996711 17.47917267 1.06679581 19.260099 1.07543945 21.04101562 C1.08753942 23.59766665 1.09323609 26.15426312 1.09765625 28.7109375 C1.10281754 29.50994476 1.10797882 30.30895203 1.11329651 31.13217163 C1.11387171 36.77225659 1.11387171 36.77225659 0 39 C-13.2 39 -26.4 39 -40 39 C-39.67 38.34 -39.34 37.68 -39 37 C-37.95021973 36.97494385 -36.90043945 36.9498877 -35.81884766 36.92407227 C-31.93118676 36.83003733 -28.04370619 36.7298072 -24.15625 36.62768555 C-22.47237358 36.58432183 -20.78845277 36.5426478 -19.10449219 36.50268555 C-16.68671276 36.44501766 -14.26915705 36.3813135 -11.8515625 36.31640625 C-11.0963028 36.29969376 -10.34104309 36.28298126 -9.56289673 36.26576233 C-5.65260201 36.22444893 -5.65260201 36.22444893 -2 35 C-1.96241577 33.46291382 -1.96241577 33.46291382 -1.92407227 31.89477539 C-1.83015516 28.10590324 -1.72989683 24.31722119 -1.62768555 20.52856445 C-1.58427703 18.88635697 -1.54260642 17.24410261 -1.50268555 15.60180664 C-1.4451256 13.24611255 -1.38139108 10.89065572 -1.31640625 8.53515625 C-1.29133751 7.42733543 -1.29133751 7.42733543 -1.26576233 6.2971344 C-1.11387171 1.11387171 -1.11387171 1.11387171 0 0 Z " fill="#5E0B0C" transform="translate(427,268)"/>
<path d="M0 0 C0.33 0 0.66 0 1 0 C1.02464849 5.39346988 1.04283531 10.78690725 1.05493164 16.18041992 C1.05997231 18.01668875 1.06680477 19.85295354 1.07543945 21.68920898 C1.08751672 24.32276401 1.09323081 26.95626616 1.09765625 29.58984375 C1.10281754 30.41588608 1.10797882 31.24192841 1.11329651 32.09300232 C1.11349205 34.06236368 1.06204152 36.03161614 1 38 C0 39 0 39 -3.69360352 39.11352539 C-5.33871292 39.11336624 -6.98382731 39.10766988 -8.62890625 39.09765625 C-9.92525246 39.09553383 -9.92525246 39.09553383 -11.24778748 39.09336853 C-14.01939292 39.08775239 -16.7909188 39.07519719 -19.5625 39.0625 C-21.4368478 39.05748708 -23.31119685 39.05292381 -25.18554688 39.04882812 C-29.79039544 39.03777772 -34.39518421 39.0205023 -39 39 C-36.05807216 36.05807216 -32.87809027 36.64462603 -28.9296875 36.5859375 C-28.13345978 36.56657135 -27.33723206 36.5472052 -26.51687622 36.5272522 C-23.96969366 36.46739526 -21.42246605 36.42104721 -18.875 36.375 C-17.1497197 36.33682579 -15.42445857 36.29777439 -13.69921875 36.2578125 C-9.46630124 36.16168891 -5.23329451 36.07768092 -1 36 C-1.00523682 34.94498291 -1.01047363 33.88996582 -1.01586914 32.80297852 C-1.03391901 28.9024337 -1.04543195 25.0018926 -1.05493164 21.10131836 C-1.0599719 19.41055684 -1.06680405 17.71979971 -1.07543945 16.02905273 C-1.08751857 13.60399293 -1.09323123 11.17899056 -1.09765625 8.75390625 C-1.10281754 7.99348526 -1.10797882 7.23306427 -1.11329651 6.44960022 C-1.11349238 4.6326743 -1.06197277 2.81586873 -1 1 C-0.67 0.67 -0.34 0.34 0 0 Z " fill="#690B0D" transform="translate(346,348)"/>
<path d="M0 0 C0.33 0 0.66 0 1 0 C1 13.53 1 27.06 1 41 C-2.22603545 42.61301773 -5.74710038 42.12053599 -9.2890625 42.09765625 C-10.51669815 42.09553383 -10.51669815 42.09553383 -11.76913452 42.09336853 C-14.38779325 42.0877629 -17.00636704 42.07520948 -19.625 42.0625 C-21.39843627 42.05748572 -23.17187387 42.05292269 -24.9453125 42.04882812 C-29.29690782 42.03779164 -33.6484395 42.02052325 -38 42 C-35.18502269 39.18502269 -32.46309174 39.66629457 -28.69140625 39.62109375 C-27.96888168 39.60409927 -27.24635712 39.5871048 -26.50193787 39.56959534 C-24.18888121 39.51639705 -21.87584185 39.47615574 -19.5625 39.4375 C-17.25282285 39.39353132 -14.94328294 39.34675814 -12.6337738 39.29469299 C-11.19594094 39.26281988 -9.7579878 39.23590375 -8.31996155 39.21446228 C-5.28603054 39.15188268 -2.90130648 38.96710216 0 38 C0 25.46 0 12.92 0 0 Z " fill="#610C0D" transform="translate(466,225)"/>
<path d="M0 0 C0.33 0 0.66 0 1 0 C1.02468084 5.09032841 1.04285082 10.18062215 1.05493164 15.27099609 C1.05996682 17.00342414 1.06679532 18.73584792 1.07543945 20.46826172 C1.08754065 22.95541433 1.09323638 25.44251087 1.09765625 27.9296875 C1.10281754 28.70682098 1.10797882 29.48395447 1.11329651 30.28463745 C1.11387171 35.77225659 1.11387171 35.77225659 0 38 C-12.54 38 -25.08 38 -38 38 C-37.67 37.34 -37.34 36.68 -37 36 C-25.45 36 -13.9 36 -2 36 C-0.81998451 32.45995354 -0.77087654 29.1772744 -0.68359375 25.48828125 C-0.66281265 24.76005661 -0.64203156 24.03183197 -0.62062073 23.28153992 C-0.55531254 20.95862125 -0.49632763 18.63559094 -0.4375 16.3125 C-0.39429695 14.73631665 -0.35068208 13.16014452 -0.30664062 11.58398438 C-0.1996504 7.72277025 -0.09833039 3.86144397 0 0 Z " fill="#690E0E" transform="translate(386,309)"/>
<path d="M0 0 C12.54 0 25.08 0 38 0 C38 0.33 38 0.66 38 1 C26.12 1.66 14.24 2.32 2 3 C1.67 14.88 1.34 26.76 1 39 C0.67 39 0.34 39 0 39 C0 26.13 0 13.26 0 0 Z " fill="#AD0102" transform="translate(267,387)"/>
<path d="M0 0 C0.33 0 0.66 0 1 0 C1 12.54 1 25.08 1 38 C-1.9460086 39.4730043 -4.58608412 39.12989305 -7.87109375 39.1328125 C-8.54922623 39.13376923 -9.2273587 39.13472595 -9.92604065 39.13571167 C-11.36093234 39.1363924 -12.79582711 39.13454554 -14.23071289 39.13037109 C-16.42536359 39.12502954 -18.61980887 39.13031534 -20.81445312 39.13671875 C-22.20833378 39.13605779 -23.60221432 39.13477625 -24.99609375 39.1328125 C-26.26638428 39.13168457 -27.5366748 39.13055664 -28.84545898 39.12939453 C-32 39 -32 39 -35 38 C-35 36.35 -35 34.7 -35 33 C-34.34 34.32 -33.68 35.64 -33 37 C-30.525 36.505 -30.525 36.505 -28 36 C-28 36.66 -28 37.32 -28 38 C-24.60387586 37.8604947 -21.20818542 37.71227678 -17.8125 37.5625 C-16.85279297 37.52318359 -15.89308594 37.48386719 -14.90429688 37.44335938 C-13.97294922 37.40146484 -13.04160156 37.35957031 -12.08203125 37.31640625 C-11.22843018 37.27974854 -10.3748291 37.24309082 -9.49536133 37.20532227 C-6.93545406 36.99468906 -4.50666757 36.55158464 -2 36 C-0.82874626 32.2486535 -0.77940135 28.50368388 -0.68359375 24.609375 C-0.66281265 23.90476135 -0.64203156 23.20014771 -0.62062073 22.47418213 C-0.55546163 20.23288319 -0.49639752 17.99147136 -0.4375 15.75 C-0.39428274 14.22655103 -0.35066743 12.70311329 -0.30664062 11.1796875 C-0.19981509 7.45324409 -0.09845361 3.72667506 0 0 Z " fill="#D71010" transform="translate(103,227)"/>
<path d="M0 0 C5.39346988 -0.02464849 10.78690725 -0.04283531 16.18041992 -0.05493164 C18.01668875 -0.05997231 19.85295354 -0.06680477 21.68920898 -0.07543945 C24.32276401 -0.08751672 26.95626616 -0.09323081 29.58984375 -0.09765625 C30.41588608 -0.10281754 31.24192841 -0.10797882 32.09300232 -0.11329651 C34.06236368 -0.11349205 36.03161614 -0.06204152 38 0 C40.35955511 2.35955511 39.18542405 8.26752826 39.1875 11.4375 C39.19974609 12.41783203 39.21199219 13.39816406 39.22460938 14.40820312 C39.22654297 15.34470703 39.22847656 16.28121094 39.23046875 17.24609375 C39.23457764 18.10904053 39.23868652 18.9719873 39.24291992 19.86108398 C39 22 39 22 37 24 C37.00523682 23.39937744 37.01047363 22.79875488 37.01586914 22.17993164 C37.03658014 19.47413162 37.04964125 16.76834823 37.0625 14.0625 C37.07506836 12.64420898 37.07506836 12.64420898 37.08789062 11.19726562 C37.09111328 10.29814453 37.09433594 9.39902344 37.09765625 8.47265625 C37.10289307 7.64000244 37.10812988 6.80734863 37.11352539 5.94946289 C37.21643292 3.99483202 37.21643292 3.99483202 36 3 C27.77371855 1.77029813 19.65187842 1.96340383 11.35546875 2.12695312 C10.32292969 2.13791016 9.29039062 2.14886719 8.2265625 2.16015625 C6.82784912 2.18541382 6.82784912 2.18541382 5.40087891 2.21118164 C3 2 3 2 0 0 Z " fill="#E40609" transform="translate(388,107)"/>
<path d="M0 0 C0.33 0 0.66 0 1 0 C1.33 11.55 1.66 23.1 2 35 C5.16461615 36.58230808 8.59079367 36.24157813 12.0703125 36.31640625 C12.86654022 36.33718735 13.66276794 36.35796844 14.48312378 36.37937927 C17.03032685 36.44484149 19.57763425 36.50374415 22.125 36.5625 C23.85027127 36.6056884 25.57553193 36.64930279 27.30078125 36.69335938 C31.53374685 36.80051945 35.76681753 36.90179623 40 37 C40 37.33 40 37.66 40 38 C26.8 38 13.6 38 0 38 C0 25.46 0 12.92 0 0 Z " fill="#AB1A1C" transform="translate(226,389)"/>
<path d="M0 0 C0.33 0 0.66 0 1 0 C1.02505615 1.08531006 1.0501123 2.17062012 1.07592773 3.28881836 C1.16983755 7.301316 1.27009767 11.31363382 1.37231445 15.32592773 C1.41572573 17.06514288 1.45739612 18.80440235 1.49731445 20.54370117 C1.55486768 23.03838488 1.6186042 25.5328441 1.68359375 28.02734375 C1.70030624 28.80963852 1.71701874 29.59193329 1.73423767 30.39793396 C1.50648731 33.99871781 1.50648731 33.99871781 3 37 C5.66426685 37.16003488 8.30560428 37.25942889 10.97265625 37.31640625 C11.77029892 37.33718735 12.56794159 37.35796844 13.38975525 37.37937927 C15.94724611 37.44496158 18.5048428 37.50379967 21.0625 37.5625 C22.79232882 37.60567699 24.52214679 37.64929101 26.25195312 37.69335938 C30.5011926 37.80065172 34.7505389 37.90189426 39 38 C39 38.33 39 38.66 39 39 C26.13 39 13.26 39 0 39 C0 26.13 0 13.26 0 0 Z " fill="#AE1E20" transform="translate(186,348)"/>
<path d="M0 0 C1.134375 0.020625 2.26875 0.04125 3.4375 0.0625 C1.7875 1.3825 0.1375 2.7025 -1.5625 4.0625 C-2.2225 3.7325 -2.8825 3.4025 -3.5625 3.0625 C-3.54678955 4.11228027 -3.5310791 5.16206055 -3.51489258 6.24365234 C-3.46067381 10.13110712 -3.4261796 14.01852837 -3.39770508 17.90625 C-3.38259997 19.5902264 -3.36211454 21.27416335 -3.33618164 22.95800781 C-3.29987279 25.37574993 -3.28279153 27.79297292 -3.26953125 30.2109375 C-3.25404739 30.9661972 -3.23856354 31.72145691 -3.22261047 32.49960327 C-3.22192383 34.62255859 -3.22192383 34.62255859 -3.5625 38.0625 C-4.5525 38.7225 -5.5425 39.3825 -6.5625 40.0625 C-6.2325 39.0725 -5.9025 38.0825 -5.5625 37.0625 C-5.42065846 34.34521096 -5.3292606 31.64873297 -5.28125 28.9296875 C-5.26284058 28.1372464 -5.24443115 27.3448053 -5.22546387 26.52835083 C-5.14676422 23.13703923 -5.07884086 19.74553282 -5.01025391 16.35400391 C-4.9586644 13.87912763 -4.90138058 11.40442925 -4.84375 8.9296875 C-4.83017456 8.15680389 -4.81659912 7.38392029 -4.8026123 6.58761597 C-4.64963518 0.08157255 -4.64963518 0.08157255 0 0 Z " fill="#EB080A" transform="translate(312.5625,67.9375)"/>
<path d="M0 0 C11.22 0.33 22.44 0.66 34 1 C34 1.66 34 2.32 34 3 C32.741875 3.185625 31.48375 3.37125 30.1875 3.5625 C29.12595703 3.71912109 29.12595703 3.71912109 28.04296875 3.87890625 C26 4 26 4 23 3 C21.22833025 2.85164052 19.45232388 2.75229982 17.67578125 2.68359375 C16.64775391 2.64169922 15.61972656 2.59980469 14.56054688 2.55664062 C12.95276367 2.49766602 12.95276367 2.49766602 11.3125 2.4375 C10.22904297 2.39431641 9.14558594 2.35113281 8.02929688 2.30664062 C5.35299209 2.20053162 2.67659474 2.09847639 0 2 C0 1.34 0 0.68 0 0 Z " fill="#6F050B" transform="translate(428,106)"/>
<path d="M0 0 C0.495 0.99 0.495 0.99 1 2 C-0.04454346 2.01458252 -1.08908691 2.02916504 -2.1652832 2.04418945 C-6.04014345 2.10215551 -9.91442151 2.17938774 -13.78881836 2.26245117 C-15.46580559 2.29570863 -17.14290497 2.32373808 -18.82006836 2.34643555 C-21.23079225 2.37996737 -23.64048762 2.43227978 -26.05078125 2.48828125 C-26.80087967 2.49467117 -27.55097809 2.5010611 -28.32380676 2.50764465 C-32.45600986 2.59888472 -32.45600986 2.59888472 -35.99682617 4.53198242 C-36.49339722 5.25865112 -36.49339722 5.25865112 -37 6 C-37 4.35 -37 2.7 -37 1 C-24.79 0.67 -12.58 0.34 0 0 Z " fill="#110000" transform="translate(466,267)"/>
<path d="M0 0 C0.33 0 0.66 0 1 0 C1 9.9 1 19.8 1 30 C0.01 30 -0.98 30 -2 30 C-1.84152588 29.46536133 -1.68305176 28.93072266 -1.51977539 28.37988281 C-0.89799663 25.53295968 -0.7835446 22.83472843 -0.68359375 19.921875 C-0.64169922 18.76171875 -0.59980469 17.6015625 -0.55664062 16.40625 C-0.51732422 15.1996875 -0.47800781 13.993125 -0.4375 12.75 C-0.39431641 11.52796875 -0.35113281 10.3059375 -0.30664062 9.046875 C-0.20062645 6.0313608 -0.09856064 3.01576552 0 0 Z " fill="#FEF4EC" transform="translate(144,155)"/>
<path d="M0 0 C-0.33 3.3 -0.66 6.6 -1 10 C-1.33 10 -1.66 10 -2 10 C-2 7.36 -2 4.72 -2 2 C-6.29 1.67 -10.58 1.34 -15 1 C-15 0.67 -15 0.34 -15 0 C-9.76528314 -0.75612577 -5.22745859 -1.2063366 0 0 Z " fill="#EE0908" transform="translate(150,304)"/>
<path d="M0 0 C2.62527189 -0.05382106 5.24944713 -0.09358313 7.875 -0.125 C8.62136719 -0.14175781 9.36773437 -0.15851563 10.13671875 -0.17578125 C12.09194461 -0.1933959 14.04742021 -0.10320189 16 0 C16.66 0.66 17.32 1.32 18 2 C13.32155746 2.84211966 9.64345765 3.00944732 5 2 C4.05125 1.814375 3.1025 1.62875 2.125 1.4375 C1.42375 1.293125 0.7225 1.14875 0 1 C0 0.67 0 0.34 0 0 Z " fill="#710608" transform="translate(406,67)"/>
</svg>
